<?xml version="1.0" encoding="UTF-8"?><svg id="art" xmlns="http://www.w3.org/2000/svg" xmlns:xlink="http://www.w3.org/1999/xlink" viewBox="147 127 792 853"><defs><style>.cls-1{fill:#0f0f11;}.cls-2{fill:url(#linear-gradient-2);}.cls-3{fill:#d20260;}.cls-4{stroke:#0f0f11;stroke-width:8px;}.cls-4,.cls-5{fill:none;stroke-linecap:round;stroke-linejoin:round;}.cls-6{fill:#e90464;}.cls-7{fill:url(#linear-gradient-4);}.cls-5{stroke:#eadbe7;stroke-width:68.81px;}.cls-8{fill:url(#radial-gradient);}.cls-9{fill:url(#linear-gradient-3);}.cls-10{fill:url(#linear-gradient-5);}.cls-11{fill:#940054;}.cls-12{fill:url(#linear-gradient-8);}.cls-13{fill:url(#linear-gradient-7);}.cls-14{fill:#c8005d;}.cls-15{fill:url(#linear-gradient-6);}.cls-16{fill:url(#linear-gradient);}.cls-17{fill:#aa0060;}</style><linearGradient id="linear-gradient" x1="642.26" y1="968.05" x2="642.26" y2="798.26" gradientUnits="userSpaceOnUse"><stop offset="0" stop-color="#eadbe7"/><stop offset=".36" stop-color="#e8d9e5"/><stop offset=".49" stop-color="#e4d2e1"/><stop offset=".58" stop-color="#dcc6da"/><stop offset=".61" stop-color="#d8c0d6"/></linearGradient><linearGradient id="linear-gradient-2" x1="461.81" y1="968.05" x2="461.81" y2="798.26" xlink:href="#linear-gradient"/><linearGradient id="linear-gradient-3" x1="343.73" y1="349.43" x2="631.58" y2="847.99" gradientUnits="userSpaceOnUse"><stop offset="0" stop-color="#f637e3"/><stop offset="0" stop-color="#f535de"/><stop offset=".08" stop-color="#f228bd"/><stop offset=".15" stop-color="#ef1ca1"/><stop offset=".23" stop-color="#ec138a"/><stop offset=".33" stop-color="#eb0c79"/><stop offset=".45" stop-color="#e9076d"/><stop offset=".6" stop-color="#e90465"/><stop offset=".99" stop-color="#e90464"/></linearGradient><linearGradient id="linear-gradient-4" x1="714.38" y1="234.45" x2="714.38" y2="893.67" gradientUnits="userSpaceOnUse"><stop offset="0" stop-color="#e90464"/><stop offset=".29" stop-color="#e00362"/><stop offset=".75" stop-color="#c90160"/><stop offset="1" stop-color="#ba005e"/></linearGradient><radialGradient id="radial-gradient" cx="551.14" cy="674.25" fx="551.14" fy="674.25" r="223.41" gradientUnits="userSpaceOnUse"><stop offset="0" stop-color="#eadbe7"/><stop offset=".52" stop-color="#e8d8e5"/><stop offset=".76" stop-color="#e3d1e0"/><stop offset=".96" stop-color="#dac4d8"/><stop offset="1" stop-color="#d8c0d6"/></radialGradient><linearGradient id="linear-gradient-5" x1="730.36" y1="137.73" x2="730.36" y2="285.6" gradientUnits="userSpaceOnUse"><stop offset="0" stop-color="#f637e3"/><stop offset=".26" stop-color="#c73ae3"/><stop offset=".6" stop-color="#8d3fe3"/><stop offset=".86" stop-color="#6942e3"/><stop offset="1" stop-color="#5c44e4"/></linearGradient><linearGradient id="linear-gradient-6" x1="870.42" y1="294.27" x2="870.42" y2="373.59" xlink:href="#linear-gradient-5"/><linearGradient id="linear-gradient-7" x1="355.82" y1="137.73" x2="355.82" y2="285.6" xlink:href="#linear-gradient-5"/><linearGradient id="linear-gradient-8" x1="215.77" y1="294.27" x2="215.77" y2="373.59" xlink:href="#linear-gradient-5"/></defs><path class="cls-5" d="M283.42,761.88s-91.34-36.44-3.59-107.68"/><path class="cls-5" d="M816.63,761.88s91.34-36.44,3.59-107.68"/><path class="cls-16" d="M596.55,955.52c0,6.92,5.61,12.53,12.53,12.53h39s26.49-45.51,39.88-146.52h0c-20.22-27.68-60.19-31.24-84.98-7.57h0c-4.11,3.92-6.43,9.35-6.43,15.03v126.52Z"/><path class="cls-6" d="M647.09,913.39h2.7c22.1,0,40.04,17.94,40.04,40.04v1.57c0,7.78-6.32,14.1-14.1,14.1h-62.09c-3.64,0-6.59-2.95-6.59-6.59v-9.08c0-22.1,17.94-40.04,40.04-40.04Z"/><path class="cls-2" d="M507.51,955.52c0,6.92-5.61,12.53-12.53,12.53h-39s-26.49-45.51-39.88-146.52h0c20.22-27.68,60.19-31.24,84.98-7.57h0c4.11,3.92,6.43,9.35,6.43,15.03v126.52Z"/><path class="cls-6" d="M420.82,913.39h62.09c7.78,0,14.1,6.32,14.1,14.1v1.57c0,22.1-17.94,40.04-40.04,40.04h-2.7c-22.1,0-40.04-17.94-40.04-40.04v-9.08c0-3.64,2.95-6.59,6.59-6.59Z" transform="translate(911.25 1882.48) rotate(-180)"/><path class="cls-9" d="M549.78,234.45c-5.35.02-10.69,1.68-15.22,4.96l-294.69,212.02c-14.39,10.42-20.6,28.7-15.52,45.64l83.86,260.14c4.47,14.16,14.56,25.91,27.94,32.54l195.35,99.14c6.61,3.22,13.78,4.81,20.95,4.78l-2.67-659.22Z"/><path class="cls-7" d="M552.45,893.67c7.17-.03,14.33-1.68,20.91-4.95l194.54-100.72c13.32-6.74,23.31-18.57,27.67-32.76l81.75-260.81c4.95-16.98-1.42-35.21-15.89-45.51l-296.4-209.62c-4.56-3.25-9.91-4.86-15.26-4.84l2.67,659.22Z"/><path class="cls-11" d="M373.7,753.59c5.89-2.91,14.97-7.33,24.07-11.75-5.39-2.86-9.47-7.75-11.27-13.65l-45.49-149.23c-6.31-20.71,13.27-39.75,33.6-33.29l-19.92-7.24c-23.2-8.43-46.07,13.26-38.87,36.88l50.94,167.11c1.32,4.32,3.75,8.14,6.94,11.18Z"/><path class="cls-17" d="M397.77,741.84c-9.1,4.42-18.18,8.85-24.07,11.75,2.29,2.17,4.95,3.96,7.94,5.19l170.55,70.33-.1-23.5-152.3-62.8c-.7-.29-1.36-.62-2.02-.97Z"/><path class="cls-8" d="M726.35,544.61l-175.04,65.23-175.57-63.81c-20.72-7.53-41.14,11.84-34.71,32.93l45.49,149.23c2.02,6.62,6.89,11.98,13.29,14.62l152.3,62.8,151.79-64.04c6.37-2.69,11.21-8.09,13.17-14.72l44.28-149.59c6.26-21.14-14.32-40.35-34.98-32.65Z"/><path class="cls-11" d="M730.06,752.15c-5.91-2.86-15.03-7.21-24.17-11.56,5.37-2.91,9.4-7.83,11.15-13.74l44.28-149.59c6.14-20.76-13.59-39.64-33.87-33.02l19.86-7.4c23.14-8.62,46.18,12.88,39.17,36.56l-49.58,167.52c-1.28,4.33-3.68,8.17-6.85,11.23Z"/><path class="cls-17" d="M705.9,740.59c9.14,4.35,18.25,8.7,24.17,11.56-2.27,2.19-4.92,4-7.9,5.26l-169.98,71.71-.1-23.5,151.79-64.04c.69-.29,1.36-.63,2.01-.99Z"/><rect class="cls-14" x="611.98" y="610.24" width="42.54" height="26.4" rx="13.2" ry="13.2" transform="translate(-145.09 194.63) rotate(-15.7)"/><rect class="cls-14" x="448.18" y="609.57" width="42.54" height="26.4" rx="13.2" ry="13.2" transform="translate(746.96 1351.63) rotate(-163.83)"/><path class="cls-6" d="M839.85,790.96s6.6-4.04,16.45-10.61c.05-.04,23.68-16.79,20.92-41.88-.82-7.48-4.83-14.32-10.96-18.69-20.56-14.66-46.71-2.21-46.77-2.18,0,0,0,0,0,0-8.68-2.18-30.29-6.21-37.26,5.6-2.48,4.2-.95,8.6,2.53,12.74-1.19.7-2.36,1.4-3.49,2.1-41.83,25.91-4.49,89.57,38.54,65.7,6.24-3.46,12.91-7.68,20.04-12.78Z"/><path class="cls-3" d="M260.2,790.96s-6.6-4.04-16.45-10.61c-.05-.04-23.68-16.79-20.92-41.88.82-7.48,4.83-14.32,10.96-18.69,20.56-14.66,46.71-2.21,46.77-2.18,0,0,0,0,0,0,8.68-2.18,30.29-6.21,37.26,5.6,2.48,4.2.95,8.6-2.53,12.74,1.19.7,2.36,1.4,3.49,2.1,41.83,25.91,4.49,89.57-38.54,65.7-6.24-3.46-12.91-7.68-20.04-12.78Z"/><path class="cls-1" d="M614.46,671.73c-1.21.41-2.1,1.44-2.34,2.7-.52,2.74-.79,5.66-.78,8.68.07,16.15,8.22,29.21,18.22,29.17s18.05-13.17,17.99-29.32c-.03-6.79-1.49-13.03-3.91-17.99-.78-1.6-2.64-2.35-4.32-1.77l-24.86,8.53Z"/><path class="cls-1" d="M488.76,671.73c1.21.41,2.1,1.44,2.34,2.7.52,2.74.79,5.66.78,8.68-.07,16.15-8.22,29.21-18.22,29.17s-18.05-13.17-17.99-29.32c.03-6.79,1.49-13.03,3.91-17.99.78-1.6,2.64-2.35,4.32-1.77l24.86,8.53Z"/><path class="cls-4" d="M551,715.94s18.1-.55,25.41,8.45"/><path class="cls-4" d="M551,715.94s-18.1.03-25.12,9.27"/><path class="cls-10" d="M726.61,139.14l-35.37,71.36c-.75,1.51.16,3.31,1.82,3.62l20.37,3.7c1.67.3,2.57,2.12,1.81,3.64l-30.63,60.46c-1.22,2.41,1.69,4.81,3.82,3.14l87.01-68.09c1.64-1.28,1.12-3.89-.89-4.44l-28.17-7.71c-1.56-.43-2.33-2.2-1.57-3.63l26.3-49.52c.77-1.45-.02-3.23-1.61-3.64l-39.99-10.21c-1.16-.3-2.36.26-2.89,1.33Z"/><path class="cls-15" d="M812.67,371.2l42.93-70.36c.49-.8,1.57-.99,2.31-.41l17.51,14.01c.44.36,1.05.44,1.57.22l49.23-20.27c1.49-.61,2.82,1.15,1.82,2.41l-56.14,71.45c-.66.83-1.93.79-2.53-.09l-12.04-17.92c-.46-.68-1.37-.89-2.08-.48l-40.47,23.61c-1.4.82-2.97-.78-2.12-2.16Z"/><path class="cls-13" d="M359.58,139.14l35.37,71.36c.75,1.51-.16,3.31-1.82,3.62l-20.37,3.7c-1.67.3-2.57,2.12-1.81,3.64l30.63,60.46c1.22,2.41-1.69,4.81-3.82,3.14l-87.01-68.09c-1.64-1.28-1.12-3.89.89-4.44l28.17-7.71c1.56-.43,2.33-2.2,1.57-3.63l-26.3-49.52c-.77-1.45.02-3.23,1.61-3.64l39.99-10.21c1.16-.3,2.36.26,2.89,1.33Z"/><path class="cls-12" d="M273.51,371.2l-42.93-70.36c-.49-.8-1.57-.99-2.31-.41l-17.51,14.01c-.44.36-1.05.44-1.57.22l-49.23-20.27c-1.49-.61-2.82,1.15-1.82,2.41l56.14,71.45c.66.83,1.93.79,2.53-.09l12.04-17.92c.46-.68,1.37-.89,2.08-.48l40.47,23.61c1.4.82,2.97-.78,2.12-2.16Z"/></svg>