<?xml version="1.0" encoding="UTF-8"?><svg id="art" xmlns="http://www.w3.org/2000/svg" xmlns:xlink="http://www.w3.org/1999/xlink" viewBox="91 173 906 756"><defs><style>.cls-1{fill:#0f0f11;}.cls-2{fill:url(#linear-gradient-2);}.cls-3{stroke:#3d2ecc;stroke-miterlimit:10;stroke-width:20.78px;}.cls-3,.cls-4{fill:none;}.cls-5{fill:url(#linear-gradient-5);opacity:.5;}.cls-6{fill:#e90464;}.cls-7{fill:url(#linear-gradient-4);}.cls-4{stroke:#eadbe7;stroke-linecap:round;stroke-linejoin:round;stroke-width:68.81px;}.cls-8{fill:url(#radial-gradient);}.cls-9{fill:#eadbe7;}.cls-10{fill:url(#linear-gradient-3);}.cls-11{fill:#940054;}.cls-12{fill:#c8005d;}.cls-13{fill:url(#linear-gradient-6);}.cls-14{fill:url(#linear-gradient);}.cls-15{fill:#aa0060;}</style><linearGradient id="linear-gradient" x1="387.06" y1="917.02" x2="387.06" y2="747.23" gradientUnits="userSpaceOnUse"><stop offset="0" stop-color="#eadbe7"/><stop offset=".36" stop-color="#e8d9e5"/><stop offset=".49" stop-color="#e4d2e1"/><stop offset=".58" stop-color="#dcc6da"/><stop offset=".61" stop-color="#d8c0d6"/></linearGradient><linearGradient id="linear-gradient-2" x1="580.27" y1="918.07" x2="580.27" y2="749.04" xlink:href="#linear-gradient"/><linearGradient id="linear-gradient-3" x1="672.52" y1="270.32" x2="389.17" y2="888.12" gradientUnits="userSpaceOnUse"><stop offset="0" stop-color="#f637e3"/><stop offset="0" stop-color="#f535de"/><stop offset=".08" stop-color="#f228bd"/><stop offset=".15" stop-color="#ef1ca1"/><stop offset=".23" stop-color="#ec138a"/><stop offset=".33" stop-color="#eb0c79"/><stop offset=".45" stop-color="#e9076d"/><stop offset=".6" stop-color="#e90465"/><stop offset=".99" stop-color="#e90464"/></linearGradient><linearGradient id="linear-gradient-4" x1="319.9" y1="183.72" x2="319.9" y2="842.08" gradientUnits="userSpaceOnUse"><stop offset="0" stop-color="#e90464"/><stop offset=".29" stop-color="#e00362"/><stop offset=".75" stop-color="#c90160"/><stop offset="1" stop-color="#ba005e"/></linearGradient><radialGradient id="radial-gradient" cx="477.52" cy="618.37" fx="477.52" fy="618.37" r="234.35" gradientUnits="userSpaceOnUse"><stop offset="0" stop-color="#eadbe7"/><stop offset=".52" stop-color="#e8d8e5"/><stop offset=".76" stop-color="#e3d1e0"/><stop offset=".96" stop-color="#dac4d8"/><stop offset="1" stop-color="#d8c0d6"/></radialGradient><linearGradient id="linear-gradient-5" x1="924.35" y1="378.55" x2="924.35" y2="495.64" gradientUnits="userSpaceOnUse"><stop offset="0" stop-color="#fff" stop-opacity="0"/><stop offset=".19" stop-color="#fff" stop-opacity=".01"/><stop offset=".32" stop-color="#fff" stop-opacity=".05"/><stop offset=".44" stop-color="#fff" stop-opacity=".11"/><stop offset=".55" stop-color="#fff" stop-opacity=".19"/><stop offset=".65" stop-color="#fff" stop-opacity=".31"/><stop offset=".74" stop-color="#fff" stop-opacity=".44"/><stop offset=".83" stop-color="#fff" stop-opacity=".61"/><stop offset=".92" stop-color="#fff" stop-opacity=".79"/><stop offset="1" stop-color="#fff"/></linearGradient><linearGradient id="linear-gradient-6" x1="924.35" y1="495.64" x2="924.35" y2="612.42" gradientUnits="userSpaceOnUse"><stop offset="0" stop-color="#8514f5"/><stop offset=".29" stop-color="#7d1df1"/><stop offset=".78" stop-color="#6736e8"/><stop offset="1" stop-color="#5c44e4"/></linearGradient></defs><path class="cls-4" d="M232.54,619.19c-17.17,36.82-42.87,69.63-74.51,95.12"/><path class="cls-6" d="M130.01,691.95s5.53-5.41,14.31-13.35c.05-.04,22.07-18.85,45.73-10.04,7.06,2.63,12.71,8.19,15.44,15.2,9.18,23.51-9.29,45.81-9.33,45.86,0,0,0,0,0,0,0,8.95-1.39,30.88-14.54,34.75-4.68,1.37-8.57-1.18-11.74-5.57-.97.98-1.93,1.94-2.89,2.87-35.36,34.21-87.95-17.54-54.28-53.42,4.88-5.2,10.6-10.64,17.29-16.3Z"/><path class="cls-14" d="M432.77,904.49c0,6.92-5.61,12.53-12.53,12.53h-39s-26.49-45.51-39.88-146.52h0c20.22-27.68,60.19-31.24,84.98-7.57h0c4.11,3.92,6.43,9.35,6.43,15.03v126.52Z"/><path class="cls-6" d="M346.08,862.35h62.09c7.78,0,14.1,6.32,14.1,14.1v1.57c0,22.1-17.94,40.04-40.04,40.04h-2.7c-22.1,0-40.04-17.94-40.04-40.04v-9.08c0-3.64,2.95-6.59,6.59-6.59Z" transform="translate(761.76 1780.42) rotate(-180)"/><path class="cls-9" d="M784.65,598.93c.14,8.73,4.08,17.07,10.75,22.71,17.97,15.22,39.95,7.43,40.02,7.41-35.58,14.4-112.39,42.14-123.68,18.29-11.29-23.85,58.86-65.66,92.56-84.05-.06.03-20.02,12.1-19.64,35.64Z"/><path class="cls-6" d="M853.44,621.43s-7.06,3.17-18.03,7.62c-.06.02-27.21,10.11-46.39-6.3-5.72-4.9-9.11-12.06-9.27-19.59-.53-25.24,24.48-39.84,24.54-39.87,0,0,0,0,0,0,3.09-8.41,11.93-28.53,25.61-27.63,4.87.32,7.64,4.06,9.1,9.27,1.25-.59,2.48-1.16,3.7-1.7,44.97-19.97,76.54,46.74,32.58,68.85-6.37,3.21-13.62,6.35-21.84,9.36Z"/><path class="cls-2" d="M524.74,901.65c-1.08,6.84,4.59,15.34,11.43,16.42h40.49s30.29-50.3,59.28-147.99h0c-15.65-30.5-54.58-24.06-82.76-4.54h0c-4.67,3.23-7.81,8.23-8.69,13.84l-19.74,122.27Z"/><path class="cls-6" d="M576.21,862.35h2.7c22.1,0,40.04,17.94,40.04,40.04v1.57c0,7.78-6.32,14.1-14.1,14.1h-62.09c-3.64,0-6.59-2.95-6.59-6.59v-9.08c0-22.1,17.94-40.04,40.04-40.04Z"/><path class="cls-10" d="M459.75,183.72c5.34-.28,10.76,1.06,15.48,4.08l306.29,194.88c14.96,9.58,22.2,27.48,18.09,44.68l-68.9,264.5c-3.66,14.39-13.06,26.7-26.04,34.08l-189.38,110.11c-6.41,3.59-13.49,5.59-20.64,5.97l-34.89-658.3Z"/><path class="cls-7" d="M494.64,842.02c-7.16.38-14.4-.86-21.16-3.75l-199.96-89.48c-13.69-5.97-24.33-17.21-29.49-31.14l-96.48-255.73c-5.91-16.67-.59-35.23,13.27-46.34l283.97-226.17c4.37-3.5,9.62-5.41,14.96-5.7l34.89,658.3Z"/><path class="cls-11" d="M665.12,691.98c-6.04-2.57-15.36-6.47-24.7-10.36,5.22-3.17,9.01-8.28,10.47-14.27l36.91-151.58c5.12-21.04-15.51-38.93-35.44-31.32l19.48-8.36c22.69-9.74,46.75,10.61,40.91,34.6l-41.33,169.74c-1.07,4.39-3.28,8.34-6.29,11.55Z"/><path class="cls-15" d="M640.42,681.62c9.34,3.89,18.66,7.79,24.7,10.36-2.16,2.3-4.72,4.24-7.63,5.64l-166.27,79.93-1.24-23.47,148.48-71.38c.68-.33,1.33-.7,1.96-1.08Z"/><path class="cls-8" d="M301.14,503.43l178.48,55.15,171.65-73.71c20.26-8.7,41.75,9.48,36.53,30.9l-36.91,151.58c-1.64,6.72-6.2,12.35-12.43,15.35l-148.48,71.38-155.19-55.28c-6.52-2.32-11.65-7.44-13.99-13.95l-52.73-146.83c-7.45-20.75,12-41.1,33.06-34.59Z"/><path class="cls-11" d="M309.25,710.84c5.74-3.19,14.59-8.06,23.47-12.92-5.52-2.6-9.84-7.28-11.92-13.08l-52.73-146.83c-7.32-20.38,11.31-40.35,31.93-34.89l-20.25-6.26c-23.59-7.29-45.37,15.49-37.02,38.73l59.04,164.42c1.53,4.25,4.14,7.94,7.48,10.82Z"/><path class="cls-15" d="M332.72,697.93c-8.87,4.86-17.73,9.72-23.47,12.92,2.39,2.06,5.14,3.71,8.18,4.8l173.79,61.91-1.24-23.47-155.19-55.28c-.71-.25-1.39-.55-2.07-.87Z"/><ellipse class="cls-1" cx="405.77" cy="636.12" rx="18.11" ry="29.25" transform="translate(-33.1 22.37) rotate(-3.03)"/><rect class="cls-12" x="377.21" y="561.9" width="42.54" height="26.4" rx="13.2" ry="13.2" transform="translate(962.25 989.46) rotate(161.03)"/><ellipse class="cls-1" cx="561.24" cy="627.88" rx="18.11" ry="29.25" transform="translate(-32.45 30.59) rotate(-3.03)"/><rect class="cls-12" x="540.78" y="553.23" width="42.54" height="26.4" rx="13.2" ry="13.2" transform="translate(140.64 -111.18) rotate(12.9)"/><path class="cls-6" d="M505.76,688.49c-5.18,4.58-11.89,7.51-19.33,7.9-7.44.39-14.42-1.81-20.06-5.82.4-8.93,8.52-16.35,18.86-16.9,10.34-.55,19.19,5.97,20.54,14.81Z"/><path class="cls-11" d="M516.46,663c.53,10.07-3.69,19.29-10.7,25.49-1.35-8.83-10.2-15.36-20.54-14.81-10.34.55-18.45,7.97-18.86,16.9-7.63-5.42-12.8-14.15-13.33-24.22l63.42-3.36Z"/><path class="cls-5" d="M890.37,495.64c8.22-9.35,6.17-22.66,2.09-33.88-4.08-11.22-9.85-22.66-7.8-34.29,1.51-8.54,7.09-16.05,10.97-24.02,3.87-7.96,5.88-17.63.51-24.9h65.05c5.37,7.27,3.36,16.94-.51,24.9-3.87,7.96-9.46,15.47-10.97,24.02-2.06,11.63,3.72,23.07,7.8,34.29,4.08,11.22,6.13,24.53-2.09,33.88h-65.05Z"/><path class="cls-13" d="M986.23,495.64l-18.24,111.02c-.51,2.8-2.94,4.83-5.79,4.83l-75.7.93c-2.84,0-5.28-2.04-5.79-4.83l-18.24-111.94h123.76Z"/><path class="cls-3" d="M880.79,571.69c-10.12,10.12-26.52,10.12-36.63,0-10.12-10.12-10.12-26.52,0-36.63,10.12-10.12,26.52-10.12,36.63,0"/></svg>