<?xml version="1.0" encoding="UTF-8"?><svg id="art" xmlns="http://www.w3.org/2000/svg" xmlns:xlink="http://www.w3.org/1999/xlink" viewBox="192 147 688 796"><defs><style>.cls-1{fill:#ac015f;}.cls-2{fill:url(#linear-gradient-2);}.cls-3{fill:#d20260;}.cls-4{stroke:#0f0f11;stroke-width:8px;}.cls-4,.cls-5{fill:none;stroke-linecap:round;stroke-linejoin:round;}.cls-6{fill:#559cfc;}.cls-7{fill:#e90464;}.cls-8{fill:url(#linear-gradient-4);}.cls-5{stroke:#eadbe7;stroke-width:68.81px;}.cls-9{fill:url(#radial-gradient);}.cls-10{fill:url(#linear-gradient-3);}.cls-11{fill:url(#linear-gradient-5);}.cls-12{fill:#940054;}.cls-13{fill:url(#linear-gradient-7);}.cls-14{fill:#9b005c;}.cls-15{fill:#c8005d;}.cls-16{fill:url(#linear-gradient-6);}.cls-17{fill:url(#linear-gradient);}.cls-18{fill:#aa0060;}</style><linearGradient id="linear-gradient" x1="412.69" y1="931.75" x2="412.69" y2="762.78" gradientUnits="userSpaceOnUse"><stop offset="0" stop-color="#eadbe7"/><stop offset=".36" stop-color="#e8d9e5"/><stop offset=".49" stop-color="#e4d2e1"/><stop offset=".58" stop-color="#dcc6da"/><stop offset=".61" stop-color="#d8c0d6"/></linearGradient><linearGradient id="linear-gradient-2" x1="677.21" y1="185.78" x2="677.21" y2="471.38" gradientUnits="userSpaceOnUse"><stop offset="0" stop-color="#e90464"/><stop offset=".17" stop-color="#e10362"/><stop offset=".58" stop-color="#d50260"/><stop offset="1" stop-color="#d20260"/></linearGradient><linearGradient id="linear-gradient-3" x1="314" y1="305.34" x2="581.34" y2="768.39" gradientUnits="userSpaceOnUse"><stop offset="0" stop-color="#f637e3"/><stop offset="0" stop-color="#f535de"/><stop offset=".08" stop-color="#f228bd"/><stop offset=".15" stop-color="#ef1ca1"/><stop offset=".23" stop-color="#ec138a"/><stop offset=".33" stop-color="#eb0c79"/><stop offset=".45" stop-color="#e9076d"/><stop offset=".6" stop-color="#e90465"/><stop offset=".99" stop-color="#e90464"/></linearGradient><linearGradient id="linear-gradient-4" x1="628.54" y1="185.79" x2="628.54" y2="841.1" gradientUnits="userSpaceOnUse"><stop offset="0" stop-color="#e90464"/><stop offset=".29" stop-color="#e00362"/><stop offset=".75" stop-color="#c90160"/><stop offset="1" stop-color="#ba005e"/></linearGradient><radialGradient id="radial-gradient" cx="492.13" cy="613.6" fx="492.13" fy="613.6" r="237.14" gradientUnits="userSpaceOnUse"><stop offset="0" stop-color="#eadbe7"/><stop offset=".52" stop-color="#e8d8e5"/><stop offset=".76" stop-color="#e3d1e0"/><stop offset=".96" stop-color="#dac4d8"/><stop offset="1" stop-color="#d8c0d6"/></radialGradient><linearGradient id="linear-gradient-5" x1="599" y1="931.75" x2="599" y2="791.89" xlink:href="#linear-gradient"/><linearGradient id="linear-gradient-6" x1="295.19" y1="156.96" x2="295.19" y2="293.84" gradientUnits="userSpaceOnUse"><stop offset="0" stop-color="#f637e3"/><stop offset=".26" stop-color="#c73ae3"/><stop offset=".6" stop-color="#8d3fe3"/><stop offset=".86" stop-color="#6942e3"/><stop offset="1" stop-color="#5c44e4"/></linearGradient><linearGradient id="linear-gradient-7" x1="772.37" y1="156.96" x2="772.37" xlink:href="#linear-gradient-6"/></defs><path class="cls-5" d="M327.29,727.24s-95.76,22.35-64.54-86.27"/><path class="cls-17" d="M458.18,919.28c0,6.89-5.59,12.47-12.47,12.47h-38.81s-26.36-45.29-39.69-145.81h0c20.12-27.55,59.9-31.09,84.58-7.53h0c4.09,3.9,6.4,9.31,6.4,14.96v125.92Z"/><path class="cls-7" d="M371.9,877.35h61.79c7.75,0,14.03,6.29,14.03,14.03v1.56c0,21.99-17.86,39.85-39.85,39.85h-2.69c-21.99,0-39.85-17.86-39.85-39.85v-9.04c0-3.62,2.94-6.56,6.56-6.56Z" transform="translate(813.08 1810.14) rotate(-180)"/><path class="cls-2" d="M857.18,439.84l-254.48-240.9c-3.91-3.73-8.76-5.92-13.79-6.49l-59.09-6.67-15.98,28.6-7.78,21.41-21.69,192.03,385.65,43.55c.26-11.77-4.23-23.33-12.85-31.54Z"/><path class="cls-14" d="M689.9,736.39l-225.61,102.42-.33,2.96,50.97,5.76h0c6.75.76,13.68-.09,20.25-2.61l194.68-78.58c7.04-2.76,13.36-7.05,18.61-12.48l-58.56-17.45Z"/><path class="cls-1" d="M870.02,471.38h0c.04-1.77-.04-3.53-.21-5.27l-384.85-43.46,21.1-186.85-233.85,137.98c-14.74,8.76-22.71,26.23-19.89,43.62l48.7,267.64c2.57,14.56,10.69,27.34,22.5,35.4l142.89,99.56-2.12,18.81,236.75-99.1,47.42,14.13c4.68-4.84,8.51-10.59,11.22-17.01l107.16-250.03c2.03-5,3.07-10.23,3.18-15.42Z"/><path class="cls-10" d="M529.82,185.79c-4.87-.55-9.93.52-14.44,3.3l-293.05,179.06c-14.31,8.81-22.1,26.3-19.43,43.67l46.25,267.36c2.43,14.55,10.26,27.29,21.68,35.31l166.48,119.37c5.65,3.9,12,6.25,18.53,6.99l73.98-655.06Z"/><path class="cls-8" d="M455.84,840.85c6.53.74,13.25-.14,19.63-2.68l188.91-79.24c12.92-5.27,23.39-15.95,29.01-29.58l104.71-250.31c6.48-16.34,2.79-35.13-9.2-46.9l-245.73-239.91c-3.78-3.71-8.47-5.88-13.34-6.44l-73.98,655.06Z"/><path class="cls-12" d="M309.22,682.59c5.7-2.26,14.49-5.68,23.29-9.1-4.58-3.42-7.73-8.71-8.68-14.76l-24.14-153.09c-3.35-21.25,16.7-38.06,34.47-29.47l-17.31-9.32c-20.16-10.86-43.51,8.24-39.69,32.47l27.04,171.43c.7,4.43,2.47,8.48,5.03,11.84Z"/><path class="cls-18" d="M332.52,673.49c-8.8,3.42-17.59,6.84-23.29,9.1,1.83,2.4,4.05,4.46,6.63,6.01l147.23,88.1,2.64-23.35-131.47-78.67c-.6-.36-1.17-.76-1.73-1.18Z"/><path class="cls-9" d="M654.72,512.74l-167.04,46.07-152.55-82.16c-18.01-9.7-38.86,7.36-35.44,28.99l24.14,153.09c1.07,6.79,4.89,12.64,10.41,15.94l131.47,78.67,145.71-47.37c6.12-1.99,11.15-6.84,13.7-13.22l57.68-143.85c8.15-20.33-8.37-41.61-28.08-36.17Z"/><path class="cls-12" d="M634.05,719.28c-5.05-3.47-12.86-8.77-20.68-14.06,5.23-2.31,9.48-6.77,11.75-12.45l57.68-143.85c8-19.96-7.79-40.82-27.03-36.42l18.95-5.23c22.08-6.09,40.58,17.74,31.45,40.5l-64.59,161.09c-1.67,4.16-4.3,7.72-7.54,10.42Z"/><path class="cls-18" d="M613.38,705.21c7.82,5.29,15.62,10.59,20.68,14.06-2.32,1.94-4.95,3.45-7.8,4.38l-163.17,53.05,2.64-23.35,145.71-47.37c.67-.22,1.31-.48,1.95-.76Z"/><path class="cls-15" d="M563.16,590.78l-13.65-6c-6.17-2.71-9.05-10.39-6.44-17.15h0c2.61-6.76,9.73-10.04,15.89-7.33l13.65,6c6.17,2.71,9.05,10.39,6.44,17.15h0c-2.61,6.76-9.73,10.04-15.89,7.33Z"/><path class="cls-4" d="M531.3,639.66c1.18-10.43,10.58-17.93,21.01-16.75s17.93,10.58,16.75,21.01"/><path class="cls-15" d="M406.32,573.07l14.64-2.8c6.62-1.27,11.14-8.11,10.1-15.28h0c-1.04-7.17-7.24-11.96-13.86-10.69l-14.64,2.8c-6.62,1.27-11.14,8.11-10.1,15.28h0c1.04,7.17,7.24,11.96,13.86,10.69Z"/><path class="cls-4" d="M427.15,627.9c1.18-10.43-6.32-19.83-16.75-21.01-10.43-1.18-19.83,6.32-21.01,16.75"/><path class="cls-7" d="M452.35,687c5.61,5.74,13.05,9.57,21.48,10.41s16.47-1.46,23.1-5.99c.06-10.71-8.71-19.99-20.41-21.16-11.7-1.16-22.12,6.22-24.16,16.73Z"/><path class="cls-12" d="M441.69,655.94c-1.19,12.04,3.06,23.29,10.65,31.05,2.04-10.52,12.46-17.89,24.16-16.73,11.7,1.16,20.47,10.44,20.41,21.16,8.97-6.12,15.34-16.32,16.53-28.35l-71.76-7.12Z"/><path class="cls-11" d="M554.37,836.67c13.7,90.52,38.22,95.09,38.22,95.09h38.81c6.89,0,12.47-5.59,12.47-12.47v-118.11c0-2.52-1.69-4.72-4.12-5.38l-5.53-1.49c-24.81-6.66-51.28.72-69.07,19.25l-5.16,5.37c-4.53,4.72-6.6,11.27-5.62,17.73Z"/><path class="cls-7" d="M557.6,877.35h61.79c7.75,0,14.03,6.29,14.03,14.03v1.56c0,21.99-17.86,39.85-39.85,39.85h-2.69c-21.99,0-39.85-17.86-39.85-39.85v-9.04c0-3.62,2.94-6.56,6.56-6.56Z" transform="translate(1184.47 1810.14) rotate(-180)"/><path class="cls-5" d="M689.48,736.99s91.65,35.65,76.07-76.29"/><path class="cls-7" d="M686.63,774.09s7.58,1.54,19.27,3.46c.07,0,28.77,3.88,43.87-16.36,4.5-6.03,6.23-13.77,4.73-21.15-5.04-24.74-32.65-33.47-32.71-33.49,0,0,0,0,0,0-4.86-7.52-17.92-25.21-31.06-21.32-4.68,1.38-6.56,5.64-6.84,11.04-1.35-.3-2.68-.59-3.98-.84-48.26-9.58-64.38,62.44-16.63,74.33,6.92,1.72,14.68,3.19,23.37,4.33Z"/><path class="cls-3" d="M324.87,764.38s-7.72.46-19.56.7c-.07,0-29.03-.22-41.12-22.39-3.61-6.61-4.23-14.51-1.7-21.6,8.48-23.78,37.05-28.52,37.12-28.54,0,0,0,0,0,0,5.87-6.76,21.3-22.42,33.76-16.72,4.44,2.03,5.69,6.51,5.21,11.9,1.38-.11,2.74-.2,4.06-.27,49.13-2.67,54.92,70.9,5.97,75.94-7.1.73-14.98,1.09-23.75.98Z"/><rect class="cls-6" x="560.97" y="644.95" width="25.97" height="15.48" rx="7.74" ry="7.74" transform="translate(137.83 -99.12) rotate(11.21)"/><rect class="cls-6" x="369.56" y="620.16" width="25.97" height="15.48" rx="7.74" ry="7.74" transform="translate(129.36 -62.39) rotate(11.21)"/><path class="cls-16" d="M369.36,185.2c-.45,0-.9,0-1.35,0-9.78,0-19.5,1.06-29.02,3.06l-2.07-25.77c-.27-3.3-3.15-5.76-6.46-5.5-3.3.27-5.77,3.16-5.5,6.46l2.23,27.82c-14.3,4.27-27.98,10.67-40.5,18.86l-12.68-18.6c-1.87-2.74-5.6-3.44-8.34-1.58s-3.44,5.6-1.58,8.34l12.8,18.78c-11.76,9.02-22.24,19.69-30.95,31.63l-22.04-11.73c-2.93-1.56-6.56-.45-8.12,2.48-1.56,2.93-.45,6.56,2.48,8.12l20.98,11.16c-5.22,8.55-9.57,17.64-12.87,27.16-1.09,3.13.57,6.55,3.7,7.64.65.23,1.31.33,1.97.33,2.48,0,4.81-1.56,5.67-4.03,3.1-8.94,7.2-17.46,12.13-25.46l25,13.3c.9.48,1.86.7,2.81.7,2.15,0,4.22-1.16,5.3-3.18,1.56-2.93.45-6.56-2.48-8.12l-23.86-12.7c7.69-10.31,16.83-19.55,27.01-27.44l13.42,19.68c1.16,1.7,3.05,2.62,4.96,2.62,1.16,0,2.34-.34,3.37-1.04,2.74-1.87,3.44-5.6,1.58-8.34l-13.55-19.88c10.79-7.03,22.51-12.61,34.77-16.5l1.91,23.85c.25,3.14,2.88,5.52,5.97,5.52.16,0,.32,0,.49-.02,3.3-.27,5.77-3.16,5.5-6.46l-2.09-26.06c9.58-2.12,19.4-3.19,29.28-3.09,3.29.05,6.03-2.63,6.06-5.94.03-3.31-2.63-6.03-5.94-6.06Z"/><path class="cls-13" d="M851.77,239.43c-1.56-2.93-5.19-4.03-8.12-2.48l-22.04,11.73c-8.71-11.95-19.19-22.62-30.95-31.63l12.8-18.77c1.87-2.74,1.16-6.47-1.58-8.34-2.74-1.87-6.47-1.16-8.34,1.58l-12.68,18.6c-12.52-8.18-26.2-14.59-40.5-18.86l2.23-27.81c.27-3.3-2.2-6.2-5.5-6.46-3.31-.26-6.2,2.2-6.46,5.5l-2.07,25.77c-9.51-2-19.23-3.06-29.02-3.06-.45,0-.9,0-1.35,0-3.31.03-5.97,2.75-5.94,6.06.03,3.29,2.71,5.94,6,5.94.02,0,.04,0,.06,0,.42,0,.83,0,1.24,0,9.46,0,18.86,1.08,28.04,3.11l-2.09,26.05c-.27,3.3,2.2,6.2,5.5,6.46.16.01.33.02.49.02,3.1,0,5.72-2.38,5.97-5.52l1.91-23.84c12.25,3.89,23.97,9.48,34.76,16.51l-13.54,19.86c-1.87,2.74-1.16,6.47,1.58,8.34,1.03.71,2.21,1.04,3.37,1.04,1.92,0,3.8-.92,4.96-2.62l13.41-19.67c10.19,7.89,19.32,17.13,27.01,27.43l-23.85,12.69c-2.93,1.56-4.03,5.19-2.48,8.12,1.08,2.03,3.16,3.18,5.3,3.18.95,0,1.92-.23,2.81-.7l25-13.3c4.93,8,9.03,16.52,12.13,25.46.86,2.48,3.18,4.03,5.67,4.03.65,0,1.32-.11,1.97-.33,3.13-1.09,4.79-4.5,3.7-7.64-3.31-9.53-7.65-18.62-12.87-27.16l20.97-11.16c2.93-1.56,4.03-5.19,2.48-8.12Z"/></svg>