<?xml version="1.0" encoding="UTF-8"?><svg id="art" xmlns="http://www.w3.org/2000/svg" xmlns:xlink="http://www.w3.org/1999/xlink" viewBox="182.11 152.18 717.65 788.41"><defs><style>.cls-1{fill:#0f0f11;}.cls-2{fill:#ac015f;}.cls-3{fill:url(#linear-gradient-2);}.cls-4{fill:#d20260;}.cls-5{fill:none;stroke:#0f0f11;stroke-linecap:round;stroke-linejoin:round;stroke-width:8px;}.cls-6{fill:#559cfc;}.cls-7{fill:#e90464;}.cls-8{fill:url(#linear-gradient-4);}.cls-9{fill:url(#radial-gradient);}.cls-10{fill:#eadbe7;}.cls-11{fill:url(#linear-gradient-3);}.cls-12{fill:url(#linear-gradient-5);}.cls-13{fill:#940054;}.cls-14{fill:#9b005c;}.cls-15{fill:#c8005d;}.cls-16{fill:url(#linear-gradient);}.cls-17{fill:#aa0060;}</style><linearGradient id="linear-gradient" x1="670.31" y1="178.93" x2="670.31" y2="431.69" gradientUnits="userSpaceOnUse"><stop offset="0" stop-color="#e90464"/><stop offset=".17" stop-color="#e10362"/><stop offset=".58" stop-color="#d50260"/><stop offset="1" stop-color="#d20260"/></linearGradient><linearGradient id="linear-gradient-2" x1="658.56" y1="913.23" x2="658.56" y2="770.81" gradientUnits="userSpaceOnUse"><stop offset="0" stop-color="#eadbe7"/><stop offset=".36" stop-color="#e8d9e5"/><stop offset=".49" stop-color="#e4d2e1"/><stop offset=".58" stop-color="#dcc6da"/><stop offset=".61" stop-color="#d8c0d6"/></linearGradient><linearGradient id="linear-gradient-3" x1="444.42" y1="913.23" x2="444.42" y2="743.86" xlink:href="#linear-gradient-2"/><linearGradient id="linear-gradient-4" x1="299.84" y1="287.09" x2="603.34" y2="812.77" gradientUnits="userSpaceOnUse"><stop offset="0" stop-color="#f637e3"/><stop offset="0" stop-color="#f535de"/><stop offset=".08" stop-color="#f228bd"/><stop offset=".15" stop-color="#ef1ca1"/><stop offset=".23" stop-color="#ec138a"/><stop offset=".33" stop-color="#eb0c79"/><stop offset=".45" stop-color="#e9076d"/><stop offset=".6" stop-color="#e90465"/><stop offset=".99" stop-color="#e90464"/></linearGradient><linearGradient id="linear-gradient-5" x1="642.26" y1="186.14" x2="642.26" y2="839.07" gradientUnits="userSpaceOnUse"><stop offset="0" stop-color="#e90464"/><stop offset=".29" stop-color="#e00362"/><stop offset=".75" stop-color="#c90160"/><stop offset="1" stop-color="#ba005e"/></linearGradient><radialGradient id="radial-gradient" cx="518.61" cy="611.82" fx="518.61" fy="611.82" r="246.66" gradientUnits="userSpaceOnUse"><stop offset="0" stop-color="#eadbe7"/><stop offset=".52" stop-color="#e8d8e5"/><stop offset=".76" stop-color="#e3d1e0"/><stop offset=".96" stop-color="#dac4d8"/><stop offset="1" stop-color="#d8c0d6"/></radialGradient></defs><path class="cls-10" d="M292.3,647.88c-7.91-3.64-17.11-3.69-25.06-.13-21.44,9.6-23.92,32.73-23.92,32.8,2.4-38.22,10.58-119.27,36.9-119.14,26.32.13,33.67,81.27,35.68,119.51,0-.06-2.25-23.22-23.59-33.04Z"/><path class="cls-4" d="M242.38,700.06s.19-7.72.93-19.51c0-.07,2.64-28.84,25.68-39.01,6.87-3.03,14.78-2.99,21.62.11,22.93,10.41,25.27,39.21,25.28,39.27,0,0,0,0,0,0,6.23,6.4,20.52,23.04,13.81,34.96-2.39,4.24-6.95,5.12-12.26,4.19,0,1.38-.03,2.74-.07,4.06-1.43,49.07-75.06,48.69-75.99-.39-.13-7.12.17-14.99,1-23.69Z"/><path class="cls-16" d="M854.4,357.05l-302.7-174.85c-4.66-2.71-9.87-3.71-14.89-3.1l-58.88,7.2-8.88,31.45-2.59,22.57,23.41,191.36,384.3-47.01c-2.47-11.48-9.51-21.66-19.77-27.63Z"/><path class="cls-14" d="M760.73,683.53l-195.21,151.61.36,2.95,50.79-6.21h0c6.72-.82,13.25-3.25,19.04-7.22l170.72-121.32c6.19-4.31,11.33-9.93,15.17-16.42l-60.86-3.38Z"/><path class="cls-2" d="M874.17,384.68h0c-.37-1.72-.86-3.41-1.43-5.07l-383.5,46.92-22.78-186.2-194.98,188.03c-12.28,11.91-15.96,30.71-9.2,46.93l109.21,248.43c5.86,13.53,16.7,24.05,30.03,29.14l161.7,63.53,2.29,18.74,206.79-150.97,49.29,2.74c3.42-5.78,5.81-12.25,6.95-19.1l46.1-267.43c.81-5.32.61-10.63-.48-15.7Z"/><path class="cls-3" d="M645.96,785.51l-25.09,21.12c-4.8,4.04-7.17,10.28-6.26,16.49h0c13.73,90.74,36.67,90.11,36.67,90.11h38.9c6.91,0,12.5-5.6,12.5-12.5v-124.12c0-3.2-2.6-5.8-5.8-5.8h-10.62c-12.02,0-23.78,3.46-33.88,9.96h0c-2.24,1.44-4.39,3.03-6.42,4.74Z"/><path class="cls-7" d="M616.21,858.7h61.94c7.76,0,14.07,6.3,14.07,14.07v1.56c0,22.05-17.9,39.94-39.94,39.94h-2.69c-22.05,0-39.94-17.9-39.94-39.94v-9.06c0-3.63,2.95-6.57,6.57-6.57Z" transform="translate(1301.85 1772.98) rotate(-180)"/><path class="cls-11" d="M490.02,900.73c0,6.91-5.6,12.5-12.5,12.5h-38.9s-26.43-45.4-39.79-146.16h0c20.17-27.62,60.04-31.17,84.78-7.55h0c4.1,3.91,6.41,9.33,6.41,14.99v126.22Z"/><path class="cls-7" d="M403.53,858.7h61.94c7.76,0,14.07,6.3,14.07,14.07v1.56c0,22.05-17.9,39.94-39.94,39.94h-2.69c-22.05,0-39.94-17.9-39.94-39.94v-9.06c0-3.63,2.95-6.57,6.57-6.57Z" transform="translate(876.5 1772.98) rotate(-180)"/><path class="cls-8" d="M477.93,186.31c-4.86.59-9.51,2.8-13.25,6.54l-242.91,241.6c-11.85,11.86-15.35,30.64-8.74,46.87l106.77,248.73c5.73,13.55,16.27,24.11,29.21,29.24l189.18,77.29c6.38,2.48,13.09,3.29,19.6,2.49l-79.86-652.77Z"/><path class="cls-12" d="M557.79,839.07c6.51-.8,12.83-3.2,18.42-7.14l164.97-120.62c11.32-8.1,19-20.89,21.3-35.42l43.66-267.13c2.5-17.35-5.42-34.73-19.78-43.38l-293.99-175.91c-4.53-2.73-9.58-3.75-14.44-3.16l79.86,652.77Z"/><path class="cls-13" d="M378.89,719.45c5.01-3.51,12.74-8.87,20.5-14.22-5.24-2.26-9.51-6.66-11.84-12.31l-58.87-142.96c-8.17-19.84,7.39-40.8,26.62-36.58l-18.96-5.04c-22.08-5.87-40.31,18.07-31,40.69l65.92,160.09c1.7,4.14,4.36,7.66,7.62,10.33Z"/><path class="cls-17" d="M399.38,705.23c-7.75,5.35-15.49,10.71-20.5,14.22,2.33,1.91,4.97,3.39,7.82,4.29l163.26,51.4-2.85-23.27-145.79-45.9c-.67-.21-1.31-.47-1.95-.74Z"/><path class="cls-9" d="M674.82,474.65l-151.42,83.37-167.05-44.41c-19.72-5.24-36,16.14-27.68,36.34l58.87,142.96c2.61,6.34,7.67,11.13,13.79,13.06l145.79,45.9,130.42-79.7c5.48-3.35,9.23-9.22,10.24-16l22.67-152.94c3.2-21.61-17.75-38.44-35.62-28.59Z"/><path class="cls-13" d="M702.58,679.85c-5.71-2.2-14.51-5.53-23.32-8.86,4.54-3.45,7.63-8.76,8.52-14.81l22.67-152.94c3.15-21.23-17.01-37.81-34.66-29.08l17.18-9.46c20.01-11.02,43.48,7.82,39.89,32.02l-25.38,171.26c-.66,4.43-2.38,8.48-4.91,11.86Z"/><path class="cls-17" d="M679.26,670.99c8.81,3.33,17.61,6.66,23.32,8.86-1.8,2.42-4,4.49-6.56,6.05l-146.05,89.25-2.85-23.27,130.42-79.7c.6-.36,1.16-.77,1.71-1.19Z"/><path class="cls-1" d="M587.71,610.39c-1.04-.39-2.2.22-2.41,1.32-.76,3.99-.92,8.51-.34,13.23,1.79,14.66,9.99,25.71,18.32,24.69,8.32-1.02,13.62-13.73,11.82-28.38-.33-2.66-.86-5.19-1.57-7.56-.35-1.17-1.55-1.86-2.74-1.6-9.25,1.98-17.2.49-23.08-1.7Z"/><path class="cls-15" d="M606.15,586.06l-14.63-2.66c-6.61-1.2-11.18-7.99-10.22-15.15h0c.97-7.16,7.11-12,13.72-10.79l14.63,2.66c6.61,1.2,11.18,7.99,10.22,15.15h0c-.97,7.16-7.11,12-13.72,10.79Z"/><path class="cls-5" d="M537.2,670.81s17.94-2.46,26.16,5.72"/><path class="cls-15" d="M449.86,605.19l13.56-6.11c6.13-2.76,8.93-10.45,6.26-17.17h0c-2.67-6.72-9.8-9.93-15.92-7.17l-13.56,6.11c-6.13,2.76-8.93,10.45-6.26,17.17h0c2.67,6.72,9.8,9.93,15.92,7.17Z"/><path class="cls-5" d="M537.2,670.81s-18,1.94-24.01,11.86"/><rect class="cls-6" x="603.11" y="639.68" width="25.97" height="15.48" rx="7.74" ry="7.74" transform="translate(-74.06 79.61) rotate(-6.97)"/><path class="cls-1" d="M470.86,624.69c.92-.63,2.19-.31,2.66.7,1.7,3.69,2.94,8.04,3.52,12.76,1.79,14.66-3.5,27.36-11.82,28.38-8.32,1.02-16.52-10.04-18.32-24.69-.33-2.66-.41-5.25-.3-7.72.06-1.22,1.05-2.17,2.27-2.21,9.46-.31,16.81-3.67,21.99-7.22Z"/><rect class="cls-6" x="439.26" y="659.73" width="25.97" height="15.48" rx="7.74" ry="7.74" transform="translate(982.19 1275.08) rotate(173.03)"/><path class="cls-10" d="M789.68,647.88c7.91-3.64,17.11-3.69,25.06-.13,21.44,9.6,23.92,32.73,23.92,32.8-2.4-38.22-10.58-119.27-36.9-119.14-26.32.13-33.67,81.27-35.68,119.51,0-.06,2.25-23.22,23.59-33.04Z"/><path class="cls-7" d="M839.6,700.06s-.19-7.72-.93-19.51c0-.07-2.64-28.84-25.68-39.01-6.87-3.03-14.78-2.99-21.62.11-22.93,10.41-25.27,39.21-25.28,39.27,0,0,0,0,0,0-6.23,6.4-20.52,23.04-13.81,34.96,2.39,4.24,6.95,5.12,12.26,4.19,0,1.38.03,2.74.07,4.06,1.43,49.07,75.06,48.69,75.99-.39.13-7.12-.17-14.99-1-23.69Z"/></svg>