<?xml version="1.0" encoding="UTF-8"?><svg id="art" xmlns="http://www.w3.org/2000/svg" xmlns:xlink="http://www.w3.org/1999/xlink" viewBox="19.89 124.9 1036 851.9"><defs><style>.cls-1{fill:#0f0f11;}.cls-2{fill:#ac015f;}.cls-3{fill:url(#linear-gradient-2);}.cls-4{fill:#3d2ecc;}.cls-5{fill:#d20260;}.cls-6{fill:url(#linear-gradient-10);}.cls-7{fill:#e90464;}.cls-8{fill:url(#linear-gradient-4);}.cls-9{stroke:#eadbe7;stroke-width:68.81px;}.cls-9,.cls-10{fill:none;stroke-linecap:round;stroke-linejoin:round;}.cls-11{fill:url(#radial-gradient);}.cls-12{fill:url(#linear-gradient-3);}.cls-13{fill:url(#linear-gradient-5);}.cls-14{fill:#940054;}.cls-15{fill:url(#linear-gradient-8);}.cls-10{stroke:#0f0f11;stroke-width:6.24px;}.cls-16{fill:url(#linear-gradient-7);}.cls-17{fill:#9b005c;}.cls-18{fill:url(#linear-gradient-9);}.cls-19{fill:#c8005d;}.cls-20{fill:url(#linear-gradient-6);}.cls-21{fill:url(#linear-gradient);}.cls-22{fill:#aa0060;}</style><linearGradient id="linear-gradient" x1="727.41" y1="596.44" x2="869.08" y2="805.48" gradientUnits="userSpaceOnUse"><stop offset="0" stop-color="#5c44e4"/><stop offset=".41" stop-color="#5941e1"/><stop offset=".7" stop-color="#4f3bda"/><stop offset=".96" stop-color="#4030ce"/><stop offset="1" stop-color="#3d2ecc"/></linearGradient><linearGradient id="linear-gradient-2" x1="625.39" y1="183.79" x2="625.39" y2="455.19" gradientUnits="userSpaceOnUse"><stop offset="0" stop-color="#e90464"/><stop offset=".17" stop-color="#e10362"/><stop offset=".58" stop-color="#d50260"/><stop offset="1" stop-color="#d20260"/></linearGradient><linearGradient id="linear-gradient-3" x1="577.08" y1="917.25" x2="577.08" y2="777.39" gradientUnits="userSpaceOnUse"><stop offset="0" stop-color="#eadbe7"/><stop offset=".36" stop-color="#e8d9e5"/><stop offset=".49" stop-color="#e4d2e1"/><stop offset=".58" stop-color="#dcc6da"/><stop offset=".61" stop-color="#d8c0d6"/></linearGradient><linearGradient id="linear-gradient-4" x1="364.3" y1="917.25" x2="364.3" y2="748.28" xlink:href="#linear-gradient-3"/><linearGradient id="linear-gradient-5" x1="259.54" y1="300.27" x2="532.44" y2="772.94" gradientUnits="userSpaceOnUse"><stop offset="0" stop-color="#f637e3"/><stop offset="0" stop-color="#f535de"/><stop offset=".08" stop-color="#f228bd"/><stop offset=".15" stop-color="#ef1ca1"/><stop offset=".23" stop-color="#ec138a"/><stop offset=".33" stop-color="#eb0c79"/><stop offset=".45" stop-color="#e9076d"/><stop offset=".6" stop-color="#e90465"/><stop offset=".99" stop-color="#e90464"/></linearGradient><linearGradient id="linear-gradient-6" x1="584.51" y1="183.79" x2="584.51" y2="838.11" gradientUnits="userSpaceOnUse"><stop offset="0" stop-color="#e90464"/><stop offset=".29" stop-color="#e00362"/><stop offset=".75" stop-color="#c90160"/><stop offset="1" stop-color="#ba005e"/></linearGradient><radialGradient id="radial-gradient" cx="443.93" cy="614.25" fx="443.93" fy="614.25" r="238.36" gradientUnits="userSpaceOnUse"><stop offset="0" stop-color="#eadbe7"/><stop offset=".52" stop-color="#e8d8e5"/><stop offset=".76" stop-color="#e3d1e0"/><stop offset=".96" stop-color="#dac4d8"/><stop offset="1" stop-color="#d8c0d6"/></radialGradient><linearGradient id="linear-gradient-7" x1="124.54" y1="670" x2="124.54" y2="751.85" gradientUnits="userSpaceOnUse"><stop offset="0" stop-color="#ffd473"/><stop offset="1" stop-color="#ffb900"/></linearGradient><linearGradient id="linear-gradient-8" x1="199.13" y1="207.47" x2="199.13" y2="268.78" xlink:href="#linear-gradient-7"/><linearGradient id="linear-gradient-9" x1="770.8" y1="218.94" x2="770.8" y2="300.79" xlink:href="#linear-gradient-7"/><linearGradient id="linear-gradient-10" x1="871.69" y1="645.49" x2="871.69" y2="706.79" xlink:href="#linear-gradient-7"/></defs><path class="cls-21" d="M757.12,462c50.24,76.16,144.24,121.06,235.05,112.29-37.58,54.74-8.43,143.98-60.6,185.05-26.93,21.2-65.53,19.62-95.66,35.97-21.34,11.58-36.85,31.24-54.69,47.7-17.84,16.46-41.02,30.62-64.99,26.83-38.55-6.1-66.99-56.07-104.35-44.79,0,0-123.5-113.14-130.41-295.14l275.65-67.92Z"/><path class="cls-4" d="M843.52,791.62c25.92-11.29,56.49-12.65,80.36-26.99-11.62-8.48-33.19-16.48-40.18-20.85-48.21-30.09-91.07-68.72-125.99-113.54,13.17,60.27,43.28,116.71,85.81,161.38Z"/><path class="cls-4" d="M601.13,691.71c-.99,29.96,2.86,60.08,11.34,88.83,3.54,11.99,7.87,23.72,12.2,35.45.95,2.57,1.9,5.13,2.84,7.7,27.38,3.25,51.02,34.42,79.88,43.99-19.94-27.51-84.89-120.16-106.27-175.96Z"/><path class="cls-9" d="M202.73,720.07s-91.34-36.44-3.59-107.68"/><path class="cls-3" d="M804.02,424.3l-262.02-230.13c-4.03-3.56-8.93-5.56-13.96-5.94l-59.01-4.44-14.83,29.04-6.94,21.58-14.44,191.78,385.15,29c-.17-11.71-5.07-23.05-13.95-30.89Z"/><path class="cls-17" d="M648.66,725.43l-220.57,110.23-.22,2.95,50.9,3.83h0c6.74.51,13.6-.59,20.04-3.35l190.69-85.38c6.9-3.01,13.02-7.51,18.04-13.11l-58.89-15.18Z"/><path class="cls-2" d="M817.96,455.19h0c-.03-1.76-.17-3.51-.41-5.24l-384.35-28.94,14.05-186.61-227.45,145.91c-14.34,9.26-21.61,26.93-18.16,44.12l58.36,264.36c3.09,14.38,11.64,26.79,23.69,34.37l145.8,93.71-1.41,18.78,231.77-107.34,47.69,12.3c4.47-4.99,8.07-10.85,10.53-17.33l97.29-252.64c1.83-5.04,2.67-10.28,2.6-15.45Z"/><path class="cls-12" d="M532.45,822.16c13.7,90.52,38.22,95.09,38.22,95.09h38.81c6.89,0,12.47-5.59,12.47-12.47v-118.11c0-2.52-1.69-4.72-4.12-5.38l-5.53-1.49c-24.81-6.66-51.28.72-69.07,19.25l-5.16,5.37c-4.53,4.72-6.6,11.27-5.62,17.73Z"/><path class="cls-7" d="M535.68,862.85h61.79c7.75,0,14.03,6.29,14.03,14.03v1.56c0,21.99-17.86,39.85-39.85,39.85h-2.69c-21.99,0-39.85-17.86-39.85-39.85v-9.04c0-3.62,2.94-6.56,6.56-6.56Z" transform="translate(1140.63 1781.14) rotate(-180)"/><path class="cls-8" d="M409.79,904.78c0,6.89-5.59,12.47-12.47,12.47h-38.81s-26.36-45.29-39.69-145.81h0c20.12-27.55,59.9-31.09,84.58-7.53h0c4.09,3.9,6.4,9.31,6.4,14.96v125.92Z"/><path class="cls-7" d="M323.51,862.85h61.79c7.75,0,14.03,6.29,14.03,14.03v1.56c0,21.99-17.86,39.85-39.85,39.85h-2.69c-21.99,0-39.85-17.86-39.85-39.85v-9.04c0-3.62,2.94-6.56,6.56-6.56Z" transform="translate(716.3 1781.14) rotate(-180)"/><path class="cls-13" d="M469.02,183.79c-4.87-.37-9.86.89-14.24,3.82l-284.79,188.96c-13.91,9.29-21,26.98-17.7,44.15l55.91,264.18c2.96,14.38,11.22,26.76,22.87,34.31l170,112.54c5.76,3.67,12.17,5.77,18.69,6.26l49.26-654.21Z"/><path class="cls-20" d="M419.76,838c6.53.49,13.17-.63,19.42-3.39l184.93-85.81c12.65-5.72,22.67-16.73,27.75-30.5l94.84-252.82c5.83-16.49,1.47-35.04-10.89-46.3l-253.29-229.47c-3.9-3.55-8.64-5.54-13.51-5.9l-49.26,654.21Z"/><path class="cls-14" d="M268.08,686.05c5.59-2.46,14.2-6.19,22.83-9.91-4.68-3.23-8.01-8.38-9.18-14.36l-29.69-151.35c-4.12-21.01,15.19-38.47,33.19-30.59l-17.56-8.63c-20.46-10.05-42.97,9.81-38.27,33.76l33.25,169.49c.86,4.38,2.77,8.34,5.44,11.59Z"/><path class="cls-22" d="M290.91,676.14c-8.63,3.72-17.24,7.46-22.83,9.91,1.91,2.32,4.2,4.29,6.82,5.73l149.69,82.15,1.76-23.32-133.67-73.36c-.61-.33-1.19-.71-1.76-1.11Z"/><path class="cls-11" d="M605.38,504.31l-164.41,52.02-154.77-76.05c-18.27-8.98-38.37,8.76-34.17,30.15l29.69,151.35c1.32,6.71,5.33,12.39,10.95,15.47l133.67,73.36,143.15-52.52c6.01-2.2,10.83-7.21,13.14-13.65l52.02-145.2c7.35-20.52-9.87-41.07-29.27-34.93Z"/><path class="cls-14" d="M592.49,710.48c-5.16-3.27-13.11-8.24-21.08-13.22,5.11-2.49,9.17-7.08,11.23-12.82l52.02-145.2c7.22-20.15-9.26-40.31-28.23-35.21l18.66-5.9c21.73-6.87,41.01,16.13,32.78,39.11l-58.26,162.6c-1.51,4.2-3.99,7.84-7.11,10.65Z"/><path class="cls-22" d="M571.4,697.26c7.97,4.97,15.93,9.95,21.08,13.22-2.24,2.01-4.79,3.61-7.6,4.64l-160.3,58.81,1.76-23.32,143.15-52.52c.65-.24,1.29-.53,1.91-.83Z"/><ellipse class="cls-1" cx="506.34" cy="634.62" rx="29.11" ry="16.53" transform="translate(-164.5 1091.88) rotate(-85.69)"/><path class="cls-19" d="M511.96,589.13l13.8-5.46c6.23-2.47,9.38-10,7.04-16.82h0c-2.35-6.82-9.3-10.35-15.53-7.88l-13.8,5.46c-6.23,2.47-9.38,10-7.04,16.82h0c2.35,6.82,9.3,10.35,15.53,7.88Z"/><path class="cls-10" d="M431.8,678.17s17.99,1.62,25.8-6.92"/><ellipse class="cls-1" cx="364.62" cy="623.94" rx="29.11" ry="16.53" transform="translate(-284.94 940.68) rotate(-85.69)"/><path class="cls-19" d="M374.1,577.33l-14.46-3.33c-6.53-1.51-10.77-8.48-9.48-15.57h0c1.3-7.09,7.65-11.63,14.18-10.12l14.46,3.33c6.53,1.51,10.77,8.48,9.48,15.57h0c-1.3,7.09-7.65,11.63-14.18,10.12Z"/><path class="cls-10" d="M431.8,678.17s-18.03-1.1-24.48-10.7"/><path class="cls-9" d="M742.58,724.07s91.34-36.44,3.59-107.68"/><path class="cls-7" d="M765.8,753.15s6.6-4.04,16.45-10.61c.05-.04,23.68-16.79,20.92-41.88-.82-7.48-4.83-14.32-10.96-18.69-20.56-14.66-46.71-2.21-46.77-2.18,0,0,0,0,0,0-8.68-2.18-30.29-6.21-37.26,5.6-2.48,4.2-.95,8.6,2.53,12.74-1.19.7-2.36,1.4-3.49,2.1-41.83,25.91-4.49,89.57,38.54,65.7,6.24-3.46,12.91-7.68,20.04-12.78Z"/><path class="cls-5" d="M179.51,753.15s-6.6-4.04-16.45-10.61c-.05-.04-23.68-16.79-20.92-41.88.82-7.48,4.83-14.32,10.96-18.69,20.56-14.66,46.71-2.21,46.77-2.18,0,0,0,0,0,0,8.68-2.18,30.29-6.21,37.26,5.6,2.48,4.2.95,8.6-2.53,12.74,1.19.7,2.36,1.4,3.49,2.1,41.83,25.91,4.49,89.57-38.54,65.7-6.24-3.46-12.91-7.68-20.04-12.78Z"/><path class="cls-16" d="M165.46,710.93c-23.8,9.46-31.47,17.12-40.92,40.92-9.46-23.8-17.12-31.47-40.92-40.92,23.8-9.46,31.47-17.12,40.92-40.92,9.46,23.8,17.12,31.47,40.92,40.92Z"/><path class="cls-15" d="M229.79,238.12c-17.83,7.08-23.57,12.83-30.65,30.65-7.08-17.83-12.83-23.57-30.65-30.65,17.83-7.08,23.57-12.83,30.65-30.65,7.08,17.83,12.83,23.57,30.65,30.65Z"/><path class="cls-18" d="M811.72,259.86c-23.8,9.46-31.47,17.12-40.92,40.92-9.46-23.8-17.12-31.47-40.92-40.92,23.8-9.46,31.47-17.12,40.92-40.92,9.46,23.8,17.12,31.47,40.92,40.92Z"/><path class="cls-6" d="M902.34,676.14c-17.83,7.08-23.57,12.83-30.65,30.65-7.08-17.83-12.83-23.57-30.65-30.65,17.83-7.08,23.57-12.83,30.65-30.65,7.08,17.83,12.83,23.57,30.65,30.65Z"/></svg>