<svg xmlns="http://www.w3.org/2000/svg" xmlns:xlink="http://www.w3.org/1999/xlink" viewBox="0 0 1200 1200"><defs><style>.cls-1{fill:none;}.cls-2{fill:#fff;}.cls-3{opacity:0.9;}.cls-4{isolation:isolate;}.cls-5{fill:#1976d2;}.cls-6{opacity:0.2;mix-blend-mode:soft-light;fill:url(#ng-pattern-md);}</style><pattern id="ng-pattern-md" data-name="ng-pattern-md" width="330" height="354.46" patternUnits="userSpaceOnUse" viewBox="0 0 330 354.46"><rect class="cls-1" width="330" height="354.46"/><polygon class="cls-2" points="330 345.69 330 345.69 267.01 310.8 255.68 212.53 330 186.02 330 186.02 330 203.75 330 203.75 330 203.67 283.54 307.85 283.62 307.85 300.94 307.85 300.94 307.85 310.28 284.54 330 284.54 330 345.69"/><polygon class="cls-2" points="330 237.52 330 270.17 330 270.17 316.43 270.17 330 237.52"/><polygon class="cls-2" points="165 434.31 165 434.31 102.01 399.42 90.68 301.14 165 274.64 165 274.64 165 292.36 165 292.36 165 292.28 118.54 396.46 118.62 396.46 135.94 396.46 135.94 396.46 145.28 373.15 165 373.15 165 434.31"/><polygon class="cls-2" points="165 326.13 165 358.78 165 358.78 151.43 358.78 165 326.13"/><g class="cls-3"><polygon class="cls-2" points="165 434.31 165 434.31 227.99 399.42 239.32 301.14 165 274.64 165 274.64 165 292.36 165 292.36 165 292.28 211.46 396.46 211.38 396.46 194.06 396.46 194.06 396.46 184.72 373.15 165 373.15 165 434.31"/><polygon class="cls-2" points="165 326.13 165 358.78 165 358.78 178.57 358.78 165 326.13"/></g><g class="cls-3"><polygon class="cls-2" points="0 345.69 0 345.69 62.99 310.8 74.33 212.53 0 186.02 0 186.02 0 203.75 0 203.75 0 203.67 46.46 307.85 46.38 307.85 29.06 307.85 29.06 307.85 19.72 284.54 0 284.54 0 345.69"/><polygon class="cls-2" points="0 237.52 0 270.17 0 270.17 13.57 270.17 0 237.52"/></g><polygon class="cls-2" points="330 168.46 330 168.46 267.01 133.57 255.68 35.3 330 8.79 330 8.79 330 26.52 330 26.52 330 26.44 283.54 130.62 283.62 130.62 300.94 130.62 300.94 130.62 310.28 107.31 330 107.31 330 168.46"/><polygon class="cls-2" points="330 60.29 330 92.94 330 92.94 316.43 92.94 330 60.29"/><polygon class="cls-2" points="165 257.08 165 257.08 102.01 222.19 90.68 123.91 165 97.41 165 97.41 165 115.13 165 115.13 165 115.05 118.54 219.24 118.62 219.24 135.94 219.24 135.94 219.24 145.28 195.92 165 195.92 165 257.08"/><polygon class="cls-2" points="165 148.9 165 181.55 165 181.55 151.43 181.55 165 148.9"/><g class="cls-3"><polygon class="cls-2" points="165 257.08 165 257.08 227.99 222.19 239.32 123.91 165 97.41 165 97.41 165 115.13 165 115.13 165 115.05 211.46 219.24 211.38 219.24 194.06 219.24 194.06 219.24 184.72 195.92 165 195.92 165 257.08"/><polygon class="cls-2" points="165 148.9 165 181.55 165 181.55 178.57 181.55 165 148.9"/></g><g class="cls-3"><polygon class="cls-2" points="0 168.46 0 168.46 62.99 133.57 74.33 35.3 0 8.79 0 8.79 0 26.52 0 26.52 0 26.44 46.46 130.62 46.38 130.62 29.06 130.62 29.06 130.62 19.72 107.31 0 107.31 0 168.46"/><polygon class="cls-2" points="0 60.29 0 92.94 0 92.94 13.57 92.94 0 60.29"/></g><polygon class="cls-2" points="165 79.85 165 79.85 102.01 44.96 90.68 -53.31 165 -79.82 165 -79.82 165 -62.1 165 -62.1 165 -62.18 118.54 42.01 118.62 42.01 135.94 42.01 135.94 42.01 145.28 18.7 165 18.7 165 79.85"/><polygon class="cls-2" points="165 -28.33 165 4.33 165 4.33 151.43 4.33 165 -28.33"/><g class="cls-3"><polygon class="cls-2" points="165 79.85 165 79.85 227.99 44.96 239.32 -53.31 165 -79.82 165 -79.82 165 -62.1 165 -62.1 165 -62.18 211.46 42.01 211.38 42.01 194.06 42.01 194.06 42.01 184.72 18.7 165 18.7 165 79.85"/><polygon class="cls-2" points="165 -28.33 165 4.33 165 4.33 178.57 4.33 165 -28.33"/></g></pattern></defs><title>ng-pattern-sm</title><g class="cls-4"><g id="Design"><rect class="cls-5" width="1200" height="1200"/><rect class="cls-6" width="1200" height="1200"/></g></g></svg>