<svg xmlns="http://www.w3.org/2000/svg" xmlns:xlink="http://www.w3.org/1999/xlink" viewBox="0 0 1200 1200"><defs><style>.cls-1{fill:none;}.cls-2{fill:#fff;}.cls-3{opacity:0.9;}.cls-4{isolation:isolate;}.cls-5{fill:#1976d2;}.cls-6{opacity:0.2;mix-blend-mode:soft-light;fill:url(#New_Pattern);}</style><pattern id="New_Pattern" data-name="New Pattern" width="436.95" height="469.33" patternUnits="userSpaceOnUse" viewBox="0 0 436.95 469.33"><rect class="cls-1" width="436.95" height="469.33"/><polygon class="cls-2" points="436.95 469.33 436.95 469.33 344.37 418.06 327.71 273.62 436.95 234.67 436.95 234.67 436.95 260.71 436.95 260.71 436.95 260.6 368.66 413.72 368.78 413.72 394.24 413.72 394.24 413.72 407.97 379.46 436.95 379.46 436.95 469.33"/><polygon class="cls-2" points="436.95 310.35 436.95 358.34 436.95 358.34 417 358.34 436.95 310.35"/><polygon class="cls-2" points="218.47 586.67 218.47 586.67 125.9 535.39 109.24 390.95 218.47 352 218.47 352 218.47 378.05 218.47 378.05 218.47 377.93 150.19 531.05 150.3 531.05 175.76 531.05 175.76 531.05 189.49 496.79 218.47 496.79 218.47 586.67"/><polygon class="cls-2" points="218.47 427.68 218.47 475.67 218.47 475.67 198.53 475.67 218.47 427.68"/><g class="cls-3"><polygon class="cls-2" points="218.47 586.67 218.47 586.67 311.05 535.39 327.71 390.95 218.47 352 218.47 352 218.47 378.05 218.47 378.05 218.47 377.93 286.76 531.05 286.64 531.05 261.18 531.05 261.18 531.05 247.46 496.79 218.47 496.79 218.47 586.67"/><polygon class="cls-2" points="218.47 427.68 218.47 475.67 218.47 475.67 238.42 475.67 218.47 427.68"/></g><g class="cls-3"><polygon class="cls-2" points="0 469.33 0 469.33 92.58 418.06 109.24 273.62 0 234.67 0 234.67 0 260.71 0 260.71 0 260.6 68.29 413.72 68.17 413.72 42.71 413.72 42.71 413.72 28.98 379.46 0 379.46 0 469.33"/><polygon class="cls-2" points="0 310.35 0 358.34 0 358.34 19.95 358.34 0 310.35"/></g><polygon class="cls-2" points="436.95 234.67 436.95 234.67 344.37 183.39 327.71 38.95 436.95 0 436.95 0 436.95 26.05 436.95 26.05 436.95 25.93 368.66 179.05 368.78 179.05 394.24 179.05 394.24 179.05 407.97 144.79 436.95 144.79 436.95 234.67"/><polygon class="cls-2" points="436.95 75.68 436.95 123.67 436.95 123.67 417 123.67 436.95 75.68"/><polygon class="cls-2" points="218.47 352 218.47 352 125.9 300.73 109.24 156.29 218.47 117.33 218.47 117.33 218.47 143.38 218.47 143.38 218.47 143.26 150.19 296.38 150.3 296.38 175.76 296.38 175.76 296.38 189.49 262.12 218.47 262.12 218.47 352"/><polygon class="cls-2" points="218.47 193.01 218.47 241 218.47 241 198.53 241 218.47 193.01"/><g class="cls-3"><polygon class="cls-2" points="218.47 352 218.47 352 311.05 300.73 327.71 156.29 218.47 117.33 218.47 117.33 218.47 143.38 218.47 143.38 218.47 143.26 286.76 296.38 286.64 296.38 261.18 296.38 261.18 296.38 247.46 262.12 218.47 262.12 218.47 352"/><polygon class="cls-2" points="218.47 193.01 218.47 241 218.47 241 238.42 241 218.47 193.01"/></g><g class="cls-3"><polygon class="cls-2" points="0 234.67 0 234.67 92.58 183.39 109.24 38.95 0 0 0 0 0 26.05 0 26.05 0 25.93 68.29 179.05 68.17 179.05 42.71 179.05 42.71 179.05 28.98 144.79 0 144.79 0 234.67"/><polygon class="cls-2" points="0 75.68 0 123.67 0 123.67 19.95 123.67 0 75.68"/></g><polygon class="cls-2" points="218.47 117.33 218.47 117.33 125.9 66.06 109.24 -78.38 218.47 -117.33 218.47 -117.33 218.47 -91.28 218.47 -91.28 218.47 -91.4 150.19 61.72 150.3 61.72 175.76 61.72 175.76 61.72 189.49 27.46 218.47 27.46 218.47 117.33"/><polygon class="cls-2" points="218.47 -41.65 218.47 6.34 218.47 6.34 198.53 6.34 218.47 -41.65"/><g class="cls-3"><polygon class="cls-2" points="218.47 117.33 218.47 117.33 311.05 66.06 327.71 -78.38 218.47 -117.33 218.47 -117.33 218.47 -91.28 218.47 -91.28 218.47 -91.4 286.76 61.72 286.64 61.72 261.18 61.72 261.18 61.72 247.46 27.46 218.47 27.46 218.47 117.33"/><polygon class="cls-2" points="218.47 -41.65 218.47 6.34 218.47 6.34 238.42 6.34 218.47 -41.65"/></g></pattern></defs><title>ng-pattern</title><g class="cls-4"><g id="Design"><rect class="cls-5" width="1200" height="1200"/><rect class="cls-6" width="1200" height="1200"/></g></g></svg>