<?xml version="1.0" encoding="UTF-8"?><svg xmlns="http://www.w3.org/2000/svg" xmlns:xlink="http://www.w3.org/1999/xlink" viewBox="0 0 1080 1080"><defs><style>.cls-1{fill:#0f0f11;}.cls-2{fill:#ac015f;}.cls-3{fill:url(#linear-gradient-2);}.cls-4{stroke:#0f0f11;stroke-width:8px;}.cls-4,.cls-5,.cls-6{fill:none;stroke-linecap:round;stroke-linejoin:round;}.cls-7{mix-blend-mode:multiply;opacity:.7;}.cls-8{fill:#e90464;}.cls-9{fill:url(#linear-gradient-4);}.cls-5{stroke:#eadbe7;stroke-width:68.81px;}.cls-10{fill:url(#radial-gradient);}.cls-11{fill:url(#linear-gradient-3);}.cls-12{fill:url(#linear-gradient-5);}.cls-13{fill:#940054;}.cls-14{isolation:isolate;}.cls-6{stroke:#a00050;stroke-width:4.05px;}.cls-15{fill:#9b005c;}.cls-16{fill:#c8005d;}.cls-17{fill:url(#linear-gradient-6);}.cls-18{fill:#8514f5;}.cls-19{fill:url(#linear-gradient);}.cls-20{fill:#f637e3;}.cls-21{fill:#5c44e4;}.cls-22{fill:#aa0060;}</style><linearGradient id="linear-gradient" x1="828.28" y1="174.8" x2="828.28" y2="419.24" gradientUnits="userSpaceOnUse"><stop offset="0" stop-color="#e90464"/><stop offset=".17" stop-color="#e10362"/><stop offset=".58" stop-color="#d50260"/><stop offset="1" stop-color="#d20260"/></linearGradient><linearGradient id="linear-gradient-2" x1="785.85" y1="906.61" x2="785.85" y2="766.75" gradientUnits="userSpaceOnUse"><stop offset="0" stop-color="#eadbe7"/><stop offset=".36" stop-color="#e8d9e5"/><stop offset=".49" stop-color="#e4d2e1"/><stop offset=".58" stop-color="#dcc6da"/><stop offset=".61" stop-color="#d8c0d6"/></linearGradient><linearGradient id="linear-gradient-3" x1="573.07" y1="906.61" x2="573.07" y2="737.63" xlink:href="#linear-gradient-2"/><linearGradient id="linear-gradient-4" x1="454.99" y1="285.73" x2="740.56" y2="780.35" gradientUnits="userSpaceOnUse"><stop offset="0" stop-color="#f637e3"/><stop offset="0" stop-color="#f535de"/><stop offset=".08" stop-color="#f228bd"/><stop offset=".15" stop-color="#ef1ca1"/><stop offset=".23" stop-color="#ec138a"/><stop offset=".33" stop-color="#eb0c79"/><stop offset=".45" stop-color="#e9076d"/><stop offset=".6" stop-color="#e90465"/><stop offset=".99" stop-color="#e90464"/></linearGradient><linearGradient id="linear-gradient-5" x1="802.87" y1="174.8" x2="802.87" y2="830.86" gradientUnits="userSpaceOnUse"><stop offset="0" stop-color="#e90464"/><stop offset=".29" stop-color="#e00362"/><stop offset=".75" stop-color="#c90160"/><stop offset="1" stop-color="#ba005e"/></linearGradient><radialGradient id="radial-gradient" cx="653.06" cy="612.86" fx="653.06" fy="612.86" r="212.17" gradientUnits="userSpaceOnUse"><stop offset="0" stop-color="#eadbe7"/><stop offset=".52" stop-color="#e8d8e5"/><stop offset=".76" stop-color="#e3d1e0"/><stop offset=".96" stop-color="#dac4d8"/><stop offset="1" stop-color="#d8c0d6"/></radialGradient><linearGradient id="linear-gradient-6" x1="195.45" y1="658.46" x2="190.81" y2="458.71" gradientUnits="userSpaceOnUse"><stop offset="0" stop-color="#0f0f11"/><stop offset="1" stop-color="#3d3d47"/></linearGradient></defs><g class="cls-14"><g id="art"><path class="cls-5" d="M315.58,578.52c16.05,22.18,39.72,38.11,65.24,48.01,25.52,9.9,52.93,14.1,80.24,15.98"/><path class="cls-19" d="M1005.17,389.49l-278.56-209.81c-4.29-3.25-9.33-4.87-14.37-4.87h-59.18l-12.61,30.07-5.3,22.04v192.33h386.24c-1.05-11.66-6.79-22.6-16.23-29.75Z"/><path class="cls-15" d="M872.86,701.43l-211.67,126.48v2.96h51.05c6.76,0,13.51-1.61,19.73-4.84l183.75-99.45c6.65-3.52,12.42-8.47,17.01-14.42l-59.86-10.72Z"/><path class="cls-2" d="M1021.39,419.24h0c-.16-1.75-.43-3.48-.8-5.19h-385.44v-187.14l-215.85,162.57c-13.6,10.31-19.53,28.48-14.8,45.36l78.05,259.23c4.16,14.11,13.62,25.84,26.21,32.5l152.43,82.5v18.83l223.05-124.44,48.48,8.68c4.09-5.31,7.24-11.42,9.2-18.07l78.05-259.23c1.45-5.17,1.89-10.46,1.43-15.6Z"/><path class="cls-3" d="M741.21,811.52c13.7,90.52,38.22,95.09,38.22,95.09h38.81c6.89,0,12.47-5.59,12.47-12.47v-118.11c0-2.52-1.69-4.72-4.12-5.38l-5.53-1.49c-24.81-6.66-51.28.72-69.07,19.25l-5.16,5.37c-4.53,4.72-6.6,11.27-5.62,17.73Z"/><path class="cls-8" d="M744.45,852.2h61.79c7.75,0,14.03,6.29,14.03,14.03v1.56c0,21.99-17.86,39.85-39.85,39.85h-2.69c-21.99,0-39.85-17.86-39.85-39.85v-9.04c0-3.62,2.94-6.56,6.56-6.56Z" transform="translate(1558.16 1759.85) rotate(-180)"/><path class="cls-11" d="M618.56,894.13c0,6.89-5.59,12.47-12.47,12.47h-38.81s-26.36-45.29-39.69-145.81h0c20.12-27.55,59.9-31.09,84.58-7.53h0c4.09,3.9,6.4,9.31,6.4,14.96v125.92Z"/><path class="cls-8" d="M532.28,852.2h61.79c7.75,0,14.03,6.29,14.03,14.03v1.56c0,21.99-17.86,39.85-39.85,39.85h-2.69c-21.99,0-39.85-17.86-39.85-39.85v-9.04c0-3.62,2.94-6.56,6.56-6.56Z" transform="translate(1133.83 1759.85) rotate(-180)"/><path class="cls-9" d="M653.06,174.8c-4.88,0-9.76,1.62-13.91,4.87l-269.8,209.81c-13.17,10.31-18.91,28.48-14.33,45.36l75.59,259.23c4.03,14.11,13.19,25.84,25.38,32.5l177.97,99.45c6.02,3.23,12.56,4.84,19.11,4.84V174.8Z"/><path class="cls-12" d="M653.06,830.86c6.54,0,13.09-1.61,19.11-4.84l177.97-99.45c12.19-6.65,21.35-18.38,25.38-32.5l75.59-259.23c4.58-16.88-1.16-35.05-14.33-45.36l-269.8-209.81c-4.15-3.25-9.03-4.87-13.91-4.87v656.06Z"/><path class="cls-13" d="M490.4,690.74c5.39-2.87,13.69-7.24,22.02-11.6-4.91-2.87-8.61-7.75-10.23-13.63l-40.97-148.7c-5.69-20.64,12.26-39.5,30.8-32.99l-18.16-7.29c-21.15-8.49-42.11,13.01-35.62,36.54l45.88,166.51c1.19,4.3,3.39,8.11,6.29,11.15Z"/><path class="cls-22" d="M512.42,679.14c-8.32,4.36-16.63,8.73-22.02,11.6,2.08,2.17,4.51,3.96,7.23,5.2l155.43,70.68v-23.39l-138.8-63.12c-.63-.29-1.24-.62-1.84-.97Z"/><path class="cls-10" d="M813.1,484.18l-160.04,64.21-160.04-64.21c-18.89-7.58-37.6,11.62-31.81,32.63l40.97,148.7c1.82,6.59,6.25,11.95,12.08,14.6l138.8,63.12,138.8-63.12c5.83-2.65,10.26-8.01,12.08-14.6l40.97-148.7c5.79-21.01-12.92-40.21-31.81-32.63Z"/><path class="cls-13" d="M815.73,690.74c-5.39-2.87-13.69-7.24-22.02-11.6,4.91-2.87,8.61-7.75,10.23-13.63l40.97-148.7c5.69-20.64-12.26-39.5-30.8-32.99l18.16-7.29c21.15-8.49,42.11,13.01,35.62,36.54l-45.88,166.51c-1.19,4.3-3.39,8.11-6.29,11.15Z"/><path class="cls-22" d="M793.71,679.14c8.32,4.36,16.63,8.73,22.02,11.6-2.08,2.17-4.51,3.96-7.23,5.2l-155.43,70.68v-23.39s138.8-63.12,138.8-63.12c.63-.29,1.24-.62,1.84-.97Z"/><ellipse class="cls-1" cx="724.13" cy="621.56" rx="16.53" ry="29.11"/><path class="cls-16" d="M731.6,575.38l-14.17-4.41c-6.4-1.99-10.11-9.26-8.28-16.24h0c1.83-6.98,8.5-11.02,14.9-9.03l14.17,4.41c6.4,1.99,10.11,9.26,8.28,16.24h0c-1.83,6.98-8.5,11.02-14.9,9.03Z"/><path class="cls-4" d="M653.06,670.59s18.06.26,25.21-8.84"/><ellipse class="cls-1" cx="582" cy="621.56" rx="16.53" ry="29.11"/><path class="cls-16" d="M574.52,575.38l14.17-4.41c6.4-1.99,10.11-9.26,8.28-16.24h0c-1.83-6.98-8.5-11.02-14.9-9.03l-14.17,4.41c-6.4,1.99-10.11,9.26-8.28,16.24h0c1.83,6.98,8.5,11.02,14.9,9.03Z"/><path class="cls-4" d="M653.06,670.59s-18.06.26-25.21-8.84"/><path class="cls-5" d="M958.72,697.77s91.34-36.44,3.59-107.68"/><path class="cls-8" d="M981.94,726.85s6.6-4.04,16.45-10.61c.05-.04,23.68-16.79,20.92-41.88-.82-7.48-4.83-14.32-10.96-18.69-20.56-14.66-46.71-2.21-46.77-2.18,0,0,0,0,0,0-8.68-2.18-30.29-6.21-37.26,5.6-2.48,4.2-.95,8.6,2.53,12.74-1.19.7-2.36,1.4-3.49,2.1-41.83,25.91-4.49,89.57,38.54,65.7,6.24-3.46,12.91-7.68,20.04-12.78Z"/><path class="cls-8" d="M301.46,621.55s6.26,4.56,16.08,11.16c.06.04,24.55,15.48,46.7,3.36,6.6-3.62,11.39-9.93,13.09-17.27,5.7-24.6-15.78-44.01-15.83-44.06,0,0,0,0,0,0-1.29-8.86-5.82-30.37-19.39-32.3-4.83-.69-8.31,2.41-10.81,7.2-1.1-.83-2.19-1.65-3.27-2.42-39.91-28.78-84.51,30.03-46.03,60.69,5.58,4.45,12.02,9.01,19.46,13.65Z"/><path class="cls-6" d="M331.3,549.62s-6.11,12.65,1.5,25.24"/><g class="cls-7"><path class="cls-17" d="M79.75,619.86h256.98c10.18,0,17.81-9.33,15.79-19.31l-31.76-156.99c-1.52-7.51-8.12-12.92-15.79-12.92H47.99c-10.18,0-17.81,9.33-15.79,19.31l31.76,156.99c1.52,7.51,8.12,12.92,15.79,12.92Z"/></g><rect class="cls-20" x="64.78" y="444.55" width="38.77" height="17.98" rx="8.99" ry="8.99"/><rect class="cls-18" x="115.1" y="444.55" width="59.17" height="17.98" rx="8.99" ry="8.99"/><rect class="cls-21" x="185.09" y="444.55" width="80.72" height="17.98" rx="8.99" ry="8.99"/><rect class="cls-21" x="131.7" y="479.3" width="68.27" height="17.98" rx="8.99" ry="8.99"/><rect class="cls-20" x="211.26" y="479.3" width="41.54" height="17.98" rx="8.99" ry="8.99"/><rect class="cls-18" x="264.29" y="479.3" width="54.91" height="17.98" rx="8.99" ry="8.99"/><rect class="cls-20" x="109.88" y="515.16" width="52.14" height="17.98" rx="8.99" ry="8.99"/><rect class="cls-18" x="173.93" y="515.16" width="78.87" height="17.98" rx="8.99" ry="8.99"/><rect class="cls-18" x="252.97" y="552.26" width="38.77" height="17.98" rx="8.99" ry="8.99" transform="translate(544.71 1122.5) rotate(-180)"/><rect class="cls-20" x="182.25" y="552.26" width="59.17" height="17.98" rx="8.99" ry="8.99" transform="translate(423.67 1122.5) rotate(-180)"/><rect class="cls-21" x="90.72" y="552.26" width="80.72" height="17.98" rx="8.99" ry="8.99" transform="translate(262.16 1122.5) rotate(180)"/><rect class="cls-20" x="135.95" y="587.99" width="53.98" height="17.98" rx="8.99" ry="8.99" transform="translate(325.89 1193.96) rotate(-180)"/><rect class="cls-21" x="201.31" y="587.99" width="41.54" height="17.98" rx="8.99" ry="8.99"/><rect class="cls-18" x="252.97" y="587.99" width="70.72" height="17.98" rx="8.99" ry="8.99"/></g></g></svg>