<?xml version="1.0" encoding="UTF-8"?><svg id="art" xmlns="http://www.w3.org/2000/svg" xmlns:xlink="http://www.w3.org/1999/xlink" viewBox="0 0 1080 1080"><defs><style>.cls-1{fill:url(#linear-gradient-2);}.cls-2{fill:#d8c0d6;}.cls-3{fill:#b60161;}.cls-4{fill:#e90464;}.cls-5{fill:#eadbe7;}.cls-6{fill:url(#linear-gradient-3);}.cls-7{fill:none;stroke:#a00050;stroke-linecap:round;stroke-linejoin:round;stroke-width:3px;}.cls-8{fill:#c7005d;}.cls-9{fill:#cd005e;}.cls-10{fill:url(#linear-gradient);}</style><linearGradient id="linear-gradient" x1="449.57" y1="851.46" x2="449.57" y2="120.58" gradientUnits="userSpaceOnUse"><stop offset="0" stop-color="#b60161"/><stop offset=".72" stop-color="#a30263"/></linearGradient><linearGradient id="linear-gradient-2" x1="771.14" y1="185.91" x2="548.16" y2="475.78" gradientUnits="userSpaceOnUse"><stop offset="0" stop-color="#f637e3"/><stop offset=".01" stop-color="#f535df"/><stop offset=".15" stop-color="#f126b9"/><stop offset=".3" stop-color="#ee199a"/><stop offset=".45" stop-color="#ec1082"/><stop offset=".61" stop-color="#ea0971"/><stop offset=".78" stop-color="#e90567"/><stop offset=".99" stop-color="#e90464"/></linearGradient><linearGradient id="linear-gradient-3" x1="647.82" y1="978.76" x2="647.82" y2="783.8" gradientUnits="userSpaceOnUse"><stop offset="0" stop-color="#eadbe7"/><stop offset=".39" stop-color="#e7d7e4"/><stop offset=".77" stop-color="#dfcbdd"/><stop offset="1" stop-color="#d8c0d6"/></linearGradient></defs><path class="cls-8" d="M449.46,978.76h-32.36c-9.24,0-16.72-7.41-16.72-16.55v-1.84c0-16.91,10.63-31.74,24.18-40.01,1.18-.72,2.72-.17,3.14,1.14,2.89,9.14,12.46,40.88,31.76,54.18,1.38.95.69,3.08-.99,3.08h-9.01Z"/><path class="cls-2" d="M510.99,963.89c0,8.21-6.66,14.87-14.87,14.87h-46.25s-31.42-47.57-47.3-167.36h0c23.98-32.83,71.38-37.05,100.79-8.97h0c4.87,4.65,7.62,11.09,7.62,17.82v143.65Z"/><path class="cls-2" d="M218.62,683c-4.77-9.19-13.36-15.95-23.42-18.42-27.12-6.65-46.34,13.25-46.39,13.3,30.15-34.11,97.01-104.17,121.6-84.83,24.6,19.34-27.74,100.83-53.79,138.17.04-.06,14.85-23.43,2-48.22Z"/><path class="cls-8" d="M133.7,695.5s5.81-7.1,15.11-17.62c.05-.06,23.53-25.13,52.57-17.85,8.66,2.17,16.05,7.98,20.2,15.89,13.92,26.51-4.92,55.23-4.96,55.3,0,0,0,0,0,0,1.17,10.55,2.43,36.59-12.57,42.88-5.33,2.24-10.25-.27-14.56-5.02-1.01,1.29-2.02,2.55-3.03,3.76-37.17,44.99-105.96-9.12-71-55.84,5.07-6.78,11.1-13.94,18.23-21.49Z"/><path class="cls-7" d="M189.49,769.08s-10.8-12.68-5.85-29.41"/><path class="cls-10" d="M550.23,134.08c-9.04-11.88-24.73-16.53-38.79-11.48l-11.77,4.22-333.12,237.62c-17.11,12.28-24.57,33.94-18.62,54.05l98.2,308.91c5.24,16.82,17.14,30.8,32.97,38.72l164.02,84.08c12.98,2.93,26.93.75,38.68-6.73l192.53-122.57c16.07-10.23,27.26-26.59,30.96-45.28l46.45-234.56c4.29-21.68-.93-44.15-14.34-61.72-44.76-58.59-148.32-194.16-187.19-245.27Z"/><path class="cls-1" d="M550.23,134.08c38.87,51.11,142.43,186.68,187.19,245.27,4.67,6.11,8.32,12.82,10.95,19.88,27.99.29,117.82.1,175.66-.06-1.5-13.63-8.67-26.36-20.34-34.73l-350.49-250.02c-5.39-3.87-11.73-5.81-18.07-5.81-6.34,0-12.68,1.94-18.07,5.81l-17.37,12.39,11.77-4.22c14.05-5.04,29.75-.4,38.79,11.48Z"/><path class="cls-3" d="M810.5,751.31l-116.07-49.83c-5.26,7.68-12.06,14.31-20.08,19.42l-192.53,122.57c-11.75,7.48-25.7,9.65-38.68,6.73l67.16,34.43c7.82,3.85,16.32,5.77,24.82,5.77,8.5,0,17-1.92,24.82-5.77l231.19-118.51c7.42-3.71,13.95-8.77,19.36-14.81h0Z"/><path class="cls-9" d="M924.02,399.17c-57.84.16-147.67.35-175.66.06,4.93,13.23,6.2,27.7,3.4,41.84l-46.45,234.56c-1.95,9.84-5.99,19.03-11.71,27.02,54.34,22.97,116.91,48.66,116.91,48.66h0c6.14-6.85,10.82-14.98,13.61-23.92l98.2-308.91c1.89-6.4,2.42-12.96,1.72-19.32Z"/><path class="cls-5" d="M852.7,683c4.77-9.19,13.36-15.95,23.42-18.42,27.12-6.65,46.34,13.25,46.39,13.3-30.15-34.11-97.01-104.17-121.6-84.83-24.6,19.34,27.74,100.83,53.79,138.17-.04-.06-14.85-23.43-2-48.22Z"/><path class="cls-4" d="M937.62,695.5s-5.81-7.1-15.11-17.62c-.05-.06-23.53-25.13-52.57-17.85-8.66,2.17-16.05,7.98-20.2,15.89-13.92,26.51,4.92,55.23,4.96,55.3,0,0,0,0,0,0-1.17,10.55-2.43,36.59,12.57,42.88,5.33,2.24,10.25-.27,14.56-5.02,1.01,1.29,2.02,2.55,3.03,3.76,37.17,44.99,105.96-9.12,71-55.84-5.07-6.78-11.1-13.94-18.23-21.49Z"/><path class="cls-4" d="M655.15,978.76h32.36c9.24,0,16.72-7.41,16.72-16.55v-1.84c0-16.91-10.63-31.74-24.18-40.01-1.18-.72-2.72-.17-3.14,1.14-2.89,9.14-12.46,40.88-31.76,54.18-1.38.95-.69,3.08.99,3.08h9.01Z"/><path class="cls-6" d="M593.62,963.89c0,8.21,6.66,14.87,14.87,14.87h46.25s31.42-47.57,47.3-167.36h0c-23.98-32.83-71.38-37.05-100.79-8.97h0c-4.87,4.65-7.62,11.09-7.62,17.82v143.65Z"/></svg>