<svg width="667" height="490" viewBox="0 0 667 490" fill="none" xmlns="http://www.w3.org/2000/svg">
<mask id="mask0_11_64" style="mask-type:luminance" maskUnits="userSpaceOnUse" x="0" y="0" width="667" height="490">
<path d="M0 0H667V490H0V0Z" fill="white"/>
</mask>
<g mask="url(#mask0_11_64)">
<path fill-rule="evenodd" clip-rule="evenodd" d="M30.4121 22.2454H302.885V64.2612H30.4121V22.2454Z" fill="#CFE2F3"/>
<path fill-rule="evenodd" clip-rule="evenodd" d="M30.4121 22.2454H302.885V64.2612H30.4121V22.2454Z" stroke="black" stroke-miterlimit="10" stroke-linejoin="round"/>
<path fill-rule="evenodd" clip-rule="evenodd" d="M30.4121 120.591C30.4121 95.5106 50.7442 75.1785 75.8251 75.1785H257.472C269.516 75.1785 281.067 79.963 289.583 88.4796C298.1 96.9962 302.885 108.547 302.885 120.591V418.238C302.885 443.319 282.552 463.651 257.472 463.651H75.8251C50.7442 463.651 30.4121 443.319 30.4121 418.238V120.591Z" fill="white"/>
<path fill-rule="evenodd" clip-rule="evenodd" d="M30.4121 120.591C30.4121 95.5106 50.7442 75.1785 75.8251 75.1785H257.472C269.516 75.1785 281.067 79.963 289.583 88.4796C298.1 96.9962 302.885 108.547 302.885 120.591V418.238C302.885 443.319 282.552 463.651 257.472 463.651H75.8251C50.7442 463.651 30.4121 443.319 30.4121 418.238V120.591Z" stroke="black" stroke-miterlimit="10" stroke-linejoin="round"/>
<path d="M63.2985 107.014H65.9235C66.5173 107.004 67.0798 106.91 67.611 106.733C68.1423 106.556 68.6058 106.301 69.0016 105.968C69.4079 105.634 69.7256 105.223 69.9548 104.733C70.1944 104.244 70.3141 103.681 70.3141 103.046C70.3141 102.41 70.1944 101.848 69.9548 101.358C69.7256 100.858 69.4079 100.441 69.0016 100.108C68.6058 99.7748 68.1423 99.5196 67.611 99.3425C67.0798 99.1654 66.5173 99.0717 65.9235 99.0613H61.611V112.327H63.2985V107.014ZM63.2985 105.624V100.452H65.9235C66.3089 100.452 66.6631 100.514 66.986 100.639C67.3194 100.764 67.611 100.936 67.861 101.155C68.0902 101.384 68.2725 101.66 68.4079 101.983C68.5537 102.306 68.6266 102.665 68.6266 103.061C68.6266 103.468 68.5537 103.827 68.4079 104.139C68.2725 104.452 68.085 104.718 67.8454 104.936C67.6058 105.155 67.3194 105.322 66.986 105.436C66.6631 105.551 66.3089 105.613 65.9235 105.624H63.2985ZM79.1191 102.296C78.4003 102.296 77.7597 102.452 77.1972 102.764C76.6347 103.077 76.1556 103.499 75.7597 104.03L75.7441 103.796L75.666 102.468H74.0722V112.327H75.7597V105.999C75.8743 105.697 76.0149 105.426 76.1816 105.186C76.3483 104.936 76.541 104.728 76.7597 104.561C77.0097 104.363 77.3014 104.218 77.6347 104.124C77.9681 104.02 78.3431 103.968 78.7597 103.968C79.0826 103.968 79.3899 103.983 79.6816 104.014C79.9837 104.046 80.2962 104.098 80.6191 104.171L80.8535 102.53C80.6764 102.457 80.4212 102.4 80.0878 102.358C79.7545 102.316 79.4316 102.296 79.1191 102.296ZM83.3772 107.311V107.514C83.3772 108.223 83.4813 108.879 83.6897 109.483C83.898 110.087 84.1949 110.619 84.5803 111.077C84.9657 111.525 85.4345 111.879 85.9865 112.139C86.549 112.389 87.1793 112.514 87.8772 112.514C88.5647 112.514 89.1845 112.389 89.7365 112.139C90.2886 111.879 90.7574 111.525 91.1428 111.077C91.5282 110.619 91.8251 110.087 92.0334 109.483C92.2418 108.879 92.3459 108.223 92.3459 107.514V107.311C92.3459 106.603 92.2418 105.941 92.0334 105.327C91.8251 104.712 91.5282 104.181 91.1428 103.733C90.7574 103.285 90.2834 102.936 89.7209 102.686C89.1688 102.426 88.5438 102.296 87.8459 102.296C87.1584 102.296 86.5386 102.426 85.9865 102.686C85.4345 102.936 84.9657 103.285 84.5803 103.733C84.1949 104.181 83.898 104.712 83.6897 105.327C83.4813 105.941 83.3772 106.603 83.3772 107.311ZM85.0647 107.514V107.311C85.0647 106.832 85.122 106.374 85.2365 105.936C85.3511 105.488 85.5282 105.098 85.7678 104.764C85.997 104.431 86.2834 104.165 86.6272 103.968C86.9709 103.77 87.3772 103.671 87.8459 103.671C88.3147 103.671 88.7209 103.77 89.0647 103.968C89.4188 104.165 89.7157 104.431 89.9553 104.764C90.1845 105.098 90.3563 105.488 90.4709 105.936C90.5959 106.374 90.6584 106.832 90.6584 107.311V107.514C90.6584 107.994 90.6011 108.457 90.4865 108.905C90.372 109.343 90.2001 109.728 89.9709 110.061C89.7313 110.395 89.4345 110.66 89.0803 110.858C88.7365 111.046 88.3355 111.139 87.8772 111.139C87.4084 111.139 86.997 111.046 86.6428 110.858C86.2886 110.66 85.997 110.395 85.7678 110.061C85.5282 109.728 85.3511 109.343 85.2365 108.905C85.122 108.457 85.0647 107.994 85.0647 107.514ZM94.729 107.311V107.514C94.729 108.212 94.8227 108.869 95.0102 109.483C95.1977 110.087 95.4634 110.619 95.8071 111.077C96.1404 111.525 96.5467 111.879 97.0259 112.139C97.5154 112.389 98.0571 112.514 98.6509 112.514C99.2654 112.514 99.7967 112.41 100.245 112.202C100.703 111.994 101.099 111.691 101.432 111.296L101.495 112.327H103.041V98.3269H101.354V103.452C101.041 103.066 100.661 102.78 100.213 102.593C99.7759 102.395 99.2602 102.296 98.6665 102.296C98.0727 102.296 97.5311 102.421 97.0415 102.671C96.5519 102.91 96.1404 103.254 95.8071 103.702C95.4634 104.139 95.1977 104.671 95.0102 105.296C94.8227 105.91 94.729 106.582 94.729 107.311ZM96.4165 107.514V107.311C96.4165 106.832 96.4686 106.379 96.5727 105.952C96.6769 105.514 96.8384 105.129 97.0571 104.796C97.2654 104.462 97.5363 104.202 97.8696 104.014C98.2134 103.816 98.6196 103.718 99.0884 103.718C99.6404 103.718 100.099 103.848 100.463 104.108C100.838 104.369 101.135 104.697 101.354 105.093V109.671C101.135 110.098 100.838 110.441 100.463 110.702C100.099 110.952 99.6352 111.077 99.0727 111.077C98.604 111.077 98.2029 110.983 97.8696 110.796C97.5363 110.598 97.2654 110.337 97.0571 110.014C96.8384 109.681 96.6769 109.301 96.5727 108.874C96.4686 108.447 96.4165 107.994 96.4165 107.514ZM112.737 112.327H114.268V102.468H112.581V109.546C112.487 109.754 112.372 109.947 112.237 110.124C112.102 110.301 111.94 110.457 111.753 110.593C111.534 110.749 111.274 110.874 110.971 110.968C110.68 111.051 110.346 111.093 109.971 111.093C109.649 111.093 109.362 111.051 109.112 110.968C108.872 110.874 108.664 110.723 108.487 110.514C108.32 110.306 108.195 110.03 108.112 109.686C108.029 109.332 107.987 108.884 107.987 108.343V102.468H106.3V108.327C106.3 109.066 106.378 109.697 106.534 110.218C106.701 110.738 106.93 111.171 107.221 111.514C107.524 111.858 107.883 112.113 108.3 112.28C108.716 112.436 109.185 112.514 109.706 112.514C110.352 112.514 110.919 112.379 111.409 112.108C111.899 111.837 112.31 111.457 112.643 110.968L112.737 112.327ZM121.636 111.139C121.105 111.139 120.662 111.035 120.308 110.827C119.953 110.619 119.672 110.343 119.464 109.999C119.245 109.665 119.089 109.29 118.995 108.874C118.901 108.447 118.855 108.02 118.855 107.593V107.202C118.855 106.785 118.901 106.369 118.995 105.952C119.089 105.525 119.245 105.139 119.464 104.796C119.683 104.462 119.969 104.191 120.323 103.983C120.677 103.775 121.115 103.671 121.636 103.671C121.98 103.671 122.297 103.728 122.589 103.843C122.881 103.957 123.136 104.119 123.355 104.327C123.563 104.525 123.73 104.754 123.855 105.014C123.98 105.275 124.047 105.556 124.058 105.858H125.651C125.651 105.358 125.547 104.889 125.339 104.452C125.141 104.014 124.865 103.634 124.511 103.311C124.157 102.999 123.735 102.754 123.245 102.577C122.756 102.389 122.219 102.296 121.636 102.296C120.896 102.296 120.245 102.431 119.683 102.702C119.12 102.962 118.657 103.316 118.292 103.764C117.917 104.223 117.631 104.749 117.433 105.343C117.245 105.936 117.151 106.556 117.151 107.202V107.593C117.151 108.249 117.245 108.874 117.433 109.468C117.631 110.051 117.917 110.572 118.292 111.03C118.657 111.478 119.12 111.837 119.683 112.108C120.245 112.379 120.896 112.514 121.636 112.514C122.157 112.514 122.657 112.426 123.136 112.249C123.615 112.061 124.042 111.816 124.417 111.514C124.792 111.223 125.089 110.879 125.308 110.483C125.526 110.077 125.641 109.655 125.651 109.218H124.058C124.047 109.488 123.974 109.744 123.839 109.983C123.703 110.212 123.521 110.415 123.292 110.593C123.073 110.77 122.818 110.905 122.526 110.999C122.235 111.093 121.938 111.139 121.636 111.139ZM132.628 100.077H130.925V102.468H128.347V103.78H130.925V109.124C130.925 109.738 131.003 110.259 131.159 110.686C131.326 111.113 131.55 111.462 131.831 111.733C132.113 112.004 132.441 112.202 132.816 112.327C133.201 112.452 133.613 112.514 134.05 112.514C134.31 112.514 134.571 112.499 134.831 112.468C135.102 112.447 135.352 112.41 135.581 112.358C135.821 112.316 136.04 112.264 136.238 112.202C136.435 112.139 136.607 112.066 136.753 111.983L136.519 110.78C136.415 110.811 136.279 110.843 136.113 110.874C135.956 110.905 135.784 110.936 135.597 110.968C135.409 110.999 135.217 111.025 135.019 111.046C134.831 111.066 134.649 111.077 134.472 111.077C134.222 111.077 133.982 111.046 133.753 110.983C133.534 110.921 133.342 110.816 133.175 110.671C132.998 110.525 132.863 110.327 132.769 110.077C132.675 109.827 132.628 109.509 132.628 109.124V103.78H136.378V102.468H132.628V100.077ZM155.879 108.593L155.16 112.327H156.457L157.191 108.593H159.472V107.343H157.426L158.051 104.124H160.16V102.858H158.301L159.035 99.0613H157.738L156.988 102.858H154.582L155.332 99.0613H154.035L153.285 102.858H150.691V104.124H153.035L152.41 107.343H150.004V108.593H152.176L151.441 112.327H152.754L153.472 108.593H155.879ZM153.707 107.343L154.347 104.124H156.754L156.113 107.343H153.707ZM167.684 112.327V99.0613H167.559L162.527 100.999V102.53L165.996 101.218V112.327H167.684ZM181.551 112.327V110.952H174.895L178.457 107.093C178.791 106.728 179.108 106.363 179.41 105.999C179.713 105.624 179.978 105.249 180.207 104.874C180.426 104.499 180.603 104.119 180.739 103.733C180.874 103.348 180.942 102.957 180.942 102.561C180.942 102.03 180.848 101.54 180.66 101.093C180.473 100.645 180.207 100.259 179.864 99.9363C179.52 99.6029 179.098 99.3425 178.598 99.155C178.098 98.9675 177.535 98.8738 176.91 98.8738C176.223 98.8738 175.614 98.9832 175.082 99.2019C174.551 99.4207 174.103 99.7175 173.739 100.093C173.374 100.468 173.093 100.905 172.895 101.405C172.707 101.895 172.614 102.415 172.614 102.968H174.301C174.301 102.561 174.353 102.191 174.457 101.858C174.562 101.514 174.723 101.228 174.942 100.999C175.16 100.77 175.431 100.593 175.754 100.468C176.077 100.332 176.463 100.264 176.91 100.264C177.275 100.264 177.598 100.327 177.879 100.452C178.171 100.577 178.421 100.744 178.629 100.952C178.827 101.171 178.978 101.426 179.082 101.718C179.197 101.999 179.254 102.306 179.254 102.639C179.254 102.9 179.218 103.16 179.145 103.421C179.082 103.671 178.973 103.936 178.817 104.218C178.65 104.499 178.437 104.806 178.176 105.139C177.916 105.473 177.593 105.853 177.207 106.28L172.864 111.108V112.327H181.551ZM186.575 104.889V106.249H187.778C188.205 106.249 188.59 106.301 188.934 106.405C189.288 106.499 189.59 106.645 189.84 106.843C190.08 107.04 190.268 107.29 190.403 107.593C190.538 107.895 190.606 108.254 190.606 108.671C190.606 109.087 190.544 109.452 190.419 109.764C190.304 110.066 190.137 110.322 189.919 110.53C189.7 110.728 189.434 110.879 189.122 110.983C188.82 111.087 188.476 111.139 188.09 111.139C187.705 111.139 187.356 111.087 187.044 110.983C186.731 110.869 186.465 110.707 186.247 110.499C186.028 110.301 185.861 110.061 185.747 109.78C185.632 109.488 185.575 109.171 185.575 108.827H183.887C183.887 109.41 183.997 109.931 184.215 110.389C184.434 110.848 184.736 111.233 185.122 111.546C185.497 111.858 185.939 112.098 186.45 112.264C186.96 112.431 187.507 112.514 188.09 112.514C188.684 112.514 189.236 112.426 189.747 112.249C190.268 112.072 190.715 111.816 191.09 111.483C191.465 111.16 191.757 110.759 191.965 110.28C192.184 109.801 192.294 109.249 192.294 108.624C192.294 108.322 192.257 108.02 192.184 107.718C192.122 107.405 192.002 107.108 191.825 106.827C191.648 106.546 191.413 106.296 191.122 106.077C190.84 105.848 190.481 105.66 190.044 105.514C190.408 105.369 190.715 105.181 190.965 104.952C191.226 104.723 191.439 104.478 191.606 104.218C191.773 103.968 191.893 103.707 191.965 103.436C192.049 103.155 192.09 102.889 192.09 102.639C192.09 102.025 191.991 101.483 191.794 101.014C191.606 100.546 191.335 100.155 190.981 99.8425C190.627 99.5196 190.205 99.28 189.715 99.1238C189.226 98.9571 188.684 98.8738 188.09 98.8738C187.476 98.8738 186.913 98.9727 186.403 99.1707C185.903 99.3582 185.476 99.6186 185.122 99.9519C184.768 100.285 184.491 100.676 184.294 101.124C184.096 101.561 183.997 102.035 183.997 102.546H185.684C185.684 102.202 185.741 101.889 185.856 101.608C185.971 101.327 186.137 101.087 186.356 100.889C186.564 100.691 186.814 100.54 187.106 100.436C187.398 100.322 187.726 100.264 188.09 100.264C188.455 100.264 188.783 100.311 189.075 100.405C189.366 100.499 189.606 100.639 189.794 100.827C189.991 101.025 190.143 101.27 190.247 101.561C190.351 101.853 190.403 102.197 190.403 102.593C190.403 102.926 190.346 103.233 190.231 103.514C190.116 103.796 189.95 104.035 189.731 104.233C189.512 104.441 189.236 104.603 188.903 104.718C188.58 104.832 188.205 104.889 187.778 104.889H186.575Z" fill="black"/>
<path d="M43.2246 50.306L48.7558 35.8998H47.2402L41.709 50.306H43.2246ZM52.1858 52.9623H53.8733V48.2123C53.9879 48.3477 54.1129 48.4727 54.2483 48.5873C54.3941 48.7019 54.5452 48.806 54.7014 48.8998C54.9618 49.0456 55.2535 49.155 55.5764 49.2279C55.9097 49.3112 56.2639 49.3529 56.6389 49.3529C57.2535 49.3529 57.8004 49.2279 58.2795 48.9779C58.7691 48.7175 59.1806 48.3633 59.5139 47.9154C59.8368 47.4571 60.0816 46.9258 60.2483 46.3217C60.4254 45.7071 60.5139 45.0508 60.5139 44.3529V44.1498C60.5139 43.4206 60.4254 42.7487 60.2483 42.1342C60.0816 41.5092 59.8368 40.9779 59.5139 40.5404C59.1806 40.0925 58.7691 39.7487 58.2795 39.5092C57.8004 39.2592 57.2431 39.1342 56.6077 39.1342C56.2535 39.1342 55.9202 39.1706 55.6077 39.2435C55.2952 39.3164 55.0087 39.4258 54.7483 39.5717C54.5712 39.6654 54.3993 39.7852 54.2327 39.931C54.0764 40.0664 53.9358 40.2175 53.8108 40.3842L53.717 39.306H52.1858V52.9623ZM58.8264 44.1498V44.3529C58.8264 44.8321 58.7691 45.2904 58.6545 45.7279C58.5504 46.1654 58.3889 46.5508 58.1702 46.8842C57.9514 47.2175 57.6702 47.4831 57.3264 47.681C56.9931 47.8789 56.592 47.9779 56.1233 47.9779C55.8316 47.9779 55.566 47.9414 55.3264 47.8685C55.0868 47.7956 54.8733 47.6914 54.6858 47.556C54.5087 47.4519 54.3524 47.3217 54.217 47.1654C54.092 47.0092 53.9774 46.8373 53.8733 46.6498V41.8998C53.9879 41.7019 54.1181 41.5196 54.2639 41.3529C54.4202 41.1758 54.5972 41.03 54.7952 40.9154C54.9722 40.8008 55.1702 40.7123 55.3889 40.6498C55.6077 40.5873 55.8472 40.556 56.1077 40.556C56.5868 40.556 56.9931 40.655 57.3264 40.8529C57.6702 41.0404 57.9514 41.3008 58.1702 41.6342C58.3889 41.9675 58.5504 42.3529 58.6545 42.7904C58.7691 43.2175 58.8264 43.6706 58.8264 44.1498ZM69.8501 39.1342C69.1313 39.1342 68.4907 39.2904 67.9282 39.6029C67.3657 39.9154 66.8866 40.3373 66.4907 40.8685L66.4751 40.6342L66.397 39.306H64.8032V49.1654H66.4907V42.8373C66.6053 42.5352 66.7459 42.2644 66.9126 42.0248C67.0793 41.7748 67.272 41.5664 67.4907 41.3998C67.7407 41.2019 68.0324 41.056 68.3657 40.9623C68.6991 40.8581 69.0741 40.806 69.4907 40.806C69.8136 40.806 70.1209 40.8217 70.4126 40.8529C70.7147 40.8842 71.0272 40.9362 71.3501 41.0092L71.5845 39.3685C71.4074 39.2956 71.1522 39.2383 70.8188 39.1967C70.4855 39.155 70.1626 39.1342 69.8501 39.1342ZM74.1082 44.1498V44.3529C74.1082 45.0612 74.2123 45.7175 74.4207 46.3217C74.629 46.9258 74.9259 47.4571 75.3113 47.9154C75.6967 48.3633 76.1655 48.7175 76.7175 48.9779C77.28 49.2279 77.9103 49.3529 78.6082 49.3529C79.2957 49.3529 79.9155 49.2279 80.4675 48.9779C81.0196 48.7175 81.4884 48.3633 81.8738 47.9154C82.2592 47.4571 82.5561 46.9258 82.7644 46.3217C82.9728 45.7175 83.0769 45.0612 83.0769 44.3529V44.1498C83.0769 43.4414 82.9728 42.78 82.7644 42.1654C82.5561 41.5508 82.2592 41.0196 81.8738 40.5717C81.4884 40.1237 81.0144 39.7748 80.4519 39.5248C79.8998 39.2644 79.2748 39.1342 78.5769 39.1342C77.8894 39.1342 77.2696 39.2644 76.7175 39.5248C76.1655 39.7748 75.6967 40.1237 75.3113 40.5717C74.9259 41.0196 74.629 41.5508 74.4207 42.1654C74.2123 42.78 74.1082 43.4414 74.1082 44.1498ZM75.7957 44.3529V44.1498C75.7957 43.6706 75.853 43.2123 75.9675 42.7748C76.0821 42.3269 76.2592 41.9362 76.4988 41.6029C76.728 41.2696 77.0144 41.0039 77.3582 40.806C77.7019 40.6081 78.1082 40.5092 78.5769 40.5092C79.0457 40.5092 79.4519 40.6081 79.7957 40.806C80.1498 41.0039 80.4467 41.2696 80.6863 41.6029C80.9155 41.9362 81.0873 42.3269 81.2019 42.7748C81.3269 43.2123 81.3894 43.6706 81.3894 44.1498V44.3529C81.3894 44.8321 81.3321 45.2956 81.2175 45.7435C81.103 46.181 80.9311 46.5664 80.7019 46.8998C80.4623 47.2331 80.1655 47.4987 79.8113 47.6967C79.4675 47.8842 79.0665 47.9779 78.6082 47.9779C78.1394 47.9779 77.728 47.8842 77.3738 47.6967C77.0196 47.4987 76.728 47.2331 76.4988 46.8998C76.2592 46.5664 76.0821 46.181 75.9675 45.7435C75.853 45.2956 75.7957 44.8321 75.7957 44.3529ZM85.46 44.1498V44.3529C85.46 45.0508 85.5537 45.7071 85.7412 46.3217C85.9287 46.9258 86.1944 47.4571 86.5381 47.9154C86.8714 48.3633 87.2777 48.7175 87.7569 48.9779C88.2464 49.2279 88.7881 49.3529 89.3819 49.3529C89.9964 49.3529 90.5277 49.2487 90.9756 49.0404C91.4339 48.8321 91.8298 48.53 92.1631 48.1342L92.2256 49.1654H93.7725V35.1654H92.085V40.2904C91.7725 39.905 91.3923 39.6185 90.9444 39.431C90.5069 39.2331 89.9912 39.1342 89.3975 39.1342C88.8037 39.1342 88.2621 39.2592 87.7725 39.5092C87.2829 39.7487 86.8714 40.0925 86.5381 40.5404C86.1944 40.9779 85.9287 41.5092 85.7412 42.1342C85.5537 42.7487 85.46 43.4206 85.46 44.1498ZM87.1475 44.3529V44.1498C87.1475 43.6706 87.1996 43.2175 87.3037 42.7904C87.4079 42.3529 87.5694 41.9675 87.7881 41.6342C87.9964 41.3008 88.2673 41.0404 88.6006 40.8529C88.9444 40.655 89.3506 40.556 89.8194 40.556C90.3714 40.556 90.8298 40.6862 91.1944 40.9467C91.5694 41.2071 91.8662 41.5352 92.085 41.931V46.5092C91.8662 46.9362 91.5694 47.28 91.1944 47.5404C90.8298 47.7904 90.3662 47.9154 89.8037 47.9154C89.335 47.9154 88.9339 47.8217 88.6006 47.6342C88.2673 47.4362 87.9964 47.1758 87.7881 46.8529C87.5694 46.5196 87.4079 46.1394 87.3037 45.7123C87.1996 45.2852 87.1475 44.8321 87.1475 44.3529ZM103.468 49.1654H104.999V39.306H103.312V46.3842C103.218 46.5925 103.103 46.7852 102.968 46.9623C102.833 47.1394 102.671 47.2956 102.484 47.431C102.265 47.5873 102.005 47.7123 101.702 47.806C101.411 47.8894 101.077 47.931 100.702 47.931C100.38 47.931 100.093 47.8894 99.8431 47.806C99.6035 47.7123 99.3951 47.5612 99.2181 47.3529C99.0514 47.1446 98.9264 46.8685 98.8431 46.5248C98.7597 46.1706 98.7181 45.7227 98.7181 45.181V39.306H97.0306V45.1654C97.0306 45.905 97.1087 46.5352 97.2649 47.056C97.4316 47.5769 97.6608 48.0092 97.9524 48.3529C98.2545 48.6967 98.6139 48.9519 99.0306 49.1185C99.4472 49.2748 99.916 49.3529 100.437 49.3529C101.083 49.3529 101.65 49.2175 102.14 48.9467C102.63 48.6758 103.041 48.2956 103.374 47.806L103.468 49.1654ZM112.367 47.9779C111.836 47.9779 111.393 47.8737 111.039 47.6654C110.684 47.4571 110.403 47.181 110.195 46.8373C109.976 46.5039 109.82 46.1289 109.726 45.7123C109.632 45.2852 109.586 44.8581 109.586 44.431V44.0404C109.586 43.6237 109.632 43.2071 109.726 42.7904C109.82 42.3633 109.976 41.9779 110.195 41.6342C110.414 41.3008 110.7 41.03 111.054 40.8217C111.408 40.6133 111.846 40.5092 112.367 40.5092C112.711 40.5092 113.028 40.5664 113.32 40.681C113.612 40.7956 113.867 40.9571 114.086 41.1654C114.294 41.3633 114.461 41.5925 114.586 41.8529C114.711 42.1133 114.778 42.3946 114.789 42.6967H116.382C116.382 42.1967 116.278 41.7279 116.07 41.2904C115.872 40.8529 115.596 40.4727 115.242 40.1498C114.888 39.8373 114.466 39.5925 113.976 39.4154C113.487 39.2279 112.95 39.1342 112.367 39.1342C111.627 39.1342 110.976 39.2696 110.414 39.5404C109.851 39.8008 109.388 40.155 109.023 40.6029C108.648 41.0612 108.362 41.5873 108.164 42.181C107.976 42.7748 107.882 43.3946 107.882 44.0404V44.431C107.882 45.0873 107.976 45.7123 108.164 46.306C108.362 46.8894 108.648 47.4102 109.023 47.8685C109.388 48.3164 109.851 48.6758 110.414 48.9467C110.976 49.2175 111.627 49.3529 112.367 49.3529C112.888 49.3529 113.388 49.2644 113.867 49.0873C114.346 48.8998 114.773 48.655 115.148 48.3529C115.523 48.0612 115.82 47.7175 116.039 47.3217C116.257 46.9154 116.372 46.4935 116.382 46.056H114.789C114.778 46.3269 114.705 46.5821 114.57 46.8217C114.434 47.0508 114.252 47.2539 114.023 47.431C113.804 47.6081 113.549 47.7435 113.257 47.8373C112.966 47.931 112.669 47.9779 112.367 47.9779ZM123.359 36.9154H121.656V39.306H119.078V40.6185H121.656V45.9623C121.656 46.5769 121.734 47.0977 121.89 47.5248C122.057 47.9519 122.281 48.3008 122.562 48.5717C122.844 48.8425 123.172 49.0404 123.547 49.1654C123.932 49.2904 124.344 49.3529 124.781 49.3529C125.041 49.3529 125.302 49.3373 125.562 49.306C125.833 49.2852 126.083 49.2487 126.312 49.1967C126.552 49.155 126.771 49.1029 126.969 49.0404C127.166 48.9779 127.338 48.905 127.484 48.8217L127.25 47.6185C127.146 47.6498 127.01 47.681 126.844 47.7123C126.687 47.7435 126.515 47.7748 126.328 47.806C126.14 47.8373 125.948 47.8633 125.75 47.8842C125.562 47.905 125.38 47.9154 125.203 47.9154C124.953 47.9154 124.713 47.8842 124.484 47.8217C124.265 47.7592 124.073 47.655 123.906 47.5092C123.729 47.3633 123.594 47.1654 123.5 46.9154C123.406 46.6654 123.359 46.3477 123.359 45.9623V40.6185H127.109V39.306H123.359V36.9154ZM132.789 50.306L138.32 35.8998H136.805L131.274 50.306H132.789ZM147.219 49.1654V35.8998H147.094L142.063 37.8373V39.3685L145.532 38.056V49.1654H147.219ZM161.087 49.1654V47.7904H154.43L157.993 43.931C158.326 43.5664 158.644 43.2019 158.946 42.8373C159.248 42.4623 159.514 42.0873 159.743 41.7123C159.962 41.3373 160.139 40.9571 160.274 40.5717C160.409 40.1862 160.477 39.7956 160.477 39.3998C160.477 38.8685 160.383 38.3789 160.196 37.931C160.008 37.4831 159.743 37.0977 159.399 36.7748C159.055 36.4414 158.633 36.181 158.133 35.9935C157.633 35.806 157.071 35.7123 156.446 35.7123C155.758 35.7123 155.149 35.8217 154.618 36.0404C154.087 36.2592 153.639 36.556 153.274 36.931C152.909 37.306 152.628 37.7435 152.43 38.2435C152.243 38.7331 152.149 39.2539 152.149 39.806H153.837C153.837 39.3998 153.889 39.03 153.993 38.6967C154.097 38.3529 154.258 38.0664 154.477 37.8373C154.696 37.6081 154.967 37.431 155.29 37.306C155.613 37.1706 155.998 37.1029 156.446 37.1029C156.811 37.1029 157.133 37.1654 157.415 37.2904C157.706 37.4154 157.956 37.5821 158.165 37.7904C158.363 38.0092 158.514 38.2644 158.618 38.556C158.732 38.8373 158.79 39.1446 158.79 39.4779C158.79 39.7383 158.753 39.9987 158.68 40.2592C158.618 40.5092 158.508 40.7748 158.352 41.056C158.186 41.3373 157.972 41.6446 157.712 41.9779C157.451 42.3112 157.128 42.6914 156.743 43.1185L152.399 47.9467V49.1654H161.087ZM166.11 41.7279V43.0873H167.313C167.74 43.0873 168.126 43.1394 168.47 43.2435C168.824 43.3373 169.126 43.4831 169.376 43.681C169.615 43.8789 169.803 44.1289 169.938 44.431C170.074 44.7331 170.141 45.0925 170.141 45.5092C170.141 45.9258 170.079 46.2904 169.954 46.6029C169.839 46.905 169.673 47.1602 169.454 47.3685C169.235 47.5664 168.97 47.7175 168.657 47.8217C168.355 47.9258 168.011 47.9779 167.626 47.9779C167.24 47.9779 166.891 47.9258 166.579 47.8217C166.266 47.7071 166.001 47.5456 165.782 47.3373C165.563 47.1394 165.397 46.8998 165.282 46.6185C165.168 46.3269 165.11 46.0092 165.11 45.6654H163.423C163.423 46.2487 163.532 46.7696 163.751 47.2279C163.97 47.6862 164.272 48.0717 164.657 48.3842C165.032 48.6967 165.475 48.9362 165.985 49.1029C166.496 49.2696 167.043 49.3529 167.626 49.3529C168.22 49.3529 168.772 49.2644 169.282 49.0873C169.803 48.9102 170.251 48.655 170.626 48.3217C171.001 47.9987 171.293 47.5977 171.501 47.1185C171.72 46.6394 171.829 46.0873 171.829 45.4623C171.829 45.1602 171.793 44.8581 171.72 44.556C171.657 44.2435 171.537 43.9467 171.36 43.6654C171.183 43.3842 170.949 43.1342 170.657 42.9154C170.376 42.6862 170.016 42.4987 169.579 42.3529C169.944 42.2071 170.251 42.0196 170.501 41.7904C170.761 41.5612 170.975 41.3164 171.141 41.056C171.308 40.806 171.428 40.5456 171.501 40.2748C171.584 39.9935 171.626 39.7279 171.626 39.4779C171.626 38.8633 171.527 38.3217 171.329 37.8529C171.141 37.3842 170.871 36.9935 170.516 36.681C170.162 36.3581 169.74 36.1185 169.251 35.9623C168.761 35.7956 168.22 35.7123 167.626 35.7123C167.011 35.7123 166.449 35.8112 165.938 36.0092C165.438 36.1967 165.011 36.4571 164.657 36.7904C164.303 37.1237 164.027 37.5144 163.829 37.9623C163.631 38.3998 163.532 38.8737 163.532 39.3842H165.22C165.22 39.0404 165.277 38.7279 165.391 38.4467C165.506 38.1654 165.673 37.9258 165.891 37.7279C166.1 37.53 166.35 37.3789 166.641 37.2748C166.933 37.1602 167.261 37.1029 167.626 37.1029C167.99 37.1029 168.319 37.1498 168.61 37.2435C168.902 37.3373 169.141 37.4779 169.329 37.6654C169.527 37.8633 169.678 38.1081 169.782 38.3998C169.886 38.6914 169.938 39.0352 169.938 39.431C169.938 39.7644 169.881 40.0717 169.766 40.3529C169.652 40.6342 169.485 40.8737 169.266 41.0717C169.048 41.28 168.772 41.4414 168.438 41.556C168.115 41.6706 167.74 41.7279 167.313 41.7279H166.11ZM177.571 50.306L183.103 35.8998H181.587L176.056 50.306H177.571ZM186.798 39.306V40.7748H190.158V47.7123H186.798V49.1654H195.064V47.7123H191.845V39.306H186.798ZM189.939 36.7279C189.939 36.9987 190.022 37.2279 190.189 37.4154C190.356 37.5925 190.611 37.681 190.954 37.681C191.288 37.681 191.538 37.5925 191.704 37.4154C191.871 37.2279 191.954 36.9987 191.954 36.7279C191.954 36.5717 191.928 36.431 191.876 36.306C191.835 36.181 191.767 36.0717 191.673 35.9779C191.59 35.905 191.486 35.8477 191.361 35.806C191.246 35.7539 191.111 35.7279 190.954 35.7279C190.788 35.7279 190.642 35.7539 190.517 35.806C190.402 35.8477 190.303 35.905 190.22 35.9779C190.126 36.0717 190.053 36.1862 190.001 36.3217C189.96 36.4467 189.939 36.5821 189.939 36.7279ZM197.728 49.1654H199.416V42.1029C199.53 41.8842 199.666 41.6862 199.822 41.5092C199.978 41.3321 200.15 41.181 200.338 41.056C200.556 40.8998 200.796 40.78 201.056 40.6967C201.327 40.6029 201.619 40.556 201.931 40.556C202.296 40.556 202.614 40.5977 202.884 40.681C203.166 40.7644 203.4 40.8998 203.588 41.0873C203.775 41.2852 203.916 41.5352 204.009 41.8373C204.114 42.1394 204.166 42.5092 204.166 42.9467V49.1654H205.853V42.8998C205.853 42.2539 205.77 41.6914 205.603 41.2123C205.447 40.7331 205.218 40.3373 204.916 40.0248C204.624 39.7227 204.265 39.4987 203.838 39.3529C203.421 39.2071 202.952 39.1342 202.431 39.1342C202.056 39.1342 201.697 39.1914 201.353 39.306C201.009 39.4102 200.692 39.556 200.4 39.7435C200.202 39.8685 200.015 40.0196 199.838 40.1967C199.671 40.3737 199.515 40.5612 199.369 40.7592L199.244 39.306H197.728V49.1654ZM211.439 49.1654H213.143V40.6185H216.939V39.306H213.143V38.6185C213.143 38.2019 213.195 37.8425 213.299 37.5404C213.403 37.2279 213.559 36.9727 213.768 36.7748C213.965 36.5873 214.21 36.4467 214.502 36.3529C214.794 36.2592 215.132 36.2123 215.518 36.2123C215.893 36.2123 216.247 36.2435 216.58 36.306C216.913 36.3685 217.205 36.4414 217.455 36.5248L217.643 35.1342C217.486 35.0925 217.33 35.056 217.174 35.0248C217.028 34.9935 216.877 34.9623 216.721 34.931C216.491 34.8894 216.257 34.8529 216.018 34.8217C215.788 34.7904 215.554 34.7748 215.314 34.7748C214.731 34.7748 214.2 34.8581 213.721 35.0248C213.252 35.1914 212.851 35.4362 212.518 35.7592C212.174 36.0821 211.908 36.4831 211.721 36.9623C211.533 37.431 211.439 37.9831 211.439 38.6185V39.306H208.736V40.6185H211.439V49.1654ZM219.651 44.1498V44.3529C219.651 45.0612 219.755 45.7175 219.963 46.3217C220.171 46.9258 220.468 47.4571 220.854 47.9154C221.239 48.3633 221.708 48.7175 222.26 48.9779C222.822 49.2279 223.453 49.3529 224.151 49.3529C224.838 49.3529 225.458 49.2279 226.01 48.9779C226.562 48.7175 227.031 48.3633 227.416 47.9154C227.802 47.4571 228.099 46.9258 228.307 46.3217C228.515 45.7175 228.619 45.0612 228.619 44.3529V44.1498C228.619 43.4414 228.515 42.78 228.307 42.1654C228.099 41.5508 227.802 41.0196 227.416 40.5717C227.031 40.1237 226.557 39.7748 225.994 39.5248C225.442 39.2644 224.817 39.1342 224.119 39.1342C223.432 39.1342 222.812 39.2644 222.26 39.5248C221.708 39.7748 221.239 40.1237 220.854 40.5717C220.468 41.0196 220.171 41.5508 219.963 42.1654C219.755 42.78 219.651 43.4414 219.651 44.1498ZM221.338 44.3529V44.1498C221.338 43.6706 221.395 43.2123 221.51 42.7748C221.625 42.3269 221.802 41.9362 222.041 41.6029C222.27 41.2696 222.557 41.0039 222.901 40.806C223.244 40.6081 223.651 40.5092 224.119 40.5092C224.588 40.5092 224.994 40.6081 225.338 40.806C225.692 41.0039 225.989 41.2696 226.229 41.6029C226.458 41.9362 226.63 42.3269 226.744 42.7748C226.869 43.2123 226.932 43.6706 226.932 44.1498V44.3529C226.932 44.8321 226.875 45.2956 226.76 45.7435C226.645 46.181 226.474 46.5664 226.244 46.8998C226.005 47.2331 225.708 47.4987 225.354 47.6967C225.01 47.8842 224.609 47.9779 224.151 47.9779C223.682 47.9779 223.27 47.8842 222.916 47.6967C222.562 47.4987 222.27 47.2331 222.041 46.8998C221.802 46.5664 221.625 46.181 221.51 45.7435C221.395 45.2956 221.338 44.8321 221.338 44.3529Z" fill="black"/>
<path fill-rule="evenodd" clip-rule="evenodd" d="M61.6247 167.082C61.6247 147.747 77.2985 132.073 96.6332 132.073H236.663C245.948 132.073 254.853 135.762 261.418 142.327C267.984 148.893 271.672 157.797 271.672 167.082V403.112C271.672 422.447 255.998 438.121 236.663 438.121H96.6332C77.2985 438.121 61.6247 422.447 61.6247 403.112V167.082Z" fill="#CFE2F3"/>
<path fill-rule="evenodd" clip-rule="evenodd" d="M61.6247 167.082C61.6247 147.747 77.2985 132.073 96.6332 132.073H236.663C245.948 132.073 254.853 135.762 261.418 142.327C267.984 148.893 271.672 157.797 271.672 167.082V403.112C271.672 422.447 255.998 438.121 236.663 438.121H96.6332C77.2985 438.121 61.6247 422.447 61.6247 403.112V167.082Z" stroke="black" stroke-miterlimit="10" stroke-linejoin="round"/>
<path d="M90.3445 160.271V161.74H93.4539V172.084H90.3445V173.537H98.3602V172.084H95.1883V161.74H98.3602V160.271H90.3445ZM101.54 173.537H103.228V166.474C103.342 166.256 103.478 166.058 103.634 165.881C103.79 165.704 103.962 165.552 104.149 165.427C104.368 165.271 104.608 165.151 104.868 165.068C105.139 164.974 105.431 164.927 105.743 164.927C106.108 164.927 106.426 164.969 106.696 165.052C106.978 165.136 107.212 165.271 107.399 165.459C107.587 165.657 107.728 165.907 107.821 166.209C107.926 166.511 107.978 166.881 107.978 167.318V173.537H109.665V167.271C109.665 166.625 109.582 166.063 109.415 165.584C109.259 165.105 109.03 164.709 108.728 164.396C108.436 164.094 108.077 163.87 107.649 163.724C107.233 163.579 106.764 163.506 106.243 163.506C105.868 163.506 105.509 163.563 105.165 163.677C104.821 163.782 104.504 163.927 104.212 164.115C104.014 164.24 103.827 164.391 103.649 164.568C103.483 164.745 103.327 164.933 103.181 165.131L103.056 163.677H101.54V173.537ZM115.251 173.537H116.954V164.99H120.751V163.677H116.954V162.99C116.954 162.573 117.007 162.214 117.111 161.912C117.215 161.599 117.371 161.344 117.579 161.146C117.777 160.959 118.022 160.818 118.314 160.724C118.605 160.631 118.944 160.584 119.329 160.584C119.704 160.584 120.059 160.615 120.392 160.677C120.725 160.74 121.017 160.813 121.267 160.896L121.454 159.506C121.298 159.464 121.142 159.427 120.986 159.396C120.84 159.365 120.689 159.334 120.533 159.302C120.303 159.261 120.069 159.224 119.829 159.193C119.6 159.162 119.366 159.146 119.126 159.146C118.543 159.146 118.012 159.23 117.533 159.396C117.064 159.563 116.663 159.808 116.329 160.131C115.986 160.454 115.72 160.855 115.533 161.334C115.345 161.802 115.251 162.355 115.251 162.99V163.677H112.548V164.99H115.251V173.537ZM123.462 168.521V168.724C123.462 169.433 123.567 170.089 123.775 170.693C123.983 171.297 124.28 171.829 124.666 172.287C125.051 172.735 125.52 173.089 126.072 173.349C126.634 173.599 127.265 173.724 127.962 173.724C128.65 173.724 129.27 173.599 129.822 173.349C130.374 173.089 130.843 172.735 131.228 172.287C131.614 171.829 131.91 171.297 132.119 170.693C132.327 170.089 132.431 169.433 132.431 168.724V168.521C132.431 167.813 132.327 167.151 132.119 166.537C131.91 165.922 131.614 165.391 131.228 164.943C130.843 164.495 130.369 164.146 129.806 163.896C129.254 163.636 128.629 163.506 127.931 163.506C127.244 163.506 126.624 163.636 126.072 163.896C125.52 164.146 125.051 164.495 124.666 164.943C124.28 165.391 123.983 165.922 123.775 166.537C123.567 167.151 123.462 167.813 123.462 168.521ZM125.15 168.724V168.521C125.15 168.042 125.207 167.584 125.322 167.146C125.436 166.698 125.614 166.308 125.853 165.974C126.082 165.641 126.369 165.375 126.712 165.177C127.056 164.98 127.462 164.881 127.931 164.881C128.4 164.881 128.806 164.98 129.15 165.177C129.504 165.375 129.801 165.641 130.041 165.974C130.27 166.308 130.442 166.698 130.556 167.146C130.681 167.584 130.744 168.042 130.744 168.521V168.724C130.744 169.204 130.686 169.667 130.572 170.115C130.457 170.552 130.285 170.938 130.056 171.271C129.817 171.605 129.52 171.87 129.166 172.068C128.822 172.256 128.421 172.349 127.962 172.349C127.494 172.349 127.082 172.256 126.728 172.068C126.374 171.87 126.082 171.605 125.853 171.271C125.614 170.938 125.436 170.552 125.322 170.115C125.207 169.667 125.15 169.204 125.15 168.724Z" fill="black"/>
<path fill-rule="evenodd" clip-rule="evenodd" d="M369.202 120.591C369.202 95.5106 389.534 75.1785 414.615 75.1785H596.262C608.306 75.1785 619.857 79.963 628.373 88.4796C636.89 96.9962 641.675 108.547 641.675 120.591V418.238C641.675 443.319 621.342 463.651 596.262 463.651H414.615C389.534 463.651 369.202 443.319 369.202 418.238V120.591Z" fill="white"/>
<path fill-rule="evenodd" clip-rule="evenodd" d="M369.202 120.591C369.202 95.5106 389.534 75.1785 414.615 75.1785H596.262C608.306 75.1785 619.857 79.963 628.373 88.4796C636.89 96.9962 641.675 108.547 641.675 120.591V418.238C641.675 443.319 621.342 463.651 596.262 463.651H414.615C389.534 463.651 369.202 443.319 369.202 418.238V120.591Z" stroke="black" stroke-miterlimit="10" stroke-linejoin="round"/>
<path d="M402.089 107.014H404.714C405.307 107.004 405.87 106.91 406.401 106.733C406.932 106.556 407.396 106.301 407.792 105.968C408.198 105.634 408.516 105.223 408.745 104.733C408.984 104.244 409.104 103.681 409.104 103.046C409.104 102.41 408.984 101.848 408.745 101.358C408.516 100.858 408.198 100.441 407.792 100.108C407.396 99.7748 406.932 99.5196 406.401 99.3425C405.87 99.1654 405.307 99.0717 404.714 99.0613H400.401V112.327H402.089V107.014ZM402.089 105.624V100.452H404.714C405.099 100.452 405.453 100.514 405.776 100.639C406.109 100.764 406.401 100.936 406.651 101.155C406.88 101.384 407.063 101.66 407.198 101.983C407.344 102.306 407.417 102.665 407.417 103.061C407.417 103.468 407.344 103.827 407.198 104.139C407.063 104.452 406.875 104.718 406.635 104.936C406.396 105.155 406.109 105.322 405.776 105.436C405.453 105.551 405.099 105.613 404.714 105.624H402.089ZM417.909 102.296C417.19 102.296 416.55 102.452 415.987 102.764C415.425 103.077 414.946 103.499 414.55 104.03L414.534 103.796L414.456 102.468H412.862V112.327H414.55V105.999C414.664 105.697 414.805 105.426 414.972 105.186C415.138 104.936 415.331 104.728 415.55 104.561C415.8 104.363 416.091 104.218 416.425 104.124C416.758 104.02 417.133 103.968 417.55 103.968C417.873 103.968 418.18 103.983 418.472 104.014C418.774 104.046 419.086 104.098 419.409 104.171L419.643 102.53C419.466 102.457 419.211 102.4 418.878 102.358C418.545 102.316 418.222 102.296 417.909 102.296ZM422.167 107.311V107.514C422.167 108.223 422.271 108.879 422.48 109.483C422.688 110.087 422.985 110.619 423.37 111.077C423.756 111.525 424.224 111.879 424.777 112.139C425.339 112.389 425.969 112.514 426.667 112.514C427.355 112.514 427.974 112.389 428.527 112.139C429.079 111.879 429.547 111.525 429.933 111.077C430.318 110.619 430.615 110.087 430.823 109.483C431.032 108.879 431.136 108.223 431.136 107.514V107.311C431.136 106.603 431.032 105.941 430.823 105.327C430.615 104.712 430.318 104.181 429.933 103.733C429.547 103.285 429.073 102.936 428.511 102.686C427.959 102.426 427.334 102.296 426.636 102.296C425.948 102.296 425.329 102.426 424.777 102.686C424.224 102.936 423.756 103.285 423.37 103.733C422.985 104.181 422.688 104.712 422.48 105.327C422.271 105.941 422.167 106.603 422.167 107.311ZM423.855 107.514V107.311C423.855 106.832 423.912 106.374 424.027 105.936C424.141 105.488 424.318 105.098 424.558 104.764C424.787 104.431 425.073 104.165 425.417 103.968C425.761 103.77 426.167 103.671 426.636 103.671C427.105 103.671 427.511 103.77 427.855 103.968C428.209 104.165 428.506 104.431 428.745 104.764C428.974 105.098 429.146 105.488 429.261 105.936C429.386 106.374 429.448 106.832 429.448 107.311V107.514C429.448 107.994 429.391 108.457 429.277 108.905C429.162 109.343 428.99 109.728 428.761 110.061C428.521 110.395 428.224 110.66 427.87 110.858C427.527 111.046 427.126 111.139 426.667 111.139C426.198 111.139 425.787 111.046 425.433 110.858C425.079 110.66 424.787 110.395 424.558 110.061C424.318 109.728 424.141 109.343 424.027 108.905C423.912 108.457 423.855 107.994 423.855 107.514ZM433.519 107.311V107.514C433.519 108.212 433.613 108.869 433.8 109.483C433.988 110.087 434.253 110.619 434.597 111.077C434.93 111.525 435.337 111.879 435.816 112.139C436.305 112.389 436.847 112.514 437.441 112.514C438.055 112.514 438.587 112.41 439.035 112.202C439.493 111.994 439.889 111.691 440.222 111.296L440.285 112.327H441.831V98.3269H440.144V103.452C439.831 103.066 439.451 102.78 439.003 102.593C438.566 102.395 438.05 102.296 437.456 102.296C436.863 102.296 436.321 102.421 435.831 102.671C435.342 102.91 434.93 103.254 434.597 103.702C434.253 104.139 433.988 104.671 433.8 105.296C433.613 105.91 433.519 106.582 433.519 107.311ZM435.206 107.514V107.311C435.206 106.832 435.259 106.379 435.363 105.952C435.467 105.514 435.628 105.129 435.847 104.796C436.055 104.462 436.326 104.202 436.66 104.014C437.003 103.816 437.41 103.718 437.878 103.718C438.43 103.718 438.889 103.848 439.253 104.108C439.628 104.369 439.925 104.697 440.144 105.093V109.671C439.925 110.098 439.628 110.441 439.253 110.702C438.889 110.952 438.425 111.077 437.863 111.077C437.394 111.077 436.993 110.983 436.66 110.796C436.326 110.598 436.055 110.337 435.847 110.014C435.628 109.681 435.467 109.301 435.363 108.874C435.259 108.447 435.206 107.994 435.206 107.514ZM451.527 112.327H453.058V102.468H451.371V109.546C451.277 109.754 451.163 109.947 451.027 110.124C450.892 110.301 450.73 110.457 450.543 110.593C450.324 110.749 450.064 110.874 449.761 110.968C449.47 111.051 449.136 111.093 448.761 111.093C448.439 111.093 448.152 111.051 447.902 110.968C447.663 110.874 447.454 110.723 447.277 110.514C447.11 110.306 446.985 110.03 446.902 109.686C446.819 109.332 446.777 108.884 446.777 108.343V102.468H445.09V108.327C445.09 109.066 445.168 109.697 445.324 110.218C445.491 110.738 445.72 111.171 446.011 111.514C446.314 111.858 446.673 112.113 447.09 112.28C447.506 112.436 447.975 112.514 448.496 112.514C449.142 112.514 449.709 112.379 450.199 112.108C450.689 111.837 451.1 111.457 451.433 110.968L451.527 112.327ZM460.426 111.139C459.895 111.139 459.452 111.035 459.098 110.827C458.743 110.619 458.462 110.343 458.254 109.999C458.035 109.665 457.879 109.29 457.785 108.874C457.691 108.447 457.645 108.02 457.645 107.593V107.202C457.645 106.785 457.691 106.369 457.785 105.952C457.879 105.525 458.035 105.139 458.254 104.796C458.473 104.462 458.759 104.191 459.113 103.983C459.467 103.775 459.905 103.671 460.426 103.671C460.77 103.671 461.087 103.728 461.379 103.843C461.671 103.957 461.926 104.119 462.145 104.327C462.353 104.525 462.52 104.754 462.645 105.014C462.77 105.275 462.837 105.556 462.848 105.858H464.441C464.441 105.358 464.337 104.889 464.129 104.452C463.931 104.014 463.655 103.634 463.301 103.311C462.947 102.999 462.525 102.754 462.035 102.577C461.546 102.389 461.009 102.296 460.426 102.296C459.686 102.296 459.035 102.431 458.473 102.702C457.91 102.962 457.447 103.316 457.082 103.764C456.707 104.223 456.421 104.749 456.223 105.343C456.035 105.936 455.941 106.556 455.941 107.202V107.593C455.941 108.249 456.035 108.874 456.223 109.468C456.421 110.051 456.707 110.572 457.082 111.03C457.447 111.478 457.91 111.837 458.473 112.108C459.035 112.379 459.686 112.514 460.426 112.514C460.947 112.514 461.447 112.426 461.926 112.249C462.405 112.061 462.832 111.816 463.207 111.514C463.582 111.223 463.879 110.879 464.098 110.483C464.316 110.077 464.431 109.655 464.441 109.218H462.848C462.837 109.488 462.764 109.744 462.629 109.983C462.493 110.212 462.311 110.415 462.082 110.593C461.863 110.77 461.608 110.905 461.316 110.999C461.025 111.093 460.728 111.139 460.426 111.139ZM471.418 100.077H469.715V102.468H467.137V103.78H469.715V109.124C469.715 109.738 469.793 110.259 469.949 110.686C470.116 111.113 470.34 111.462 470.621 111.733C470.903 112.004 471.231 112.202 471.606 112.327C471.991 112.452 472.403 112.514 472.84 112.514C473.101 112.514 473.361 112.499 473.621 112.468C473.892 112.447 474.142 112.41 474.371 112.358C474.611 112.316 474.83 112.264 475.028 112.202C475.226 112.139 475.397 112.066 475.543 111.983L475.309 110.78C475.205 110.811 475.069 110.843 474.903 110.874C474.746 110.905 474.574 110.936 474.387 110.968C474.199 110.999 474.007 111.025 473.809 111.046C473.621 111.066 473.439 111.077 473.262 111.077C473.012 111.077 472.772 111.046 472.543 110.983C472.324 110.921 472.132 110.816 471.965 110.671C471.788 110.525 471.653 110.327 471.559 110.077C471.465 109.827 471.418 109.509 471.418 109.124V103.78H475.168V102.468H471.418V100.077ZM494.669 108.593L493.95 112.327H495.247L495.981 108.593H498.263V107.343H496.216L496.841 104.124H498.95V102.858H497.091L497.825 99.0613H496.528L495.778 102.858H493.372L494.122 99.0613H492.825L492.075 102.858H489.481V104.124H491.825L491.2 107.343H488.794V108.593H490.966L490.231 112.327H491.544L492.263 108.593H494.669ZM492.497 107.343L493.138 104.124H495.544L494.903 107.343H492.497ZM506.474 112.327V99.0613H506.349L501.317 100.999V102.53L504.786 101.218V112.327H506.474ZM520.341 112.327V110.952H513.685L517.247 107.093C517.581 106.728 517.898 106.363 518.201 105.999C518.503 105.624 518.768 105.249 518.997 104.874C519.216 104.499 519.393 104.119 519.529 103.733C519.664 103.348 519.732 102.957 519.732 102.561C519.732 102.03 519.638 101.54 519.451 101.093C519.263 100.645 518.997 100.259 518.654 99.9363C518.31 99.6029 517.888 99.3425 517.388 99.155C516.888 98.9675 516.326 98.8738 515.701 98.8738C515.013 98.8738 514.404 98.9832 513.872 99.2019C513.341 99.4207 512.893 99.7175 512.529 100.093C512.164 100.468 511.883 100.905 511.685 101.405C511.497 101.895 511.404 102.415 511.404 102.968H513.091C513.091 102.561 513.143 102.191 513.247 101.858C513.352 101.514 513.513 101.228 513.732 100.999C513.951 100.77 514.221 100.593 514.544 100.468C514.867 100.332 515.253 100.264 515.701 100.264C516.065 100.264 516.388 100.327 516.669 100.452C516.961 100.577 517.211 100.744 517.419 100.952C517.617 101.171 517.768 101.426 517.872 101.718C517.987 101.999 518.044 102.306 518.044 102.639C518.044 102.9 518.008 103.16 517.935 103.421C517.872 103.671 517.763 103.936 517.607 104.218C517.44 104.499 517.227 104.806 516.966 105.139C516.706 105.473 516.383 105.853 515.997 106.28L511.654 111.108V112.327H520.341ZM525.365 104.889V106.249H526.568C526.995 106.249 527.38 106.301 527.724 106.405C528.078 106.499 528.38 106.645 528.63 106.843C528.87 107.04 529.058 107.29 529.193 107.593C529.328 107.895 529.396 108.254 529.396 108.671C529.396 109.087 529.334 109.452 529.209 109.764C529.094 110.066 528.927 110.322 528.709 110.53C528.49 110.728 528.224 110.879 527.912 110.983C527.61 111.087 527.266 111.139 526.88 111.139C526.495 111.139 526.146 111.087 525.834 110.983C525.521 110.869 525.255 110.707 525.037 110.499C524.818 110.301 524.651 110.061 524.537 109.78C524.422 109.488 524.365 109.171 524.365 108.827H522.677C522.677 109.41 522.787 109.931 523.005 110.389C523.224 110.848 523.526 111.233 523.912 111.546C524.287 111.858 524.729 112.098 525.24 112.264C525.75 112.431 526.297 112.514 526.88 112.514C527.474 112.514 528.026 112.426 528.537 112.249C529.058 112.072 529.505 111.816 529.88 111.483C530.255 111.16 530.547 110.759 530.755 110.28C530.974 109.801 531.084 109.249 531.084 108.624C531.084 108.322 531.047 108.02 530.974 107.718C530.912 107.405 530.792 107.108 530.615 106.827C530.438 106.546 530.203 106.296 529.912 106.077C529.63 105.848 529.271 105.66 528.834 105.514C529.198 105.369 529.505 105.181 529.755 104.952C530.016 104.723 530.229 104.478 530.396 104.218C530.563 103.968 530.683 103.707 530.755 103.436C530.839 103.155 530.88 102.889 530.88 102.639C530.88 102.025 530.781 101.483 530.584 101.014C530.396 100.546 530.125 100.155 529.771 99.8425C529.417 99.5196 528.995 99.28 528.505 99.1238C528.016 98.9571 527.474 98.8738 526.88 98.8738C526.266 98.8738 525.703 98.9727 525.193 99.1707C524.693 99.3582 524.266 99.6186 523.912 99.9519C523.558 100.285 523.281 100.676 523.084 101.124C522.886 101.561 522.787 102.035 522.787 102.546H524.474C524.474 102.202 524.531 101.889 524.646 101.608C524.761 101.327 524.927 101.087 525.146 100.889C525.354 100.691 525.604 100.54 525.896 100.436C526.188 100.322 526.516 100.264 526.88 100.264C527.245 100.264 527.573 100.311 527.865 100.405C528.156 100.499 528.396 100.639 528.584 100.827C528.781 101.025 528.933 101.27 529.037 101.561C529.141 101.853 529.193 102.197 529.193 102.593C529.193 102.926 529.136 103.233 529.021 103.514C528.906 103.796 528.74 104.035 528.521 104.233C528.302 104.441 528.026 104.603 527.693 104.718C527.37 104.832 526.995 104.889 526.568 104.889H525.365Z" fill="black"/>
<path fill-rule="evenodd" clip-rule="evenodd" d="M400.415 167.082C400.415 147.747 416.089 132.073 435.423 132.073H575.453C584.738 132.073 593.643 135.762 600.208 142.327C606.774 148.893 610.462 157.797 610.462 167.082V403.112C610.462 422.447 594.788 438.121 575.453 438.121H435.423C416.089 438.121 400.415 422.447 400.415 403.112V167.082Z" fill="#D9EAD3"/>
<path fill-rule="evenodd" clip-rule="evenodd" d="M400.415 167.082C400.415 147.747 416.089 132.073 435.423 132.073H575.453C584.738 132.073 593.643 135.762 600.208 142.327C606.774 148.893 610.462 157.797 610.462 167.082V403.112C610.462 422.447 594.788 438.121 575.453 438.121H435.423C416.089 438.121 400.415 422.447 400.415 403.112V167.082Z" stroke="black" stroke-miterlimit="10" stroke-linejoin="round"/>
<path d="M433.525 168.131L436.135 173.537H437.916V173.427L435.103 167.756C435.468 167.599 435.801 167.412 436.103 167.193C436.416 166.964 436.681 166.704 436.9 166.412C437.119 166.12 437.286 165.797 437.4 165.443C437.525 165.079 437.588 164.683 437.588 164.256C437.588 163.589 437.473 163.011 437.244 162.521C437.015 162.021 436.697 161.605 436.291 161.271C435.874 160.948 435.39 160.704 434.838 160.537C434.296 160.37 433.713 160.282 433.088 160.271H429.213V173.537H430.885V168.131H433.525ZM430.885 166.74V161.662H433.088C433.504 161.662 433.879 161.719 434.213 161.834C434.556 161.938 434.853 162.099 435.103 162.318C435.353 162.537 435.546 162.808 435.681 163.131C435.827 163.443 435.9 163.813 435.9 164.24C435.9 164.636 435.827 164.99 435.681 165.302C435.536 165.605 435.338 165.865 435.088 166.084C434.838 166.292 434.546 166.454 434.213 166.568C433.879 166.672 433.52 166.73 433.135 166.74H430.885ZM444.69 173.724C445.648 173.724 446.455 173.532 447.111 173.146C447.768 172.761 448.257 172.318 448.58 171.818L447.549 171.021C447.236 171.417 446.846 171.74 446.377 171.99C445.919 172.23 445.387 172.349 444.783 172.349C444.325 172.349 443.908 172.266 443.533 172.099C443.158 171.922 442.835 171.683 442.565 171.381C442.304 171.11 442.101 170.792 441.955 170.427C441.809 170.063 441.716 169.641 441.674 169.162V169.084H448.705V168.334C448.705 167.646 448.617 167.011 448.44 166.427C448.273 165.834 448.012 165.318 447.658 164.881C447.304 164.454 446.861 164.12 446.33 163.881C445.799 163.631 445.179 163.506 444.471 163.506C443.908 163.506 443.356 163.62 442.815 163.849C442.283 164.079 441.804 164.407 441.377 164.834C440.96 165.271 440.622 165.808 440.361 166.443C440.111 167.068 439.986 167.776 439.986 168.568V168.959C439.986 169.646 440.101 170.282 440.33 170.865C440.559 171.448 440.882 171.948 441.299 172.365C441.705 172.792 442.2 173.125 442.783 173.365C443.367 173.605 444.002 173.724 444.69 173.724ZM444.471 164.881C444.908 164.881 445.283 164.959 445.596 165.115C445.908 165.271 446.163 165.48 446.361 165.74C446.57 165.99 446.731 166.292 446.846 166.646C446.96 166.99 447.018 167.318 447.018 167.631V167.709H441.721C441.783 167.25 441.898 166.849 442.065 166.506C442.242 166.151 442.45 165.855 442.69 165.615C442.929 165.375 443.2 165.193 443.502 165.068C443.804 164.943 444.127 164.881 444.471 164.881ZM454.901 173.537H456.182L460.198 163.677H458.479L455.713 171.115L455.557 171.724L455.401 171.115L452.573 163.677H450.838L454.901 173.537ZM462.987 163.677V165.146H466.346V172.084H462.987V173.537H471.253V172.084H468.034V163.677H462.987ZM466.128 161.099C466.128 161.37 466.211 161.599 466.378 161.787C466.544 161.964 466.799 162.052 467.143 162.052C467.476 162.052 467.726 161.964 467.893 161.787C468.06 161.599 468.143 161.37 468.143 161.099C468.143 160.943 468.117 160.802 468.065 160.677C468.023 160.552 467.956 160.443 467.862 160.349C467.779 160.276 467.674 160.219 467.549 160.177C467.435 160.125 467.299 160.099 467.143 160.099C466.976 160.099 466.831 160.125 466.706 160.177C466.591 160.219 466.492 160.276 466.409 160.349C466.315 160.443 466.242 160.558 466.19 160.693C466.148 160.818 466.128 160.954 466.128 161.099ZM478.276 173.724C479.235 173.724 480.042 173.532 480.698 173.146C481.354 172.761 481.844 172.318 482.167 171.818L481.136 171.021C480.823 171.417 480.432 171.74 479.964 171.99C479.505 172.23 478.974 172.349 478.37 172.349C477.912 172.349 477.495 172.266 477.12 172.099C476.745 171.922 476.422 171.683 476.151 171.381C475.891 171.11 475.688 170.792 475.542 170.427C475.396 170.063 475.302 169.641 475.261 169.162V169.084H482.292V168.334C482.292 167.646 482.203 167.011 482.026 166.427C481.86 165.834 481.599 165.318 481.245 164.881C480.891 164.454 480.448 164.12 479.917 163.881C479.386 163.631 478.766 163.506 478.057 163.506C477.495 163.506 476.943 163.62 476.401 163.849C475.87 164.079 475.391 164.407 474.964 164.834C474.547 165.271 474.209 165.808 473.948 166.443C473.698 167.068 473.573 167.776 473.573 168.568V168.959C473.573 169.646 473.688 170.282 473.917 170.865C474.146 171.448 474.469 171.948 474.886 172.365C475.292 172.792 475.787 173.125 476.37 173.365C476.953 173.605 477.589 173.724 478.276 173.724ZM478.057 164.881C478.495 164.881 478.87 164.959 479.182 165.115C479.495 165.271 479.75 165.48 479.948 165.74C480.156 165.99 480.318 166.292 480.432 166.646C480.547 166.99 480.604 167.318 480.604 167.631V167.709H475.307C475.37 167.25 475.485 166.849 475.651 166.506C475.828 166.151 476.037 165.855 476.276 165.615C476.516 165.375 476.787 165.193 477.089 165.068C477.391 164.943 477.714 164.881 478.057 164.881ZM486.066 173.537H487.394L488.925 167.49L489.159 165.974L489.425 167.49L490.956 173.537H492.284L494.378 163.677H492.894L491.8 169.959L491.55 171.521L491.284 169.959L489.722 163.677H488.628L487.066 169.959L486.816 171.381L486.612 169.959L485.472 163.677H483.972L486.066 173.537ZM502.87 170.927C502.87 171.084 502.839 171.235 502.777 171.381C502.714 171.516 502.626 171.641 502.511 171.756C502.324 171.943 502.063 172.089 501.73 172.193C501.397 172.297 501.006 172.349 500.558 172.349C500.266 172.349 499.975 172.323 499.683 172.271C499.391 172.209 499.126 172.105 498.886 171.959C498.647 171.813 498.443 171.62 498.277 171.381C498.12 171.141 498.032 170.849 498.011 170.506H496.324C496.324 170.922 496.417 171.329 496.605 171.724C496.803 172.11 497.084 172.448 497.449 172.74C497.803 173.032 498.24 173.271 498.761 173.459C499.282 173.636 499.881 173.724 500.558 173.724C501.141 173.724 501.678 173.657 502.167 173.521C502.657 173.375 503.079 173.172 503.433 172.912C503.787 172.662 504.058 172.36 504.245 172.006C504.443 171.641 504.542 171.24 504.542 170.802C504.542 170.396 504.454 170.042 504.277 169.74C504.11 169.427 503.865 169.151 503.542 168.912C503.209 168.683 502.803 168.485 502.324 168.318C501.844 168.151 501.303 168 500.699 167.865C500.24 167.782 499.86 167.693 499.558 167.599C499.256 167.495 499.016 167.381 498.839 167.256C498.652 167.141 498.522 167.006 498.449 166.849C498.376 166.693 498.339 166.521 498.339 166.334C498.339 166.146 498.386 165.964 498.48 165.787C498.574 165.61 498.709 165.454 498.886 165.318C499.063 165.183 499.287 165.079 499.558 165.006C499.829 164.922 500.147 164.881 500.511 164.881C500.855 164.881 501.162 164.933 501.433 165.037C501.714 165.131 501.954 165.256 502.152 165.412C502.339 165.568 502.485 165.75 502.589 165.959C502.704 166.157 502.761 166.365 502.761 166.584H504.449C504.449 166.146 504.355 165.74 504.167 165.365C503.99 164.99 503.73 164.667 503.386 164.396C503.042 164.115 502.626 163.896 502.136 163.74C501.657 163.584 501.115 163.506 500.511 163.506C499.938 163.506 499.417 163.584 498.949 163.74C498.48 163.886 498.074 164.089 497.73 164.349C497.397 164.61 497.136 164.917 496.949 165.271C496.761 165.615 496.667 165.985 496.667 166.381C496.667 166.787 496.756 167.146 496.933 167.459C497.12 167.761 497.381 168.026 497.714 168.256C498.037 168.485 498.428 168.683 498.886 168.849C499.355 169.006 499.876 169.146 500.449 169.271C500.907 169.355 501.287 169.454 501.589 169.568C501.902 169.683 502.152 169.808 502.339 169.943C502.527 170.079 502.662 170.224 502.745 170.381C502.829 170.537 502.87 170.719 502.87 170.927Z" fill="black"/>
<path d="M302.885 269.415H363.215" stroke="black" stroke-miterlimit="10" stroke-linejoin="round"/>
<path fill-rule="evenodd" clip-rule="evenodd" d="M363.215 271.066L367.753 269.415L363.215 267.763V271.066Z" fill="black" stroke="black" stroke-miterlimit="10"/>
<path fill-rule="evenodd" clip-rule="evenodd" d="M369.202 22.2454H641.675V64.2612H369.202V22.2454Z" fill="#D9EAD3"/>
<path fill-rule="evenodd" clip-rule="evenodd" d="M369.202 22.2454H641.675V64.2612H369.202V22.2454Z" stroke="black" stroke-miterlimit="10" stroke-linejoin="round"/>
<path d="M382.015 50.306L387.546 35.8998H386.03L380.499 50.306H382.015ZM390.976 52.9623H392.663V48.2123C392.778 48.3477 392.903 48.4727 393.038 48.5873C393.184 48.7019 393.335 48.806 393.491 48.8998C393.752 49.0456 394.044 49.155 394.366 49.2279C394.7 49.3112 395.054 49.3529 395.429 49.3529C396.044 49.3529 396.59 49.2279 397.07 48.9779C397.559 48.7175 397.971 48.3633 398.304 47.9154C398.627 47.4571 398.872 46.9258 399.038 46.3217C399.215 45.7071 399.304 45.0508 399.304 44.3529V44.1498C399.304 43.4206 399.215 42.7487 399.038 42.1342C398.872 41.5092 398.627 40.9779 398.304 40.5404C397.971 40.0925 397.559 39.7487 397.07 39.5092C396.59 39.2592 396.033 39.1342 395.398 39.1342C395.044 39.1342 394.71 39.1706 394.398 39.2435C394.085 39.3164 393.799 39.4258 393.538 39.5717C393.361 39.6654 393.189 39.7852 393.023 39.931C392.866 40.0664 392.726 40.2175 392.601 40.3842L392.507 39.306H390.976V52.9623ZM397.616 44.1498V44.3529C397.616 44.8321 397.559 45.2904 397.445 45.7279C397.34 46.1654 397.179 46.5508 396.96 46.8842C396.741 47.2175 396.46 47.4831 396.116 47.681C395.783 47.8789 395.382 47.9779 394.913 47.9779C394.622 47.9779 394.356 47.9414 394.116 47.8685C393.877 47.7956 393.663 47.6914 393.476 47.556C393.299 47.4519 393.142 47.3217 393.007 47.1654C392.882 47.0092 392.767 46.8373 392.663 46.6498V41.8998C392.778 41.7019 392.908 41.5196 393.054 41.3529C393.21 41.1758 393.387 41.03 393.585 40.9154C393.762 40.8008 393.96 40.7123 394.179 40.6498C394.398 40.5873 394.637 40.556 394.898 40.556C395.377 40.556 395.783 40.655 396.116 40.8529C396.46 41.0404 396.741 41.3008 396.96 41.6342C397.179 41.9675 397.34 42.3529 397.445 42.7904C397.559 43.2175 397.616 43.6706 397.616 44.1498ZM408.64 39.1342C407.921 39.1342 407.281 39.2904 406.718 39.6029C406.156 39.9154 405.677 40.3373 405.281 40.8685L405.265 40.6342L405.187 39.306H403.593V49.1654H405.281V42.8373C405.395 42.5352 405.536 42.2644 405.703 42.0248C405.869 41.7748 406.062 41.5664 406.281 41.3998C406.531 41.2019 406.822 41.056 407.156 40.9623C407.489 40.8581 407.864 40.806 408.281 40.806C408.604 40.806 408.911 40.8217 409.203 40.8529C409.505 40.8842 409.817 40.9362 410.14 41.0092L410.375 39.3685C410.197 39.2956 409.942 39.2383 409.609 39.1967C409.276 39.155 408.953 39.1342 408.64 39.1342ZM412.898 44.1498V44.3529C412.898 45.0612 413.002 45.7175 413.211 46.3217C413.419 46.9258 413.716 47.4571 414.101 47.9154C414.487 48.3633 414.955 48.7175 415.508 48.9779C416.07 49.2279 416.7 49.3529 417.398 49.3529C418.086 49.3529 418.705 49.2279 419.258 48.9779C419.81 48.7175 420.278 48.3633 420.664 47.9154C421.049 47.4571 421.346 46.9258 421.554 46.3217C421.763 45.7175 421.867 45.0612 421.867 44.3529V44.1498C421.867 43.4414 421.763 42.78 421.554 42.1654C421.346 41.5508 421.049 41.0196 420.664 40.5717C420.278 40.1237 419.804 39.7748 419.242 39.5248C418.69 39.2644 418.065 39.1342 417.367 39.1342C416.679 39.1342 416.06 39.2644 415.508 39.5248C414.955 39.7748 414.487 40.1237 414.101 40.5717C413.716 41.0196 413.419 41.5508 413.211 42.1654C413.002 42.78 412.898 43.4414 412.898 44.1498ZM414.586 44.3529V44.1498C414.586 43.6706 414.643 43.2123 414.758 42.7748C414.872 42.3269 415.049 41.9362 415.289 41.6029C415.518 41.2696 415.804 41.0039 416.148 40.806C416.492 40.6081 416.898 40.5092 417.367 40.5092C417.836 40.5092 418.242 40.6081 418.586 40.806C418.94 41.0039 419.237 41.2696 419.476 41.6029C419.705 41.9362 419.877 42.3269 419.992 42.7748C420.117 43.2123 420.179 43.6706 420.179 44.1498V44.3529C420.179 44.8321 420.122 45.2956 420.008 45.7435C419.893 46.181 419.721 46.5664 419.492 46.8998C419.252 47.2331 418.955 47.4987 418.601 47.6967C418.258 47.8842 417.857 47.9779 417.398 47.9779C416.929 47.9779 416.518 47.8842 416.164 47.6967C415.81 47.4987 415.518 47.2331 415.289 46.8998C415.049 46.5664 414.872 46.181 414.758 45.7435C414.643 45.2956 414.586 44.8321 414.586 44.3529ZM424.25 44.1498V44.3529C424.25 45.0508 424.344 45.7071 424.531 46.3217C424.719 46.9258 424.984 47.4571 425.328 47.9154C425.661 48.3633 426.068 48.7175 426.547 48.9779C427.036 49.2279 427.578 49.3529 428.172 49.3529C428.786 49.3529 429.318 49.2487 429.766 49.0404C430.224 48.8321 430.62 48.53 430.953 48.1342L431.016 49.1654H432.562V35.1654H430.875V40.2904C430.562 39.905 430.182 39.6185 429.734 39.431C429.297 39.2331 428.781 39.1342 428.188 39.1342C427.594 39.1342 427.052 39.2592 426.562 39.5092C426.073 39.7487 425.661 40.0925 425.328 40.5404C424.984 40.9779 424.719 41.5092 424.531 42.1342C424.344 42.7487 424.25 43.4206 424.25 44.1498ZM425.938 44.3529V44.1498C425.938 43.6706 425.99 43.2175 426.094 42.7904C426.198 42.3529 426.359 41.9675 426.578 41.6342C426.786 41.3008 427.057 41.0404 427.391 40.8529C427.734 40.655 428.141 40.556 428.609 40.556C429.161 40.556 429.62 40.6862 429.984 40.9467C430.359 41.2071 430.656 41.5352 430.875 41.931V46.5092C430.656 46.9362 430.359 47.28 429.984 47.5404C429.62 47.7904 429.156 47.9154 428.594 47.9154C428.125 47.9154 427.724 47.8217 427.391 47.6342C427.057 47.4362 426.786 47.1758 426.578 46.8529C426.359 46.5196 426.198 46.1394 426.094 45.7123C425.99 45.2852 425.938 44.8321 425.938 44.3529ZM442.258 49.1654H443.789V39.306H442.102V46.3842C442.008 46.5925 441.893 46.7852 441.758 46.9623C441.623 47.1394 441.461 47.2956 441.274 47.431C441.055 47.5873 440.795 47.7123 440.492 47.806C440.201 47.8894 439.867 47.931 439.492 47.931C439.17 47.931 438.883 47.8894 438.633 47.806C438.393 47.7123 438.185 47.5612 438.008 47.3529C437.841 47.1446 437.716 46.8685 437.633 46.5248C437.55 46.1706 437.508 45.7227 437.508 45.181V39.306H435.821V45.1654C435.821 45.905 435.899 46.5352 436.055 47.056C436.222 47.5769 436.451 48.0092 436.742 48.3529C437.045 48.6967 437.404 48.9519 437.821 49.1185C438.237 49.2748 438.706 49.3529 439.227 49.3529C439.873 49.3529 440.44 49.2175 440.93 48.9467C441.42 48.6758 441.831 48.2956 442.164 47.806L442.258 49.1654ZM451.157 47.9779C450.626 47.9779 450.183 47.8737 449.829 47.6654C449.475 47.4571 449.193 47.181 448.985 46.8373C448.766 46.5039 448.61 46.1289 448.516 45.7123C448.422 45.2852 448.376 44.8581 448.376 44.431V44.0404C448.376 43.6237 448.422 43.2071 448.516 42.7904C448.61 42.3633 448.766 41.9779 448.985 41.6342C449.204 41.3008 449.49 41.03 449.844 40.8217C450.198 40.6133 450.636 40.5092 451.157 40.5092C451.501 40.5092 451.818 40.5664 452.11 40.681C452.402 40.7956 452.657 40.9571 452.876 41.1654C453.084 41.3633 453.251 41.5925 453.376 41.8529C453.501 42.1133 453.568 42.3946 453.579 42.6967H455.172C455.172 42.1967 455.068 41.7279 454.86 41.2904C454.662 40.8529 454.386 40.4727 454.032 40.1498C453.678 39.8373 453.256 39.5925 452.766 39.4154C452.277 39.2279 451.74 39.1342 451.157 39.1342C450.417 39.1342 449.766 39.2696 449.204 39.5404C448.641 39.8008 448.178 40.155 447.813 40.6029C447.438 41.0612 447.152 41.5873 446.954 42.181C446.766 42.7748 446.672 43.3946 446.672 44.0404V44.431C446.672 45.0873 446.766 45.7123 446.954 46.306C447.152 46.8894 447.438 47.4102 447.813 47.8685C448.178 48.3164 448.641 48.6758 449.204 48.9467C449.766 49.2175 450.417 49.3529 451.157 49.3529C451.678 49.3529 452.178 49.2644 452.657 49.0873C453.136 48.8998 453.563 48.655 453.938 48.3529C454.313 48.0612 454.61 47.7175 454.829 47.3217C455.047 46.9154 455.162 46.4935 455.172 46.056H453.579C453.568 46.3269 453.495 46.5821 453.36 46.8217C453.225 47.0508 453.042 47.2539 452.813 47.431C452.594 47.6081 452.339 47.7435 452.047 47.8373C451.756 47.931 451.459 47.9779 451.157 47.9779ZM462.149 36.9154H460.446V39.306H457.868V40.6185H460.446V45.9623C460.446 46.5769 460.524 47.0977 460.68 47.5248C460.847 47.9519 461.071 48.3008 461.352 48.5717C461.634 48.8425 461.962 49.0404 462.337 49.1654C462.722 49.2904 463.134 49.3529 463.571 49.3529C463.832 49.3529 464.092 49.3373 464.352 49.306C464.623 49.2852 464.873 49.2487 465.102 49.1967C465.342 49.155 465.561 49.1029 465.759 49.0404C465.957 48.9779 466.128 48.905 466.274 48.8217L466.04 47.6185C465.936 47.6498 465.8 47.681 465.634 47.7123C465.477 47.7435 465.305 47.7748 465.118 47.806C464.93 47.8373 464.738 47.8633 464.54 47.8842C464.352 47.905 464.17 47.9154 463.993 47.9154C463.743 47.9154 463.503 47.8842 463.274 47.8217C463.055 47.7592 462.863 47.655 462.696 47.5092C462.519 47.3633 462.384 47.1654 462.29 46.9154C462.196 46.6654 462.149 46.3477 462.149 45.9623V40.6185H465.899V39.306H462.149V36.9154ZM471.579 50.306L477.11 35.8998H475.595L470.064 50.306H471.579ZM486.009 49.1654V35.8998H485.884L480.853 37.8373V39.3685L484.322 38.056V49.1654H486.009ZM499.877 49.1654V47.7904H493.22L496.783 43.931C497.116 43.5664 497.434 43.2019 497.736 42.8373C498.038 42.4623 498.304 42.0873 498.533 41.7123C498.752 41.3373 498.929 40.9571 499.064 40.5717C499.2 40.1862 499.267 39.7956 499.267 39.3998C499.267 38.8685 499.173 38.3789 498.986 37.931C498.798 37.4831 498.533 37.0977 498.189 36.7748C497.845 36.4414 497.423 36.181 496.923 35.9935C496.423 35.806 495.861 35.7123 495.236 35.7123C494.548 35.7123 493.939 35.8217 493.408 36.0404C492.877 36.2592 492.429 36.556 492.064 36.931C491.7 37.306 491.418 37.7435 491.22 38.2435C491.033 38.7331 490.939 39.2539 490.939 39.806H492.627C492.627 39.3998 492.679 39.03 492.783 38.6967C492.887 38.3529 493.048 38.0664 493.267 37.8373C493.486 37.6081 493.757 37.431 494.08 37.306C494.403 37.1706 494.788 37.1029 495.236 37.1029C495.601 37.1029 495.923 37.1654 496.205 37.2904C496.496 37.4154 496.746 37.5821 496.955 37.7904C497.153 38.0092 497.304 38.2644 497.408 38.556C497.522 38.8373 497.58 39.1446 497.58 39.4779C497.58 39.7383 497.543 39.9987 497.47 40.2592C497.408 40.5092 497.298 40.7748 497.142 41.056C496.976 41.3373 496.762 41.6446 496.502 41.9779C496.241 42.3112 495.918 42.6914 495.533 43.1185L491.189 47.9467V49.1654H499.877ZM504.9 41.7279V43.0873H506.103C506.53 43.0873 506.916 43.1394 507.26 43.2435C507.614 43.3373 507.916 43.4831 508.166 43.681C508.405 43.8789 508.593 44.1289 508.728 44.431C508.864 44.7331 508.932 45.0925 508.932 45.5092C508.932 45.9258 508.869 46.2904 508.744 46.6029C508.629 46.905 508.463 47.1602 508.244 47.3685C508.025 47.5664 507.76 47.7175 507.447 47.8217C507.145 47.9258 506.801 47.9779 506.416 47.9779C506.03 47.9779 505.682 47.9258 505.369 47.8217C505.057 47.7071 504.791 47.5456 504.572 47.3373C504.353 47.1394 504.187 46.8998 504.072 46.6185C503.958 46.3269 503.9 46.0092 503.9 45.6654H502.213C502.213 46.2487 502.322 46.7696 502.541 47.2279C502.76 47.6862 503.062 48.0717 503.447 48.3842C503.822 48.6967 504.265 48.9362 504.775 49.1029C505.286 49.2696 505.833 49.3529 506.416 49.3529C507.01 49.3529 507.562 49.2644 508.072 49.0873C508.593 48.9102 509.041 48.655 509.416 48.3217C509.791 47.9987 510.083 47.5977 510.291 47.1185C510.51 46.6394 510.619 46.0873 510.619 45.4623C510.619 45.1602 510.583 44.8581 510.51 44.556C510.447 44.2435 510.327 43.9467 510.15 43.6654C509.973 43.3842 509.739 43.1342 509.447 42.9154C509.166 42.6862 508.807 42.4987 508.369 42.3529C508.734 42.2071 509.041 42.0196 509.291 41.7904C509.551 41.5612 509.765 41.3164 509.932 41.056C510.098 40.806 510.218 40.5456 510.291 40.2748C510.374 39.9935 510.416 39.7279 510.416 39.4779C510.416 38.8633 510.317 38.3217 510.119 37.8529C509.932 37.3842 509.661 36.9935 509.307 36.681C508.952 36.3581 508.53 36.1185 508.041 35.9623C507.551 35.7956 507.01 35.7123 506.416 35.7123C505.801 35.7123 505.239 35.8112 504.728 36.0092C504.228 36.1967 503.801 36.4571 503.447 36.7904C503.093 37.1237 502.817 37.5144 502.619 37.9623C502.421 38.3998 502.322 38.8737 502.322 39.3842H504.01C504.01 39.0404 504.067 38.7279 504.182 38.4467C504.296 38.1654 504.463 37.9258 504.682 37.7279C504.89 37.53 505.14 37.3789 505.432 37.2748C505.723 37.1602 506.051 37.1029 506.416 37.1029C506.78 37.1029 507.109 37.1498 507.4 37.2435C507.692 37.3373 507.932 37.4779 508.119 37.6654C508.317 37.8633 508.468 38.1081 508.572 38.3998C508.676 38.6914 508.728 39.0352 508.728 39.431C508.728 39.7644 508.671 40.0717 508.557 40.3529C508.442 40.6342 508.275 40.8737 508.057 41.0717C507.838 41.28 507.562 41.4414 507.228 41.556C506.905 41.6706 506.53 41.7279 506.103 41.7279H504.9ZM516.361 50.306L521.893 35.8998H520.377L514.846 50.306H516.361ZM531.791 39.1342C531.073 39.1342 530.432 39.2904 529.87 39.6029C529.307 39.9154 528.828 40.3373 528.432 40.8685L528.416 40.6342L528.338 39.306H526.745V49.1654H528.432V42.8373C528.547 42.5352 528.687 42.2644 528.854 42.0248C529.021 41.7748 529.213 41.5664 529.432 41.3998C529.682 41.2019 529.974 41.056 530.307 40.9623C530.64 40.8581 531.015 40.806 531.432 40.806C531.755 40.806 532.062 40.8217 532.354 40.8529C532.656 40.8842 532.968 40.9362 533.291 41.0092L533.526 39.3685C533.349 39.2956 533.093 39.2383 532.76 39.1967C532.427 39.155 532.104 39.1342 531.791 39.1342ZM540.878 49.3529C541.836 49.3529 542.643 49.1602 543.299 48.7748C543.956 48.3894 544.445 47.9467 544.768 47.4467L543.737 46.6498C543.424 47.0456 543.034 47.3685 542.565 47.6185C542.107 47.8581 541.576 47.9779 540.971 47.9779C540.513 47.9779 540.096 47.8946 539.721 47.7279C539.346 47.5508 539.023 47.3112 538.753 47.0092C538.492 46.7383 538.289 46.4206 538.143 46.056C537.997 45.6914 537.904 45.2696 537.862 44.7904V44.7123H544.893V43.9623C544.893 43.2748 544.805 42.6394 544.628 42.056C544.461 41.4623 544.201 40.9467 543.846 40.5092C543.492 40.0821 543.049 39.7487 542.518 39.5092C541.987 39.2592 541.367 39.1342 540.659 39.1342C540.096 39.1342 539.544 39.2487 539.003 39.4779C538.471 39.7071 537.992 40.0352 537.565 40.4623C537.148 40.8998 536.81 41.4362 536.549 42.0717C536.299 42.6967 536.174 43.405 536.174 44.1967V44.5873C536.174 45.2748 536.289 45.9102 536.518 46.4935C536.747 47.0769 537.07 47.5769 537.487 47.9935C537.893 48.4206 538.388 48.7539 538.971 48.9935C539.555 49.2331 540.19 49.3529 540.878 49.3529ZM540.659 40.5092C541.096 40.5092 541.471 40.5873 541.784 40.7435C542.096 40.8998 542.352 41.1081 542.549 41.3685C542.758 41.6185 542.919 41.9206 543.034 42.2748C543.148 42.6185 543.206 42.9467 543.206 43.2592V43.3373H537.909C537.971 42.8789 538.086 42.4779 538.253 42.1342C538.43 41.78 538.638 41.4831 538.878 41.2435C539.117 41.0039 539.388 40.8217 539.69 40.6967C539.992 40.5717 540.315 40.5092 540.659 40.5092ZM551.089 49.1654H552.37L556.386 39.306H554.667L551.901 46.7435L551.745 47.3529L551.589 46.7435L548.761 39.306H547.026L551.089 49.1654ZM559.175 39.306V40.7748H562.534V47.7123H559.175V49.1654H567.441V47.7123H564.222V39.306H559.175ZM562.316 36.7279C562.316 36.9987 562.399 37.2279 562.566 37.4154C562.732 37.5925 562.987 37.681 563.331 37.681C563.665 37.681 563.915 37.5925 564.081 37.4154C564.248 37.2279 564.331 36.9987 564.331 36.7279C564.331 36.5717 564.305 36.431 564.253 36.306C564.211 36.181 564.144 36.0717 564.05 35.9779C563.967 35.905 563.862 35.8477 563.737 35.806C563.623 35.7539 563.487 35.7279 563.331 35.7279C563.165 35.7279 563.019 35.7539 562.894 35.806C562.779 35.8477 562.68 35.905 562.597 35.9779C562.503 36.0717 562.43 36.1862 562.378 36.3217C562.336 36.4467 562.316 36.5821 562.316 36.7279ZM574.464 49.3529C575.423 49.3529 576.23 49.1602 576.886 48.7748C577.542 48.3894 578.032 47.9467 578.355 47.4467L577.324 46.6498C577.011 47.0456 576.621 47.3685 576.152 47.6185C575.693 47.8581 575.162 47.9779 574.558 47.9779C574.1 47.9779 573.683 47.8946 573.308 47.7279C572.933 47.5508 572.61 47.3112 572.339 47.0092C572.079 46.7383 571.876 46.4206 571.73 46.056C571.584 45.6914 571.49 45.2696 571.449 44.7904V44.7123H578.48V43.9623C578.48 43.2748 578.391 42.6394 578.214 42.056C578.048 41.4623 577.787 40.9467 577.433 40.5092C577.079 40.0821 576.636 39.7487 576.105 39.5092C575.574 39.2592 574.954 39.1342 574.246 39.1342C573.683 39.1342 573.131 39.2487 572.589 39.4779C572.058 39.7071 571.579 40.0352 571.152 40.4623C570.735 40.8998 570.397 41.4362 570.136 42.0717C569.886 42.6967 569.761 43.405 569.761 44.1967V44.5873C569.761 45.2748 569.876 45.9102 570.105 46.4935C570.334 47.0769 570.657 47.5769 571.074 47.9935C571.48 48.4206 571.975 48.7539 572.558 48.9935C573.141 49.2331 573.777 49.3529 574.464 49.3529ZM574.246 40.5092C574.683 40.5092 575.058 40.5873 575.371 40.7435C575.683 40.8998 575.938 41.1081 576.136 41.3685C576.345 41.6185 576.506 41.9206 576.621 42.2748C576.735 42.6185 576.792 42.9467 576.792 43.2592V43.3373H571.496C571.558 42.8789 571.673 42.4779 571.839 42.1342C572.016 41.78 572.225 41.4831 572.464 41.2435C572.704 41.0039 572.975 40.8217 573.277 40.6967C573.579 40.5717 573.902 40.5092 574.246 40.5092ZM582.254 49.1654H583.582L585.113 43.1185L585.347 41.6029L585.613 43.1185L587.144 49.1654H588.472L590.566 39.306H589.082L587.988 45.5873L587.738 47.1498L587.472 45.5873L585.91 39.306H584.816L583.254 45.5873L583.004 47.0092L582.801 45.5873L581.66 39.306H580.16L582.254 49.1654ZM599.059 46.556C599.059 46.7123 599.027 46.8633 598.965 47.0092C598.902 47.1446 598.814 47.2696 598.699 47.3842C598.512 47.5717 598.251 47.7175 597.918 47.8217C597.585 47.9258 597.194 47.9779 596.746 47.9779C596.454 47.9779 596.163 47.9519 595.871 47.8998C595.579 47.8373 595.314 47.7331 595.074 47.5873C594.835 47.4414 594.632 47.2487 594.465 47.0092C594.309 46.7696 594.22 46.4779 594.199 46.1342H592.512C592.512 46.5508 592.605 46.9571 592.793 47.3529C592.991 47.7383 593.272 48.0769 593.637 48.3685C593.991 48.6602 594.428 48.8998 594.949 49.0873C595.47 49.2644 596.069 49.3529 596.746 49.3529C597.329 49.3529 597.866 49.2852 598.355 49.1498C598.845 49.0039 599.267 48.8008 599.621 48.5404C599.975 48.2904 600.246 47.9883 600.434 47.6342C600.632 47.2696 600.73 46.8685 600.73 46.431C600.73 46.0248 600.642 45.6706 600.465 45.3685C600.298 45.056 600.053 44.78 599.73 44.5404C599.397 44.3112 598.991 44.1133 598.512 43.9467C598.033 43.78 597.491 43.6289 596.887 43.4935C596.428 43.4102 596.048 43.3217 595.746 43.2279C595.444 43.1237 595.204 43.0092 595.027 42.8842C594.84 42.7696 594.71 42.6342 594.637 42.4779C594.564 42.3217 594.527 42.1498 594.527 41.9623C594.527 41.7748 594.574 41.5925 594.668 41.4154C594.762 41.2383 594.897 41.0821 595.074 40.9467C595.251 40.8112 595.475 40.7071 595.746 40.6342C596.017 40.5508 596.335 40.5092 596.699 40.5092C597.043 40.5092 597.35 40.5612 597.621 40.6654C597.902 40.7592 598.142 40.8842 598.34 41.0404C598.527 41.1967 598.673 41.3789 598.777 41.5873C598.892 41.7852 598.949 41.9935 598.949 42.2123H600.637C600.637 41.7748 600.543 41.3685 600.355 40.9935C600.178 40.6185 599.918 40.2956 599.574 40.0248C599.23 39.7435 598.814 39.5248 598.324 39.3685C597.845 39.2123 597.303 39.1342 596.699 39.1342C596.126 39.1342 595.605 39.2123 595.137 39.3685C594.668 39.5144 594.262 39.7175 593.918 39.9779C593.585 40.2383 593.324 40.5456 593.137 40.8998C592.949 41.2435 592.855 41.6133 592.855 42.0092C592.855 42.4154 592.944 42.7748 593.121 43.0873C593.309 43.3894 593.569 43.655 593.902 43.8842C594.225 44.1133 594.616 44.3112 595.074 44.4779C595.543 44.6342 596.064 44.7748 596.637 44.8998C597.095 44.9831 597.475 45.0821 597.777 45.1967C598.09 45.3112 598.34 45.4362 598.527 45.5717C598.715 45.7071 598.85 45.8529 598.934 46.0092C599.017 46.1654 599.059 46.3477 599.059 46.556Z" fill="black"/>
</g>
</svg>
