<?xml version="1.0" encoding="UTF-8"?><svg id="art" xmlns="http://www.w3.org/2000/svg" xmlns:xlink="http://www.w3.org/1999/xlink" viewBox="196 156 684 782"><defs><style>.cls-1{fill:#0f0f11;}.cls-2{fill:url(#linear-gradient-2);}.cls-3{fill:#d20260;}.cls-4{fill:#e90464;}.cls-5{fill:url(#linear-gradient-4);}.cls-6{stroke:#eadbe7;stroke-width:68.81px;}.cls-6,.cls-7{fill:none;stroke-linecap:round;stroke-linejoin:round;}.cls-8{fill:url(#radial-gradient);}.cls-9{fill:url(#linear-gradient-3);}.cls-10{fill:url(#linear-gradient-5);}.cls-11{fill:#940054;}.cls-12{fill:#c8005d;}.cls-7{stroke:#0f0f11;stroke-width:9.65px;}.cls-13{fill:url(#linear-gradient);}.cls-14{fill:#aa0060;}</style><linearGradient id="linear-gradient" x1="627.64" y1="931.61" x2="627.64" y2="761.82" gradientUnits="userSpaceOnUse"><stop offset="0" stop-color="#eadbe7"/><stop offset=".36" stop-color="#e8d9e5"/><stop offset=".49" stop-color="#e4d2e1"/><stop offset=".58" stop-color="#dcc6da"/><stop offset=".61" stop-color="#d8c0d6"/></linearGradient><linearGradient id="linear-gradient-2" x1="434.43" y1="932.65" x2="434.43" y2="763.63" xlink:href="#linear-gradient"/><linearGradient id="linear-gradient-3" x1="340.33" y1="317.33" x2="618.77" y2="799.61" gradientUnits="userSpaceOnUse"><stop offset="0" stop-color="#f637e3"/><stop offset="0" stop-color="#f535de"/><stop offset=".08" stop-color="#f228bd"/><stop offset=".15" stop-color="#ef1ca1"/><stop offset=".23" stop-color="#ec138a"/><stop offset=".33" stop-color="#eb0c79"/><stop offset=".45" stop-color="#e9076d"/><stop offset=".6" stop-color="#e90465"/><stop offset=".99" stop-color="#e90464"/></linearGradient><linearGradient id="linear-gradient-4" x1="694.8" y1="198.3" x2="694.8" y2="856.67" gradientUnits="userSpaceOnUse"><stop offset="0" stop-color="#e90464"/><stop offset=".29" stop-color="#e00362"/><stop offset=".75" stop-color="#c90160"/><stop offset="1" stop-color="#ba005e"/></linearGradient><radialGradient id="radial-gradient" cx="537.18" cy="632.95" fx="537.18" fy="632.95" r="275.44" gradientUnits="userSpaceOnUse"><stop offset="0" stop-color="#eadbe7"/><stop offset=".52" stop-color="#e8d8e5"/><stop offset=".76" stop-color="#e3d1e0"/><stop offset=".96" stop-color="#dac4d8"/><stop offset="1" stop-color="#d8c0d6"/></radialGradient><linearGradient id="linear-gradient-5" x1="776.57" y1="172.36" x2="736.31" y2="311.72" gradientUnits="userSpaceOnUse"><stop offset="0" stop-color="#f637e3"/><stop offset=".26" stop-color="#c73ae3"/><stop offset=".6" stop-color="#8d3fe3"/><stop offset=".86" stop-color="#6942e3"/><stop offset="1" stop-color="#5c44e4"/></linearGradient></defs><path class="cls-6" d="M242.41,674.18c-2.44,5.74-4.92,11.61-5.45,17.83s1.2,12.97,5.95,17.01c4.47,3.81,10.78,4.62,16.65,4.36,13.45-.58,26.63-6.02,36.58-15.09,1.68-1.54,3.36-4.11,1.9-5.86"/><path class="cls-6" d="M802.01,725.43s91.34-36.44,3.59-107.68"/><path class="cls-13" d="M581.93,919.07c0,6.92,5.61,12.53,12.53,12.53h39s26.49-45.51,39.88-146.52h0c-20.22-27.68-60.19-31.24-84.98-7.57h0c-4.11,3.92-6.43,9.35-6.43,15.03v126.52Z"/><path class="cls-4" d="M632.47,876.94h2.7c22.1,0,40.04,17.94,40.04,40.04v1.57c0,7.78-6.32,14.1-14.1,14.1h-62.09c-3.64,0-6.59-2.95-6.59-6.59v-9.08c0-22.1,17.94-40.04,40.04-40.04Z"/><path class="cls-2" d="M489.96,916.23c1.08,6.84-4.59,15.34-11.43,16.42h-40.49s-30.29-50.3-59.28-147.99h0c15.65-30.5,54.58-24.06,82.76-4.54h0c4.67,3.23,7.81,8.23,8.69,13.84l19.74,122.27Z"/><path class="cls-4" d="M402.34,876.94h62.09c7.78,0,14.1,6.32,14.1,14.1v1.57c0,22.1-17.94,40.04-40.04,40.04h-2.7c-22.1,0-40.04-17.94-40.04-40.04v-9.08c0-3.64,2.95-6.59,6.59-6.59Z" transform="translate(874.28 1809.59) rotate(-180)"/><path class="cls-9" d="M554.95,198.3c-5.34-.28-10.76,1.06-15.48,4.08l-306.29,194.88c-14.96,9.58-22.2,27.48-18.09,44.68l68.9,264.5c3.66,14.39,13.06,26.7,26.04,34.08l189.38,110.11c6.41,3.59,13.49,5.59,20.64,5.97l34.89-658.3Z"/><path class="cls-5" d="M520.06,856.6c7.16.38,14.4-.86,21.16-3.75l199.96-89.48c13.69-5.97,24.33-17.21,29.49-31.14l96.48-255.73c5.91-16.67.59-35.23-13.27-46.34l-283.97-226.17c-4.37-3.5-9.62-5.41-14.96-5.7l-34.89,658.3Z"/><path class="cls-11" d="M349.58,706.57c6.04-2.57,15.36-6.47,24.7-10.36-5.22-3.17-9.01-8.28-10.47-14.27l-36.91-151.58c-5.12-21.04,15.51-38.93,35.44-31.32l-19.48-8.36c-22.69-9.74-46.75,10.61-40.91,34.6l41.33,169.74c1.07,4.39,3.28,8.34,6.29,11.55Z"/><path class="cls-14" d="M374.28,696.2c-9.34,3.89-18.66,7.79-24.7,10.36,2.16,2.3,4.72,4.24,7.63,5.64l166.27,79.93,1.24-23.47-148.48-71.38c-.68-.33-1.33-.7-1.96-1.08Z"/><path class="cls-8" d="M713.56,518.02l-178.48,55.15-171.65-73.71c-20.26-8.7-41.75,9.48-36.53,30.9l36.91,151.58c1.64,6.72,6.2,12.35,12.43,15.35l148.48,71.38,155.19-55.28c6.52-2.32,11.65-7.44,13.99-13.95l52.73-146.83c7.45-20.75-12-41.1-33.06-34.59Z"/><path class="cls-11" d="M705.44,725.43c-5.74-3.19-14.59-8.06-23.47-12.92,5.52-2.6,9.84-7.28,11.92-13.08l52.73-146.83c7.32-20.38-11.31-40.35-31.93-34.89l20.25-6.26c23.59-7.29,45.37,15.49,37.02,38.73l-59.04,164.42c-1.53,4.25-4.14,7.94-7.48,10.82Z"/><path class="cls-14" d="M681.98,712.51c8.87,4.86,17.73,9.72,23.47,12.92-2.39,2.06-5.14,3.71-8.18,4.8l-173.79,61.91,1.24-23.47,155.19-55.28c.71-.25,1.39-.55,2.07-.87Z"/><ellipse class="cls-1" cx="608.92" cy="650.7" rx="29.25" ry="18.11" transform="translate(-73.09 1224.33) rotate(-86.97)"/><rect class="cls-12" x="591.95" y="598.54" width="42.54" height="26.4" rx="13.2" ry="13.2" transform="translate(58.22 -53.27) rotate(5.22)"/><ellipse class="cls-1" cx="453.46" cy="642.46" rx="29.25" ry="18.11" transform="translate(-212.1 1061.28) rotate(-86.97)"/><rect class="cls-12" x="431.38" y="567.82" width="42.54" height="26.4" rx="13.2" ry="13.2" transform="translate(1023.59 1046.32) rotate(167.1)"/><path class="cls-4" d="M825.23,754.51s6.6-4.04,16.45-10.61c.05-.04,23.68-16.79,20.92-41.88-.82-7.48-4.83-14.32-10.96-18.69-20.56-14.66-46.71-2.21-46.77-2.18,0,0,0,0,0,0-8.68-2.18-30.29-6.21-37.26,5.6-2.48,4.2-.95,8.6,2.53,12.74-1.19.7-2.36,1.4-3.49,2.1-41.83,25.91-4.49,89.57,38.54,65.7,6.24-3.46,12.91-7.68,20.04-12.78Z"/><path class="cls-3" d="M225.64,628.35s-3.6,6.85-8.7,17.54c-.03.06-11.75,26.55,3.49,46.68,4.55,6.01,11.5,9.82,19.01,10.44,25.19,2.05,41.28-22.03,41.32-22.09,0,0,0,0,0,0,8.58-2.57,29.23-10.18,29.16-23.89-.02-4.88-3.59-7.87-8.71-9.65.66-1.21,1.31-2.41,1.92-3.59,22.67-43.68-42.07-79.22-66.82-36.68-3.59,6.17-7.16,13.21-10.68,21.24Z"/><path class="cls-7" d="M504.99,701.54c14.59-6,30.92-7.68,46.42-4.77"/><path class="cls-10" d="M746.96,252.27c1.22-6.03,3.53-11.03,6.92-14.99,3.39-3.96,8.95-8.16,16.69-12.61,5.44-3.27,9.47-6.14,12.09-8.62,2.62-2.47,4.34-5.75,5.16-9.82,1.03-5.12.14-9.67-2.67-13.65-2.82-3.98-7.24-6.59-13.28-7.81-5.78-1.17-10.78-.37-15.03,2.39-4.25,2.76-7.65,6.41-10.2,10.95l-18.01-12.25c4.22-7.34,10.44-13.32,18.69-17.94,8.24-4.62,17.74-5.84,28.5-3.66,8,1.62,14.83,4.67,20.48,9.16,5.65,4.49,9.63,9.94,11.96,16.35,2.32,6.41,2.77,13.16,1.34,20.25s-4.28,12.56-8.62,16.8-9.8,8.44-16.37,12.57c-5.13,3.06-8.91,6.06-11.34,8.98-2.44,2.92-4.08,6.49-4.93,10.68l-1.15,5.71-21.85-4.42,1.63-8.07ZM737.05,301.79c-2.36-3.55-3.11-7.42-2.26-11.62s3.04-7.44,6.58-9.73c3.54-2.29,7.4-3.01,11.6-2.16,4.2.85,7.45,3.01,9.75,6.48,2.3,3.47,3.03,7.31,2.18,11.51s-3.02,7.48-6.5,9.85c-3.48,2.37-7.33,3.13-11.52,2.28-4.2-.85-7.48-3.05-9.83-6.6Z"/></svg>