<?xml version="1.0" encoding="UTF-8"?><svg id="art" xmlns="http://www.w3.org/2000/svg" xmlns:xlink="http://www.w3.org/1999/xlink" viewBox="105 164 852 757"><defs><style>.cls-1{fill:#0f0f11;}.cls-2{fill:#ac015f;}.cls-3{fill:url(#linear-gradient-2);}.cls-4{fill:#d20260;}.cls-5{fill:#fff;}.cls-6{fill:url(#linear-gradient-6);opacity:.5;}.cls-7{fill:#e90464;}.cls-8{fill:url(#linear-gradient-4);}.cls-9{stroke:#eadbe7;stroke-width:68.81px;}.cls-9,.cls-10{fill:none;stroke-linecap:round;stroke-linejoin:round;}.cls-11{fill:url(#radial-gradient);}.cls-12{fill:#eadbe7;}.cls-13{fill:url(#linear-gradient-3);}.cls-14{fill:url(#linear-gradient-5);}.cls-15{fill:#940054;}.cls-16{fill:#303033;}.cls-17{fill:#9b005c;}.cls-18{fill:#c8005d;}.cls-10{stroke:#0f0f11;stroke-width:9.65px;}.cls-19{fill:url(#linear-gradient);}.cls-20{fill:#aa0060;}</style><linearGradient id="linear-gradient" x1="457.64" y1="916.55" x2="457.64" y2="747.58" gradientUnits="userSpaceOnUse"><stop offset="0" stop-color="#eadbe7"/><stop offset=".36" stop-color="#e8d9e5"/><stop offset=".49" stop-color="#e4d2e1"/><stop offset=".58" stop-color="#dcc6da"/><stop offset=".61" stop-color="#d8c0d6"/></linearGradient><linearGradient id="linear-gradient-2" x1="722.15" y1="170.58" x2="722.15" y2="456.18" gradientUnits="userSpaceOnUse"><stop offset="0" stop-color="#e90464"/><stop offset=".17" stop-color="#e10362"/><stop offset=".58" stop-color="#d50260"/><stop offset="1" stop-color="#d20260"/></linearGradient><linearGradient id="linear-gradient-3" x1="358.94" y1="290.13" x2="626.28" y2="753.19" gradientUnits="userSpaceOnUse"><stop offset="0" stop-color="#f637e3"/><stop offset="0" stop-color="#f535de"/><stop offset=".08" stop-color="#f228bd"/><stop offset=".15" stop-color="#ef1ca1"/><stop offset=".23" stop-color="#ec138a"/><stop offset=".33" stop-color="#eb0c79"/><stop offset=".45" stop-color="#e9076d"/><stop offset=".6" stop-color="#e90465"/><stop offset=".99" stop-color="#e90464"/></linearGradient><linearGradient id="linear-gradient-4" x1="673.49" y1="170.58" x2="673.49" y2="825.9" gradientUnits="userSpaceOnUse"><stop offset="0" stop-color="#e90464"/><stop offset=".29" stop-color="#e00362"/><stop offset=".75" stop-color="#c90160"/><stop offset="1" stop-color="#ba005e"/></linearGradient><radialGradient id="radial-gradient" cx="537.08" cy="598.4" fx="537.08" fy="598.4" r="258.54" gradientUnits="userSpaceOnUse"><stop offset="0" stop-color="#eadbe7"/><stop offset=".52" stop-color="#e8d8e5"/><stop offset=".76" stop-color="#e3d1e0"/><stop offset=".96" stop-color="#dac4d8"/><stop offset="1" stop-color="#d8c0d6"/></radialGradient><linearGradient id="linear-gradient-5" x1="643.95" y1="916.55" x2="643.95" y2="776.69" xlink:href="#linear-gradient"/><linearGradient id="linear-gradient-6" x1="-1256.37" y1="85.65" x2="-1199.83" y2="183.58" gradientTransform="translate(1252.52 1050.71) rotate(35.43)" gradientUnits="userSpaceOnUse"><stop offset="0" stop-color="#fff" stop-opacity="0"/><stop offset=".17" stop-color="#fff" stop-opacity=".12"/><stop offset=".74" stop-color="#fff" stop-opacity=".54"/><stop offset="1" stop-color="#fff" stop-opacity=".7"/></linearGradient></defs><path class="cls-9" d="M213.01,599.31s52.68,75.87,123.67,33.32"/><path class="cls-19" d="M503.12,904.08c0,6.89-5.59,12.47-12.47,12.47h-38.81s-26.36-45.29-39.69-145.81h0c20.12-27.55,59.9-31.09,84.58-7.53h0c4.09,3.9,6.4,9.31,6.4,14.96v125.92Z"/><path class="cls-7" d="M416.85,862.15h61.79c7.75,0,14.03,6.29,14.03,14.03v1.56c0,21.99-17.86,39.85-39.85,39.85h-2.69c-21.99,0-39.85-17.86-39.85-39.85v-9.04c0-3.62,2.94-6.56,6.56-6.56Z" transform="translate(902.97 1779.74) rotate(-180)"/><path class="cls-3" d="M902.12,424.64l-254.48-240.9c-3.91-3.73-8.76-5.92-13.79-6.49l-59.09-6.67-15.98,28.6-7.78,21.41-21.69,192.03,385.65,43.55c.26-11.77-4.23-23.33-12.85-31.54Z"/><path class="cls-17" d="M734.84,721.19l-225.61,102.42-.33,2.96,50.97,5.76h0c6.75.76,13.68-.09,20.25-2.61l194.68-78.58c7.04-2.76,13.36-7.05,18.61-12.48l-58.56-17.45Z"/><path class="cls-2" d="M914.97,456.18h0c.04-1.77-.04-3.53-.21-5.27l-384.85-43.46,21.1-186.85-233.85,137.98c-14.74,8.76-22.71,26.23-19.89,43.62l48.7,267.64c2.57,14.56,10.69,27.34,22.5,35.4l142.89,99.56-2.12,18.81,236.75-99.1,47.42,14.13c4.68-4.84,8.51-10.59,11.22-17.01l107.16-250.03c2.03-5,3.07-10.23,3.18-15.42Z"/><path class="cls-13" d="M574.76,170.58c-4.87-.55-9.93.52-14.44,3.3l-293.05,179.06c-14.31,8.81-22.1,26.3-19.43,43.67l46.25,267.36c2.43,14.55,10.26,27.29,21.68,35.31l166.48,119.37c5.65,3.9,12,6.25,18.53,6.99l73.98-655.06Z"/><path class="cls-8" d="M500.78,825.64c6.53.74,13.25-.14,19.63-2.68l188.91-79.24c12.92-5.27,23.39-15.95,29.01-29.58l104.71-250.31c6.48-16.34,2.79-35.13-9.2-46.9l-245.73-239.91c-3.78-3.71-8.47-5.88-13.34-6.44l-73.98,655.06Z"/><path class="cls-15" d="M354.17,667.39c5.7-2.26,14.49-5.68,23.29-9.1-4.58-3.42-7.73-8.71-8.68-14.76l-24.14-153.09c-3.35-21.25,16.7-38.06,34.47-29.47l-17.31-9.32c-20.16-10.86-43.51,8.24-39.69,32.47l27.04,171.43c.7,4.43,2.47,8.48,5.03,11.84Z"/><path class="cls-20" d="M377.46,658.29c-8.8,3.42-17.59,6.84-23.29,9.1,1.83,2.4,4.05,4.46,6.63,6.01l147.23,88.1,2.64-23.35-131.47-78.67c-.6-.36-1.17-.76-1.73-1.18Z"/><path class="cls-11" d="M699.67,497.54l-167.04,46.07-152.55-82.16c-18.01-9.7-38.86,7.36-35.44,28.99l24.14,153.09c1.07,6.79,4.89,12.64,10.41,15.94l131.47,78.67,145.71-47.37c6.12-1.99,11.15-6.84,13.7-13.22l57.68-143.85c8.15-20.33-8.37-41.61-28.08-36.17Z"/><path class="cls-15" d="M679,704.07c-5.05-3.47-12.86-8.77-20.68-14.06,5.23-2.31,9.48-6.77,11.75-12.45l57.68-143.85c8-19.96-7.79-40.82-27.03-36.42l18.95-5.23c22.08-6.09,40.58,17.74,31.45,40.5l-64.59,161.09c-1.67,4.16-4.3,7.72-7.54,10.42Z"/><path class="cls-20" d="M658.32,690.01c7.82,5.29,15.62,10.59,20.68,14.06-2.32,1.94-4.95,3.45-7.8,4.38l-163.17,53.05,2.64-23.35,145.71-47.37c.67-.22,1.31-.48,1.95-.76Z"/><path class="cls-14" d="M599.31,821.46c13.7,90.52,38.22,95.09,38.22,95.09h38.81c6.89,0,12.47-5.59,12.47-12.47v-118.11c0-2.52-1.69-4.72-4.12-5.38l-5.53-1.49c-24.81-6.66-51.28.72-69.07,19.25l-5.16,5.37c-4.53,4.72-6.6,11.27-5.62,17.73Z"/><path class="cls-7" d="M602.55,862.15h61.79c7.75,0,14.03,6.29,14.03,14.03v1.56c0,21.99-17.86,39.85-39.85,39.85h-2.69c-21.99,0-39.85-17.86-39.85-39.85v-9.04c0-3.62,2.94-6.56,6.56-6.56Z" transform="translate(1274.36 1779.74) rotate(-180)"/><path class="cls-18" d="M607.84,575.32l-13.58-5.97c-6.14-2.7-9.01-10.34-6.41-17.07h0c2.6-6.73,9.68-10,15.81-7.3l13.58,5.97c6.14,2.7,9.01,10.34,6.41,17.07h0c-2.6,6.73-9.68,10-15.81,7.3Z"/><ellipse class="cls-1" cx="454.01" cy="604.46" rx="29.11" ry="16.53" transform="translate(-197.49 987.91) rotate(-83.57)"/><path class="cls-18" d="M451.75,557.73l14.57-2.79c6.58-1.26,11.08-8.07,10.05-15.21h0c-1.03-7.14-7.21-11.9-13.79-10.64l-14.57,2.79c-6.58,1.26-11.08,8.07-10.05,15.21h0c1.03,7.14,7.21,11.9,13.79,10.64Z"/><rect class="cls-15" x="506.92" y="644.17" width="25.32" height="38.81" rx="12.66" ry="12.66" transform="translate(81.18 -56.22) rotate(6.72)"/><path class="cls-9" d="M821.71,620.84c17.17,36.82,42.87,69.63,74.51,95.12"/><path class="cls-7" d="M924.24,693.59s-5.53-5.41-14.31-13.35c-.05-.04-22.07-18.85-45.73-10.04-7.06,2.63-12.71,8.19-15.44,15.2-9.18,23.51,9.29,45.81,9.33,45.86,0,0,0,0,0,0,0,8.95,1.39,30.88,14.54,34.75,4.68,1.37,8.57-1.18,11.74-5.57.97.98,1.93,1.94,2.89,2.87,35.36,34.21,87.95-17.54,54.28-53.42-4.88-5.2-10.6-10.64-17.29-16.3Z"/><path class="cls-10" d="M575.75,623.19c10.14-12.66,27.57-17.94,42.37-12.83"/><path class="cls-4" d="M169.87,598.03s4.25,6.47,11.11,16.12c.04.05,17.51,23.15,42.52,19.6,7.46-1.06,14.17-5.29,18.35-11.56,14.02-21.03.77-46.78.73-46.84,0,0,0,0,0,0,1.92-8.75,5.28-30.5-6.74-37.09-4.28-2.35-8.62-.67-12.66,2.93-.74-1.17-1.47-2.32-2.2-3.42-27.19-41.02-89.68-1.66-64.49,40.63,3.65,6.13,8.07,12.67,13.39,19.64Z"/><circle class="cls-6" cx="173.74" cy="448.55" r="56.53" transform="translate(-296.91 349.21) rotate(-56.91)"/><rect class="cls-12" x="196.63" y="502.29" width="13.79" height="47.04" transform="translate(-178.43 111.07) rotate(-21.48)"/><path class="cls-16" d="M236.49,607.37h0c-7.98,3.14-16.99-.78-20.13-8.76l-22.57-67.44c-.57-1.65.26-3.46,1.88-4.09l15.97-6.29c1.62-.64,3.46.12,4.17,1.71l29.45,64.73c3.14,7.98-.78,16.99-8.76,20.14Z"/><path class="cls-12" d="M150.99,392.35c-31.85,12.53-47.51,48.51-34.97,80.36,12.53,31.85,48.51,47.5,80.36,34.97,31.85-12.53,47.51-48.51,34.97-80.36-12.53-31.85-48.51-47.51-80.36-34.97ZM192.4,496.59c-25.79,10.15-54.93-2.53-65.08-28.32-10.15-25.79,2.53-54.93,28.32-65.08s54.93,2.53,65.08,28.32c10.15,25.79-2.53,54.93-28.32,65.08Z"/><rect class="cls-5" x="131.68" y="428.38" width="23.04" height="13.85" rx="6.92" ry="6.92" transform="translate(-313.09 392.92) rotate(-66.48)"/></svg>