<?xml version="1.0" encoding="UTF-8"?><svg id="art" xmlns="http://www.w3.org/2000/svg" xmlns:xlink="http://www.w3.org/1999/xlink" viewBox="126 167 811 746"><defs><style>.cls-1{stroke-width:10px;}.cls-1,.cls-2,.cls-3{fill:none;stroke-linecap:round;stroke-linejoin:round;}.cls-1,.cls-3{stroke:#0f0f11;}.cls-4{fill:#0f0f11;}.cls-5{fill:#ac015f;}.cls-6{fill:url(#linear-gradient-2);}.cls-7{fill:#3d2ecc;}.cls-8{fill:#e90464;}.cls-9{fill:url(#linear-gradient-4);}.cls-2{stroke:#eadbe7;stroke-width:68.81px;}.cls-10{fill:url(#radial-gradient);}.cls-11{fill:#eadbe7;}.cls-12{fill:url(#linear-gradient-3);}.cls-13{fill:url(#linear-gradient-5);}.cls-14{fill:#940054;}.cls-15{fill:url(#linear-gradient-8);}.cls-16{fill:url(#linear-gradient-7);}.cls-17{fill:#9b005c;}.cls-18{fill:url(#linear-gradient-9);}.cls-19{fill:#c8005d;}.cls-20{fill:url(#linear-gradient-6);}.cls-3{stroke-width:9px;}.cls-21{fill:url(#linear-gradient);}.cls-22{fill:#aa0060;}</style><linearGradient id="linear-gradient" x1="727.96" y1="174.8" x2="727.96" y2="419.24" gradientUnits="userSpaceOnUse"><stop offset="0" stop-color="#e90464"/><stop offset=".17" stop-color="#e10362"/><stop offset=".58" stop-color="#d50260"/><stop offset="1" stop-color="#d20260"/></linearGradient><linearGradient id="linear-gradient-2" x1="685.53" y1="906.61" x2="685.53" y2="766.75" gradientUnits="userSpaceOnUse"><stop offset="0" stop-color="#eadbe7"/><stop offset=".36" stop-color="#e8d9e5"/><stop offset=".49" stop-color="#e4d2e1"/><stop offset=".58" stop-color="#dcc6da"/><stop offset=".61" stop-color="#d8c0d6"/></linearGradient><linearGradient id="linear-gradient-3" x1="472.75" y1="906.61" x2="472.75" y2="737.63" xlink:href="#linear-gradient-2"/><linearGradient id="linear-gradient-4" x1="354.67" y1="285.73" x2="640.24" y2="780.35" gradientUnits="userSpaceOnUse"><stop offset="0" stop-color="#f637e3"/><stop offset="0" stop-color="#f535de"/><stop offset=".08" stop-color="#f228bd"/><stop offset=".15" stop-color="#ef1ca1"/><stop offset=".23" stop-color="#ec138a"/><stop offset=".33" stop-color="#eb0c79"/><stop offset=".45" stop-color="#e9076d"/><stop offset=".6" stop-color="#e90465"/><stop offset=".99" stop-color="#e90464"/></linearGradient><linearGradient id="linear-gradient-5" x1="702.55" y1="174.8" x2="702.55" y2="830.86" gradientUnits="userSpaceOnUse"><stop offset="0" stop-color="#e90464"/><stop offset=".29" stop-color="#e00362"/><stop offset=".75" stop-color="#c90160"/><stop offset="1" stop-color="#ba005e"/></linearGradient><radialGradient id="radial-gradient" cx="552.74" cy="612.86" fx="552.74" fy="612.86" r="234.83" gradientUnits="userSpaceOnUse"><stop offset="0" stop-color="#eadbe7"/><stop offset=".52" stop-color="#e8d8e5"/><stop offset=".76" stop-color="#e3d1e0"/><stop offset=".96" stop-color="#dac4d8"/><stop offset="1" stop-color="#d8c0d6"/></radialGradient><linearGradient id="linear-gradient-6" x1="133.91" y1="527.41" x2="253.14" y2="527.41" gradientUnits="userSpaceOnUse"><stop offset="0" stop-color="#8514f5"/><stop offset="1" stop-color="#5c44e4"/></linearGradient><linearGradient id="linear-gradient-7" x1="539" y1="786.31" x2="570.28" y2="786.31" xlink:href="#linear-gradient-6"/><linearGradient id="linear-gradient-8" x1="531.59" y1="822.49" x2="579.03" y2="822.49" xlink:href="#linear-gradient-6"/><linearGradient id="linear-gradient-9" x1="524.62" y1="861.14" x2="576.58" y2="861.14" xlink:href="#linear-gradient-6"/></defs><path class="cls-21" d="M904.85,389.49l-278.56-209.81c-4.29-3.25-9.33-4.87-14.37-4.87h-59.18l-12.61,30.07-5.3,22.04v192.33h386.24c-1.05-11.66-6.79-22.6-16.23-29.75Z"/><path class="cls-17" d="M772.54,701.43l-211.67,126.48v2.96h51.05c6.76,0,13.51-1.61,19.73-4.84l183.75-99.45c6.65-3.52,12.42-8.47,17.01-14.42l-59.86-10.72Z"/><path class="cls-5" d="M921.08,419.24h0c-.16-1.75-.43-3.48-.8-5.19h-385.44v-187.14l-215.85,162.57c-13.6,10.31-19.53,28.48-14.8,45.36l78.05,259.23c4.16,14.11,13.62,25.84,26.21,32.5l152.43,82.5v18.83l223.05-124.44,48.48,8.68c4.09-5.31,7.24-11.42,9.2-18.07l78.05-259.23c1.45-5.17,1.89-10.46,1.43-15.6Z"/><path class="cls-6" d="M640.89,811.52c13.7,90.52,38.22,95.09,38.22,95.09h38.81c6.89,0,12.47-5.59,12.47-12.47v-118.11c0-2.52-1.69-4.72-4.12-5.38l-5.53-1.49c-24.81-6.66-51.28.72-69.07,19.25l-5.16,5.37c-4.53,4.72-6.6,11.27-5.62,17.73Z"/><path class="cls-8" d="M644.13,852.2h61.79c7.75,0,14.03,6.29,14.03,14.03v1.56c0,21.99-17.86,39.85-39.85,39.85h-2.69c-21.99,0-39.85-17.86-39.85-39.85v-9.04c0-3.62,2.94-6.56,6.56-6.56Z" transform="translate(1357.52 1759.85) rotate(-180)"/><path class="cls-11" d="M281.81,630.9c.8,8.65-2.22,17.32-8.21,23.62-16.16,16.98-38.74,11.63-38.8,11.61,36.75,10.44,115.7,29.67,124.33,4.86,8.62-24.81-65.25-58.67-100.56-73.26.06.03,21.1,9.83,23.24,33.17Z"/><path class="cls-8" d="M216.15,660.52s7.32,2.39,18.65,5.61c.06.02,28,7.1,45.23-11.2,5.14-5.46,7.73-12.91,7.08-20.38-2.17-25.03-28.48-36.8-28.54-36.83,0,0,0,0,0,0-3.95-7.99-14.85-26.96-28.29-24.6-4.78.84-7.12,4.83-8.02,10.14-1.3-.45-2.58-.88-3.84-1.29-46.63-14.95-70.74,54.44-24.89,71.62,6.65,2.49,14.15,4.82,22.61,6.93Z"/><path class="cls-12" d="M518.24,894.13c0,6.89-5.59,12.47-12.47,12.47h-38.81s-26.36-45.29-39.69-145.81h0c20.12-27.55,59.9-31.09,84.58-7.53h0c4.09,3.9,6.4,9.31,6.4,14.96v125.92Z"/><path class="cls-8" d="M431.96,852.2h61.79c7.75,0,14.03,6.29,14.03,14.03v1.56c0,21.99-17.86,39.85-39.85,39.85h-2.69c-21.99,0-39.85-17.86-39.85-39.85v-9.04c0-3.62,2.94-6.56,6.56-6.56Z" transform="translate(933.19 1759.85) rotate(-180)"/><path class="cls-9" d="M552.74,174.8c-4.88,0-9.76,1.62-13.91,4.87l-269.8,209.81c-13.17,10.31-18.91,28.48-14.33,45.36l75.59,259.23c4.03,14.11,13.19,25.84,25.38,32.5l177.97,99.45c6.02,3.23,12.56,4.84,19.11,4.84V174.8Z"/><path class="cls-13" d="M552.74,830.86c6.54,0,13.09-1.61,19.11-4.84l177.97-99.45c12.19-6.65,21.35-18.38,25.38-32.5l75.59-259.23c4.58-16.88-1.16-35.05-14.33-45.36l-269.8-209.81c-4.15-3.25-9.03-4.87-13.91-4.87v656.06Z"/><path class="cls-14" d="M390.08,690.74c5.39-2.87,13.69-7.24,22.02-11.6-4.91-2.87-8.61-7.75-10.23-13.63l-40.97-148.7c-5.69-20.64,12.26-39.5,30.8-32.99l-18.16-7.29c-21.15-8.49-42.11,13.01-35.62,36.54l45.88,166.51c1.19,4.3,3.39,8.11,6.29,11.15Z"/><path class="cls-22" d="M412.1,679.14c-8.32,4.36-16.63,8.73-22.02,11.6,2.08,2.17,4.51,3.96,7.23,5.2l155.43,70.68v-23.39l-138.8-63.12c-.63-.29-1.24-.62-1.84-.97Z"/><path class="cls-10" d="M712.78,484.18l-160.04,64.21-160.04-64.21c-18.89-7.58-37.6,11.62-31.81,32.63l40.97,148.7c1.82,6.59,6.25,11.95,12.08,14.6l138.8,63.12,138.8-63.12c5.83-2.65,10.26-8.01,12.08-14.6l40.97-148.7c5.79-21.01-12.92-40.21-31.81-32.63Z"/><path class="cls-14" d="M715.41,690.74c-5.39-2.87-13.69-7.24-22.02-11.6,4.91-2.87,8.61-7.75,10.23-13.63l40.97-148.7c5.69-20.64-12.26-39.5-30.8-32.99l18.16-7.29c21.15-8.49,42.11,13.01,35.62,36.54l-45.88,166.51c-1.19,4.3-3.39,8.11-6.29,11.15Z"/><path class="cls-22" d="M693.39,679.14c8.32,4.36,16.63,8.73,22.02,11.6-2.08,2.17-4.51,3.96-7.23,5.2l-155.43,70.68v-23.39s138.8-63.12,138.8-63.12c.63-.29,1.24-.62,1.84-.97Z"/><ellipse class="cls-4" cx="481.68" cy="621.56" rx="16.53" ry="29.11"/><path class="cls-19" d="M474.2,575.38l14.17-4.41c6.4-1.99,10.11-9.26,8.28-16.24h0c-1.83-6.98-8.5-11.02-14.9-9.03l-14.17,4.41c-6.4,1.99-10.11,9.26-8.28,16.24h0c1.83,6.98,8.5,11.02,14.9,9.03Z"/><path class="cls-2" d="M858.4,697.77s91.34-36.44,3.59-107.68"/><path class="cls-8" d="M881.62,726.85s6.6-4.04,16.45-10.61c.05-.04,23.68-16.79,20.92-41.88-.82-7.48-4.83-14.32-10.96-18.69-20.56-14.66-46.71-2.21-46.77-2.18,0,0,0,0,0,0-8.68-2.18-30.29-6.21-37.26,5.6-2.48,4.2-.95,8.6,2.53,12.74-1.19.7-2.36,1.4-3.49,2.1-41.83,25.91-4.49,89.57,38.54,65.7,6.24-3.46,12.91-7.68,20.04-12.78Z"/><path class="cls-20" d="M250.11,642.04l-5.32,2.52c-2.67,1.26-5.85.11-7.08-2.57l-103.31-224.74c-1.21-2.64-.08-5.76,2.54-7h0c2.62-1.24,5.75-.15,7.03,2.46l108.63,222.22c1.3,2.65.18,5.85-2.49,7.11Z"/><ellipse class="cls-4" cx="625.14" cy="621.56" rx="16.53" ry="29.11"/><path class="cls-19" d="M632.62,575.38l-14.17-4.41c-6.4-1.99-10.11-9.26-8.28-16.24h0c1.83-6.98,8.5-11.02,14.9-9.03l14.17,4.41c6.4,1.99,10.11,9.26,8.28,16.24h0c-1.83,6.98-8.5,11.02-14.9,9.03Z"/><path class="cls-8" d="M530.35,684.35c6.15,5.16,13.93,8.24,22.4,8.24,8.46,0,16.24-3.08,22.4-8.24-1-10.67-10.64-19.04-22.4-19.04-11.76,0-21.4,8.37-22.39,19.04Z"/><path class="cls-14" d="M516.69,654.5c0,12.09,5.34,22.87,13.66,29.85.99-10.67,10.64-19.04,22.39-19.04,11.76,0,21.4,8.37,22.4,19.04,8.32-6.98,13.66-17.75,13.66-29.85h-72.11Z"/><circle class="cls-1" cx="471.57" cy="596.86" r="68.99"/><circle class="cls-1" cx="636.42" cy="596.86" r="68.99"/><path class="cls-3" d="M539.78,611.2c0-7.92,6.58-14.34,14.69-14.34h0c8.11,0,14.69,6.42,14.69,14.34"/><path class="cls-7" d="M566.69,775.36h-27.89l-6.73-24.72c-1.19-3.66,1.54-7.41,5.39-7.41h30.58c3.85,0,6.58,3.75,5.39,7.41l-6.73,24.72Z"/><path class="cls-7" d="M566.69,775.36h-27.89l-14.61,89.01c-.33,2.01.53,4.03,2.2,5.19l23.35,16.18c1.81,1.25,4.2,1.25,6.01,0l23.35-16.18c1.67-1.16,2.53-3.18,2.2-5.19l-14.61-89.01Z"/><polygon class="cls-16" points="566.69 775.36 539 775.36 570.28 797.26 566.69 775.36"/><polygon class="cls-15" points="574.52 821.58 579.03 850.56 531.59 819.25 535.67 794.42 574.52 821.58"/><polygon class="cls-18" points="576.58 871.31 557.62 884.45 524.62 862.67 528.7 837.84 576.58 871.31"/></svg>