<svg xmlns="http://www.w3.org/2000/svg" style="display: none">
  <defs>
    <symbol id="graph_downstream" viewBox="0 0 24 24">
      <g transform="matrix(1,-0,0,1,-23.45,-0.343348)">
        <path
          d="M39.189,18.093L39.189,16.343C39.189,15.51 38.897,14.802 38.314,14.218C37.731,13.635 37.022,13.343 36.189,13.343L34.189,13.343C33.622,13.343 33.085,13.256 32.577,13.081C32.068,12.906 31.606,12.66 31.189,12.343L31.189,16.518C31.772,16.718 32.252,17.077 32.627,17.593C33.002,18.11 33.189,18.693 33.189,19.343C33.189,20.177 32.897,20.885 32.314,21.468C31.731,22.052 31.022,22.343 30.189,22.343C29.356,22.343 28.647,22.052 28.064,21.468C27.481,20.885 27.189,20.177 27.189,19.343C27.189,18.693 27.377,18.11 27.752,17.593C28.127,17.077 28.606,16.718 29.189,16.518L29.189,8.168C28.606,7.968 28.127,7.61 27.752,7.093C27.377,6.577 27.189,5.993 27.189,5.343C27.189,4.51 27.481,3.802 28.064,3.218C28.647,2.635 29.356,2.343 30.189,2.343C31.022,2.343 31.731,2.635 32.314,3.218C32.897,3.802 33.189,4.51 33.189,5.343C33.189,5.993 33.002,6.577 32.627,7.093C32.252,7.61 31.772,7.968 31.189,8.168L31.189,8.343C31.189,9.177 31.481,9.885 32.064,10.468C32.647,11.052 33.356,11.343 34.189,11.343L36.189,11.343C37.572,11.343 38.752,11.831 39.727,12.806C40.702,13.781 41.189,14.96 41.189,16.343L41.189,18.093L43.711,18.093L40.206,22.343L36.701,18.093L39.189,18.093ZM30.189,20.343C30.472,20.343 30.71,20.248 30.902,20.056C31.093,19.864 31.189,19.627 31.189,19.343C31.189,19.06 31.093,18.823 30.902,18.631C30.71,18.439 30.472,18.343 30.189,18.343C29.906,18.343 29.668,18.439 29.477,18.631C29.285,18.823 29.189,19.06 29.189,19.343C29.189,19.627 29.285,19.864 29.477,20.056C29.668,20.248 29.906,20.343 30.189,20.343ZM30.189,6.343C30.472,6.343 30.71,6.248 30.902,6.056C31.093,5.864 31.189,5.627 31.189,5.343C31.189,5.06 31.093,4.823 30.902,4.631C30.71,4.439 30.472,4.343 30.189,4.343C29.906,4.343 29.668,4.439 29.477,4.631C29.285,4.823 29.189,5.06 29.189,5.343C29.189,5.627 29.285,5.864 29.477,6.056C29.668,6.248 29.906,6.343 30.189,6.343Z"
          style="stroke-width: 0"
        />
      </g>
    </symbol>
    <symbol id="graph_upstream" viewBox="0 0 24 24">
      <g transform="matrix(-1,0,0,-1,47.45,24.3433)">
        <path
          d="M39.189,18.093L39.189,16.343C39.189,15.51 38.897,14.802 38.314,14.218C37.731,13.635 37.022,13.343 36.189,13.343L34.189,13.343C33.622,13.343 33.085,13.256 32.577,13.081C32.068,12.906 31.606,12.66 31.189,12.343L31.189,16.518C31.772,16.718 32.252,17.077 32.627,17.593C33.002,18.11 33.189,18.693 33.189,19.343C33.189,20.177 32.897,20.885 32.314,21.468C31.731,22.052 31.022,22.343 30.189,22.343C29.356,22.343 28.647,22.052 28.064,21.468C27.481,20.885 27.189,20.177 27.189,19.343C27.189,18.693 27.377,18.11 27.752,17.593C28.127,17.077 28.606,16.718 29.189,16.518L29.189,8.168C28.606,7.968 28.127,7.61 27.752,7.093C27.377,6.577 27.189,5.993 27.189,5.343C27.189,4.51 27.481,3.802 28.064,3.218C28.647,2.635 29.356,2.343 30.189,2.343C31.022,2.343 31.731,2.635 32.314,3.218C32.897,3.802 33.189,4.51 33.189,5.343C33.189,5.993 33.002,6.577 32.627,7.093C32.252,7.61 31.772,7.968 31.189,8.168L31.189,8.343C31.189,9.177 31.481,9.885 32.064,10.468C32.647,11.052 33.356,11.343 34.189,11.343L36.189,11.343C37.572,11.343 38.752,11.831 39.727,12.806C40.702,13.781 41.189,14.96 41.189,16.343L41.189,18.093L43.711,18.093L40.206,22.343L36.701,18.093L39.189,18.093ZM30.189,20.343C30.472,20.343 30.71,20.248 30.902,20.056C31.093,19.864 31.189,19.627 31.189,19.343C31.189,19.06 31.093,18.823 30.902,18.631C30.71,18.439 30.472,18.343 30.189,18.343C29.906,18.343 29.668,18.439 29.477,18.631C29.285,18.823 29.189,19.06 29.189,19.343C29.189,19.627 29.285,19.864 29.477,20.056C29.668,20.248 29.906,20.343 30.189,20.343ZM30.189,6.343C30.472,6.343 30.71,6.248 30.902,6.056C31.093,5.864 31.189,5.627 31.189,5.343C31.189,5.06 31.093,4.823 30.902,4.631C30.71,4.439 30.472,4.343 30.189,4.343C29.906,4.343 29.668,4.439 29.477,4.631C29.285,4.823 29.189,5.06 29.189,5.343C29.189,5.627 29.285,5.864 29.477,6.056C29.668,6.248 29.906,6.343 30.189,6.343Z"
          style="stroke-width: 0"
        />
      </g>
    </symbol>
  </defs>
</svg>
