<?xml version="1.0" encoding="UTF-8" standalone="no"?>
<!DOCTYPE svg PUBLIC "-//W3C//DTD SVG 1.1//EN" "http://www.w3.org/Graphics/SVG/1.1/DTD/svg11.dtd">
<svg width="100%" height="100%" viewBox="0 0 32 32" version="1.1" xmlns="http://www.w3.org/2000/svg" xmlns:xlink="http://www.w3.org/1999/xlink" xml:space="preserve" xmlns:serif="http://www.serif.com/" style="fill-rule:evenodd;clip-rule:evenodd;stroke-linejoin:round;stroke-miterlimit:2;">
    <g transform="matrix(1,0,0,1,-2.417,0)">
        <path d="M20.084,23.5C20.084,22.81 19.524,22.25 18.834,22.25L12.167,22.25C11.477,22.25 10.917,22.81 10.917,23.5C10.917,24.19 11.477,24.75 12.167,24.75L18.834,24.75C19.524,24.75 20.084,24.19 20.084,23.5Z" style="fill:rgb(137,100,232);"/>
        <path d="M22.583,19.75C22.583,19.06 22.023,18.5 21.333,18.5L20.083,18.5C19.393,18.5 18.833,19.06 18.833,19.75C18.833,20.44 19.393,21 20.083,21L21.333,21C22.023,21 22.583,20.44 22.583,19.75Z" style="fill:rgb(23,184,119);"/>
        <path d="M17.583,19.75C17.583,19.06 17.023,18.5 16.333,18.5L15.083,18.5C14.393,18.5 13.833,19.06 13.833,19.75C13.833,20.44 14.393,21 15.083,21L16.333,21C17.023,21 17.583,20.44 17.583,19.75Z" style="fill:rgb(23,184,119);"/>
        <path d="M22.167,16C22.167,15.31 21.607,14.75 20.917,14.75L18,14.75C17.31,14.75 16.75,15.31 16.75,16C16.75,16.69 17.31,17.25 18,17.25L20.917,17.25C21.607,17.25 22.167,16.69 22.167,16Z" style="fill:rgb(255,162,62);"/>
        <path d="M25.917,16C25.917,15.31 25.357,14.75 24.667,14.75C23.977,14.75 23.417,15.31 23.417,16C23.417,16.69 23.977,17.25 24.667,17.25C25.357,17.25 25.917,16.69 25.917,16Z" style="fill:rgb(255,162,62);"/>
        <path d="M23,12.25C23,11.56 22.44,11 21.75,11L15.083,11C14.393,11 13.833,11.56 13.833,12.25C13.833,12.94 14.393,13.5 15.083,13.5L21.75,13.5C22.44,13.5 23,12.94 23,12.25Z" style="fill:rgb(37,166,233);"/>
        <path d="M20.084,8.5C20.084,7.81 19.524,7.25 18.834,7.25L15.917,7.25C15.227,7.25 14.667,7.81 14.667,8.5C14.667,9.19 15.227,9.75 15.917,9.75L18.834,9.75C19.524,9.75 20.084,9.19 20.084,8.5Z" style="fill:rgb(137,100,232);"/>
        <path d="M13.417,8.5C13.417,7.81 12.857,7.25 12.167,7.25C11.477,7.25 10.917,7.81 10.917,8.5C10.917,9.19 11.477,9.75 12.167,9.75C12.857,9.75 13.417,9.19 13.417,8.5Z" style="fill:rgb(137,100,232);"/>
    </g>
</svg>
