<svg width="273" height="182" viewBox="0 0 273 182" fill="none" xmlns="http://www.w3.org/2000/svg">
<g clip-path="url(#clip0_4712_2282)">
<g clip-path="url(#clip1_4712_2282)">
<path d="M0 70.0513C0 65.4631 3.71948 61.7437 8.30769 61.7437H279.692C284.281 61.7437 288 65.4631 288 70.0513V225.436C288 230.024 284.281 233.744 279.692 233.744H0V70.0513Z" class="theme-fill-bg"/>
<mask id="path-3-inside-1_4712_2282" fill="white">
<path d="M0 62.7437C0 62.1914 0.447715 61.7437 1 61.7437H273C273.552 61.7437 274 62.1914 274 62.7437V88.7437C274 89.2959 273.552 89.7437 273 89.7437H1C0.44772 89.7437 0 89.2959 0 88.7437V62.7437Z"/>
</mask>
<path d="M0 62.7437C0 62.1914 0.447715 61.7437 1 61.7437H273C273.552 61.7437 274 62.1914 274 62.7437V88.7437C274 89.2959 273.552 89.7437 273 89.7437H1C0.44772 89.7437 0 89.2959 0 88.7437V62.7437Z" class="theme-fill-accent-bg"/>
<path d="M0 61.7437H274H0ZM274 88.7437C274 89.8482 273.105 90.7437 272 90.7437H2C0.895431 90.7437 0 89.8482 0 88.7437C0 88.7437 0.447715 88.7437 1 88.7437H273C273.552 88.7437 274 88.7437 274 88.7437ZM0 89.7437V61.7437V89.7437ZM274 61.7437V89.7437V61.7437Z" class="theme-fill-primary" mask="url(#path-3-inside-1_4712_2282)"/>
<circle cx="13" cy="77.3443" r="2.75" fill="#F637E3" class="theme-stroke-primary"/>
<circle cx="22.1001" cy="77.3443" r="2.75" class="theme-stroke-primary"/>
<circle cx="31.2002" cy="77.3443" r="2.75" class="theme-stroke-primary"/>
</g>
<path d="M0.5 70.0513C0.5 65.7393 3.99562 62.2437 8.30769 62.2437H279.692C284.004 62.2437 287.5 65.7393 287.5 70.0513V225.436C287.5 229.748 284.004 233.244 279.692 233.244H0.5V70.0513Z" class="theme-stroke-primary"/>
</g>
<path d="M177.667 0.743652L136 76.3437H173.5L169.333 126.744L211 51.1437H173.5L177.667 0.743652Z" class="theme-fill-bg theme-stroke-primary" stroke-linecap="round" stroke-linejoin="round"/>
<defs>
<clipPath id="clip0_4712_2282">
<rect width="273" height="120" fill="white" transform="translate(0 61.7437)"/>
</clipPath>
<clipPath id="clip1_4712_2282">
<path d="M0 70.0513C0 65.4631 3.71948 61.7437 8.30769 61.7437H279.692C284.281 61.7437 288 65.4631 288 70.0513V225.436C288 230.024 284.281 233.744 279.692 233.744H0V70.0513Z" fill="white"/>
</clipPath>
</defs>
</svg>