<svg width="322" height="193" viewBox="0 0 322 193" fill="none" xmlns="http://www.w3.org/2000/svg">
<g clip-path="url(#clip0_5038_4127)">
<path d="M17.1875 63.5845V103.925" class="theme-stroke-secondary" stroke-miterlimit="10"/>
<path d="M321.187 103.925L279.007 164.269V39.8726" class="theme-stroke-secondary" stroke-miterlimit="10"/>
<path d="M321.188 103.925L377.914 87.631L371.682 35.4038L321.188 103.925ZM321.188 103.925L279.008 39.8726L169.188 103.925L279.008 164.269" class="theme-stroke-secondary" stroke-miterlimit="10"/>
<path d="M279.008 39.8724L169.385 -4.8916L169.188 103.925H17.1875L56.1451 177.539L62.3771 103.925" class="theme-stroke-secondary" stroke-miterlimit="10"/>
<mask id="path-5-outside-1_5038_4127" maskUnits="userSpaceOnUse" x="305.199" y="86.6423" width="32" height="35" fill="black">
<rect fill="white" x="305.199" y="86.6423" width="32" height="35"/>
<path d="M319.028 88.2085L308.449 94.2125C307.066 95.0029 306.199 96.4773 306.199 98.0733V109.853C306.199 111.449 307.066 112.924 308.449 113.714L318.982 119.673C320.335 120.433 321.992 120.433 323.345 119.673L333.878 113.714C335.277 112.924 336.128 111.449 336.128 109.853V98.0733C336.128 96.4773 335.277 95.0181 333.894 94.2277L323.406 88.2237C322.053 87.4485 320.381 87.4485 319.013 88.2237L319.028 88.2085Z"/>
</mask>
<path d="M319.028 88.2085L308.449 94.2125C307.066 95.0029 306.199 96.4773 306.199 98.0733V109.853C306.199 111.449 307.066 112.924 308.449 113.714L318.982 119.673C320.335 120.433 321.992 120.433 323.345 119.673L333.878 113.714C335.277 112.924 336.128 111.449 336.128 109.853V98.0733C336.128 96.4773 335.277 95.0181 333.894 94.2277L323.406 88.2237C322.053 87.4485 320.381 87.4485 319.013 88.2237L319.028 88.2085Z" class="theme-fill-accent"/>
<path d="M319.028 88.2085L308.449 94.2125C307.066 95.0029 306.199 96.4773 306.199 98.0733V109.853C306.199 111.449 307.066 112.924 308.449 113.714L318.982 119.673C320.335 120.433 321.992 120.433 323.345 119.673L333.878 113.714C335.277 112.924 336.128 111.449 336.128 109.853V98.0733C336.128 96.4773 335.277 95.0181 333.894 94.2277L323.406 88.2237C322.053 87.4485 320.381 87.4485 319.013 88.2237L319.028 88.2085Z" class="theme-stroke-primary" stroke-width="2" mask="url(#path-5-outside-1_5038_4127)"/>
<mask id="path-6-outside-2_5038_4127" maskUnits="userSpaceOnUse" x="46.0244" y="166.48" width="21" height="23" fill="black">
<rect fill="white" x="46.0244" y="166.48" width="21" height="23"/>
<path d="M54.746 167.917L48.666 171.368C47.6476 171.945 47.0244 173.009 47.0244 174.18V180.913C47.0244 182.084 47.6476 183.148 48.666 183.725L54.7156 187.145C55.7036 187.708 56.9044 187.708 57.8924 187.145L63.942 183.725C64.9604 183.148 65.5836 182.084 65.5836 180.913V174.165C65.5836 173.009 64.9604 171.93 63.9572 171.353L57.938 167.902C56.95 167.34 55.734 167.34 54.7308 167.902L54.746 167.917Z"/>
</mask>
<path d="M54.746 167.917L48.666 171.368C47.6476 171.945 47.0244 173.009 47.0244 174.18V180.913C47.0244 182.084 47.6476 183.148 48.666 183.725L54.7156 187.145C55.7036 187.708 56.9044 187.708 57.8924 187.145L63.942 183.725C64.9604 183.148 65.5836 182.084 65.5836 180.913V174.165C65.5836 173.009 64.9604 171.93 63.9572 171.353L57.938 167.902C56.95 167.34 55.734 167.34 54.7308 167.902L54.746 167.917Z" class="theme-fill-bg"/>
<path d="M54.746 167.917L48.666 171.368C47.6476 171.945 47.0244 173.009 47.0244 174.18V180.913C47.0244 182.084 47.6476 183.148 48.666 183.725L54.7156 187.145C55.7036 187.708 56.9044 187.708 57.8924 187.145L63.942 183.725C64.9604 183.148 65.5836 182.084 65.5836 180.913V174.165C65.5836 173.009 64.9604 171.93 63.9572 171.353L57.938 167.902C56.95 167.34 55.734 167.34 54.7308 167.902L54.746 167.917Z" class="theme-stroke-primary" stroke-width="2" mask="url(#path-6-outside-2_5038_4127)"/>
<mask id="path-7-outside-3_5038_4127" maskUnits="userSpaceOnUse" x="271.774" y="32.1272" width="15" height="16" fill="black">
<rect fill="white" x="271.774" y="32.1272" width="15" height="16"/>
<path d="M277.958 33.4122L273.869 35.7378C273.2 36.1178 272.774 36.8322 272.774 37.6074V42.1522C272.774 42.9274 273.185 43.6418 273.869 44.0218L277.942 46.3322C278.596 46.697 279.402 46.697 280.07 46.3322L284.144 44.0218C284.813 43.6418 285.238 42.9274 285.238 42.1522V37.6074C285.238 36.8322 284.828 36.1178 284.159 35.7378L280.101 33.4122C279.447 33.0322 278.626 33.0322 277.973 33.4122H277.958Z"/>
</mask>
<path d="M277.958 33.4122L273.869 35.7378C273.2 36.1178 272.774 36.8322 272.774 37.6074V42.1522C272.774 42.9274 273.185 43.6418 273.869 44.0218L277.942 46.3322C278.596 46.697 279.402 46.697 280.07 46.3322L284.144 44.0218C284.813 43.6418 285.238 42.9274 285.238 42.1522V37.6074C285.238 36.8322 284.828 36.1178 284.159 35.7378L280.101 33.4122C279.447 33.0322 278.626 33.0322 277.973 33.4122H277.958Z" class="theme-fill-accent-bg"/>
<path d="M277.958 33.4122L273.869 35.7378C273.2 36.1178 272.774 36.8322 272.774 37.6074V42.1522C272.774 42.9274 273.185 43.6418 273.869 44.0218L277.942 46.3322C278.596 46.697 279.402 46.697 280.07 46.3322L284.144 44.0218C284.813 43.6418 285.238 42.9274 285.238 42.1522V37.6074C285.238 36.8322 284.828 36.1178 284.159 35.7378L280.101 33.4122C279.447 33.0322 278.626 33.0322 277.973 33.4122H277.958Z" class="theme-stroke-primary" stroke-width="2" mask="url(#path-7-outside-3_5038_4127)"/>
<mask id="path-8-outside-4_5038_4127" maskUnits="userSpaceOnUse" x="55.1445" y="96.1804" width="15" height="16" fill="black">
<rect fill="white" x="55.1445" y="96.1804" width="15" height="16"/>
<path d="M61.3277 97.4654L57.2389 99.791C56.5701 100.171 56.1445 100.885 56.1445 101.661V106.205C56.1445 106.981 56.5549 107.695 57.2389 108.075L61.3125 110.385C61.9661 110.75 62.7717 110.75 63.4405 110.385L67.5141 108.075C68.1829 107.695 68.6085 106.981 68.6085 106.205V101.661C68.6085 100.885 68.1981 100.171 67.5293 99.791L63.4709 97.4654C62.8173 97.0854 61.9965 97.0854 61.3429 97.4654H61.3277Z"/>
</mask>
<path d="M61.3277 97.4654L57.2389 99.791C56.5701 100.171 56.1445 100.885 56.1445 101.661V106.205C56.1445 106.981 56.5549 107.695 57.2389 108.075L61.3125 110.385C61.9661 110.75 62.7717 110.75 63.4405 110.385L67.5141 108.075C68.1829 107.695 68.6085 106.981 68.6085 106.205V101.661C68.6085 100.885 68.1981 100.171 67.5293 99.791L63.4709 97.4654C62.8173 97.0854 61.9965 97.0854 61.3429 97.4654H61.3277Z" class="theme-fill-accent-bg"/>
<path d="M61.3277 97.4654L57.2389 99.791C56.5701 100.171 56.1445 100.885 56.1445 101.661V106.205C56.1445 106.981 56.5549 107.695 57.2389 108.075L61.3125 110.385C61.9661 110.75 62.7717 110.75 63.4405 110.385L67.5141 108.075C68.1829 107.695 68.6085 106.981 68.6085 106.205V101.661C68.6085 100.885 68.1981 100.171 67.5293 99.791L63.4709 97.4654C62.8173 97.0854 61.9965 97.0854 61.3429 97.4654H61.3277Z" class="theme-stroke-primary" stroke-width="2" mask="url(#path-8-outside-4_5038_4127)"/>
<mask id="path-9-outside-5_5038_4127" maskUnits="userSpaceOnUse" x="271.774" y="156.54" width="15" height="16" fill="black">
<rect fill="white" x="271.774" y="156.54" width="15" height="16"/>
<path d="M277.958 157.825L273.869 160.15C273.2 160.53 272.774 161.245 272.774 162.02V166.565C272.774 167.34 273.185 168.054 273.869 168.434L277.942 170.745C278.596 171.109 279.402 171.109 280.07 170.745L284.144 168.434C284.813 168.054 285.238 167.34 285.238 166.565V162.02C285.238 161.245 284.828 160.53 284.159 160.15L280.101 157.825C279.447 157.445 278.626 157.445 277.973 157.825H277.958Z"/>
</mask>
<path d="M277.958 157.825L273.869 160.15C273.2 160.53 272.774 161.245 272.774 162.02V166.565C272.774 167.34 273.185 168.054 273.869 168.434L277.942 170.745C278.596 171.109 279.402 171.109 280.07 170.745L284.144 168.434C284.813 168.054 285.238 167.34 285.238 166.565V162.02C285.238 161.245 284.828 160.53 284.159 160.15L280.101 157.825C279.447 157.445 278.626 157.445 277.973 157.825H277.958Z" class="theme-fill-bg"/>
<path d="M277.958 157.825L273.869 160.15C273.2 160.53 272.774 161.245 272.774 162.02V166.565C272.774 167.34 273.185 168.054 273.869 168.434L277.942 170.745C278.596 171.109 279.402 171.109 280.07 170.745L284.144 168.434C284.813 168.054 285.238 167.34 285.238 166.565V162.02C285.238 161.245 284.828 160.53 284.159 160.15L280.101 157.825C279.447 157.445 278.626 157.445 277.973 157.825H277.958Z" class="theme-stroke-primary" stroke-width="2" mask="url(#path-9-outside-5_5038_4127)"/>
<mask id="path-10-inside-6_5038_4127" fill="white">
<path d="M168.335 -11.3517L164.246 -9.02612C163.577 -8.64612 163.151 -7.93172 163.151 -7.15652V-2.61172C163.151 -1.83652 163.562 -1.12212 164.246 -0.742119L168.319 1.56828C168.973 1.93308 169.779 1.93308 170.447 1.56828L174.521 -0.742119C175.19 -1.12212 175.615 -1.83652 175.615 -2.61172V-7.15652C175.615 -7.93172 175.205 -8.64612 174.536 -9.02612L170.478 -11.3517C169.824 -11.7317 169.003 -11.7317 168.35 -11.3517H168.335Z"/>
</mask>
<path d="M168.335 -11.3517L164.246 -9.02612C163.577 -8.64612 163.151 -7.93172 163.151 -7.15652V-2.61172C163.151 -1.83652 163.562 -1.12212 164.246 -0.742119L168.319 1.56828C168.973 1.93308 169.779 1.93308 170.447 1.56828L174.521 -0.742119C175.19 -1.12212 175.615 -1.83652 175.615 -2.61172V-7.15652C175.615 -7.93172 175.205 -8.64612 174.536 -9.02612L170.478 -11.3517C169.824 -11.7317 169.003 -11.7317 168.35 -11.3517H168.335Z" class="theme-fill-primary theme-stroke-primary" stroke-width="2" mask="url(#path-10-inside-6_5038_4127)"/>
<mask id="path-11-outside-7_5038_4127" maskUnits="userSpaceOnUse" x="9.9541" y="55.8394" width="15" height="16" fill="black">
<rect fill="white" x="9.9541" y="55.8394" width="15" height="16"/>
<path d="M16.1373 57.1244L12.0485 59.45C11.3797 59.83 10.9541 60.5444 10.9541 61.3196V65.8644C10.9541 66.6396 11.3645 67.354 12.0485 67.734L16.1221 70.0444C16.7757 70.4092 17.5813 70.4092 18.2501 70.0444L22.3237 67.734C22.9925 67.354 23.4181 66.6396 23.4181 65.8644V61.3196C23.4181 60.5444 23.0077 59.83 22.3389 59.45L18.2805 57.1244C17.6269 56.7444 16.8061 56.7444 16.1525 57.1244H16.1373Z"/>
</mask>
<path d="M16.1373 57.1244L12.0485 59.45C11.3797 59.83 10.9541 60.5444 10.9541 61.3196V65.8644C10.9541 66.6396 11.3645 67.354 12.0485 67.734L16.1221 70.0444C16.7757 70.4092 17.5813 70.4092 18.2501 70.0444L22.3237 67.734C22.9925 67.354 23.4181 66.6396 23.4181 65.8644V61.3196C23.4181 60.5444 23.0077 59.83 22.3389 59.45L18.2805 57.1244C17.6269 56.7444 16.8061 56.7444 16.1525 57.1244H16.1373Z" class="theme-fill-bg"/>
<path d="M16.1373 57.1244L12.0485 59.45C11.3797 59.83 10.9541 60.5444 10.9541 61.3196V65.8644C10.9541 66.6396 11.3645 67.354 12.0485 67.734L16.1221 70.0444C16.7757 70.4092 17.5813 70.4092 18.2501 70.0444L22.3237 67.734C22.9925 67.354 23.4181 66.6396 23.4181 65.8644V61.3196C23.4181 60.5444 23.0077 59.83 22.3389 59.45L18.2805 57.1244C17.6269 56.7444 16.8061 56.7444 16.1525 57.1244H16.1373Z" class="theme-stroke-primary" stroke-width="2" mask="url(#path-11-outside-7_5038_4127)"/>
<mask id="path-12-outside-8_5038_4127" maskUnits="userSpaceOnUse" x="6.88477" y="92.8821" width="21" height="23" fill="black">
<rect fill="white" x="6.88477" y="92.8821" width="21" height="23"/>
<path d="M15.6064 94.3191L9.52637 97.7695C8.50797 98.3471 7.88477 99.4111 7.88477 100.581V107.315C7.88477 108.485 8.50797 109.549 9.52637 110.127L15.576 113.547C16.564 114.109 17.7648 114.109 18.7528 113.547L24.8024 110.127C25.8208 109.549 26.444 108.485 26.444 107.315V100.566C26.444 99.4111 25.8208 98.3319 24.8176 97.7543L18.7984 94.3039C17.8104 93.7415 16.5944 93.7415 15.5912 94.3039L15.6064 94.3191Z"/>
</mask>
<path d="M15.6064 94.3191L9.52637 97.7695C8.50797 98.3471 7.88477 99.4111 7.88477 100.581V107.315C7.88477 108.485 8.50797 109.549 9.52637 110.127L15.576 113.547C16.564 114.109 17.7648 114.109 18.7528 113.547L24.8024 110.127C25.8208 109.549 26.444 108.485 26.444 107.315V100.566C26.444 99.4111 25.8208 98.3319 24.8176 97.7543L18.7984 94.3039C17.8104 93.7415 16.5944 93.7415 15.5912 94.3039L15.6064 94.3191Z" class="theme-fill-bg"/>
<path d="M15.6064 94.3191L9.52637 97.7695C8.50797 98.3471 7.88477 99.4111 7.88477 100.581V107.315C7.88477 108.485 8.50797 109.549 9.52637 110.127L15.576 113.547C16.564 114.109 17.7648 114.109 18.7528 113.547L24.8024 110.127C25.8208 109.549 26.444 108.485 26.444 107.315V100.566C26.444 99.4111 25.8208 98.3319 24.8176 97.7543L18.7984 94.3039C17.8104 93.7415 16.5944 93.7415 15.5912 94.3039L15.6064 94.3191Z" class="theme-stroke-primary" stroke-width="2" mask="url(#path-12-outside-8_5038_4127)"/>
<mask id="path-13-inside-9_5038_4127" fill="white">
<path d="M165 26.5442L102.513 62.0362C99.8224 63.5714 98.1504 66.429 98.1504 69.5298V139.693C98.1504 142.794 99.8224 145.667 102.528 147.187L164.787 182.405C167.417 183.895 170.639 183.895 173.269 182.405L235.528 147.187C238.234 145.651 239.906 142.794 239.906 139.693V69.5146C239.906 66.429 238.249 63.5714 235.558 62.0362L173.512 26.5594C170.867 25.0546 167.63 25.0394 164.985 26.5594L165 26.5442Z"/>
</mask>
<path d="M165 26.5442L102.513 62.0362C99.8224 63.5714 98.1504 66.429 98.1504 69.5298V139.693C98.1504 142.794 99.8224 145.667 102.528 147.187L164.787 182.405C167.417 183.895 170.639 183.895 173.269 182.405L235.528 147.187C238.234 145.651 239.906 142.794 239.906 139.693V69.5146C239.906 66.429 238.249 63.5714 235.558 62.0362L173.512 26.5594C170.867 25.0546 167.63 25.0394 164.985 26.5594L165 26.5442Z" class="theme-fill-bg theme-stroke-primary" stroke-width="2" mask="url(#path-13-inside-9_5038_4127)"/>
<path d="M154.406 53.355L117.232 133.353L117.232 74.4696L154.406 53.355Z" class="theme-fill-secondary"/>
<path d="M184.145 53.355L221.318 133.353V74.4696L184.145 53.355Z" class="theme-fill-secondary"/>
<path d="M146.559 132.461L140.726 146.736L169.276 162.795L197.825 146.736L191.992 132.461H146.559Z" class="theme-fill-secondary"/>
<path d="M168.086 81.3092L153.811 115.807H182.361L168.086 81.3092Z" class="theme-fill-secondary"/>
</g>
<defs>
<clipPath id="clip0_5038_4127">
<rect width="391.4" height="204.25" fill="white" transform="translate(0.299805 -11.625)"/>
</clipPath>
</defs>
</svg>
