<svg
  width="157"
  height="288"
  viewBox="0 0 157 288"
  fill="none"
  xmlns="http://www.w3.org/2000/svg"
  class="docs-directives-svg"
>
  <g style="mix-blend-mode: multiply;">
    <path
      d="M64.7336 223.338H11.2638C8.32848 223.338 5.94891 225.718 5.94891 228.653V282.123C5.94891 285.058 8.32848 287.438 11.2638 287.438H64.7336C67.6689 287.438 70.0485 285.058 70.0485 282.123V228.653C70.0485 225.718 67.6689 223.338 64.7336 223.338Z"
      fill="var(--senary-contrast)"
    />
  </g>
  <path
    d="M74.9811 257.855V144.478"
    stroke="#E90464"
    stroke-width="0.5"
    stroke-miterlimit="10"
  />
  <path
    d="M78.064 145.378L74.9811 140.051L71.9106 145.378H78.064Z"
    fill="#E90464"
  />
  <path
    d="M90.8149 257.854V212.104H115.059"
    stroke="var(--primary-contrast)"
    stroke-width="0.5"
    stroke-miterlimit="10"
  />
  <path
    d="M114.159 215.175L119.486 212.104L114.159 209.034V215.175Z"
    fill="var(--primary-contrast)"
  />
  <path
    d="M57.6552 257.855V182.188H22.7569"
    stroke="var(--primary-contrast)"
    stroke-width="0.5"
    stroke-miterlimit="10"
  />
  <path
    d="M23.6571 179.105L18.3298 182.1M113.098 50.6715C114.442 50.6715 115.527 51.7567 115.527 53.1008V120.024C115.527 121.368 114.442 122.454 113.098 122.454H46.1746C44.8304 122.454 43.7452 121.368 43.7452 120.024V53.1008C43.7452 51.7567 44.8304 50.6715 46.1746 50.6715H113.098ZM113.098 50.0549H46.1746C44.4975 50.0549 43.1287 51.4237 43.1287 53.1008V120.024C43.1287 121.701 44.4975 123.07 46.1746 123.07H113.098C114.775 123.07 116.144 121.701 116.144 120.024V53.1008C116.144 51.4237 114.787 50.0549 113.098 50.0549Z88L23.6571 185.258V179.105Z"
    fill="black"
  />
  <path
    d="M59.9366 218.061H6.46685C3.53151 218.061 1.15195 220.44 1.15195 223.375V276.845C1.15195 279.781 3.53151 282.16 6.46685 282.16H59.9366C62.8719 282.16 65.2515 279.781 65.2515 276.845V223.375C65.2515 220.44 62.8719 218.061 59.9366 218.061Z"
    fill="#8514F5"
    stroke="black"
    stroke-width="0.5"
    stroke-miterlimit="10"
  />
  <path
    fill-rule="evenodd"
    clip-rule="evenodd"
    d="M39.3922 241.293L42.8573 237.828L33.2017 228.172L23.5091 237.865L26.9743 241.33L30.7477 237.557V248.791H19.5137L23.5091 244.795L20.0439 241.33L10.1417 251.232L19.7973 260.888L23.2625 257.423L19.5137 253.674H30.7477V272.048H35.6434V253.674H46.8774L43.104 257.448L46.5691 260.913L56.2618 251.22L46.3225 241.281L42.8573 244.746L46.8774 248.766H35.6434V237.532L39.3922 241.281V241.293Z"
    fill="white"
    stroke="black"
    stroke-width="0.5"
    stroke-miterlimit="10"
  />
  <path
    d="M123.481 138.127H114.381V147.228H123.481V138.127Z"
    stroke="var(--primary-contrast)"
    stroke-width="0.5"
    stroke-miterlimit="10"M64.7336 223.338H11.2638C8.32848 223.338 5.94891 225.718 5.94891 228.653V282.123C5.94891 285.058 8.32848 287.438 11.2638 287.438H64.7336C67.6689 287.438 70.0485 285.058 70.0485 282.123V228.653C70.0485 225.718 67.6689 223.338 64.7336 223.338Z
  />
  <path
    d="M134.185 117.25H129.351V122.084H134.185V117.25Z"
    stroke="var(--primary-contrast)"
    stroke-width="0.5"
    stroke-miterlimit="10"
  />
  <path
    d="M113.086 50.3633H46.1746C44.6626 50.3633 43.437 51.589 43.437 53.1009V120.012C43.437 121.524 44.6626 122.75 46.1746 122.75H113.086C114.598 122.75 115.823 121.524 115.823 120.012V53.1009C115.823 51.589 114.598 50.3633 113.086 50.3633Z"
    fill="#F11653"
  />
  <path
    d="M113.098 50.6715C114.442 50.6715 115.527 51.7567 115.527 53.1008V120.024C115.527 121.368 114.442 122.454 113.098 122.454H46.1746C44.8304 122.454 43.7452 121.368 43.7452 120.024V53.1008C43.7452 51.7567 44.8304 50.6715 46.1746 50.6715H113.098ZM113.098 50.0549H46.1746C44.4975 50.0549 43.1287 51.4237 43.1287 53.1008V120.024C43.1287 121.701 44.4975 123.07 46.1746 123.07H113.098C114.775 123.07 116.144 121.701 116.144 120.024V53.1008C116.144 51.4237 114.787 50.0549 113.098 50.0549Z"
    fill="var(--primary-contrast)"
  />
  <path
    d="M105.465 42.4341H38.5536C36.8714 42.4341 35.5077 43.7978 35.5077 45.48V112.391C35.5077 114.073 36.8714 115.437 38.5536 115.437H105.465C107.147 115.437 108.511 114.073 108.511 112.391V45.48C108.511 43.7978 107.147 42.4341 105.465 42.4341Z"
    fill="white"
    stroke="black"
    stroke-width="0.5"
    stroke-miterlimit="10"
  />
  <path
    d="M51.2428 53.7051H92.7756C94.5513 53.7051 95.9941 55.1479 95.9941 56.9236V64.3719C95.9941 66.1476 94.5513 67.5904 92.7756 67.5904H51.2428C49.4671 67.5904 48.0243 66.1476 48.0243 64.3719V56.9236C48.0243 55.1479 49.4671 53.7051 51.2428 53.7051Z"
    fill="white"
  />
  <path
    d="M92.7756 54.0136C94.3787 54.0136 95.6859 55.3207 95.6859 56.9238V64.3721C95.6859 65.9752 94.3787 67.2823 92.7756 67.2823H51.2428C49.6397 67.2823 48.3326 65.9752 48.3326 64.3721V56.9238C48.3326 55.3207 49.6397 54.0136 51.2428 54.0136H92.7756ZM92.7756 53.397H51.2428C49.3068 53.397 47.716 54.9877 47.716 56.9238V64.3721C47.716 66.3081 49.3068 67.8989 51.2428 67.8989H92.7756C94.7117 67.8989 96.3024 66.3081 96.3024 64.3721V56.9238C96.3024 54.9877 94.7117 53.397 92.7756 53.397Z"
    fill="var(--primary-contrast)"
  />
  <path
    d="M54.893 57.7375H60.2942C60.4175 57.7375 60.5038 57.8362 60.5038 57.9472V63.3484C60.5038 63.4717 60.4052 63.5581 60.2942 63.5581H54.893C54.7697 63.5581 54.6833 63.4594 54.6833 63.3484V57.9472C54.6833 57.8239 54.782 57.7375 54.893 57.7375Z"
    fill="white"
  />
  <path
    d="M60.2079 58.0458V63.2497H55.0039V58.0458H60.2079ZM60.3065 57.4292H54.9053C54.6217 57.4292 54.3874 57.6635 54.3874 57.9471V63.3484C54.3874 63.632 54.6217 63.8663 54.9053 63.8663H60.3065C60.5902 63.8663 60.8245 63.632 60.8245 63.3484V57.9471C60.8245 57.6635 60.5902 57.4292 60.3065 57.4292Z"
    fill="black"
  />
  <path
    d="M65.3502 59.575H88.1512"
    stroke="black"
    stroke-width="0.5"
    stroke-miterlimit="10"
  />
  <path
    d="M51.2428 71.9929H92.7756C94.5513 71.9929 95.9941 73.4357 95.9941 75.2115V82.6597C95.9941 84.4355 94.5513 85.8783 92.7756 85.8783H51.2428C49.4671 85.8783 48.0243 84.4355 48.0243 82.6597V75.2115C48.0243 73.4357 49.4671 71.9929 51.2428 71.9929Z"
    fill="white"
  />
  <path
    d="M92.7756 72.3011C94.3787 72.3011 95.6859 73.6083 95.6859 75.2114V82.6597C95.6859 84.2628 94.3787 85.5699 92.7756 85.5699H51.2428C49.6397 85.5699 48.3326 84.2628 48.3326 82.6597V75.2114C48.3326 73.6083 49.6397 72.3011 51.2428 72.3011H92.7756ZM92.7756 71.6846H51.2428C49.3068 71.6846 47.716 73.2753 47.716 75.2114V82.6597C47.716 84.5957 49.3068 86.1865 51.2428 86.1865H92.7756C94.7117 86.1865 96.3024 84.5957 96.3024 82.6597V75.2114C96.3024 73.2753 94.7117 71.6846 92.7756 71.6846Z"
    fill="var(--primary-contrast)"
  />
  <path
    d="M60.2942 76.0129H54.893C54.7772 76.0129 54.6833 76.1068 54.6833 76.2226V81.6238C54.6833 81.7396 54.7772 81.8334 54.893 81.8334H60.2942C60.41 81.8334 60.5038 81.7396 60.5038 81.6238V76.2226C60.5038 76.1068 60.41 76.0129 60.2942 76.0129Z"
    fill="#DD0031"
  />
  <path
    d="M60.2079 76.3212V81.5251H55.0039V76.3212H60.2079ZM60.3065 75.7046H54.9053C54.6217 75.7046 54.3874 75.9389 54.3874 76.2225V81.6237C54.3874 81.9074 54.6217 82.1417 54.9053 82.1417H60.3065C60.5902 82.1417 60.8245 81.9074 60.8245 81.6237V76.2225C60.8245 75.9389 60.5902 75.7046 60.3065 75.7046Z"
    fill="var(--primary-contrast)"
  />
  <path
    d="M65.3502 77.8503H88.1512"
    stroke="var(--primary-contrast)"
    stroke-width="0.5"
    stroke-miterlimit="10"
  />
  <path
    d="M51.2428 90.2808H92.7756C94.5513 90.2808 95.9941 91.7236 95.9941 93.4993V100.948C95.9941 102.723 94.5513 104.166 92.7756 104.166H51.2428C49.4671 104.166 48.0243 102.723 48.0243 100.948V93.4993C48.0243 91.7236 49.4671 90.2808 51.2428 90.2808Z"
    fill="white"
  />
  <path
    d="M92.7756 90.589C94.3787 90.589 95.6859 91.8961 95.6859 93.4992V100.948C95.6859 102.551 94.3787 103.858 92.7756 103.858H51.2428C49.6397 103.858 48.3326 102.551 48.3326 100.948V93.4992C48.3326 91.8961 49.6397 90.589 51.2428 90.589H92.7756ZM92.7756 89.9724H51.2428C49.3068 89.9724 47.716 91.5632 47.716 93.4992V100.948C47.716 102.884 49.3068 104.474 51.2428 104.474H92.7756C94.7117 104.474 96.3024 102.884 96.3024 100.948V93.4992C96.3024 91.5632 94.7117 89.9724 92.7756 89.9724Z"
    fill="var(--primary-contrast)"
  />
  <path
    d="M54.893 94.3008H60.2942C60.4175 94.3008 60.5038 94.3994 60.5038 94.5104V99.9116C60.5038 100.035 60.4052 100.121 60.2942 100.121H54.893C54.7697 100.121 54.6833 100.023 54.6833 99.9116V94.5104C54.6833 94.3871 54.782 94.3008 54.893 94.3008Z"
    fill="white"
  />
  <path
    d="M60.2079 94.609V99.8129H55.0039V94.609H60.2079ZM60.3065 93.9924H54.9053C54.6217 93.9924 54.3874 94.2267 54.3874 94.5104V99.9116C54.3874 100.195 54.6217 100.43 54.9053 100.43H60.3065C60.5902 100.43 60.8245 100.195 60.8245 99.9116V94.5104C60.8245 94.2267 60.5902 93.9924 60.3065 93.9924Z"
    fill="var(--primary-contrast)"
  />
  <path
    d="M65.3502 96.1382H88.1512"
    stroke="var(--primary-contrast)"
    stroke-width="0.5"
    stroke-miterlimit="10"
  />
  <path
    d="M92.7756 53.397H51.2428C49.295 53.397 47.716 54.976 47.716 56.9238V64.3721C47.716 66.3199 49.295 67.8989 51.2428 67.8989H92.7756C94.7234 67.8989 96.3024 66.3199 96.3024 64.3721V56.9238C96.3024 54.976 94.7234 53.397 92.7756 53.397Z"
    fill="#EFEFF1"
    stroke="black"
    stroke-width="0.5"
    stroke-miterlimit="10"
  />
  <path
    d="M54.893 57.7375H60.2942C60.4175 57.7375 60.5038 57.8362 60.5038 57.9472V63.3484C60.5038 63.4717 60.4052 63.5581 60.2942 63.5581H54.893C54.7697 63.5581 54.6833 63.4594 54.6833 63.3484V57.9472C54.6833 57.8239 54.782 57.7375 54.893 57.7375Z"
    fill="#5C44E4"
  />
  <path
    d="M60.2079 58.0458V63.2497H55.0039V58.0458H60.2079ZM60.3065 57.4292H54.9053C54.6217 57.4292 54.3874 57.6635 54.3874 57.9471V63.3484C54.3874 63.632 54.6217 63.8663 54.9053 63.8663H60.3065C60.5902 63.8663 60.8245 63.632 60.8245 63.3484V57.9471C60.8245 57.6635 60.5902 57.4292 60.3065 57.4292Z"
    fill="var(--primary-contrast)"
  />
  <path
    d="M65.3502 59.575H88.1512"
    stroke="var(--primary-contrast)"
    stroke-width="0.5"
    stroke-miterlimit="10"
  />
  <path
    d="M92.7756 71.6846H51.2428C49.295 71.6846 47.716 73.2636 47.716 75.2114V82.6597C47.716 84.6075 49.295 86.1865 51.2428 86.1865H92.7756C94.7234 86.1865 96.3024 84.6075 96.3024 82.6597V75.2114C96.3024 73.2636 94.7234 71.6846 92.7756 71.6846Z"
    fill="#EFEFF1"
    stroke="black"
    stroke-width="0.5"
    stroke-miterlimit="10"
  />
  <path
    d="M60.2942 76.0129H54.893C54.7772 76.0129 54.6833 76.1068 54.6833 76.2226V81.6238C54.6833 81.7396 54.7772 81.8334 54.893 81.8334H60.2942C60.41 81.8334 60.5038 81.7396 60.5038 81.6238V76.2226C60.5038 76.1068 60.41 76.0129 60.2942 76.0129Z"
    fill="#F11653"
  />
  <path
    d="M60.2079 76.3212V81.5251H55.0039V76.3212H60.2079ZM60.3065 75.7046H54.9053C54.6217 75.7046 54.3874 75.9389 54.3874 76.2225V81.6237C54.3874 81.9074 54.6217 82.1417 54.9053 82.1417H60.3065C60.5902 82.1417 60.8245 81.9074 60.8245 81.6237V76.2225C60.8245 75.9389 60.5902 75.7046 60.3065 75.7046Z"
    fill="black"
  />
  <path
    d="M65.3502 77.8503H88.1512"
    stroke="black"
    stroke-width="0.5"
    stroke-miterlimit="10"
  />
  <path
    d="M92.7756 89.9724H51.2428C49.295 89.9724 47.716 91.5514 47.716 93.4992V100.948C47.716 102.895 49.295 104.474 51.2428 104.474H92.7756C94.7234 104.474 96.3024 102.895 96.3024 100.948V93.4992C96.3024 91.5514 94.7234 89.9724 92.7756 89.9724Z"
    fill="#EFEFF1"
    stroke="black"
    stroke-width="0.5"
    stroke-miterlimit="10"
  />
  <path
    d="M54.893 94.3008H60.2942C60.4175 94.3008 60.5038 94.3994 60.5038 94.5104V99.9116C60.5038 100.035 60.4052 100.121 60.2942 100.121H54.893C54.7697 100.121 54.6833 100.023 54.6833 99.9116V94.5104C54.6833 94.3871 54.782 94.3008 54.893 94.3008Z"
    fill="#F637E3"
  />
  <path
    d="M60.2079 94.609V99.8129H55.0039V94.609H60.2079ZM60.3065 93.9924H54.9053C54.6217 93.9924 54.3874 94.2267 54.3874 94.5104V99.9116C54.3874 100.195 54.6217 100.43 54.9053 100.43H60.3065C60.5902 100.43 60.8245 100.195 60.8245 99.9116V94.5104C60.8245 94.2267 60.5902 93.9924 60.3065 93.9924Z"
    fill="black"
  />
  <path
    d="M65.3502 96.1382H88.1512"
    stroke="black"
    stroke-width="0.5"
    stroke-miterlimit="10"
  />
  <path
    d="M44.0659 19.3372H36.186V27.217H44.0659V19.3372Z"
    stroke="black"
    stroke-width="0.5"
    stroke-miterlimit="10"
  />
  <path
    d="M28.9597 1H24.7669V5.19274H28.9597V1Z"
    stroke="var(--primary-contrast)"
    stroke-width="0.5"
    stroke-miterlimit="10"
  />
  <path
    d="M24.7669 83.3379H20.5742V87.5306H24.7669V83.3379Z"
    stroke="var(--primary-contrast)"
    stroke-width="0.5"
    stroke-miterlimit="10"
  />
  <path
    d="M156.308 181.14C156.308 171.977 148.601 164.603 139.303 165.183C131.324 165.676 124.838 172.175 124.344 180.153C124.233 182.015 124.443 183.828 124.912 185.517C125.257 186.726 125.738 187.86 126.33 188.933L126.404 189.069C126.404 189.069 126.404 189.094 126.416 189.094L138.587 211.105C139.34 212.462 141.276 212.462 142.028 211.105L154.286 188.933C155.568 186.627 156.308 183.976 156.308 181.152V181.14ZM140.314 187.367C137.231 187.367 134.74 184.876 134.74 181.793C134.74 178.71 137.231 176.219 140.314 176.219C143.397 176.219 145.888 178.71 145.888 181.793C145.888 184.876 143.397 187.367 140.314 187.367Z"
    fill="#F637E3"
    stroke="black"
    stroke-width="0.5"
    stroke-miterlimit="10"
  />
</svg>
