<svg xmlns="http://www.w3.org/2000/svg" width="263" height="292" viewBox="0 0 263 292" fill="none">
<g style="mix-blend-mode:color-dodge" clip-path="url(#clip0_7_198)">
<path d="M245.617 198.964C245.351 199.913 244.858 200.862 244.212 201.85C243.529 203.217 242.807 204.622 242.048 205.989L245.617 198.964ZM245.617 198.964C258.686 171.425 261.287 140.448 252.857 110.895L245.617 198.964ZM251.469 108.52L252.142 110.862C260.602 140.323 258.034 171.215 245.004 198.673L244.979 198.725L244.963 198.781C244.724 199.637 244.27 200.52 243.644 201.478L243.622 201.511L243.605 201.546C242.923 202.909 242.207 204.304 241.454 205.659L241.453 205.661C225.364 234.818 198.853 255.929 166.862 265.145C155.416 268.431 143.784 270.055 132.189 270.055C111.382 270.055 90.8001 264.807 72.066 254.458C70.5933 253.628 69.1194 252.758 67.6815 251.888L67.6425 251.864L67.6007 251.846C66.7997 251.498 66.1309 251.042 65.5556 250.575L65.5245 250.55L65.4908 250.528C39.7329 234.212 21.0767 209.401 12.5785 179.865L12.5785 179.865C4.11821 150.48 6.68631 119.664 19.6411 92.2434L19.6781 92.1649L19.6943 92.0796C19.9336 90.8146 20.6293 89.3928 21.8442 87.8098L21.8732 87.772L21.8967 87.7306C22.1506 87.2813 22.3839 86.8244 22.6097 86.3823L22.6128 86.3762C22.8417 85.9279 23.0631 85.4945 23.3017 85.0724L23.3048 85.0669C38.6392 57.3441 63.3757 36.913 93.2887 27.0553L93.3017 27.051L93.3146 27.0462C94.8115 26.4849 96.3503 25.9966 97.8974 25.5438C99.4728 25.0937 101.051 24.7177 102.636 24.3782L102.646 24.376L102.657 24.3735C135.059 16.3671 167.955 21.9934 194.999 37.7062L195.054 37.7385L195.115 37.7597C197.231 38.5021 198.726 39.3982 199.598 40.4712L199.666 40.5554L199.757 40.6141C223.66 55.9852 242.475 79.4448 251.469 108.52Z" stroke="#6F6F6F" stroke-width="1.35766"/>
<path d="M166.3 265.21C189.355 258.569 192.59 199.534 173.525 133.352C154.46 67.1701 120.315 18.9029 97.2603 25.5443C74.2054 32.1856 70.9709 91.2206 90.0358 157.403C109.101 223.585 143.246 271.852 166.3 265.21Z" stroke="#6F6F6F" stroke-width="1.35766" stroke-miterlimit="10"/>
<path d="M166.297 265.209C215.268 251.102 239.512 186.015 220.448 119.833C201.383 53.6512 146.228 11.4362 97.2568 25.5433C48.2854 39.6504 24.0413 104.738 43.1063 170.92C62.1712 237.101 117.326 279.317 166.297 265.209Z" stroke="#6F6F6F" stroke-width="1.35766" stroke-miterlimit="10"/>
<path d="M114.98 86.9534C164.898 72.5734 202.927 52.4536 199.92 42.0144C196.913 31.5752 154.008 34.7698 104.09 49.1498C54.171 63.5297 16.1417 83.6496 19.1489 94.0888C22.1561 104.528 65.061 101.333 114.98 86.9534Z" stroke="#6F6F6F" stroke-width="1.35766" stroke-miterlimit="10"/>
<path d="M128.491 134.006C190.34 116.19 236.784 88.9216 232.227 73.1016C227.67 57.2816 173.837 58.9003 111.988 76.7171C50.1386 94.5338 3.69437 121.802 8.25161 137.622C12.8088 153.442 66.6418 151.823 128.491 134.006Z" stroke="#6F6F6F" stroke-width="1.35766" stroke-miterlimit="10"/>
<path d="M138.926 170.188C204.523 151.292 254.505 124.88 250.563 111.196C246.621 97.5125 190.249 101.738 124.651 120.635C59.0535 139.531 9.07167 165.943 13.0135 179.627C16.9554 193.311 73.3282 189.085 138.926 170.188Z" stroke="#6F6F6F" stroke-width="1.35766" stroke-miterlimit="10"/>
<path d="M159.37 241.119C209.429 226.698 247.573 206.545 244.566 196.106C241.559 185.667 198.539 188.895 148.48 203.315C98.42 217.736 60.2764 237.889 63.2836 248.328C66.2908 258.767 109.31 255.539 159.37 241.119Z" stroke="#6F6F6F" stroke-width="1.35766" stroke-miterlimit="10"/>
<path d="M151.401 213.562C213.251 195.745 259.695 168.478 255.138 152.658C250.58 136.838 196.747 138.456 134.898 156.273C73.0492 174.09 26.6049 201.358 31.1622 217.178C35.7194 232.998 89.5524 231.379 151.401 213.562Z" stroke="#6F6F6F" stroke-width="1.35766" stroke-miterlimit="10"/>
</g>
<defs>
<clipPath id="clip0_7_198">
<rect width="263" height="292" fill="white"/>
</clipPath>
</defs>
</svg>
