<svg width="293" height="170" viewBox="0 0 293 170" fill="none" xmlns="http://www.w3.org/2000/svg">
<g clip-path="url(#clip0_5019_3221)">
<g clip-path="url(#clip1_5019_3221)">
<path d="M20 9.05135C20 4.46314 23.7195 0.743652 28.3077 0.743652H299.692C304.281 0.743652 308 4.46313 308 9.05134V164.436C308 169.024 304.281 172.744 299.692 172.744H20V9.05135Z" fill="#151417"/>
<rect x="20" y="0.743652" width="274" height="66" rx="1" fill="#232125"/>
<circle cx="33" cy="16.3442" r="2.75" fill="#0546FF"/>
<circle cx="33" cy="16.3442" r="2.75" fill="white" fill-opacity="0.6"/>
<circle cx="33" cy="16.3442" r="2.75" stroke="white"/>
<circle cx="42.0996" cy="16.3442" r="2.75" stroke="white"/>
<circle cx="51.2002" cy="16.3442" r="2.75" stroke="white"/>
<path d="M21 28.7437H42.1952H58.1903C61.0622 28.7437 63.3903 26.4155 63.3903 23.5437V9.94365C63.3903 7.07177 65.7185 4.74365 68.5903 4.74365H187.303C190.175 4.74365 192.503 7.07177 192.503 9.94365V23.5437C192.503 26.4155 194.831 28.7437 197.703 28.7437H294" stroke="white"/>
<path d="M205.55 11.9937V21.0937" stroke="white" stroke-linecap="round" stroke-linejoin="round"/>
<path d="M201 16.5437H210.1" stroke="white" stroke-linecap="round" stroke-linejoin="round"/>
<rect x="73.5" y="13.2437" width="47" height="8" rx="4" stroke="white"/>
<rect x="96.5498" y="36.9937" width="234.95" height="23.4" rx="11.7" fill="#151417"/>
<rect x="96.5498" y="36.9937" width="234.95" height="23.4" rx="11.7" stroke="white"/>
<mask id="path-12-inside-1_5019_3221" fill="white">
<path d="M107.649 41.6936H159.249V55.6936H107.649V41.6936Z"/>
</mask>
<path d="M158.249 41.6936V55.6936H160.249V41.6936H158.249Z" fill="#0546FF" mask="url(#path-12-inside-1_5019_3221)"/>
<path d="M158.249 41.6936V55.6936H160.249V41.6936H158.249Z" fill="white" fill-opacity="0.6" mask="url(#path-12-inside-1_5019_3221)"/>
<path d="M109.784 51.8087C109.473 51.8087 109.191 51.7501 108.937 51.6329C108.684 51.5136 108.483 51.342 108.333 51.1183C108.184 50.8925 108.11 50.6197 108.11 50.3001C108.11 50.0189 108.165 49.7909 108.276 49.6162C108.387 49.4393 108.535 49.3008 108.72 49.2007C108.905 49.1006 109.11 49.026 109.334 48.977C109.56 48.9258 109.786 48.8854 110.014 48.8555C110.313 48.8172 110.555 48.7884 110.74 48.7692C110.927 48.7479 111.064 48.7128 111.149 48.6638C111.236 48.6148 111.28 48.5295 111.28 48.4081V48.3825C111.28 48.0672 111.194 47.8222 111.021 47.6474C110.851 47.4727 110.592 47.3854 110.245 47.3854C109.884 47.3854 109.602 47.4642 109.398 47.6219C109.193 47.7795 109.049 47.9479 108.966 48.1268L108.25 47.8712C108.378 47.5729 108.549 47.3406 108.762 47.1744C108.977 47.0061 109.211 46.8889 109.465 46.8229C109.72 46.7547 109.972 46.7206 110.219 46.7206C110.377 46.7206 110.558 46.7398 110.762 46.7781C110.969 46.8143 111.168 46.89 111.36 47.005C111.554 47.1201 111.715 47.2937 111.843 47.526C111.97 47.7582 112.034 48.0693 112.034 48.4592V51.6936H111.28V51.0288H111.242C111.191 51.1354 111.105 51.2494 110.986 51.3708C110.867 51.4923 110.708 51.5956 110.51 51.6808C110.312 51.766 110.07 51.8087 109.784 51.8087ZM109.899 51.1311C110.198 51.1311 110.449 51.0725 110.654 50.9553C110.86 50.8381 111.016 50.6869 111.12 50.5015C111.227 50.3161 111.28 50.1212 111.28 49.9166V49.2263C111.248 49.2646 111.178 49.2998 111.069 49.3317C110.963 49.3616 110.839 49.3882 110.698 49.4116C110.56 49.433 110.425 49.4521 110.293 49.4692C110.163 49.4841 110.057 49.4969 109.976 49.5075C109.78 49.5331 109.597 49.5746 109.426 49.6322C109.258 49.6876 109.122 49.7717 109.017 49.8847C108.915 49.9955 108.864 50.1467 108.864 50.3385C108.864 50.6006 108.961 50.7987 109.155 50.933C109.351 51.0651 109.599 51.1311 109.899 51.1311ZM114.075 48.7405V51.6936H113.321V46.7845H114.05V47.5516H114.114C114.229 47.3023 114.403 47.102 114.638 46.9507C114.872 46.7973 115.175 46.7206 115.545 46.7206C115.878 46.7206 116.169 46.7888 116.418 46.9251C116.667 47.0594 116.861 47.2639 117 47.5388C117.138 47.8115 117.207 48.1567 117.207 48.5743V51.6936H116.453V48.6254C116.453 48.2398 116.353 47.9393 116.153 47.7241C115.952 47.5068 115.678 47.3981 115.328 47.3981C115.087 47.3981 114.872 47.4504 114.683 47.5548C114.495 47.6592 114.347 47.8115 114.238 48.0118C114.13 48.2121 114.075 48.455 114.075 48.7405ZM120.477 53.6368C120.113 53.6368 119.8 53.5899 119.538 53.4962C119.276 53.4045 119.057 53.2831 118.882 53.1318C118.71 52.9827 118.572 52.8229 118.47 52.6524L119.071 52.2305C119.139 52.32 119.225 52.4223 119.33 52.5374C119.434 52.6545 119.577 52.7557 119.758 52.841C119.941 52.9283 120.181 52.972 120.477 52.972C120.874 52.972 121.201 52.8761 121.458 52.6844C121.716 52.4926 121.845 52.1922 121.845 51.7831V50.7859H121.781C121.726 50.8754 121.647 50.9862 121.545 51.1183C121.445 51.2483 121.3 51.3644 121.11 51.4667C120.923 51.5668 120.669 51.6169 120.349 51.6169C119.953 51.6169 119.597 51.5231 119.282 51.3356C118.969 51.1481 118.72 50.8754 118.537 50.5175C118.356 50.1595 118.266 49.7249 118.266 49.2135C118.266 48.7106 118.354 48.2728 118.531 47.8999C118.708 47.5249 118.954 47.2352 119.269 47.0306C119.584 46.8239 119.949 46.7206 120.362 46.7206C120.682 46.7206 120.935 46.7739 121.123 46.8804C121.312 46.9848 121.457 47.1041 121.557 47.2383C121.66 47.3704 121.739 47.4791 121.794 47.5643H121.871V46.7845H122.599V51.8342C122.599 52.2561 122.504 52.5991 122.312 52.8633C122.122 53.1297 121.866 53.3246 121.545 53.4482C121.225 53.5739 120.869 53.6368 120.477 53.6368ZM120.452 50.9393C120.754 50.9393 121.01 50.8701 121.219 50.7316C121.428 50.5931 121.586 50.3939 121.695 50.1339C121.804 49.874 121.858 49.5629 121.858 49.2007C121.858 48.847 121.805 48.5349 121.698 48.2643C121.592 47.9937 121.434 47.7817 121.225 47.6283C121.016 47.4749 120.758 47.3981 120.452 47.3981C120.132 47.3981 119.866 47.4791 119.653 47.641C119.442 47.803 119.283 48.0203 119.176 48.293C119.072 48.5658 119.02 48.8683 119.02 49.2007C119.02 49.5416 119.073 49.8431 119.18 50.1052C119.288 50.3651 119.448 50.5697 119.659 50.7188C119.872 50.8658 120.136 50.9393 120.452 50.9393ZM126.984 49.6865V46.7845H127.738V51.6936H126.984V50.8626H126.933C126.818 51.1119 126.639 51.3239 126.396 51.4986C126.153 51.6712 125.846 51.7575 125.475 51.7575C125.168 51.7575 124.896 51.6904 124.657 51.5562C124.418 51.4198 124.231 51.2153 124.095 50.9425C123.958 50.6677 123.89 50.3214 123.89 49.9038V46.7845H124.644V49.8527C124.644 50.2106 124.744 50.4962 124.945 50.7092C125.147 50.9223 125.405 51.0288 125.718 51.0288C125.906 51.0288 126.096 50.9809 126.29 50.885C126.486 50.7891 126.65 50.6421 126.782 50.444C126.917 50.2458 126.984 49.9933 126.984 49.6865ZM129.784 45.1481V51.6936H129.03V45.1481H129.784ZM132.52 51.8087C132.209 51.8087 131.927 51.7501 131.673 51.6329C131.419 51.5136 131.218 51.342 131.069 51.1183C130.92 50.8925 130.845 50.6197 130.845 50.3001C130.845 50.0189 130.901 49.7909 131.011 49.6162C131.122 49.4393 131.27 49.3008 131.456 49.2007C131.641 49.1006 131.846 49.026 132.069 48.977C132.295 48.9258 132.522 48.8854 132.75 48.8555C133.048 48.8172 133.29 48.7884 133.476 48.7692C133.663 48.7479 133.799 48.7128 133.885 48.6638C133.972 48.6148 134.016 48.5295 134.016 48.4081V48.3825C134.016 48.0672 133.929 47.8222 133.757 47.6474C133.586 47.4727 133.327 47.3854 132.98 47.3854C132.62 47.3854 132.338 47.4642 132.133 47.6219C131.929 47.7795 131.785 47.9479 131.702 48.1268L130.986 47.8712C131.114 47.5729 131.284 47.3406 131.497 47.1744C131.712 47.0061 131.947 46.8889 132.2 46.8229C132.456 46.7547 132.707 46.7206 132.955 46.7206C133.112 46.7206 133.293 46.7398 133.498 46.7781C133.705 46.8143 133.904 46.89 134.096 47.005C134.289 47.1201 134.45 47.2937 134.578 47.526C134.706 47.7582 134.77 48.0693 134.77 48.4592V51.6936H134.016V51.0288H133.977C133.926 51.1354 133.841 51.2494 133.722 51.3708C133.602 51.4923 133.444 51.5956 133.245 51.6808C133.047 51.766 132.805 51.8087 132.52 51.8087ZM132.635 51.1311C132.933 51.1311 133.185 51.0725 133.389 50.9553C133.596 50.8381 133.751 50.6869 133.856 50.5015C133.962 50.3161 134.016 50.1212 134.016 49.9166V49.2263C133.984 49.2646 133.913 49.2998 133.805 49.3317C133.698 49.3616 133.575 49.3882 133.434 49.4116C133.295 49.433 133.16 49.4521 133.028 49.4692C132.898 49.4841 132.793 49.4969 132.712 49.5075C132.516 49.5331 132.332 49.5746 132.162 49.6322C131.994 49.6876 131.857 49.7717 131.753 49.8847C131.651 49.9955 131.599 50.1467 131.599 50.3385C131.599 50.6006 131.696 50.7987 131.89 50.933C132.086 51.0651 132.335 51.1311 132.635 51.1311ZM136.057 51.6936V46.7845H136.785V47.526H136.836C136.926 47.2831 137.088 47.086 137.322 46.9347C137.557 46.7834 137.821 46.7078 138.115 46.7078C138.17 46.7078 138.239 46.7089 138.323 46.711C138.406 46.7131 138.469 46.7163 138.511 46.7206V47.4876C138.486 47.4812 138.427 47.4717 138.335 47.4589C138.246 47.444 138.151 47.4365 138.051 47.4365C137.812 47.4365 137.599 47.4866 137.412 47.5867C137.226 47.6847 137.079 47.8211 136.971 47.9958C136.864 48.1684 136.811 48.3655 136.811 48.5871V51.6936H136.057ZM139.302 51.7447C139.145 51.7447 139.009 51.6883 138.897 51.5754C138.784 51.4624 138.727 51.3271 138.727 51.1695C138.727 51.0118 138.784 50.8765 138.897 50.7636C139.009 50.6506 139.145 50.5942 139.302 50.5942C139.46 50.5942 139.595 50.6506 139.708 50.7636C139.821 50.8765 139.878 51.0118 139.878 51.1695C139.878 51.2739 139.851 51.3697 139.798 51.4571C139.747 51.5445 139.677 51.6148 139.59 51.668C139.505 51.7192 139.409 51.7447 139.302 51.7447ZM142.995 51.7959C142.586 51.7959 142.225 51.6925 141.911 51.4859C141.598 51.2771 141.353 50.983 141.176 50.6038C141 50.2224 140.911 49.7717 140.911 49.2518C140.911 48.7362 141 48.2888 141.176 47.9095C141.353 47.5303 141.599 47.2373 141.915 47.0306C142.23 46.8239 142.594 46.7206 143.008 46.7206C143.327 46.7206 143.58 46.7739 143.765 46.8804C143.953 46.9848 144.095 47.1041 144.193 47.2383C144.294 47.3704 144.371 47.4791 144.427 47.5643H144.491V45.1481H145.245V51.6936H144.516V50.9393H144.427C144.371 51.0288 144.293 51.1418 144.19 51.2781C144.088 51.4124 143.942 51.5327 143.752 51.6393C143.563 51.7437 143.31 51.7959 142.995 51.7959ZM143.097 51.1183C143.4 51.1183 143.655 51.0395 143.864 50.8818C144.073 50.722 144.232 50.5015 144.34 50.2202C144.449 49.9369 144.503 49.6098 144.503 49.2391C144.503 48.8726 144.45 48.5519 144.344 48.2771C144.237 48.0001 144.079 47.7849 143.871 47.6315C143.662 47.4759 143.404 47.3981 143.097 47.3981C142.778 47.3981 142.511 47.4802 142.298 47.6442C142.087 47.8062 141.929 48.0267 141.822 48.3058C141.718 48.5828 141.665 48.8939 141.665 49.2391C141.665 49.5885 141.719 49.906 141.825 50.1915C141.934 50.4749 142.094 50.7007 142.305 50.869C142.518 51.0352 142.782 51.1183 143.097 51.1183ZM148.699 51.7959C148.226 51.7959 147.818 51.6915 147.475 51.4827C147.134 51.2717 146.871 50.9777 146.686 50.6006C146.503 50.2213 146.411 49.7803 146.411 49.2774C146.411 48.7746 146.503 48.3314 146.686 47.9479C146.871 47.5622 147.129 47.2618 147.459 47.0466C147.792 46.8293 148.179 46.7206 148.623 46.7206C148.878 46.7206 149.131 46.7632 149.38 46.8484C149.629 46.9337 149.856 47.0722 150.061 47.2639C150.265 47.4535 150.428 47.705 150.55 48.0182C150.671 48.3314 150.732 48.717 150.732 49.1751V49.4947H146.948V48.8428H149.965C149.965 48.5658 149.91 48.3186 149.799 48.1013C149.69 47.8839 149.535 47.7124 149.332 47.5867C149.132 47.461 148.895 47.3981 148.623 47.3981C148.322 47.3981 148.062 47.4727 147.843 47.6219C147.625 47.7689 147.458 47.9606 147.341 48.1972C147.224 48.4337 147.165 48.6872 147.165 48.9578V49.3925C147.165 49.7632 147.229 50.0775 147.357 50.3353C147.487 50.591 147.667 50.7859 147.897 50.9202C148.127 51.0523 148.395 51.1183 148.699 51.1183C148.897 51.1183 149.076 51.0906 149.236 51.0352C149.398 50.9777 149.538 50.8925 149.655 50.7795C149.772 50.6645 149.863 50.5217 149.927 50.3513L150.655 50.5558C150.579 50.803 150.45 51.0203 150.269 51.2078C150.087 51.3932 149.864 51.5381 149.597 51.6425C149.331 51.7447 149.032 51.7959 148.699 51.7959ZM155.654 46.7845L153.839 51.6936H153.072L151.256 46.7845H152.075L153.43 50.6964H153.481L154.836 46.7845H155.654Z" fill="white"/>
<mask id="path-15-inside-2_5019_3221" fill="white">
<path d="M20 31.7437H302V66.7437H20V31.7437Z"/>
</mask>
<path d="M302 65.7437H20V67.7437H302V65.7437Z" fill="white" mask="url(#path-15-inside-2_5019_3221)"/>
<path d="M40.8002 48.1936H31.7002" stroke="white" stroke-linecap="round" stroke-linejoin="round"/>
<path d="M36.2502 52.7437L31.7002 48.1937L36.2502 43.6437" stroke="white" stroke-linecap="round" stroke-linejoin="round"/>
<path d="M52.4996 48.1936H61.5996" stroke="white" stroke-linecap="round" stroke-linejoin="round"/>
<path d="M57.0496 52.7437L61.5996 48.1937L57.0496 43.6437" stroke="white" stroke-linecap="round" stroke-linejoin="round"/>
<g clip-path="url(#clip2_5019_3221)">
<path d="M84.9498 43.3436V47.2436H81.0498" stroke="white" stroke-width="1.3" stroke-linecap="round" stroke-linejoin="round"/>
<path d="M83.318 50.4937C82.8955 51.6896 82.0957 52.7159 81.0392 53.4177C79.9827 54.1196 78.7267 54.459 77.4605 54.385C76.1943 54.3109 74.9864 53.8273 74.019 53.007C73.0515 52.1868 72.3769 51.0743 72.0967 49.8372C71.8165 48.6002 71.9459 47.3056 72.4655 46.1485C72.9851 44.9914 73.8667 44.0345 74.9775 43.4221C76.0882 42.8097 77.3679 42.5748 78.6237 42.7529C79.8795 42.9311 81.0434 43.5125 81.94 44.4097L84.9495 47.2437" stroke="white" stroke-width="1.3" stroke-linecap="round" stroke-linejoin="round"/>
</g>
<path d="M204.745 68.8697L204.42 68.8948L204.312 69.2022L199.803 82.0049L192.762 53.7354L218.295 67.8248L204.745 68.8697Z" fill="#0546FF"/>
<path d="M204.745 68.8697L204.42 68.8948L204.312 69.2022L199.803 82.0049L192.762 53.7354L218.295 67.8248L204.745 68.8697Z" fill="white" fill-opacity="0.6"/>
<path d="M204.745 68.8697L204.42 68.8948L204.312 69.2022L199.803 82.0049L192.762 53.7354L218.295 67.8248L204.745 68.8697Z" stroke="white"/>
</g>
<path d="M20.5 9.05135C20.5 4.73928 23.9956 1.24365 28.3077 1.24365H299.692C304.004 1.24365 307.5 4.73927 307.5 9.05134V164.436C307.5 168.748 304.004 172.244 299.692 172.244H20.5V9.05135Z" stroke="white"/>
</g>
<mask id="path-24-inside-3_5019_3221" fill="white">
<path d="M0 37.0513C0 32.4631 3.71948 28.7437 8.30769 28.7437H21V169.744H0V37.0513Z"/>
</mask>
<path d="M-1 37.0513C-1 31.9108 3.1672 27.7437 8.30769 27.7437H22L20 29.7437H8.30769C4.27176 29.7437 1 33.0154 1 37.0513H-1ZM21 169.744H0H21ZM-1 169.744V37.0513C-1 31.9108 3.1672 27.7437 8.30769 27.7437V29.7437C4.27176 29.7437 1 33.0154 1 37.0513V169.744H-1ZM22 27.7437V169.744H20V29.7437L22 27.7437Z" fill="white" mask="url(#path-24-inside-3_5019_3221)"/>
<defs>
<clipPath id="clip0_5019_3221">
<rect width="273" height="169" fill="white" transform="translate(20 0.743652)"/>
</clipPath>
<clipPath id="clip1_5019_3221">
<path d="M20 9.05135C20 4.46314 23.7195 0.743652 28.3077 0.743652H299.692C304.281 0.743652 308 4.46313 308 9.05134V164.436C308 169.024 304.281 172.744 299.692 172.744H20V9.05135Z" fill="white"/>
</clipPath>
<clipPath id="clip2_5019_3221">
<rect width="15.6" height="15.6" fill="white" transform="translate(70 40.7437)"/>
</clipPath>
</defs>
</svg>
