<svg width="293" height="169" viewBox="0 0 293 169" fill="none" xmlns="http://www.w3.org/2000/svg">
<g clip-path="url(#clip0_5019_2873)">
<g clip-path="url(#clip1_5019_2873)">
<path d="M20 8.3077C20 3.71949 23.7195 0 28.3077 0H299.692C304.281 0 308 3.71948 308 8.30769V163.692C308 168.281 304.281 172 299.692 172H20V8.3077Z" class="theme-fill-bg"/>
<rect x="20" width="274" height="66" rx="1" class="theme-fill-accent-bg"/>
<circle cx="33" cy="15.6006" r="2.75" fill="#0546FF" class="theme-stroke-primary"/>
<circle cx="42.0996" cy="15.6006" r="2.75" class="theme-stroke-primary"/>
<circle cx="51.2002" cy="15.6006" r="2.75" class="theme-stroke-primary"/>
<path d="M21 28H42.1952H58.1903C61.0622 28 63.3903 25.6719 63.3903 22.8V9.2C63.3903 6.32812 65.7185 4 68.5903 4H187.303C190.175 4 192.503 6.32812 192.503 9.2V22.8C192.503 25.6719 194.831 28 197.703 28H294" class="theme-stroke-primary"/>
<path d="M205.55 11.25V20.35" stroke-linecap="round" stroke-linejoin="round" class="theme-stroke-primary"/>
<path d="M201 15.8H210.1" stroke-linecap="round" stroke-linejoin="round" class="theme-stroke-primary"/>
<rect x="73.5" y="12.5" width="47" height="8" rx="4" class="theme-stroke-primary"/>
<rect x="96.5498" y="36.25" width="234.95" height="23.4" rx="11.7" class="theme-fill-bg"/>
<rect x="96.5498" y="36.25" width="234.95" height="23.4" rx="11.7" class="theme-stroke-primary"/>
<mask id="path-12-inside-1_5019_2873" fill="white">
<path d="M107.649 40.95H159.249V54.95H107.649V40.95Z"/>
</mask>
<path d="M158.249 40.95V54.95H160.249V40.95H158.249Z" fill="#0546FF" mask="url(#path-12-inside-1_5019_2873)"/>
<path d="M109.784 51.065C109.473 51.065 109.191 51.0064 108.937 50.8892C108.684 50.7699 108.483 50.5984 108.333 50.3747C108.184 50.1488 108.11 49.8761 108.11 49.5565C108.11 49.2752 108.165 49.0473 108.276 48.8725C108.387 48.6957 108.535 48.5572 108.72 48.4571C108.905 48.3569 109.11 48.2823 109.334 48.2333C109.56 48.1822 109.786 48.1417 110.014 48.1119C110.313 48.0735 110.555 48.0448 110.74 48.0256C110.927 48.0043 111.064 47.9691 111.149 47.9201C111.236 47.8711 111.28 47.7859 111.28 47.6644V47.6389C111.28 47.3235 111.194 47.0785 111.021 46.9038C110.851 46.7291 110.592 46.6417 110.245 46.6417C109.884 46.6417 109.602 46.7205 109.398 46.8782C109.193 47.0359 109.049 47.2042 108.966 47.3832L108.25 47.1275C108.378 46.8292 108.549 46.597 108.762 46.4308C108.977 46.2625 109.211 46.1453 109.465 46.0792C109.72 46.011 109.972 45.9769 110.219 45.9769C110.377 45.9769 110.558 45.9961 110.762 46.0345C110.969 46.0707 111.168 46.1463 111.36 46.2614C111.554 46.3764 111.715 46.5501 111.843 46.7823C111.97 47.0146 112.034 47.3257 112.034 47.7156V50.95H111.28V50.2852H111.242C111.191 50.3917 111.105 50.5057 110.986 50.6272C110.867 50.7486 110.708 50.8519 110.51 50.9372C110.312 51.0224 110.07 51.065 109.784 51.065ZM109.899 50.3875C110.198 50.3875 110.449 50.3289 110.654 50.2117C110.86 50.0945 111.016 49.9432 111.12 49.7578C111.227 49.5725 111.28 49.3775 111.28 49.173V48.4826C111.248 48.521 111.178 48.5561 111.069 48.5881C110.963 48.6179 110.839 48.6446 110.698 48.668C110.56 48.6893 110.425 48.7085 110.293 48.7255C110.163 48.7404 110.057 48.7532 109.976 48.7639C109.78 48.7894 109.597 48.831 109.426 48.8885C109.258 48.9439 109.122 49.0281 109.017 49.141C108.915 49.2518 108.864 49.4031 108.864 49.5948C108.864 49.8569 108.961 50.0551 109.155 50.1893C109.351 50.3214 109.599 50.3875 109.899 50.3875ZM114.075 47.9968V50.95H113.321V46.0409H114.05V46.8079H114.114C114.229 46.5586 114.403 46.3583 114.638 46.2071C114.872 46.0536 115.175 45.9769 115.545 45.9769C115.878 45.9769 116.169 46.0451 116.418 46.1815C116.667 46.3157 116.861 46.5203 117 46.7951C117.138 47.0678 117.207 47.413 117.207 47.8306V50.95H116.453V47.8818C116.453 47.4961 116.353 47.1957 116.153 46.9805C115.952 46.7632 115.678 46.6545 115.328 46.6545C115.087 46.6545 114.872 46.7067 114.683 46.8111C114.495 46.9155 114.347 47.0678 114.238 47.2681C114.13 47.4684 114.075 47.7113 114.075 47.9968ZM120.477 52.8931C120.113 52.8931 119.8 52.8463 119.538 52.7525C119.276 52.6609 119.057 52.5394 118.882 52.3882C118.71 52.239 118.572 52.0792 118.47 51.9088L119.071 51.4869C119.139 51.5764 119.225 51.6786 119.33 51.7937C119.434 51.9109 119.577 52.0121 119.758 52.0973C119.941 52.1847 120.181 52.2284 120.477 52.2284C120.874 52.2284 121.201 52.1325 121.458 51.9407C121.716 51.749 121.845 51.4485 121.845 51.0394V50.0423H121.781C121.726 50.1318 121.647 50.2426 121.545 50.3747C121.445 50.5046 121.3 50.6208 121.11 50.723C120.923 50.8232 120.669 50.8732 120.349 50.8732C119.953 50.8732 119.597 50.7795 119.282 50.592C118.969 50.4045 118.72 50.1318 118.537 49.7738C118.356 49.4159 118.266 48.9812 118.266 48.4698C118.266 47.967 118.354 47.5291 118.531 47.1563C118.708 46.7813 118.954 46.4915 119.269 46.287C119.584 46.0803 119.949 45.9769 120.362 45.9769C120.682 45.9769 120.935 46.0302 121.123 46.1367C121.312 46.2411 121.457 46.3605 121.557 46.4947C121.66 46.6268 121.739 46.7355 121.794 46.8207H121.871V46.0409H122.599V51.0906C122.599 51.5125 122.504 51.8555 122.312 52.1197C122.122 52.386 121.866 52.581 121.545 52.7046C121.225 52.8303 120.869 52.8931 120.477 52.8931ZM120.452 50.1957C120.754 50.1957 121.01 50.1264 121.219 49.9879C121.428 49.8495 121.586 49.6502 121.695 49.3903C121.804 49.1303 121.858 48.8193 121.858 48.4571C121.858 48.1034 121.805 47.7912 121.698 47.5206C121.592 47.25 121.434 47.038 121.225 46.8846C121.016 46.7312 120.758 46.6545 120.452 46.6545C120.132 46.6545 119.866 46.7355 119.653 46.8974C119.442 47.0593 119.283 47.2767 119.176 47.5494C119.072 47.8221 119.02 48.1247 119.02 48.4571C119.02 48.798 119.073 49.0995 119.18 49.3615C119.288 49.6215 119.448 49.826 119.659 49.9752C119.872 50.1222 120.136 50.1957 120.452 50.1957ZM126.984 48.9428V46.0409H127.738V50.95H126.984V50.119H126.933C126.818 50.3683 126.639 50.5803 126.396 50.755C126.153 50.9276 125.846 51.0139 125.475 51.0139C125.168 51.0139 124.896 50.9468 124.657 50.8125C124.418 50.6762 124.231 50.4716 124.095 50.1989C123.958 49.924 123.89 49.5778 123.89 49.1602V46.0409H124.644V49.109C124.644 49.467 124.744 49.7525 124.945 49.9656C125.147 50.1786 125.405 50.2852 125.718 50.2852C125.906 50.2852 126.096 50.2372 126.29 50.1414C126.486 50.0455 126.65 49.8985 126.782 49.7003C126.917 49.5022 126.984 49.2497 126.984 48.9428ZM129.784 44.4045V50.95H129.03V44.4045H129.784ZM132.52 51.065C132.209 51.065 131.927 51.0064 131.673 50.8892C131.419 50.7699 131.218 50.5984 131.069 50.3747C130.92 50.1488 130.845 49.8761 130.845 49.5565C130.845 49.2752 130.901 49.0473 131.011 48.8725C131.122 48.6957 131.27 48.5572 131.456 48.4571C131.641 48.3569 131.846 48.2823 132.069 48.2333C132.295 48.1822 132.522 48.1417 132.75 48.1119C133.048 48.0735 133.29 48.0448 133.476 48.0256C133.663 48.0043 133.799 47.9691 133.885 47.9201C133.972 47.8711 134.016 47.7859 134.016 47.6644V47.6389C134.016 47.3235 133.929 47.0785 133.757 46.9038C133.586 46.7291 133.327 46.6417 132.98 46.6417C132.62 46.6417 132.338 46.7205 132.133 46.8782C131.929 47.0359 131.785 47.2042 131.702 47.3832L130.986 47.1275C131.114 46.8292 131.284 46.597 131.497 46.4308C131.712 46.2625 131.947 46.1453 132.2 46.0792C132.456 46.011 132.707 45.9769 132.955 45.9769C133.112 45.9769 133.293 45.9961 133.498 46.0345C133.705 46.0707 133.904 46.1463 134.096 46.2614C134.289 46.3764 134.45 46.5501 134.578 46.7823C134.706 47.0146 134.77 47.3257 134.77 47.7156V50.95H134.016V50.2852H133.977C133.926 50.3917 133.841 50.5057 133.722 50.6272C133.602 50.7486 133.444 50.8519 133.245 50.9372C133.047 51.0224 132.805 51.065 132.52 51.065ZM132.635 50.3875C132.933 50.3875 133.185 50.3289 133.389 50.2117C133.596 50.0945 133.751 49.9432 133.856 49.7578C133.962 49.5725 134.016 49.3775 134.016 49.173V48.4826C133.984 48.521 133.913 48.5561 133.805 48.5881C133.698 48.6179 133.575 48.6446 133.434 48.668C133.295 48.6893 133.16 48.7085 133.028 48.7255C132.898 48.7404 132.793 48.7532 132.712 48.7639C132.516 48.7894 132.332 48.831 132.162 48.8885C131.994 48.9439 131.857 49.0281 131.753 49.141C131.651 49.2518 131.599 49.4031 131.599 49.5948C131.599 49.8569 131.696 50.0551 131.89 50.1893C132.086 50.3214 132.335 50.3875 132.635 50.3875ZM136.057 50.95V46.0409H136.785V46.7823H136.836C136.926 46.5394 137.088 46.3424 137.322 46.1911C137.557 46.0398 137.821 45.9642 138.115 45.9642C138.17 45.9642 138.239 45.9652 138.323 45.9674C138.406 45.9695 138.469 45.9727 138.511 45.9769V46.744C138.486 46.7376 138.427 46.728 138.335 46.7152C138.246 46.7003 138.151 46.6928 138.051 46.6928C137.812 46.6928 137.599 46.7429 137.412 46.8431C137.226 46.9411 137.079 47.0774 136.971 47.2522C136.864 47.4247 136.811 47.6218 136.811 47.8434V50.95H136.057ZM139.302 51.0011C139.145 51.0011 139.009 50.9446 138.897 50.8317C138.784 50.7188 138.727 50.5835 138.727 50.4258C138.727 50.2681 138.784 50.1328 138.897 50.0199C139.009 49.907 139.145 49.8505 139.302 49.8505C139.46 49.8505 139.595 49.907 139.708 50.0199C139.821 50.1328 139.878 50.2681 139.878 50.4258C139.878 50.5302 139.851 50.6261 139.798 50.7134C139.747 50.8008 139.677 50.8711 139.59 50.9244C139.505 50.9755 139.409 51.0011 139.302 51.0011ZM142.995 51.0522C142.586 51.0522 142.225 50.9489 141.911 50.7422C141.598 50.5334 141.353 50.2394 141.176 49.8601C141 49.4787 140.911 49.0281 140.911 48.5082C140.911 47.9926 141 47.5451 141.176 47.1659C141.353 46.7866 141.599 46.4936 141.915 46.287C142.23 46.0803 142.594 45.9769 143.008 45.9769C143.327 45.9769 143.58 46.0302 143.765 46.1367C143.953 46.2411 144.095 46.3605 144.193 46.4947C144.294 46.6268 144.371 46.7355 144.427 46.8207H144.491V44.4045H145.245V50.95H144.516V50.1957H144.427C144.371 50.2852 144.293 50.3981 144.19 50.5345C144.088 50.6687 143.942 50.7891 143.752 50.8956C143.563 51 143.31 51.0522 142.995 51.0522ZM143.097 50.3747C143.4 50.3747 143.655 50.2958 143.864 50.1382C144.073 49.9784 144.232 49.7578 144.34 49.4766C144.449 49.1932 144.503 48.8661 144.503 48.4954C144.503 48.1289 144.45 47.8083 144.344 47.5334C144.237 47.2564 144.079 47.0412 143.871 46.8878C143.662 46.7323 143.404 46.6545 143.097 46.6545C142.778 46.6545 142.511 46.7365 142.298 46.9006C142.087 47.0625 141.929 47.283 141.822 47.5622C141.718 47.8392 141.665 48.1502 141.665 48.4954C141.665 48.8448 141.719 49.1623 141.825 49.4478C141.934 49.7312 142.094 49.9571 142.305 50.1254C142.518 50.2916 142.782 50.3747 143.097 50.3747ZM148.699 51.0522C148.226 51.0522 147.818 50.9478 147.475 50.739C147.134 50.5281 146.871 50.234 146.686 49.8569C146.503 49.4777 146.411 49.0366 146.411 48.5338C146.411 48.0309 146.503 47.5877 146.686 47.2042C146.871 46.8186 147.129 46.5181 147.459 46.3029C147.792 46.0856 148.179 45.9769 148.623 45.9769C148.878 45.9769 149.131 46.0196 149.38 46.1048C149.629 46.19 149.856 46.3285 150.061 46.5203C150.265 46.7099 150.428 46.9613 150.55 47.2745C150.671 47.5877 150.732 47.9734 150.732 48.4315V48.7511H146.948V48.0991H149.965C149.965 47.8221 149.91 47.575 149.799 47.3576C149.69 47.1403 149.535 46.9688 149.332 46.8431C149.132 46.7174 148.895 46.6545 148.623 46.6545C148.322 46.6545 148.062 46.7291 147.843 46.8782C147.625 47.0252 147.458 47.217 147.341 47.4535C147.224 47.69 147.165 47.9436 147.165 48.2142V48.6488C147.165 49.0196 147.229 49.3338 147.357 49.5916C147.487 49.8473 147.667 50.0423 147.897 50.1765C148.127 50.3086 148.395 50.3747 148.699 50.3747C148.897 50.3747 149.076 50.347 149.236 50.2916C149.398 50.234 149.538 50.1488 149.655 50.0359C149.772 49.9208 149.863 49.7781 149.927 49.6076L150.655 49.8122C150.579 50.0593 150.45 50.2767 150.269 50.4642C150.087 50.6495 149.864 50.7944 149.597 50.8988C149.331 51.0011 149.032 51.0522 148.699 51.0522ZM155.654 46.0409L153.839 50.95H153.072L151.256 46.0409H152.075L153.43 49.9528H153.481L154.836 46.0409H155.654Z" class="theme-fill-primary"/>
<mask id="path-15-inside-2_5019_2873" fill="white">
<path d="M20 31H302V66H20V31Z"/>
</mask>
<path d="M302 65H20V67H302V65Z" mask="url(#path-15-inside-2_5019_2873)" class="theme-fill-primary"/>
<path d="M40.8002 47.45H31.7002" stroke-linecap="round" stroke-linejoin="round" class="theme-stroke-primary"/>
<path d="M36.2502 52L31.7002 47.45L36.2502 42.9" stroke-linecap="round" stroke-linejoin="round" class="theme-stroke-primary"/>
<path d="M52.4996 47.45H61.5996" stroke-linecap="round" stroke-linejoin="round" class="theme-stroke-primary"/>
<path d="M57.0496 52L61.5996 47.45L57.0496 42.9" stroke-linecap="round" stroke-linejoin="round" class="theme-stroke-primary"/>
<g clip-path="url(#clip2_5019_2873)">
<path d="M84.9498 42.6V46.5H81.0498" stroke-width="1.3" stroke-linecap="round" stroke-linejoin="round" class="theme-stroke-primary"/>
<path d="M83.318 49.75C82.8955 50.946 82.0957 51.9722 81.0392 52.6741C79.9827 53.3759 78.7267 53.7154 77.4605 53.6413C76.1943 53.5672 74.9864 53.0836 74.019 52.2634C73.0515 51.4431 72.3769 50.3306 72.0967 49.0936C71.8165 47.8565 71.9459 46.5619 72.4655 45.4048C72.9851 44.2478 73.8667 43.2909 74.9775 42.6784C76.0882 42.066 77.3679 41.8311 78.6237 42.0093C79.8795 42.1874 81.0434 42.7689 81.94 43.666L84.9495 46.5" stroke-width="1.3" stroke-linecap="round" stroke-linejoin="round" class="theme-stroke-primary"/>
</g>
<path d="M218.294 67.0801L204.745 68.126L204.42 68.1514L204.312 68.459L199.802 81.2617L192.762 52.9912L218.294 67.0801Z" fill="#0546FF" class="theme-stroke-primary"/>
</g>
<path d="M28.3076 0.5H299.692C304.004 0.500033 307.5 3.9956 307.5 8.30762V163.692C307.5 168.004 304.004 171.5 299.692 171.5H20.5V8.30762C20.5 3.99561 23.9956 0.50004 28.3076 0.5Z" class="theme-stroke-primary"/>
</g>
<mask id="path-24-inside-3_5019_2873" fill="white">
<path d="M0 36.3077C0 31.7195 3.71948 28 8.30769 28H21V169H0V36.3077Z"/>
</mask>
<path d="M-1 36.3077C-1 31.1672 3.1672 27 8.30769 27H22L20 29H8.30769C4.27176 29 1 32.2718 1 36.3077H-1ZM21 169H0H21ZM-1 169V36.3077C-1 31.1672 3.1672 27 8.30769 27V29C4.27176 29 1 32.2718 1 36.3077V169H-1ZM22 27V169H20V29L22 27Z" mask="url(#path-24-inside-3_5019_2873)" class="theme-fill-primary"/>
<defs>
<clipPath id="clip0_5019_2873">
<rect width="273" height="169" fill="white" transform="translate(20)"/>
</clipPath>
<clipPath id="clip1_5019_2873">
<path d="M20 8.3077C20 3.71949 23.7195 0 28.3077 0H299.692C304.281 0 308 3.71948 308 8.30769V163.692C308 168.281 304.281 172 299.692 172H20V8.3077Z" fill="white"/>
</clipPath>
<clipPath id="clip2_5019_2873">
<rect width="15.6" height="15.6" fill="white" transform="translate(70 40)"/>
</clipPath>
</defs>
</svg>