<svg viewBox="0 0 345 194" fill="none" xmlns="http://www.w3.org/2000/svg" >
  <rect width="345" height="194" fill="#232125" />
  <g clip-path="url(#clip0_36_2175)">
    <g clip-path="url(#clip1_36_2175)">
      <path d="M72 33.3077C72 28.7195 75.7195 25 80.3077 25H351.692C356.281 25 360 28.7195 360 33.3077V188.692C360 193.281 356.281 197 351.692 197H72V33.3077Z" fill="white" />
      <rect x="72" y="25" width="274" height="66" rx="1" fill="#E4E3E6" />
      <circle cx="85" cy="40.6006" r="2.75" fill="#F11653" stroke="#0F0F11" />
      <circle cx="94.1001" cy="40.6006" r="2.75" stroke="#0F0F11" />
      <circle cx="103.2" cy="40.6006" r="2.75" stroke="#0F0F11" />
      <path d="M73 53H94.1952H110.19C113.062 53 115.39 50.6719 115.39 47.8V34.2C115.39 31.3281 117.718 29 120.59 29H239.303C242.175 29 244.503 31.3281 244.503 34.2V47.8C244.503 50.6719 246.831 53 249.703 53H346" stroke="#0F0F11" />
      <path d="M257.55 36.25V45.35" stroke="#0F0F11" stroke-linecap="round" stroke-linejoin="round" />
      <path d="M253 40.8H262.1" stroke="#0F0F11" stroke-linecap="round" stroke-linejoin="round" />
      <rect x="125.5" y="37.5" width="47" height="8" rx="4" stroke="#0F0F11" />
      <rect x="148.55" y="61.25" width="234.95" height="23.4" rx="11.7" fill="white" />
      <path d="M161.785 76.0651C161.474 76.0651 161.191 76.0065 160.938 75.8893C160.684 75.77 160.483 75.5984 160.334 75.3747C160.185 75.1489 160.11 74.8761 160.11 74.5565C160.11 74.2753 160.166 74.0473 160.276 73.8726C160.387 73.6958 160.535 73.5573 160.721 73.4571C160.906 73.357 161.11 73.2824 161.334 73.2334C161.56 73.1823 161.787 73.1418 162.015 73.1119C162.313 73.0736 162.555 73.0448 162.74 73.0257C162.928 73.0043 163.064 72.9692 163.15 72.9202C163.237 72.8712 163.281 72.7859 163.281 72.6645V72.6389C163.281 72.3236 163.194 72.0786 163.022 71.9038C162.851 71.7291 162.592 71.6418 162.245 71.6418C161.885 71.6418 161.603 71.7206 161.398 71.8783C161.194 72.0359 161.05 72.2043 160.967 72.3833L160.251 72.1276C160.379 71.8293 160.549 71.597 160.762 71.4308C160.977 71.2625 161.212 71.1453 161.465 71.0793C161.721 71.0111 161.972 70.977 162.22 70.977C162.377 70.977 162.558 70.9962 162.763 71.0345C162.97 71.0708 163.169 71.1464 163.36 71.2614C163.554 71.3765 163.715 71.5502 163.843 71.7824C163.971 72.0146 164.035 72.3257 164.035 72.7156V75.95H163.281V75.2852H163.242C163.191 75.3918 163.106 75.5058 162.987 75.6272C162.867 75.7487 162.708 75.852 162.51 75.9372C162.312 76.0225 162.07 76.0651 161.785 76.0651ZM161.9 75.3875C162.198 75.3875 162.45 75.3289 162.654 75.2117C162.861 75.0945 163.016 74.9433 163.121 74.7579C163.227 74.5725 163.281 74.3776 163.281 74.173V73.4827C163.249 73.521 163.178 73.5562 163.07 73.5882C162.963 73.618 162.84 73.6446 162.699 73.6681C162.56 73.6894 162.425 73.7085 162.293 73.7256C162.163 73.7405 162.058 73.7533 161.977 73.7639C161.781 73.7895 161.597 73.831 161.427 73.8886C161.259 73.944 161.122 74.0281 161.018 74.1411C160.916 74.2519 160.864 74.4031 160.864 74.5949C160.864 74.857 160.961 75.0551 161.155 75.1894C161.351 75.3215 161.599 75.3875 161.9 75.3875ZM166.076 72.9969V75.95H165.322V71.0409H166.05V71.808H166.114C166.229 71.5587 166.404 71.3584 166.638 71.2071C166.873 71.0537 167.175 70.977 167.546 70.977C167.878 70.977 168.169 71.0452 168.418 71.1815C168.668 71.3158 168.862 71.5203 169 71.7952C169.139 72.0679 169.208 72.4131 169.208 72.8307V75.95H168.454V72.8818C168.454 72.4962 168.353 72.1958 168.153 71.9806C167.953 71.7632 167.678 71.6546 167.329 71.6546C167.088 71.6546 166.873 71.7068 166.683 71.8112C166.496 71.9156 166.347 72.0679 166.239 72.2682C166.13 72.4685 166.076 72.7114 166.076 72.9969ZM172.478 77.8932C172.113 77.8932 171.8 77.8463 171.538 77.7526C171.276 77.6609 171.058 77.5395 170.883 77.3882C170.71 77.2391 170.573 77.0793 170.471 76.9088L171.071 76.4869C171.14 76.5764 171.226 76.6787 171.33 76.7938C171.435 76.9109 171.578 77.0122 171.759 77.0974C171.942 77.1847 172.182 77.2284 172.478 77.2284C172.874 77.2284 173.201 77.1325 173.459 76.9408C173.717 76.749 173.846 76.4486 173.846 76.0395V75.0423H173.782C173.726 75.1318 173.647 75.2426 173.545 75.3747C173.445 75.5047 173.3 75.6208 173.111 75.7231C172.923 75.8232 172.669 75.8733 172.35 75.8733C171.954 75.8733 171.598 75.7796 171.282 75.5921C170.969 75.4046 170.721 75.1318 170.538 74.7739C170.357 74.4159 170.266 73.9813 170.266 73.4699C170.266 72.9671 170.354 72.5292 170.531 72.1563C170.708 71.7813 170.954 71.4916 171.27 71.287C171.585 71.0803 171.949 70.977 172.363 70.977C172.682 70.977 172.936 71.0303 173.123 71.1368C173.313 71.2412 173.458 71.3605 173.558 71.4948C173.66 71.6269 173.739 71.7355 173.794 71.8208H173.871V71.0409H174.6V76.0906C174.6 76.5125 174.504 76.8556 174.312 77.1198C174.123 77.3861 173.867 77.581 173.545 77.7046C173.226 77.8303 172.87 77.8932 172.478 77.8932ZM172.452 75.1958C172.755 75.1958 173.01 75.1265 173.219 74.988C173.428 74.8495 173.587 74.6503 173.695 74.3904C173.804 74.1304 173.858 73.8193 173.858 73.4571C173.858 73.1034 173.805 72.7913 173.699 72.5207C173.592 72.2501 173.434 72.0381 173.226 71.8847C173.017 71.7313 172.759 71.6546 172.452 71.6546C172.133 71.6546 171.866 71.7355 171.653 71.8975C171.442 72.0594 171.283 72.2767 171.177 72.5494C171.073 72.8222 171.02 73.1247 171.02 73.4571C171.02 73.798 171.074 74.0995 171.18 74.3616C171.289 74.6215 171.449 74.8261 171.66 74.9752C171.873 75.1222 172.137 75.1958 172.452 75.1958ZM178.984 73.9429V71.0409H179.739V75.95H178.984V75.119H178.933C178.818 75.3683 178.639 75.5803 178.396 75.7551C178.153 75.9276 177.847 76.0139 177.476 76.0139C177.169 76.0139 176.896 75.9468 176.658 75.8126C176.419 75.6762 176.231 75.4717 176.095 75.1989C175.959 74.9241 175.891 74.5779 175.891 74.1602V71.0409H176.645V74.1091C176.645 74.4671 176.745 74.7526 176.945 74.9656C177.148 75.1787 177.405 75.2852 177.719 75.2852C177.906 75.2852 178.097 75.2373 178.291 75.1414C178.487 75.0455 178.651 74.8985 178.783 74.7004C178.917 74.5022 178.984 74.2497 178.984 73.9429ZM181.784 69.4046V75.95H181.03V69.4046H181.784ZM184.52 76.0651C184.209 76.0651 183.927 76.0065 183.673 75.8893C183.42 75.77 183.219 75.5984 183.069 75.3747C182.92 75.1489 182.846 74.8761 182.846 74.5565C182.846 74.2753 182.901 74.0473 183.012 73.8726C183.123 73.6958 183.271 73.5573 183.456 73.4571C183.641 73.357 183.846 73.2824 184.07 73.2334C184.296 73.1823 184.523 73.1418 184.751 73.1119C185.049 73.0736 185.291 73.0448 185.476 73.0257C185.664 73.0043 185.8 72.9692 185.885 72.9202C185.972 72.8712 186.016 72.7859 186.016 72.6645V72.6389C186.016 72.3236 185.93 72.0786 185.757 71.9038C185.587 71.7291 185.328 71.6418 184.981 71.6418C184.621 71.6418 184.338 71.7206 184.134 71.8783C183.929 72.0359 183.785 72.2043 183.702 72.3833L182.986 72.1276C183.114 71.8293 183.285 71.597 183.498 71.4308C183.713 71.2625 183.947 71.1453 184.201 71.0793C184.456 71.0111 184.708 70.977 184.955 70.977C185.113 70.977 185.294 70.9962 185.498 71.0345C185.705 71.0708 185.904 71.1464 186.096 71.2614C186.29 71.3765 186.451 71.5502 186.579 71.7824C186.706 72.0146 186.77 72.3257 186.77 72.7156V75.95H186.016V75.2852H185.978C185.927 75.3918 185.841 75.5058 185.722 75.6272C185.603 75.7487 185.444 75.852 185.246 75.9372C185.048 76.0225 184.806 76.0651 184.52 76.0651ZM184.635 75.3875C184.934 75.3875 185.185 75.3289 185.39 75.2117C185.596 75.0945 185.752 74.9433 185.856 74.7579C185.963 74.5725 186.016 74.3776 186.016 74.173V73.4827C185.984 73.521 185.914 73.5562 185.805 73.5882C185.699 73.618 185.575 73.6446 185.434 73.6681C185.296 73.6894 185.161 73.7085 185.029 73.7256C184.899 73.7405 184.793 73.7533 184.712 73.7639C184.516 73.7895 184.333 73.831 184.162 73.8886C183.994 73.944 183.858 74.0281 183.753 74.1411C183.651 74.2519 183.6 74.4031 183.6 74.5949C183.6 74.857 183.697 75.0551 183.891 75.1894C184.087 75.3215 184.335 75.3875 184.635 75.3875ZM188.057 75.95V71.0409H188.786V71.7824H188.837C188.926 71.5395 189.088 71.3424 189.323 71.1911C189.557 71.0399 189.821 70.9642 190.115 70.9642C190.171 70.9642 190.24 70.9653 190.323 70.9674C190.406 70.9695 190.469 70.9727 190.512 70.977V71.744C190.486 71.7377 190.427 71.7281 190.336 71.7153C190.246 71.7004 190.152 71.6929 190.051 71.6929C189.813 71.6929 189.6 71.743 189.412 71.8431C189.227 71.9411 189.08 72.0775 188.971 72.2522C188.865 72.4248 188.811 72.6219 188.811 72.8435V75.95H188.057ZM191.303 76.0011C191.145 76.0011 191.01 75.9447 190.897 75.8318C190.784 75.7188 190.728 75.5835 190.728 75.4259C190.728 75.2682 190.784 75.1329 190.897 75.02C191.01 74.907 191.145 74.8506 191.303 74.8506C191.461 74.8506 191.596 74.907 191.709 75.02C191.822 75.1329 191.878 75.2682 191.878 75.4259C191.878 75.5303 191.852 75.6261 191.798 75.7135C191.747 75.8009 191.678 75.8712 191.591 75.9244C191.505 75.9756 191.409 76.0011 191.303 76.0011ZM194.995 76.0523C194.586 76.0523 194.225 75.9489 193.912 75.7423C193.599 75.5335 193.354 75.2394 193.177 74.8602C193 74.4788 192.912 74.0281 192.912 73.5083C192.912 72.9926 193 72.5452 193.177 72.1659C193.354 71.7867 193.6 71.4937 193.915 71.287C194.231 71.0803 194.595 70.977 195.008 70.977C195.328 70.977 195.58 71.0303 195.766 71.1368C195.953 71.2412 196.096 71.3605 196.194 71.4948C196.294 71.6269 196.372 71.7355 196.427 71.8208H196.491V69.4046H197.245V75.95H196.517V75.1958H196.427C196.372 75.2852 196.293 75.3982 196.191 75.5345C196.088 75.6688 195.943 75.7891 195.753 75.8957C195.563 76.0001 195.311 76.0523 194.995 76.0523ZM195.098 75.3747C195.4 75.3747 195.656 75.2959 195.865 75.1382C196.074 74.9784 196.232 74.7579 196.341 74.4766C196.45 74.1933 196.504 73.8662 196.504 73.4955C196.504 73.129 196.451 72.8083 196.344 72.5335C196.238 72.2565 196.08 72.0413 195.871 71.8879C195.662 71.7323 195.405 71.6546 195.098 71.6546C194.778 71.6546 194.512 71.7366 194.299 71.9007C194.088 72.0626 193.929 72.2831 193.822 72.5622C193.718 72.8392 193.666 73.1503 193.666 73.4955C193.666 73.8449 193.719 74.1624 193.826 74.4479C193.934 74.7313 194.094 74.9571 194.305 75.1254C194.518 75.2916 194.782 75.3747 195.098 75.3747ZM200.7 76.0523C200.227 76.0523 199.819 75.9479 199.476 75.7391C199.135 75.5281 198.872 75.2341 198.686 74.857C198.503 74.4777 198.411 74.0367 198.411 73.5338C198.411 73.031 198.503 72.5878 198.686 72.2043C198.872 71.8186 199.129 71.5182 199.46 71.303C199.792 71.0857 200.18 70.977 200.623 70.977C200.879 70.977 201.131 71.0196 201.381 71.1048C201.63 71.1901 201.857 71.3286 202.061 71.5203C202.266 71.71 202.429 71.9614 202.55 72.2746C202.672 72.5878 202.732 72.9734 202.732 73.4315V73.7511H198.948V73.0992H201.965C201.965 72.8222 201.91 72.575 201.799 72.3577C201.691 72.1404 201.535 71.9688 201.333 71.8431C201.132 71.7174 200.896 71.6546 200.623 71.6546C200.323 71.6546 200.063 71.7291 199.843 71.8783C199.626 72.0253 199.459 72.2171 199.341 72.4536C199.224 72.6901 199.166 72.9436 199.166 73.2142V73.6489C199.166 74.0196 199.23 74.3339 199.357 74.5917C199.487 74.8474 199.667 75.0423 199.898 75.1766C200.128 75.3087 200.395 75.3747 200.7 75.3747C200.898 75.3747 201.077 75.347 201.237 75.2916C201.399 75.2341 201.538 75.1489 201.655 75.0359C201.773 74.9209 201.863 74.7781 201.927 74.6077L202.656 74.8122C202.579 75.0594 202.45 75.2767 202.269 75.4642C202.088 75.6496 201.864 75.7945 201.598 75.8989C201.332 76.0011 201.032 76.0523 200.7 76.0523ZM207.655 71.0409L205.839 75.95H205.072L203.257 71.0409H204.075L205.43 74.9529H205.481L206.836 71.0409H207.655Z" fill="#0F0F11"/>
      <path d="M210.25 65.95V79.95H212.25V65.95H210.25Z" fill="#F11653" mask="url(#path-12-inside-1_36_2175)" />
      <rect x="148.55" y="61.25" width="234.95" height="23.4" rx="11.7" stroke="#0F0F11" />
      <mask id="path-15-inside-2_36_2175" fill="white">
      <path d="M72 56H354V91H72V56Z" />
    </mask>
    <path d="M354 90H72V92H354V90Z" fill="#0F0F11" mask="url(#path-15-inside-2_36_2175)" />
    <path d="M92.8 72.45H83.7" stroke="#0F0F11" stroke-linecap="round" stroke-linejoin="round" />
    <path d="M88.25 77L83.7 72.45L88.25 67.9" stroke="#0F0F11" stroke-linecap="round" stroke-linejoin="round" />
    <path d="M104.5 72.45H113.6" stroke="#0F0F11" stroke-linecap="round" stroke-linejoin="round" />
    <path d="M109.05 77L113.6 72.45L109.05 67.9" stroke="#0F0F11" stroke-linecap="round" stroke-linejoin="round" />
    <g clip-path="url(#clip2_36_2175)">
    <path d="M136.95 67.6V71.5H133.05" stroke="#0F0F11" stroke-width="1.3" stroke-linecap="round" stroke-linejoin="round" />
    <path d="M135.318 74.75C134.896 75.9459 134.096 76.9721 133.039 77.674C131.983 78.3759 130.727 78.7153 129.461 78.6413C128.195 78.5672 126.987 78.0836 126.019 77.2633C125.052 76.443 124.377 75.3306 124.097 74.0935C123.817 72.8565 123.946 71.5618 124.466 70.4048C124.985 69.2477 125.867 68.2908 126.978 67.6784C128.088 67.0659 129.368 66.8311 130.624 67.0092C131.88 67.1873 133.044 67.7688 133.94 68.666L136.95 71.5" stroke="#0F0F11" stroke-width="1.3" stroke-linecap="round" stroke-linejoin="round" />
  </g>
  <path d="M256.745 93.1261L256.42 93.1511L256.312 93.4585L251.803 106.261L244.762 77.9917L270.295 92.0811L256.745 93.1261Z" fill="white" stroke="#0F0F11" />
  </g>
  <path d="M80.3077 25.5H351.692C356.004 25.5 359.5 28.9956 359.5 33.3077V188.692C359.5 193.004 356.004 196.5 351.692 196.5H72.5V33.3077C72.5 28.9956 75.9956 25.5 80.3077 25.5Z" stroke="#0F0F11" />
  </g>
  <mask id="path-24-inside-3_36_2175" fill="white">
    <path d="M52 61.3077C52 56.7195 55.7195 53 60.3077 53H73V194H52V61.3077Z" />
  </mask>
  <path d="M52 61.3077C52 56.7195 55.7195 53 60.3077 53H73V194H52V61.3077Z" fill="#8514F5" />
  <path d="M51 61.3077C51 56.1672 55.1672 52 60.3077 52H74L72 54H60.3077C56.2718 54 53 57.2718 53 61.3077H51ZM73 194H52H73ZM51 194V61.3077C51 56.1672 55.1672 52 60.3077 52V54C56.2718 54 53 57.2718 53 61.3077V194H51ZM74 52V194H72V54L74 52Z" fill="#0F0F11" mask="url(#path-24-inside-3_36_2175)" />
  <defs>
    <clipPath id="clip0_36_2175">
      <rect width="273" height="169" fill="white" transform="translate(72 25)" />
    </clipPath>
    <clipPath id="clip1_36_2175">
      <path d="M72 33.3077C72 28.7195 75.7195 25 80.3077 25H351.692C356.281 25 360 28.7195 360 33.3077V188.692C360 193.281 356.281 197 351.692 197H72V33.3077Z" fill="white" />
    </clipPath>
    <clipPath id="clip2_36_2175">
      <rect width="15.6" height="15.6" fill="white" transform="translate(122 65)" />
    </clipPath>
  </defs>
</svg>
