<svg width="273" height="166" viewBox="0 0 273 166" fill="none" xmlns="http://www.w3.org/2000/svg">
<g clip-path="url(#clip0_5034_3521)">
<g clip-path="url(#clip1_5034_3521)">
<path d="M0 53.795C0 49.2068 3.71948 45.4873 8.30769 45.4873H279.692C284.281 45.4873 288 49.2068 288 53.795V209.18C288 213.768 284.281 217.487 279.692 217.487H0V53.795Z" class="theme-fill-bg"/>
<mask id="path-3-inside-1_5034_3521" fill="white">
<path d="M0 46.4873C0 45.935 0.447715 45.4873 1 45.4873H273C273.552 45.4873 274 45.935 274 46.4873V72.4873C274 73.0396 273.552 73.4873 273 73.4873H1C0.44772 73.4873 0 73.0396 0 72.4873V46.4873Z"/>
</mask>
<path d="M0 46.4873C0 45.935 0.447715 45.4873 1 45.4873H273C273.552 45.4873 274 45.935 274 46.4873V72.4873C274 73.0396 273.552 73.4873 273 73.4873H1C0.44772 73.4873 0 73.0396 0 72.4873V46.4873Z" class="theme-fill-accent-bg"/>
<path d="M0 45.4873H274H0ZM274 72.4873C274 73.5919 273.105 74.4873 272 74.4873H2C0.895431 74.4873 0 73.5919 0 72.4873C0 72.4873 0.447715 72.4873 1 72.4873H273C273.552 72.4873 274 72.4873 274 72.4873ZM0 73.4873V45.4873V73.4873ZM274 45.4873V73.4873V45.4873Z" class="theme-fill-primary" mask="url(#path-3-inside-1_5034_3521)"/>
<circle cx="13" cy="61.0879" r="2.75" class="theme-fill-accent" stroke="#151417"/>
<circle cx="22.0996" cy="61.0879" r="2.75" class="theme-stroke-primary"/>
<circle cx="31.2002" cy="61.0879" r="2.75" class="theme-stroke-primary"/>
</g>
<path d="M0.5 53.795C0.5 49.4829 3.99562 45.9873 8.30769 45.9873H279.692C284.004 45.9873 287.5 49.4829 287.5 53.795V209.18C287.5 213.492 284.004 216.987 279.692 216.987H0.5V53.795Z" class="theme-stroke-primary"/>
</g>
<rect x="149" y="66.7437" width="31" height="47" class="theme-fill-accent-bg"/>
<path d="M125.411 56.4126H200.999C206.472 56.4126 210.91 60.849 210.91 66.3239V117.018C210.91 122.491 206.474 126.929 200.999 126.929H125.411C119.938 126.929 115.5 122.493 115.5 117.018V66.3239C115.5 60.8508 119.936 56.4126 125.411 56.4126ZM167.291 106.51V95.2707C171.488 93.6363 174.464 89.5577 174.464 84.7805C174.464 78.4134 169.18 73.281 162.756 73.5324C157 73.7576 152.287 78.3873 151.968 84.1405C151.689 89.1882 154.739 93.5623 159.121 95.27V106.51C159.121 108.766 160.95 110.595 163.206 110.595C165.463 110.595 167.291 108.766 167.291 106.51Z" class="theme-fill-bg theme-stroke-primary"/>
<path d="M137.112 56.4121H137.612V55.9121V37.6899C137.612 23.9875 148.76 12.839 162.463 12.839H163.953C177.655 12.839 188.804 23.9875 188.804 37.6899V45.4388V45.9388H189.304H199.899H200.399V45.4388V37.6899C200.399 17.5931 184.05 1.24365 163.953 1.24365H162.463C142.366 1.24365 126.017 17.5931 126.017 37.6899V55.9121V56.4121H126.517H137.112Z" class="theme-fill-accent-bg theme-stroke-primary"/>
<defs>
<clipPath id="clip0_5034_3521">
<rect width="273" height="120" fill="white" transform="translate(0 45.4873)"/>
</clipPath>
<clipPath id="clip1_5034_3521">
<path d="M0 53.795C0 49.2068 3.71948 45.4873 8.30769 45.4873H279.692C284.281 45.4873 288 49.2068 288 53.795V209.18C288 213.768 284.281 217.487 279.692 217.487H0V53.795Z" fill="white"/>
</clipPath>
</defs>
</svg>