<svg
  width="273"
  height="192"
  viewBox="0 0 273 192"
  fill="none"
  xmlns="http://www.w3.org/2000/svg"
>
  <path
    d="M196.829 31.3324H19.6283C16.1156 31.3324 13.268 34.18 13.268 37.6928V136.836C13.268 140.349 16.1156 143.196 19.6283 143.196H196.829C200.342 143.196 203.189 140.349 203.189 136.836V37.6928C203.189 34.18 200.342 31.3324 196.829 31.3324Z"
    fill="white"
  />
  <path
    d="M196.844 31.7092C200.145 31.7092 202.828 34.392 202.828 37.6928V136.851C202.828 140.152 200.145 142.835 196.844 142.835H19.6283C16.3276 142.835 13.6448 140.152 13.6448 136.851V37.6928C13.6448 34.392 16.3276 31.7092 19.6283 31.7092H196.844ZM196.844 30.9556H19.6283C15.9056 30.9556 12.8912 33.97 12.8912 37.6928V136.851C12.8912 140.574 15.9056 143.588 19.6283 143.588H196.844C200.567 143.588 203.581 140.574 203.581 136.851V37.6928C203.581 33.97 200.567 30.9556 196.844 30.9556Z"
    fill="var(--primary-contrast)"
  />
  <path
    d="M13.3581 41.1293H105.011V143.076H19.8993C16.2971 143.076 13.3581 140.152 13.3581 136.535V41.1143V41.1293Z"
    fill="#EFEFF1"
    stroke="var(--primary-contrast)"
    stroke-width="0.93421"
    stroke-miterlimit="10"
  />
  <path
    d="M13.268 41.1745V35.3719C13.268 33.1563 15.0766 31.3477 17.2922 31.3477H199.03C201.215 31.3477 203.024 33.1261 203.054 35.2965L203.174 41.1745H13.2529H13.268Z"
    fill="white"
  />
  <path
    d="M199.045 31.7092C201.019 31.7092 202.662 33.3219 202.692 35.2963L202.798 40.7976H13.6448V35.3717C13.6448 33.3521 15.2876 31.7243 17.2922 31.7243H199.03M199.03 30.9707H17.2922C14.8506 30.9707 12.8912 32.9451 12.8912 35.3717V41.5512H203.566L203.446 35.2813C203.4 32.8848 201.441 30.9556 199.045 30.9556L199.03 30.9707Z"
    fill="black"
  />
  <path
    d="M57.338 89.0128C64.9795 89.0128 71.174 82.8182 71.174 75.1767C71.174 67.5353 64.9795 61.3407 57.338 61.3407C49.6966 61.3407 43.502 67.5353 43.502 75.1767C43.502 82.8182 49.6966 89.0128 57.338 89.0128Z"
    fill="#F637E3"
    stroke="black"
    stroke-width="0.93421"
    stroke-miterlimit="10"
  />
  <path
    d="M57.3382 77.1963C60.0685 77.1963 62.2818 74.9829 62.2818 72.2527C62.2818 69.5224 60.0685 67.3091 57.3382 67.3091C54.608 67.3091 52.3947 69.5224 52.3947 72.2527C52.3947 74.9829 54.608 77.1963 57.3382 77.1963Z"
    fill="white"
    stroke="black"
    stroke-width="0.93421"
    stroke-miterlimit="10"
  />
  <path
    d="M57.3382 80.3315C54.2033 80.3315 48.1594 81.9593 47.5264 84.9284C50.0284 87.4605 53.51 89.028 57.3382 89.028C61.1665 89.028 64.6481 87.4605 67.1501 84.9284C66.502 81.9593 60.4431 80.3315 57.3382 80.3315Z"
    fill="white"
    stroke="black"
    stroke-width="0.93421"
    stroke-miterlimit="10"
  />
  <path
    d="M15.3176 162.262V154.515H99.3737V164.357"
    stroke="var(--primary-contrast)"
    stroke-width="0.93421"
    stroke-miterlimit="10"
  />
  <path
    d="M2.43108 162.639H28.2041C28.9728 162.639 29.6058 163.272 29.6058 164.041V189.814C29.6058 190.583 28.9728 191.216 28.2041 191.216H2.43108C1.66241 191.216 1.02939 190.583 1.02939 189.814V164.041C1.02939 163.272 1.66241 162.639 2.43108 162.639Z"
    fill="#5C44E4"
  />
  <path
    d="M28.2041 163.016C28.7618 163.016 29.229 163.468 29.229 164.041V189.814C29.229 190.371 28.7768 190.839 28.2041 190.839H2.43111C1.87344 190.839 1.40621 190.387 1.40621 189.814V164.041C1.40621 163.483 1.85837 163.016 2.43111 163.016H28.2041ZM28.2041 162.262H2.43111C1.45143 162.262 0.652618 163.061 0.652618 164.041V189.814C0.652618 190.793 1.45143 191.592 2.43111 191.592H28.2041C29.1838 191.592 29.9826 190.793 29.9826 189.814V164.041C29.9826 163.061 29.1838 162.262 28.2041 162.262Z"
    fill="black"
  />
  <path
    d="M44.4514 162.639H70.2244C70.9931 162.639 71.6261 163.272 71.6261 164.041V189.814C71.6261 190.583 70.9931 191.216 70.2244 191.216H44.4514C43.6828 191.216 43.0497 190.583 43.0497 189.814V164.041C43.0497 163.272 43.6828 162.639 44.4514 162.639Z"
    fill="#F637E3"
  />
  <path
    d="M70.2396 163.016C70.7972 163.016 71.2645 163.468 71.2645 164.041V189.814C71.2645 190.371 70.8123 190.839 70.2396 190.839H44.4666C43.9089 190.839 43.4417 190.387 43.4417 189.814V164.041C43.4417 163.483 43.8938 163.016 44.4666 163.016H70.2396ZM70.2396 162.262H44.4666C43.4869 162.262 42.6881 163.061 42.6881 164.041V189.814C42.6881 190.793 43.4869 191.592 44.4666 191.592H70.2396C71.2192 191.592 72.0181 190.793 72.0181 189.814V164.041C72.0181 163.061 71.2192 162.262 70.2396 162.262Z"
    fill="black"
  />
  <path
    d="M86.4872 162.639H112.26C113.029 162.639 113.662 163.272 113.662 164.041V189.814C113.662 190.583 113.029 191.216 112.26 191.216H86.4872C85.7186 191.216 85.0856 190.583 85.0856 189.814V164.041C85.0856 163.272 85.7186 162.639 86.4872 162.639Z"
    fill="#F11653"
  />
  <path
    d="M112.26 163.016C112.818 163.016 113.285 163.468 113.285 164.041V189.814C113.285 190.371 112.833 190.839 112.26 190.839H86.4873C85.9296 190.839 85.4624 190.387 85.4624 189.814V164.041C85.4624 163.483 85.9145 163.016 86.4873 163.016H112.26ZM112.26 162.262H86.4873C85.5076 162.262 84.7088 163.061 84.7088 164.041V189.814C84.7088 190.793 85.5076 191.592 86.4873 191.592H112.26C113.24 191.592 114.039 190.793 114.039 189.814V164.041C114.039 163.061 113.24 162.262 112.26 162.262Z"
    fill="black"
  />
  <path
    d="M57.3383 162.262V141.975"
    stroke="var(--primary-contrast)"
    stroke-width="0.93421"
    stroke-miterlimit="10"
  />
  <path
    d="M21.1354 38.1451C22.1843 38.1451 23.0345 37.2948 23.0345 36.246C23.0345 35.1972 22.1843 34.3469 21.1354 34.3469C20.0866 34.3469 19.2364 35.1972 19.2364 36.246C19.2364 37.2948 20.0866 38.1451 21.1354 38.1451Z"
    stroke="black"
    stroke-width="0.93421"
    stroke-miterlimit="10"
  />
  <path
    d="M28.3848 38.1451C29.4336 38.1451 30.2839 37.2948 30.2839 36.246C30.2839 35.1972 29.4336 34.3469 28.3848 34.3469C27.336 34.3469 26.4857 35.1972 26.4857 36.246C26.4857 37.2948 27.336 38.1451 28.3848 38.1451Z"
    stroke="black"
    stroke-width="0.93421"
    stroke-miterlimit="10"
  />
  <path
    d="M71.6416 118.207H30.9624V119.835H71.6416V118.207Z"
    fill="white"
  />
  <path
    d="M71.2648 118.599V119.488H31.3392V118.599H71.2648ZM72.0184 117.845H30.5856V120.242H72.0184V117.845Z"
    fill="black"
  />
  <path d="M83.7142 110.37H30.9624V111.997H83.7142V110.37Z" fill="white" />
  <path
    d="M83.3524 110.746V111.636H31.3392V110.746H83.3524ZM84.106 109.993H30.5856V112.389H84.106V109.993Z"
    fill="black"
  />
  <path
    d="M83.7142 102.517H30.9624V104.145H83.7142V102.517Z"
    fill="white"
  />
  <path
    d="M83.3524 102.894V103.783H31.3392V102.894H83.3524ZM84.106 102.14H30.5856V104.537H84.106V102.14Z"
    fill="black"
  />
  <path
    d="M179.903 88.395H119.043C117.969 88.395 117.098 89.2654 117.098 90.3392V122.699C117.098 123.772 117.969 124.643 119.043 124.643H179.903C180.977 124.643 181.847 123.772 181.847 122.699V90.3392C181.847 89.2654 180.977 88.395 179.903 88.395Z"
    fill="#EFEFF1"
    stroke="black"
    stroke-width="0.93421"
    stroke-miterlimit="10"
  />
  <path
    d="M181.471 66.7817H117.475V77.0457H181.471V66.7817Z"
    fill="#5C44E4"
  />
  <path
    d="M181.079 67.1583V76.6687H117.837V67.1583H181.079ZM181.832 66.4047H117.083V77.4223H181.832V66.4047Z"
    fill="black"
  />
  <path
    d="M174.176 73.775C175.624 73.775 176.798 72.6009 176.798 71.1525C176.798 69.7041 175.624 68.53 174.176 68.53C172.727 68.53 171.553 69.7041 171.553 71.1525C171.553 72.6009 172.727 73.775 174.176 73.775Z"
    stroke="white"
    stroke-width="0.93421"
    stroke-miterlimit="10"
  />
  <path
    d="M178.381 75.2974L176.105 73.0215"
    stroke="white"
    stroke-width="0.93421"
    stroke-miterlimit="10"
  />
  <path
    d="M35.6345 38.1451C36.6833 38.1451 37.5335 37.2948 37.5335 36.246C37.5335 35.1972 36.6833 34.3469 35.6345 34.3469C34.5857 34.3469 33.7354 35.1972 33.7354 36.246C33.7354 37.2948 34.5857 38.1451 35.6345 38.1451Z"
    stroke="black"
    stroke-width="0.93421"
    stroke-miterlimit="10"
  />
  <g style="mix-blend-mode: multiply;">
    <path
      d="M232.609 80.9193C253.644 80.9193 270.696 63.8672 270.696 42.8325C270.696 21.7978 253.644 4.74573 232.609 4.74573C211.575 4.74573 194.523 21.7978 194.523 42.8325C194.523 63.8672 211.575 80.9193 232.609 80.9193Z"
      fill="var(--senary-contrast)"
    />
  </g>
  <path
    d="M227.606 75.855C248.432 75.855 265.316 58.9716 265.316 38.145C265.316 17.3184 248.432 0.435028 227.606 0.435028C206.779 0.435028 189.896 17.3184 189.896 38.145C189.896 58.9716 206.779 75.855 227.606 75.855Z"
    fill="#F11653"
  />
  <path
    d="M227.606 0.811854C248.194 0.811854 264.939 17.5568 264.939 38.145C264.939 58.7333 248.194 75.4782 227.606 75.4782C207.018 75.4782 190.273 58.7333 190.273 38.145C190.273 17.5568 207.018 0.811854 227.606 0.811854ZM227.606 0.0582581C206.565 0.0582581 189.519 17.1046 189.519 38.145C189.519 59.1854 206.565 76.2318 227.606 76.2318C248.646 76.2318 265.693 59.1854 265.693 38.145C265.693 17.1046 248.646 0.0582581 227.606 0.0582581Z"
    fill="black"
  />
  <path
    d="M207.244 38.7931L212.217 33.2919L222.105 44.1587L242.994 21.1288L247.968 26.6452L222.105 55.1763L207.244 38.7931Z"
    fill="white"
    stroke="black"
    stroke-width="0.93421"
    stroke-miterlimit="10"
  />
  <g style="mix-blend-mode: multiply;">
    <path
      d="M145.268 158.102L161.666 156.821L131.492 140.167L139.827 173.611L145.268 158.102Z"
      fill="var(--senary-contrast)"
    />
  </g>
  <path
    d="M140.58 153.4L156.979 152.134L126.805 135.464L135.124 168.909L140.58 153.4Z"
    fill="white"
    stroke="black"
    stroke-width="0.93421"
    stroke-miterlimit="10"
  />
  <g style="mix-blend-mode: multiply;">
    <path
      d="M268.511 117.288H204.304C202.69 117.288 201.38 118.597 201.38 120.212V184.418C201.38 186.033 202.69 187.342 204.304 187.342H268.511C270.126 187.342 271.435 186.033 271.435 184.418V120.212C271.435 118.597 270.126 117.288 268.511 117.288Z"
      fill="var(--senary-contrast)"
    />
  </g>
  <path
    d="M261.276 110.415H197.07C195.663 110.415 194.523 111.555 194.523 112.962V177.168C194.523 178.575 195.663 179.716 197.07 179.716H261.276C262.683 179.716 263.823 178.575 263.823 177.168V112.962C263.823 111.555 262.683 110.415 261.276 110.415Z"
    fill="#F11653"
  />
  <path
    d="M261.276 110.792C262.467 110.792 263.447 111.771 263.447 112.962V177.168C263.447 178.359 262.467 179.339 261.276 179.339H197.07C195.879 179.339 194.899 178.359 194.899 177.168V112.962C194.899 111.771 195.879 110.792 197.07 110.792H261.276ZM261.276 110.038H197.07C195.457 110.038 194.146 111.349 194.146 112.962V177.168C194.146 178.781 195.457 180.092 197.07 180.092H261.276C262.889 180.092 264.2 178.781 264.2 177.168V112.962C264.2 111.349 262.889 110.038 261.276 110.038Z"
    fill="black"
  />
  <path
    d="M253.951 102.713H189.745C188.13 102.713 186.821 104.022 186.821 105.637V169.844C186.821 171.458 188.13 172.768 189.745 172.768H253.951C255.566 172.768 256.875 171.458 256.875 169.844V105.637C256.875 104.022 255.566 102.713 253.951 102.713Z"
    fill="white"
    stroke="black"
    stroke-width="0.93421"
    stroke-miterlimit="10"
  />
  <path
    d="M201.923 114.002H241.773C243.22 114.002 244.411 115.178 244.411 116.64V123.784C244.411 125.231 243.235 126.406 241.788 126.406H201.938C200.491 126.406 199.301 125.231 199.301 123.769V116.625C199.301 115.178 200.476 113.987 201.938 113.987L201.923 114.002Z"
    fill="white"
  />
  <path
    d="M241.773 114.756C242.813 114.756 243.642 115.6 243.642 116.625V123.769C243.642 124.809 242.798 125.638 241.773 125.638H201.923C200.883 125.638 200.054 124.794 200.054 123.769V116.625C200.054 115.585 200.898 114.756 201.923 114.756H241.773ZM241.773 113.248H201.923C200.069 113.248 198.547 114.771 198.547 116.625V123.769C198.547 125.623 200.069 127.145 201.923 127.145H241.773C243.627 127.145 245.15 125.623 245.15 123.769V116.625C245.15 114.771 243.627 113.248 241.773 113.248Z"
    fill="var(--primary-contrast)"
  />
  <path d="M210.348 117.86H205.676V122.533H210.348V117.86Z" fill="white" />
  <path
    d="M209.61 118.614V121.779H206.445V118.614H209.61ZM210.62 117.107H205.435C205.164 117.107 204.938 117.333 204.938 117.604V122.789C204.938 123.06 205.164 123.286 205.435 123.286H210.62C210.891 123.286 211.117 123.06 211.117 122.789V117.604C211.117 117.333 210.891 117.107 210.62 117.107Z"
    fill="var(--primary-contrast)"
  />
  <path
    d="M215.458 119.157H237.342"
    stroke="var(--primary-contrast)"
    stroke-width="1.86842"
    stroke-miterlimit="10"
  />
  <path
    d="M201.923 131.546H241.773C243.22 131.546 244.396 132.721 244.396 134.168V141.312C244.396 142.759 243.22 143.935 241.773 143.935H201.923C200.476 143.935 199.286 142.759 199.286 141.297V134.153C199.286 132.706 200.461 131.516 201.923 131.516V131.546Z"
    fill="white"
  />
  <path
    d="M241.773 132.299C242.813 132.299 243.642 133.143 243.642 134.168V141.312C243.642 142.352 242.798 143.181 241.773 143.181H201.923C200.883 143.181 200.054 142.337 200.054 141.312V134.168C200.054 133.128 200.898 132.299 201.923 132.299H241.773ZM241.773 130.792H201.923C200.069 130.792 198.547 132.314 198.547 134.168V141.312C198.547 143.166 200.069 144.688 201.923 144.688H241.773C243.627 144.688 245.15 143.166 245.15 141.312V134.168C245.15 132.314 243.627 130.792 241.773 130.792Z"
    fill="var(--primary-contrast)"
  />
  <path
    d="M210.348 135.404H205.676V140.076H210.348V135.404Z"
    fill="#DD0031"
  />
  <path
    d="M209.61 136.158V139.323H206.445V136.158H209.61ZM210.62 134.65H205.435C205.164 134.65 204.938 134.877 204.938 135.148V140.333C204.938 140.604 205.164 140.83 205.435 140.83H210.62C210.891 140.83 211.117 140.604 211.117 140.333V135.148C211.117 134.877 210.891 134.65 210.62 134.65Z"
    fill="var(--primary-contrast)"
  />
  <path
    d="M215.458 136.7H237.342"
    stroke="var(--primary-contrast)"
    stroke-width="1.86842"
    stroke-miterlimit="10"
  />
  <path
    d="M201.923 149.089H241.773C243.22 149.089 244.396 150.265 244.396 151.712V158.856C244.396 160.303 243.22 161.479 241.773 161.479H201.923C200.476 161.479 199.301 160.303 199.301 158.856V151.712C199.301 150.265 200.476 149.074 201.938 149.074L201.923 149.089Z"
    fill="white"
  />
  <path
    d="M241.773 149.843C242.813 149.843 243.642 150.687 243.642 151.712V158.856C243.642 159.896 242.798 160.725 241.773 160.725H201.923C200.883 160.725 200.054 159.881 200.054 158.856V151.712C200.054 150.672 200.898 149.843 201.923 149.843H241.773ZM241.773 148.336H201.923C200.069 148.336 198.547 149.858 198.547 151.712V158.856C198.547 160.71 200.069 162.232 201.923 162.232H241.773C243.627 162.232 245.15 160.71 245.15 158.856V151.712C245.15 149.858 243.627 148.336 241.773 148.336Z"
    fill="var(--primary-contrast)"
  />
  <path d="M210.348 152.948H205.676V157.62H210.348V152.948Z" fill="white" />
  <path
    d="M209.61 153.701V156.867H206.445V153.701H209.61ZM210.62 152.194H205.435C205.164 152.194 204.938 152.42 204.938 152.692V157.876C204.938 158.148 205.164 158.374 205.435 158.374H210.62C210.891 158.374 211.117 158.148 211.117 157.876V152.692C211.117 152.42 210.891 152.194 210.62 152.194Z"
    fill="var(--primary-contrast)"
  />
  <path
    d="M215.458 154.244H237.342"
    stroke="var(--primary-contrast)"
    stroke-width="1.86842"
    stroke-miterlimit="10"
  />
  <path
    d="M241.773 113.248H201.908C200.044 113.248 198.532 114.76 198.532 116.625V123.784C198.532 125.648 200.044 127.16 201.908 127.16H241.773C243.638 127.16 245.149 125.648 245.149 123.784V116.625C245.149 114.76 243.638 113.248 241.773 113.248Z"
    fill="#EFEFF1"
    stroke="black"
    stroke-width="0.93421"
    stroke-miterlimit="10"
  />
  <path
    d="M205.435 117.484H210.62C210.62 117.484 210.74 117.544 210.74 117.604V122.789C210.74 122.789 210.68 122.91 210.62 122.91H205.435C205.435 122.91 205.314 122.849 205.314 122.789V117.604C205.314 117.604 205.375 117.484 205.435 117.484Z"
    fill="#5C44E4"
  />
  <path
    d="M210.363 117.86V122.533H205.691V117.86H210.363ZM210.62 117.107H205.435C205.164 117.107 204.938 117.333 204.938 117.604V122.789C204.938 123.06 205.164 123.286 205.435 123.286H210.62C210.891 123.286 211.117 123.06 211.117 122.789V117.604C211.117 117.333 210.891 117.107 210.62 117.107Z"
    fill="black"
  />
  <path
    d="M215.458 119.157H237.342"
    stroke="black"
    stroke-width="0.93421"
    stroke-miterlimit="10"
  />
  <path
    d="M241.773 130.792H201.908C200.044 130.792 198.532 132.304 198.532 134.168V141.327C198.532 143.192 200.044 144.703 201.908 144.703H241.773C243.638 144.703 245.149 143.192 245.149 141.327V134.168C245.149 132.304 243.638 130.792 241.773 130.792Z"
    fill="#EFEFF1"
    stroke="black"
    stroke-width="0.93421"
    stroke-miterlimit="10"
  />
  <path
    d="M205.435 135.027H210.62C210.62 135.027 210.74 135.088 210.74 135.148V140.333C210.74 140.333 210.68 140.453 210.62 140.453H205.435C205.435 140.453 205.314 140.393 205.314 140.333V135.148C205.314 135.148 205.375 135.027 205.435 135.027Z"
    fill="#F11653"
  />
  <path
    d="M210.363 135.404V140.076H205.691V135.404H210.363ZM210.62 134.65H205.435C205.164 134.65 204.938 134.877 204.938 135.148V140.333C204.938 140.604 205.164 140.83 205.435 140.83H210.62C210.891 140.83 211.117 140.604 211.117 140.333V135.148C211.117 134.877 210.891 134.65 210.62 134.65Z"
    fill="black"
  />
  <path
    d="M215.458 136.7H237.342"
    stroke="black"
    stroke-width="0.93421"
    stroke-miterlimit="10"
  />
  <path
    d="M241.773 148.336H201.908C200.044 148.336 198.532 149.847 198.532 151.712V158.871C198.532 160.736 200.044 162.247 201.908 162.247H241.773C243.638 162.247 245.149 160.736 245.149 158.871V151.712C245.149 149.847 243.638 148.336 241.773 148.336Z"
    fill="#EFEFF1"
    stroke="black"
    stroke-width="0.93421"
    stroke-miterlimit="10"
  />
  <path
    d="M205.435 152.571H210.62C210.62 152.571 210.74 152.631 210.74 152.692V157.876C210.74 157.876 210.68 157.997 210.62 157.997H205.435C205.435 157.997 205.314 157.937 205.314 157.876V152.692C205.314 152.692 205.375 152.571 205.435 152.571Z"
    fill="#F637E3"
  />
  <path
    d="M210.363 152.948V157.62H205.691V152.948H210.363ZM210.62 152.194H205.435C205.164 152.194 204.938 152.42 204.938 152.692V157.876C204.938 158.148 205.164 158.374 205.435 158.374H210.62C210.891 158.374 211.117 158.148 211.117 157.876V152.692C211.117 152.42 210.891 152.194 210.62 152.194Z"
    fill="black"
  />
  <path
    d="M215.458 154.244H237.342"
    stroke="black"
    stroke-width="0.93421"
    stroke-miterlimit="10"
  />
  <path
    d="M167.047 166.784H159.315V174.516H167.047V166.784Z"
    fill="#EFEFF1"
    stroke="var(--primary-contrast)"
    stroke-width="0.93421"
    stroke-miterlimit="10"
  />
  <path
    d="M261.035 80.271H253.303V88.0029H261.035V80.271Z"
    fill="#EFEFF1"
    stroke="var(--primary-contrast)"
    stroke-width="0.93421"
    stroke-miterlimit="10"
  />
  <path
    d="M271.947 66.842H267.833V70.9566H271.947V66.842Z"
    fill="#EFEFF1"
    stroke="var(--primary-contrast)"
    stroke-width="0.93421"
    stroke-miterlimit="10"
  />
  <path
    d="M140.852 183.785H136.737V187.9H140.852V183.785Z"
    fill="white"
    stroke="var(--primary-contrast)"
    stroke-width="0.93421"
    stroke-miterlimit="10"
  />
  <path
    d="M178.17 12.598H174.055V16.7127H178.17V12.598Z"
    fill="white"
    stroke="var(--primary-contrast)"
    stroke-width="0.93421"
    stroke-miterlimit="10"
  />
</svg>
