<svg
  width="433"
  height="182"
  viewBox="0 0 433 182"
  fill="none"
  xmlns="http://www.w3.org/2000/svg"
  class="docs-roadmap-svg"
>
  <path
    d="M26.0339 81.4492H316.739L406.475 153.601H114.71L26.0339 81.4492Z"
    fill="var(--quinary-contrast)"
  />
  <path
    d="M0.482666 81.4492H360.219"
    stroke="var(--primary-contrast)"
    stroke-width="0.93421"
    stroke-miterlimit="10"
  />
  <path
    d="M100.184 153.602H415.329"
    stroke="var(--primary-contrast)"
    stroke-width="0.93421"
    stroke-miterlimit="10"
  />
  <path
    d="M432.865 153.602H423.345"
    stroke="white"
    stroke-width="1.13974"
  />
  <path
    d="M49.5872 112.254H360.22"
    stroke="#171614"
    stroke-width="0.93421"
  />
  <path
    d="M344.189 73.9395V61.4106H340.181L336.173 57.4029V43.3695L338.183 41.3595H340.193C340.859 41.9391 342.203 43.1599 342.203 43.3695V55.3928H344.213V31.3462L346.223 29.3362H350.231L352.241 31.3462V55.3928H354.251V41.3595L356.261 39.3494H358.271L360.281 41.3595V55.3928L355.275 60.3994H352.266V73.9272"
    stroke="var(--primary-contrast)"
    stroke-width="0.93421"
    stroke-miterlimit="10"
  />
  <path
    d="M382.577 126.534C382.577 116.57 374.191 108.567 364.104 109.183C355.435 109.714 348.381 116.78 347.851 125.449C347.728 127.483 347.95 129.432 348.468 131.269C348.838 132.576 349.356 133.822 350.009 134.981L350.083 135.129C350.083 135.129 350.083 135.154 350.096 135.166L363.315 159.089C364.129 160.557 366.238 160.557 367.051 159.089L380.37 134.993C381.763 132.49 382.565 129.604 382.565 126.546L382.577 126.534ZM365.202 133.292C361.86 133.292 359.147 130.579 359.147 127.237C359.147 123.895 361.86 121.182 365.202 121.182C368.544 121.182 371.257 123.895 371.257 127.237C371.257 130.579 368.544 133.292 365.202 133.292Z"
    fill="#8514F5"
    stroke="black"
    stroke-width="0.93421"
    stroke-miterlimit="10"
  />
  <path
    d="M123.49 18.8176H115.611V26.6975H123.49V18.8176Z"
    stroke="var(--primary-contrast)"
    stroke-width="0.93421"
    stroke-miterlimit="10"
  />
  <path
    d="M108.372 0.468262H104.179V4.66099H108.372V0.468262Z"
    stroke="var(--primary-contrast)"
    stroke-width="0.93421"
    stroke-miterlimit="10"
  />
  <path
    d="M354.473 177.179H350.281V181.372H354.473V177.179Z"
    stroke="var(--primary-contrast)"
    stroke-width="0.93421"
    stroke-miterlimit="10"
  />
  <path
    d="M182.83 133.92H322.67"
    stroke="#8514F5"
    stroke-width="0.93421"
    stroke-miterlimit="10"
  />
  <path
    d="M321.77 136.991L327.097 133.92L321.77 130.85V136.991Z"
    fill="#8514F5"
  />
  <path
    d="M6.64868 95.9268H146.489"
    stroke="#F637E3"
    stroke-width="0.93421"
    stroke-miterlimit="10"
  />
  <path
    d="M145.588 99.0094L150.916 95.9265L145.588 92.856V99.0094Z"
    fill="#F637E3"
  />
  <path
    d="M171.497 40.5084C171.497 30.1005 162.742 21.752 152.198 22.3933C143.147 22.9482 135.773 30.3225 135.23 39.3738C135.107 41.4949 135.341 43.5419 135.884 45.4533C136.266 46.8221 136.821 48.1169 137.499 49.3254L137.585 49.4734C137.585 49.4734 137.585 49.4981 137.598 49.5104L151.409 74.4819C152.26 76.011 154.455 76.011 155.306 74.4819L169.216 49.3254C170.671 46.7111 171.51 43.7022 171.51 40.496L171.497 40.5084ZM153.345 47.5744C149.855 47.5744 147.019 44.7381 147.019 41.2483C147.019 37.7584 149.855 34.9221 153.345 34.9221C156.835 34.9221 159.671 37.7584 159.671 41.2483C159.671 44.7381 156.835 47.5744 153.345 47.5744Z"
    fill="#F637E3"
    stroke="black"
    stroke-width="0.93421"
    stroke-miterlimit="10"
  />
</svg>
