<svg xmlns="http://www.w3.org/2000/svg" fill="none" viewBox="0 33.338 291.42173913043473 178.084" style="max-height: 500px" width="291.42173913043473" height="178.084">
<path class="theme-fill-bg" d="M290 150.561L254.371 111.554H101.291L30.9123 139.716L1 195.724L30.9123 195.986V290.064H184.001L254.371 261.892V172.342L290 150.561Z"/>
<path stroke-linejoin="round" stroke-width="0.779698" class="theme-stroke-primary" d="M254.371 111.554L184.002 139.716V290.064L254.371 261.892V172.342"/>
<path stroke-linejoin="round" class="theme-stroke-primary theme-fill-accent-bg" d="M184.002 139.716L226.227 189.558L290 150.56L254.371 111.554L184.002 139.716Z"/>
<path stroke-linejoin="round" stroke-width="0.779698" class="theme-stroke-primary" d="M254.371 172.342V261.892"/>
<path stroke-linejoin="round" stroke-width="0.779698" class="theme-stroke-primary" d="M101.291 139.716V111.554H254.371"/>
<path class="theme-fill-accent-bg" d="M30.9121 139.717H184.001V290.064H30.9121V195.986"/>
<path stroke-linejoin="round" class="theme-stroke-primary" d="M30.9121 139.717H184.001V290.064H30.9121V195.986"/>
<path stroke-linejoin="round" stroke-width="0.779698" class="theme-stroke-primary" d="M30.9121 195.986V290.064"/>
<path stroke-linejoin="round" stroke-width="0.779698" class="theme-stroke-primary" d="M101.291 139.716V111.554L30.9121 139.716"/>
<path class="theme-stroke-primary theme-fill-bg" d="M183.145 113.175L183.245 114.046L184.211 122.383L183.145 113.175ZM183.145 113.175L182.446 113.706M183.145 113.175L182.446 113.706M182.446 113.706C167.397 125.144 146.479 132.184 144.504 132.837L144.026 132.995M182.446 113.706L144.026 132.995M144.026 132.995L144.188 133.472M144.026 132.995L144.188 133.472M144.188 133.472L152.016 156.571L152.253 157.271M144.188 133.472L152.253 157.271M152.253 157.271L152.814 156.79M152.253 157.271L152.814 156.79M152.814 156.79L179.772 133.733M152.814 156.79L179.772 133.733M179.772 133.733C183.026 130.949 184.715 126.687 184.211 122.384L179.772 133.733ZM134.93 58.1537L135.563 57.546L134.717 57.3113L126.631 55.0658C122.457 53.9004 117.985 54.9084 114.731 57.6922L87.7733 80.7499L87.2119 81.2302L87.8664 81.5729L109.473 92.8863L109.919 93.12L110.149 92.672C111.1 90.8219 121.297 71.2486 134.93 58.1537ZM141.303 124.832L141.52 125.086L141.837 124.982L141.683 124.507C141.837 124.982 141.838 124.982 141.838 124.982L141.839 124.982L141.842 124.981L141.856 124.976L141.908 124.959C141.955 124.943 142.023 124.921 142.113 124.89C142.293 124.83 142.557 124.74 142.899 124.621C143.582 124.384 144.573 124.031 145.806 123.57C148.272 122.647 151.71 121.289 155.596 119.548C163.359 116.069 172.948 111.043 180.158 104.876C198.192 89.4505 206.355 75.0643 209.831 63.746C213.307 52.4293 212.086 44.215 211.405 41.1478L211.348 40.891L211.104 40.7925C208.178 39.6112 200.25 37.1323 188.532 38.8197C176.811 40.5074 161.332 46.358 143.298 61.7831C136.089 67.9499 129.637 76.6441 124.997 83.7744C122.674 87.3435 120.8 90.5287 119.506 92.8221C118.859 93.969 118.358 94.8932 118.017 95.5312C117.847 95.8503 117.717 96.0978 117.629 96.2659C117.585 96.35 117.552 96.4142 117.53 96.4575L117.505 96.5068L117.498 96.5195L117.497 96.5228L117.496 96.5237C117.496 96.5239 117.496 96.524 117.942 96.7508L117.496 96.524L117.344 96.8219L117.562 97.0758L141.303 124.832ZM157.332 76.0291C157.84 69.5122 163.59 64.594 170.107 65.1021C176.624 65.6102 181.542 71.3601 181.034 77.877C180.526 84.3938 174.776 89.312 168.259 88.8039C161.742 88.2958 156.824 82.5459 157.332 76.0291Z"/>
<path class="theme-stroke-primary theme-fill-bg" fill="url(#paint0_linear_5033_3388)" d="M82.6536 150.966L82.1655 150.857L82.0213 151.506L82.685 151.465L82.6536 150.966ZM82.6536 150.966C82.685 151.465 82.6852 151.465 82.6855 151.465L82.6866 151.465L82.691 151.464L82.7082 151.463L82.7754 151.459C82.8345 151.455 82.9221 151.449 83.0366 151.441C83.2656 151.425 83.6019 151.401 84.0326 151.367C84.8938 151.301 86.1321 151.199 87.6425 151.055C90.6626 150.767 94.7728 150.313 99.1307 149.648C103.487 148.984 108.1 148.107 112.124 146.972C116.128 145.843 119.62 144.439 121.673 142.683C125.363 139.527 127.89 134.939 128.301 129.676C129.121 119.15 121.286 109.991 110.761 109.17C105.497 108.76 100.573 110.545 96.8832 113.702C94.8308 115.457 92.9023 118.69 91.1662 122.47C89.4215 126.269 87.8405 130.691 86.5089 134.892C85.1768 139.094 84.0913 143.084 83.3389 146.023C82.9626 147.493 82.6695 148.701 82.4703 149.541C82.3707 149.961 82.2946 150.29 82.2434 150.514C82.2177 150.625 82.1983 150.711 82.1853 150.769L82.1705 150.835L82.1668 150.851L82.1658 150.856L82.1656 150.857C82.1655 150.857 82.1655 150.857 82.6536 150.966Z"/>
<path stroke-linejoin="round" class="theme-stroke-primary theme-fill-bg" d="M30.9123 139.717L1 195.724L148.588 197.043L184.001 139.717H30.9123Z"/>
<defs>
<linearGradient gradientUnits="userSpaceOnUse" y2="59.6404" x2="225.416" y1="137" x1="99.5" id="paint0_linear_5033_3388">
<stop stop-color="#111114"/>
<stop stop-color="#CC99E8" offset="1"/>
</linearGradient>
</defs>
</svg>
