<svg
  width="226"
  height="284"
  viewBox="0 -12 226 284"
  fill="none"
  xmlns="http://www.w3.org/2000/svg"
  class="routing-svg"
  style="max-height: 130px"
>
  <path
    d="M37.2906 46.6111H184.604V68.2037H37.2906V84.9254V87.5397H184.604V103.805H37.2906V120.514V120.958H184.604V140.639H37.2906V162.577"
    stroke="var(--primary-contrast)"
    stroke-width="0.5"
    stroke-miterlimit="10"
  />
  <path
    d="M34.2201 161.677L37.2907 167.004L40.3612 161.677H34.2201Z"
    fill="var(--primary-contrast)"
  />
  <path
    d="M6.42464 179.595H151.419C154.293 179.595 156.623 181.926 156.623 184.799V265.928C156.623 268.802 154.293 271.132 151.419 271.132H6.42464C3.55138 271.132 1.23303 268.802 1.23303 265.941V184.811C1.23303 181.938 3.5637 179.607 6.43696 179.607L6.42464 179.595Z"
    fill="white"
  />
  <path
    d="M151.419 179.903C154.12 179.903 156.315 182.098 156.315 184.799V265.928C156.315 268.629 154.12 270.824 151.419 270.824H6.42469C3.72408 270.824 1.52905 268.629 1.52905 265.928V184.799C1.52905 182.098 3.72408 179.903 6.42469 179.903H151.419ZM151.419 179.287H6.42469C3.37879 179.287 0.912476 181.753 0.912476 184.799V265.928C0.912476 268.974 3.37879 271.441 6.42469 271.441H151.419C154.465 271.441 156.932 268.974 156.932 265.928V184.799C156.932 181.753 154.465 179.287 151.419 179.287Z"
    fill="var(--primary-contrast)"
  />
  <path
    d="M1.30701 187.623H76.2953V271.034H6.65891C3.71166 271.034 1.30701 268.641 1.30701 265.682V187.61V187.623Z"
    fill="#EFEFF1"
    stroke="black"
    stroke-width="0.5"
    stroke-miterlimit="10"
  />
  <path
    d="M1.23309 187.647V182.9C1.23309 181.087 2.71289 179.607 4.52563 179.607H153.22C155.008 179.607 156.488 181.062 156.512 182.838L156.611 187.647H1.22076H1.23309Z"
    fill="white"
  />
  <path
    d="M153.22 179.903C154.835 179.903 156.179 181.223 156.204 182.838L156.29 187.339H1.52905V182.9C1.52905 181.247 2.87319 179.916 4.51329 179.916H153.207M153.207 179.299H4.51329C2.51558 179.299 0.912476 180.914 0.912476 182.9V187.956H156.919L156.821 182.826C156.784 180.865 155.181 179.287 153.22 179.287L153.207 179.299Z"
    fill="black"
  />
  <path
    d="M37.2906 226.788C43.5427 226.788 48.611 221.72 48.611 215.467C48.611 209.215 43.5427 204.147 37.2906 204.147C31.0385 204.147 25.9702 209.215 25.9702 215.467C25.9702 221.72 31.0385 226.788 37.2906 226.788Z"
    fill="#F637E3"
    stroke="black"
    stroke-width="0.5"
    stroke-miterlimit="10"
  />
  <path
    d="M37.2906 217.12C39.5245 217.12 41.3354 215.309 41.3354 213.075C41.3354 210.841 39.5245 209.03 37.2906 209.03C35.0568 209.03 33.2458 210.841 33.2458 213.075C33.2458 215.309 35.0568 217.12 37.2906 217.12Z"
    fill="white"
    stroke="black"
    stroke-width="0.5"
    stroke-miterlimit="10"
  />
  <path
    d="M37.2906 219.685C34.7257 219.685 29.7807 221.017 29.2628 223.446C31.3098 225.518 34.1584 226.8 37.2906 226.8C40.4228 226.8 43.2714 225.518 45.3185 223.446C44.7882 221.017 39.8309 219.685 37.2906 219.685Z"
    fill="white"
    stroke="black"
    stroke-width="0.5"
    stroke-miterlimit="10"
  />
  <path
    d="M7.67011 185.181C8.52824 185.181 9.22389 184.485 9.22389 183.627C9.22389 182.769 8.52824 182.074 7.67011 182.074C6.81198 182.074 6.11633 182.769 6.11633 183.627C6.11633 184.485 6.81198 185.181 7.67011 185.181Z"
    stroke="black"
    stroke-width="0.5"
    stroke-miterlimit="10"
  />
  <path
    d="M13.6016 185.181C14.4598 185.181 15.1554 184.485 15.1554 183.627C15.1554 182.769 14.4598 182.074 13.6016 182.074C12.7435 182.074 12.0479 182.769 12.0479 183.627C12.0479 184.485 12.7435 185.181 13.6016 185.181Z"
    stroke="black"
    stroke-width="0.5"
    stroke-miterlimit="10"
  />
  <path
    d="M48.9933 250.686H15.7104V252.018H48.9933V250.686Z"
    fill="white"
  />
  <path
    d="M48.685 250.995V251.722H16.0187V250.995H48.685ZM49.3016 250.378H15.4021V252.339H49.3016V250.378Z"
    fill="black"
  />
  <path
    d="M58.8708 244.262H15.7103V245.594H58.8708V244.262Z"
    fill="white"
  />
  <path
    d="M58.5626 244.57V245.298H16.0063V244.57H58.5626ZM59.1792 243.953H15.3898V245.914H59.1792V243.953Z"
    fill="black"
  />
  <path
    d="M58.8708 237.849H15.7103V239.181H58.8708V237.849Z"
    fill="white"
  />
  <path
    d="M58.5626 238.158V238.885H16.0063V238.158H58.5626ZM59.1792 237.541H15.3898V239.502H59.1792V237.541Z"
    fill="black"
  />
  <path
    d="M19.5331 185.181C20.3913 185.181 21.0869 184.485 21.0869 183.627C21.0869 182.769 20.3913 182.074 19.5331 182.074C18.675 182.074 17.9794 182.769 17.9794 183.627C17.9794 184.485 18.675 185.181 19.5331 185.181Z"
    stroke="black"
    stroke-width="0.5"
    stroke-miterlimit="10"
  />
  <path
    d="M32.8389 19.0624H24.959V26.9423H32.8389V19.0624Z"
    stroke="var(--primary-contrast)"
    stroke-width="0.5"
    stroke-miterlimit="10"black
  />
  <path
    d="M17.7204 0.725342H13.5276V4.91808H17.7204V0.725342Z"
    stroke="var(--primary-contrast)"
    stroke-width="0.5"
    stroke-miterlimit="10"
  />
  <path
    d="M13.5277 83.0633H9.33496V87.256H13.5277V83.0633Z"
    stroke="var(--primary-contrast)"
    stroke-width="0.5"
    stroke-miterlimit="10"
  />
  <path
    d="M157.745 62.5066C157.745 56.0572 152.32 50.8779 145.796 51.2848C140.185 51.6301 135.623 56.1928 135.277 61.8037C135.203 63.1108 135.339 64.381 135.684 65.5771C135.919 66.428 136.264 67.2296 136.683 67.9818L136.732 68.0805C136.732 68.0805 136.732 68.0928 136.732 68.1051L145.291 83.5812C145.821 84.5308 147.177 84.5308 147.708 83.5812L156.327 67.9941C157.228 66.3787 157.745 64.5166 157.745 62.5312V62.5066ZM146.499 66.8843C144.329 66.8843 142.578 65.1332 142.578 62.9628C142.578 60.7925 144.329 59.0414 146.499 59.0414C148.669 59.0414 150.42 60.7925 150.42 62.9628C150.42 65.1332 148.669 66.8843 146.499 66.8843Z"
    fill="#F11653"
    stroke="black"
    stroke-width="0.5"
    stroke-miterlimit="10"
  />
  <path
    d="M81.1171 113.744C81.1171 107.295 75.6912 102.116 69.1554 102.523C63.5446 102.868 58.9819 107.43 58.6366 113.041C58.5626 114.348 58.6982 115.619 59.0435 116.815C59.2778 117.666 59.6231 118.467 60.0424 119.219L60.0917 119.318C60.0917 119.318 60.0917 119.33 60.0917 119.343L68.6498 134.819C69.1801 135.768 70.5366 135.768 71.0668 134.819L79.6866 119.232C80.5868 117.616 81.1047 115.754 81.1047 113.769L81.1171 113.744ZM69.8707 118.122C67.7003 118.122 65.9492 116.371 65.9492 114.201C65.9492 112.03 67.7003 110.279 69.8707 110.279C72.041 110.279 73.7921 112.03 73.7921 114.201C73.7921 116.371 72.041 118.122 69.8707 118.122Z"
    fill="#F637E3"
    stroke="black"
    stroke-width="0.5"
    stroke-miterlimit="10"
  />
  <path
    d="M92.3635 21.1465C92.3635 14.697 86.9376 9.51779 80.4018 9.92473C74.791 10.27 70.2283 14.8327 69.883 20.4436C69.809 21.7507 69.9446 23.0209 70.2899 24.217C70.5242 25.0679 70.8695 25.8695 71.2888 26.6217L71.3381 26.7203C71.3381 26.7203 71.3381 26.7327 71.3381 26.745L79.8962 42.2211C80.4265 43.1707 81.783 43.1707 82.3132 42.2211L90.933 26.634C91.8332 25.0186 92.3511 23.1565 92.3511 21.1711L92.3635 21.1465ZM81.1171 25.5242C78.9467 25.5242 77.1956 23.7731 77.1956 21.6027C77.1956 19.4324 78.9467 17.6813 81.1171 17.6813C83.2874 17.6813 85.0385 19.4324 85.0385 21.6027C85.0385 23.7731 83.2874 25.5242 81.1171 25.5242Z"
    fill="#5C44E4"
    stroke="black"
    stroke-width="0.5"
    stroke-miterlimit="10"
  />
  <path
    d="M173.172 237.553H178.006V232.719H173.172V237.553Z"
    stroke="var(--primary-contrast)"
    stroke-width="0.5"
    stroke-miterlimit="10"
  />
  <path
    d="M186.848 268.037H196.035V258.85H186.848V268.037Z"
    stroke="var(--primary-contrast)"
    stroke-width="0.5"
    stroke-miterlimit="10"
  />
  <g style="mix-blend-mode: multiply;">
    <path
      d="M193.667 120.342H128.298C119.178 120.342 111.786 127.734 111.786 136.854V207.625C111.786 216.744 119.178 224.137 128.298 224.137H193.667C202.787 224.137 210.179 216.744 210.179 207.625V136.854C210.179 127.734 202.787 120.342 193.667 120.342Z"
      fill="var(--senary-contrast)"
    />
  </g>
  <path
    d="M213.854 110.254H131.565C125.143 110.254 119.937 115.461 119.937 121.883V204.172C119.937 210.594 125.143 215.8 131.565 215.8H213.854C220.276 215.8 225.483 210.594 225.483 204.172V121.883C225.483 115.461 220.276 110.254 213.854 110.254Z"
    fill="#8514F5"
    stroke="black"
    stroke-width="0.5"
    stroke-miterlimit="10"
  />
  <path
    d="M193.285 184.984H142.331C140.642 184.984 139.26 183.603 139.26 181.913V161.652C139.26 159.963 140.642 158.582 142.331 158.582H196.664V144.462H139.273V138.321H199.735C201.424 138.321 202.805 139.702 202.805 141.392V161.652C202.805 163.342 201.424 164.723 199.735 164.723H145.402V178.843H193.285V169.15L206.048 181.913L193.285 194.676V184.984Z"
    fill="white"
  />
  <path
    d="M199.722 138.642C201.239 138.642 202.484 139.875 202.484 141.404V161.665C202.484 163.182 201.251 164.427 199.722 164.427H145.081V179.163H193.581V169.902L202.657 178.978L205.592 181.913L193.581 193.924V184.663H142.319C140.802 184.663 139.556 183.43 139.556 181.901V161.64C139.556 160.123 140.79 158.878 142.319 158.878H196.96V144.142H139.569V138.617H199.722M199.722 138H138.952V144.758H196.343V158.261H142.319C140.457 158.261 138.94 159.778 138.94 161.64V181.901C138.94 183.763 140.457 185.28 142.319 185.28H192.964V195.404L206.468 181.901L203.089 178.522L192.964 168.398V178.522H145.698V165.019H199.722C201.584 165.019 203.101 163.502 203.101 161.64V141.379C203.101 139.517 201.584 138 199.722 138Z"
    fill="black"
  />
  <defs><linearGradient id="routing-angie-linear-gradient" x1="673.48" y1="917.02" x2="673.48" y2="747.23" gradientUnits="userSpaceOnUse"><stop offset="0" stop-color="#eadbe7"/><stop offset=".36" stop-color="#e8d9e5"/><stop offset=".49" stop-color="#e4d2e1"/><stop offset=".58" stop-color="#dcc6da"/><stop offset=".61" stop-color="#d8c0d6"/></linearGradient><linearGradient id="routing-angie-linear-gradient-2" x1="480.27" y1="918.07" x2="480.27" y2="749.04" href="#routing-angie-linear-gradient"/><linearGradient id="routing-angie-linear-gradient-3" x1="386.17" y1="302.74" x2="664.61" y2="785.02" gradientUnits="userSpaceOnUse"><stop offset="0" stop-color="#f637e3"/><stop offset="0" stop-color="#f535de"/><stop offset=".08" stop-color="#f228bd"/><stop offset=".15" stop-color="#ef1ca1"/><stop offset=".23" stop-color="#ec138a"/><stop offset=".33" stop-color="#eb0c79"/><stop offset=".45" stop-color="#e9076d"/><stop offset=".6" stop-color="#e90465"/><stop offset=".99" stop-color="#e90464"/></linearGradient><linearGradient id="routing-angie-linear-gradient-4" x1="740.64" y1="183.72" x2="740.64" y2="842.08" gradientUnits="userSpaceOnUse"><stop offset="0" stop-color="#e90464"/><stop offset=".29" stop-color="#e00362"/><stop offset=".75" stop-color="#c90160"/><stop offset="1" stop-color="#ba005e"/></linearGradient><radialGradient id="routing-angie-radial-gradient" cx="583.02" cy="618.37" fx="583.02" fy="618.37" r="219.14" gradientUnits="userSpaceOnUse"><stop offset="0" stop-color="#eadbe7"/><stop offset=".52" stop-color="#e8d8e5"/><stop offset=".76" stop-color="#e3d1e0"/><stop offset=".96" stop-color="#dac4d8"/><stop offset="1" stop-color="#d8c0d6"/></radialGradient></defs>
  <g transform="translate(118.70 -17.51) scale(0.06678)">
  <path fill="none" stroke="#eadbe7" stroke-linecap="round" stroke-linejoin="round" stroke-width="68.81" d="M847.85,710.84s91.34-36.44,3.59-107.68"/>
  <path fill="url(#routing-angie-linear-gradient)" d="M627.77,904.49c0,6.92,5.61,12.53,12.53,12.53h39s26.49-45.51,39.88-146.52h0c-20.22-27.68-60.19-31.24-84.98-7.57h0c-4.11,3.92-6.43,9.35-6.43,15.03v126.52Z"/>
  <path fill="#e90464" d="M678.31,862.35h2.7c22.1,0,40.04,17.94,40.04,40.04v1.57c0,7.78-6.32,14.1-14.1,14.1h-62.09c-3.64,0-6.59-2.95-6.59-6.59v-9.08c0-22.1,17.94-40.04,40.04-40.04Z"/>
  <path fill="#eadbe7" d="M275.89,598.93c-.14,8.73-4.08,17.07-10.75,22.71-17.97,15.22-39.95,7.43-40.02,7.41,35.58,14.4,112.39,42.14,123.68,18.29s-58.86-65.66-92.56-84.05c.06.03,20.02,12.1,19.64,35.64Z"/>
  <path fill="#e90464" d="M207.1,621.43s7.06,3.17,18.03,7.62c.06.02,27.21,10.11,46.39-6.3,5.72-4.9,9.11-12.06,9.27-19.59.53-25.24-24.48-39.84-24.54-39.87,0,0,0,0,0,0-3.09-8.41-11.93-28.53-25.61-27.63-4.87.32-7.64,4.06-9.1,9.27-1.25-.59-2.48-1.16-3.7-1.7-44.97-19.97-76.54,46.74-32.58,68.85,6.37,3.21,13.62,6.35,21.84,9.36Z"/>
  <path fill="url(#routing-angie-linear-gradient-2)" d="M535.8,901.65c1.08,6.84-4.59,15.34-11.43,16.42h-40.49s-30.29-50.3-59.28-147.99h0c15.65-30.5,54.58-24.06,82.76-4.54h0c4.67,3.23,7.81,8.23,8.69,13.84l19.74,122.27Z"/>
  <path fill="#e90464" d="M448.18,862.35h62.09c7.78,0,14.1,6.32,14.1,14.1v1.57c0,22.1-17.94,40.04-40.04,40.04h-2.7c-22.1,0-40.04-17.94-40.04-40.04v-9.08c0-3.64,2.95-6.59,6.59-6.59Z" transform="translate(965.96 1780.42) rotate(-180)"/>
  <path fill="url(#routing-angie-linear-gradient-3)" d="M600.79,183.72c-5.34-.28-10.76,1.06-15.48,4.08l-306.29,194.88c-14.96,9.58-22.2,27.48-18.09,44.68l68.9,264.5c3.66,14.39,13.06,26.7,26.04,34.08l189.38,110.11c6.41,3.59,13.49,5.59,20.64,5.97l34.89-658.3Z"/>
  <path fill="url(#routing-angie-linear-gradient-4)" d="M565.9,842.02c7.16.38,14.4-.86,21.16-3.75l199.96-89.48c13.69-5.97,24.33-17.21,29.49-31.14l96.48-255.73c5.91-16.67.59-35.23-13.27-46.34l-283.97-226.17c-4.37-3.5-9.62-5.41-14.96-5.7l-34.89,658.3Z"/>
  <path fill="#940054" d="M395.42,691.98c6.04-2.57,15.36-6.47,24.7-10.36-5.22-3.17-9.01-8.28-10.47-14.27l-36.91-151.58c-5.12-21.04,15.51-38.93,35.44-31.32l-19.48-8.36c-22.69-9.74-46.75,10.61-40.91,34.6l41.33,169.74c1.07,4.39,3.28,8.34,6.29,11.55Z"/>
  <path fill="#aa0060" d="M420.12,681.62c-9.34,3.89-18.66,7.79-24.7,10.36,2.16,2.3,4.72,4.24,7.63,5.64l166.27,79.93,1.24-23.47-148.48-71.38c-.68-.33-1.33-.7-1.96-1.08Z"/>
  <path fill="url(#routing-angie-radial-gradient)" d="M759.4,503.43l-178.48,55.15-171.65-73.71c-20.26-8.7-41.75,9.48-36.53,30.9l36.91,151.58c1.64,6.72,6.2,12.35,12.43,15.35l148.48,71.38,155.19-55.28c6.52-2.32,11.65-7.44,13.99-13.95l52.73-146.83c7.45-20.75-12-41.1-33.06-34.59Z"/>
  <path fill="#940054" d="M751.28,710.84c-5.74-3.19-14.59-8.06-23.47-12.92,5.52-2.6,9.84-7.28,11.92-13.08l52.73-146.83c7.32-20.38-11.31-40.35-31.93-34.89l20.25-6.26c23.59-7.29,45.37,15.49,37.02,38.73l-59.04,164.42c-1.53,4.25-4.14,7.94-7.48,10.82Z"/>
  <path fill="#aa0060" d="M727.82,697.93c8.87,4.86,17.73,9.72,23.47,12.92-2.39,2.06-5.14,3.71-8.18,4.8l-173.79,61.91,1.24-23.47,155.19-55.28c.71-.25,1.39-.55,2.07-.87Z"/>
  <ellipse fill="#0f0f11" cx="654.77" cy="636.12" rx="29.25" ry="18.11" transform="translate(-15.11 1256.29) rotate(-86.97)"/>
  <rect fill="#c8005d" x="640.79" y="561.9" width="42.54" height="26.4" rx="13.2" ry="13.2" transform="translate(222.87 -183.96) rotate(18.97)"/>
  <ellipse fill="#0f0f11" cx="499.3" cy="627.88" rx="29.25" ry="18.11" transform="translate(-154.12 1093.24) rotate(-86.97)"/>
  <rect fill="#c8005d" x="477.22" y="553.23" width="42.54" height="26.4" rx="13.2" ry="13.2" transform="translate(1110.86 1007.29) rotate(167.1)"/>
  <path fill="#e90464" d="M871.07,739.92s6.6-4.04,16.45-10.61c.05-.04,23.68-16.79,20.92-41.88-.82-7.48-4.83-14.32-10.96-18.69-20.56-14.66-46.71-2.21-46.77-2.18,0,0,0,0,0,0-8.68-2.18-30.29-6.21-37.26,5.6-2.48,4.2-.95,8.6,2.53,12.74-1.19.7-2.36,1.4-3.49,2.1-41.83,25.91-4.49,89.57,38.54,65.7,6.24-3.46,12.91-7.68,20.04-12.78Z"/>
  <path fill="#e90464" d="M554.78,688.49c5.18,4.58,11.89,7.51,19.33,7.9,7.44.39,14.42-1.81,20.06-5.82-.4-8.93-8.52-16.35-18.86-16.9-10.34-.55-19.19,5.97-20.54,14.81Z"/>
  <path fill="#940054" d="M544.08,663c-.53,10.07,3.69,19.29,10.7,25.49,1.35-8.83,10.2-15.36,20.54-14.81,10.34.55,18.45,7.97,18.86,16.9,7.63-5.42,12.8-14.15,13.33-24.22l-63.42-3.36Z"/>
  </g>
</svg>
