<svg width="362" height="190" viewBox="0 0 362 190" fill="none" xmlns="http://www.w3.org/2000/svg">
<path fill-rule="evenodd" clip-rule="evenodd" d="M67.6691 200.502L1.39941 169.598V193.697L67.6691 224.601V200.502Z" class="theme-fill-bg theme-stroke-primary" stroke-linejoin="round"/>
<path fill-rule="evenodd" clip-rule="evenodd" d="M67.6699 200.503L133.944 169.598V193.697L67.6699 224.601V200.503Z" class="theme-fill-accent-bg theme-stroke-primary" stroke-linejoin="round"/>
<path fill-rule="evenodd" clip-rule="evenodd" d="M1.39941 169.598L67.6691 138.661L133.943 169.598L67.6691 200.502L1.39941 169.598Z" class="theme-fill-secondary theme-stroke-primary" stroke-linejoin="round"/>
<path d="M7.4209 184.458L31.5198 195.697" class="theme-stroke-primary" stroke-linecap="round" stroke-linejoin="round"/>
<path fill-rule="evenodd" clip-rule="evenodd" d="M204.698 164.402L138.429 133.498V157.597L204.698 188.501V164.402Z" class="theme-fill-bg theme-stroke-primary" stroke-linejoin="round"/>
<path fill-rule="evenodd" clip-rule="evenodd" d="M204.699 164.402L270.974 133.498V157.597L204.699 188.501V164.402Z" class="theme-fill-accent-bg theme-stroke-primary" stroke-linejoin="round"/>
<path fill-rule="evenodd" clip-rule="evenodd" d="M138.429 133.498L204.698 102.561L270.973 133.498L204.698 164.402L138.429 133.498Z" class="theme-fill-secondary theme-stroke-primary" stroke-linejoin="round"/>
<path d="M144.452 148.358L168.551 159.596" class="theme-stroke-primary" stroke-linecap="round" stroke-linejoin="round"/>
<path d="M184.217 162.375V171.408" class="theme-stroke-primary" stroke-linecap="round" stroke-linejoin="round"/>
<path d="M198.678 169.115V178.153" class="theme-stroke-accent" stroke-linecap="round" stroke-linejoin="round"/>
<path d="M195.782 167.768V176.806" class="theme-stroke-accent" stroke-linecap="round" stroke-linejoin="round"/>
<path d="M192.892 166.416V175.454" class="theme-stroke-primary" stroke-linecap="round" stroke-linejoin="round"/>
<path d="M190.002 165.069V174.107" class="theme-stroke-primary" stroke-linecap="round" stroke-linejoin="round"/>
<path d="M187.106 163.722V172.76" class="theme-stroke-primary" stroke-linecap="round" stroke-linejoin="round"/>
<path fill-rule="evenodd" clip-rule="evenodd" d="M204.698 131.773L138.429 100.869V124.968L204.698 155.872V131.773Z" class="theme-fill-bg theme-stroke-primary" stroke-linejoin="round"/>
<path fill-rule="evenodd" clip-rule="evenodd" d="M204.699 131.773L270.974 100.869V124.968L204.699 155.872V131.773Z" class="theme-fill-accent-bg theme-stroke-primary" stroke-linejoin="round"/>
<path fill-rule="evenodd" clip-rule="evenodd" d="M138.429 100.869L204.698 69.9319L270.973 100.869L204.698 131.773L138.429 100.869Z" class="theme-fill-secondary theme-stroke-primary" stroke-linejoin="round"/>
<path d="M144.452 115.729L168.551 126.968" class="theme-stroke-primary" stroke-linecap="round" stroke-linejoin="round"/>
<path d="M184.217 129.746V138.779" class="theme-stroke-primary" stroke-linecap="round" stroke-linejoin="round"/>
<path d="M198.678 136.486V145.524" class="theme-stroke-accent" stroke-linecap="round" stroke-linejoin="round"/>
<path d="M195.782 135.139V144.177" class="theme-stroke-accent" stroke-linecap="round" stroke-linejoin="round"/>
<path d="M192.892 133.787V142.825" class="theme-stroke-primary" stroke-linecap="round" stroke-linejoin="round"/>
<path d="M190.002 132.44V141.478" class="theme-stroke-primary" stroke-linecap="round" stroke-linejoin="round"/>
<path d="M187.106 131.093V140.131" class="theme-stroke-primary" stroke-linecap="round" stroke-linejoin="round"/>
<path fill-rule="evenodd" clip-rule="evenodd" d="M341.726 128.302L275.456 97.3981V121.497L341.726 152.401V128.302Z" class="theme-fill-bg theme-stroke-primary" stroke-linejoin="round"/>
<path fill-rule="evenodd" clip-rule="evenodd" d="M341.727 128.303L408.001 97.3982V121.497L341.727 152.402V128.303Z" class="theme-fill-accent-bg theme-stroke-primary" stroke-linejoin="round"/>
<path fill-rule="evenodd" clip-rule="evenodd" d="M275.456 97.3981L341.726 66.4611L408 97.3981L341.726 128.303L275.456 97.3981Z" class="theme-fill-secondary theme-stroke-primary" stroke-linejoin="round"/>
<path d="M281.479 112.258L305.577 123.497" class="theme-stroke-primary" stroke-linecap="round" stroke-linejoin="round"/>
<path d="M321.243 126.275V135.309" class="theme-stroke-primary" stroke-linecap="round" stroke-linejoin="round"/>
<path d="M335.704 133.015V142.054" class="theme-stroke-accent" stroke-linecap="round" stroke-linejoin="round"/>
<path d="M332.809 131.668V140.706" class="theme-stroke-accent" stroke-linecap="round" stroke-linejoin="round"/>
<path d="M329.918 130.316V139.355" class="theme-stroke-primary" stroke-linecap="round" stroke-linejoin="round"/>
<path d="M327.028 128.969V138.007" class="theme-stroke-primary" stroke-linecap="round" stroke-linejoin="round"/>
<path d="M324.133 127.622V136.66" class="theme-stroke-primary" stroke-linecap="round" stroke-linejoin="round"/>
<path fill-rule="evenodd" clip-rule="evenodd" d="M341.726 95.6732L275.456 64.7688V88.8677L341.726 119.772V95.6732Z" class="theme-fill-bg theme-stroke-primary" stroke-linejoin="round"/>
<path fill-rule="evenodd" clip-rule="evenodd" d="M341.727 95.6733L408.001 64.7689V88.8678L341.727 119.772V95.6733Z" class="theme-fill-accent-bg theme-stroke-primary" stroke-linejoin="round"/>
<path fill-rule="evenodd" clip-rule="evenodd" d="M275.456 64.7688L341.726 33.8318L408 64.7688L341.726 95.6732L275.456 64.7688Z" class="theme-fill-secondary theme-stroke-primary" stroke-linejoin="round"/>
<path d="M281.479 79.629L305.577 90.8674" class="theme-stroke-primary" stroke-linecap="round" stroke-linejoin="round"/>
<path d="M321.243 93.6455V102.679" class="theme-stroke-primary" stroke-linecap="round" stroke-linejoin="round"/>
<path d="M335.704 100.386V109.424" class="theme-stroke-accent" stroke-linecap="round" stroke-linejoin="round"/>
<path d="M332.809 99.0387V108.077" class="theme-stroke-accent" stroke-linecap="round" stroke-linejoin="round"/>
<path d="M329.918 97.687V106.725" class="theme-stroke-primary" stroke-linecap="round" stroke-linejoin="round"/>
<path d="M327.028 96.3398V105.378" class="theme-stroke-primary" stroke-linecap="round" stroke-linejoin="round"/>
<path d="M324.133 94.9927V104.031" class="theme-stroke-primary" stroke-linecap="round" stroke-linejoin="round"/>
<path fill-rule="evenodd" clip-rule="evenodd" d="M341.726 63.0442L275.456 32.1398V56.2387L341.726 87.1431V63.0442Z" class="theme-fill-bg theme-stroke-primary" stroke-linejoin="round"/>
<path fill-rule="evenodd" clip-rule="evenodd" d="M341.727 63.0443L408.001 32.1399V56.2388L341.727 87.1432V63.0443Z" class="theme-fill-accent-bg theme-stroke-primary" stroke-linejoin="round"/>
<path fill-rule="evenodd" clip-rule="evenodd" d="M275.456 32.1398L341.726 1.20276L408 32.1398L341.726 63.0442L275.456 32.1398Z" class="theme-fill-secondary theme-stroke-primary" stroke-linejoin="round"/>
<path d="M281.479 47L305.577 58.2384" class="theme-stroke-primary" stroke-linecap="round" stroke-linejoin="round"/>
<path d="M321.243 61.0165V70.0501" class="theme-stroke-primary" stroke-linecap="round" stroke-linejoin="round"/>
<path d="M335.704 67.7568V76.7951" class="theme-stroke-accent" stroke-linecap="round" stroke-linejoin="round"/>
<path d="M332.809 66.4097V75.4479" class="theme-stroke-accent" stroke-linecap="round" stroke-linejoin="round"/>
<path d="M329.918 65.058V74.0962" class="theme-stroke-primary" stroke-linecap="round" stroke-linejoin="round"/>
<path d="M327.028 63.7108V72.7491" class="theme-stroke-primary" stroke-linecap="round" stroke-linejoin="round"/>
<path d="M324.133 62.3636V71.4019" class="theme-stroke-primary" stroke-linecap="round" stroke-linejoin="round"/>
</svg>
