<svg width="362" height="194" viewBox="0 0 362 194" fill="none" xmlns="http://www.w3.org/2000/svg">
<path fill-rule="evenodd" clip-rule="evenodd" d="M67.6691 200.623L1.39941 169.719V193.818L67.6691 224.722V200.623Z" fill="#0F0F11" stroke="white" stroke-linejoin="round"/>
<path fill-rule="evenodd" clip-rule="evenodd" d="M67.6699 200.624L133.944 169.719V193.818L67.6699 224.722V200.624Z" fill="#232125" stroke="white" stroke-linejoin="round"/>
<path fill-rule="evenodd" clip-rule="evenodd" d="M1.39941 169.719L67.6691 138.782L133.943 169.719L67.6691 200.623L1.39941 169.719Z" fill="#151417" stroke="white" stroke-linejoin="round"/>
<path d="M7.4209 184.579L31.5198 195.818" stroke="white" stroke-linecap="round" stroke-linejoin="round"/>
<path fill-rule="evenodd" clip-rule="evenodd" d="M204.698 164.523L138.429 133.619V157.718L204.698 188.622V164.523Z" fill="#0F0F11" stroke="white" stroke-linejoin="round"/>
<path fill-rule="evenodd" clip-rule="evenodd" d="M204.699 164.523L270.974 133.619V157.718L204.699 188.622V164.523Z" fill="#232125" stroke="white" stroke-linejoin="round"/>
<path fill-rule="evenodd" clip-rule="evenodd" d="M138.429 133.619L204.698 102.682L270.973 133.619L204.698 164.523L138.429 133.619Z" fill="#151417" stroke="white" stroke-linejoin="round"/>
<path d="M144.452 148.479L168.551 159.718" stroke="white" stroke-linecap="round" stroke-linejoin="round"/>
<path d="M184.217 162.496V171.529" stroke="white" stroke-linecap="round" stroke-linejoin="round"/>
<path d="M198.678 169.236V178.274" stroke="#8001C6" stroke-linecap="round" stroke-linejoin="round"/>
<path d="M198.678 169.236V178.274" stroke="white" stroke-opacity="0.6" stroke-linecap="round" stroke-linejoin="round"/>
<path d="M195.782 167.889V176.927" stroke="#8001C6" stroke-linecap="round" stroke-linejoin="round"/>
<path d="M195.782 167.889V176.927" stroke="white" stroke-opacity="0.6" stroke-linecap="round" stroke-linejoin="round"/>
<path d="M192.892 166.537V175.575" stroke="white" stroke-linecap="round" stroke-linejoin="round"/>
<path d="M190.002 165.19V174.228" stroke="white" stroke-linecap="round" stroke-linejoin="round"/>
<path d="M187.106 163.843V172.881" stroke="white" stroke-linecap="round" stroke-linejoin="round"/>
<path fill-rule="evenodd" clip-rule="evenodd" d="M204.698 131.894L138.429 100.99V125.089L204.698 155.993V131.894Z" fill="#0F0F11" stroke="white" stroke-linejoin="round"/>
<path fill-rule="evenodd" clip-rule="evenodd" d="M204.699 131.895L270.974 100.99V125.089L204.699 155.993V131.895Z" fill="#232125" stroke="white" stroke-linejoin="round"/>
<path fill-rule="evenodd" clip-rule="evenodd" d="M138.429 100.99L204.698 70.053L270.973 100.99L204.698 131.894L138.429 100.99Z" fill="#151417" stroke="white" stroke-linejoin="round"/>
<path d="M144.452 115.85L168.551 127.089" stroke="white" stroke-linecap="round" stroke-linejoin="round"/>
<path d="M184.217 129.867V138.9" stroke="white" stroke-linecap="round" stroke-linejoin="round"/>
<path d="M198.678 136.607V145.645" stroke="#8001C6" stroke-linecap="round" stroke-linejoin="round"/>
<path d="M198.678 136.607V145.645" stroke="white" stroke-opacity="0.6" stroke-linecap="round" stroke-linejoin="round"/>
<path d="M195.782 135.26V144.298" stroke="#8001C6" stroke-linecap="round" stroke-linejoin="round"/>
<path d="M195.782 135.26V144.298" stroke="white" stroke-opacity="0.6" stroke-linecap="round" stroke-linejoin="round"/>
<path d="M192.892 133.908V142.946" stroke="white" stroke-linecap="round" stroke-linejoin="round"/>
<path d="M190.002 132.561V141.599" stroke="white" stroke-linecap="round" stroke-linejoin="round"/>
<path d="M187.106 131.214V140.252" stroke="white" stroke-linecap="round" stroke-linejoin="round"/>
<path fill-rule="evenodd" clip-rule="evenodd" d="M341.726 128.424L275.456 97.5192V121.618L341.726 152.522V128.424Z" fill="#0F0F11" stroke="white" stroke-linejoin="round"/>
<path fill-rule="evenodd" clip-rule="evenodd" d="M341.727 128.424L408.001 97.5193V121.618L341.727 152.523V128.424Z" fill="#232125" stroke="white" stroke-linejoin="round"/>
<path fill-rule="evenodd" clip-rule="evenodd" d="M275.456 97.5192L341.726 66.5822L408 97.5192L341.726 128.424L275.456 97.5192Z" fill="#151417" stroke="white" stroke-linejoin="round"/>
<path d="M281.479 112.38L305.577 123.618" stroke="white" stroke-linecap="round" stroke-linejoin="round"/>
<path d="M321.243 126.396V135.43" stroke="white" stroke-linecap="round" stroke-linejoin="round"/>
<path d="M335.704 133.136V142.175" stroke="#8001C6" stroke-linecap="round" stroke-linejoin="round"/>
<path d="M335.704 133.136V142.175" stroke="white" stroke-opacity="0.6" stroke-linecap="round" stroke-linejoin="round"/>
<path d="M332.809 131.789V140.827" stroke="#8001C6" stroke-linecap="round" stroke-linejoin="round"/>
<path d="M332.809 131.789V140.827" stroke="white" stroke-opacity="0.6" stroke-linecap="round" stroke-linejoin="round"/>
<path d="M329.918 130.438V139.476" stroke="white" stroke-linecap="round" stroke-linejoin="round"/>
<path d="M327.028 129.09V138.129" stroke="white" stroke-linecap="round" stroke-linejoin="round"/>
<path d="M324.133 127.743V136.781" stroke="white" stroke-linecap="round" stroke-linejoin="round"/>
<path fill-rule="evenodd" clip-rule="evenodd" d="M341.726 95.7943L275.456 64.8899V88.9888L341.726 119.893V95.7943Z" fill="#0F0F11" stroke="white" stroke-linejoin="round"/>
<path fill-rule="evenodd" clip-rule="evenodd" d="M341.727 95.7944L408.001 64.89V88.9889L341.727 119.893V95.7944Z" fill="#232125" stroke="white" stroke-linejoin="round"/>
<path fill-rule="evenodd" clip-rule="evenodd" d="M275.456 64.8899L341.726 33.9529L408 64.8899L341.726 95.7943L275.456 64.8899Z" fill="#151417" stroke="white" stroke-linejoin="round"/>
<path d="M281.479 79.7501L305.577 90.9885" stroke="white" stroke-linecap="round" stroke-linejoin="round"/>
<path d="M321.243 93.7666V102.8" stroke="white" stroke-linecap="round" stroke-linejoin="round"/>
<path d="M335.704 100.507V109.545" stroke="#8001C6" stroke-linecap="round" stroke-linejoin="round"/>
<path d="M335.704 100.507V109.545" stroke="white" stroke-opacity="0.6" stroke-linecap="round" stroke-linejoin="round"/>
<path d="M332.809 99.1598V108.198" stroke="#8001C6" stroke-linecap="round" stroke-linejoin="round"/>
<path d="M332.809 99.1598V108.198" stroke="white" stroke-opacity="0.6" stroke-linecap="round" stroke-linejoin="round"/>
<path d="M329.918 97.8081V106.846" stroke="white" stroke-linecap="round" stroke-linejoin="round"/>
<path d="M327.028 96.4609V105.499" stroke="white" stroke-linecap="round" stroke-linejoin="round"/>
<path d="M324.133 95.1138V104.152" stroke="white" stroke-linecap="round" stroke-linejoin="round"/>
<path fill-rule="evenodd" clip-rule="evenodd" d="M341.726 63.1653L275.456 32.2609V56.3598L341.726 87.2642V63.1653Z" fill="#0F0F11" stroke="white" stroke-linejoin="round"/>
<path fill-rule="evenodd" clip-rule="evenodd" d="M341.727 63.1654L408.001 32.261V56.3599L341.727 87.2643V63.1654Z" fill="#232125" stroke="white" stroke-linejoin="round"/>
<path fill-rule="evenodd" clip-rule="evenodd" d="M275.456 32.2609L341.726 1.32385L408 32.2609L341.726 63.1653L275.456 32.2609Z" fill="#151417" stroke="white" stroke-linejoin="round"/>
<path d="M281.479 47.1211L305.577 58.3595" stroke="white" stroke-linecap="round" stroke-linejoin="round"/>
<path d="M321.243 61.1376V70.1712" stroke="white" stroke-linecap="round" stroke-linejoin="round"/>
<path d="M335.704 67.8779V76.9162" stroke="#8001C6" stroke-linecap="round" stroke-linejoin="round"/>
<path d="M335.704 67.8779V76.9162" stroke="white" stroke-opacity="0.6" stroke-linecap="round" stroke-linejoin="round"/>
<path d="M332.809 66.5308V75.569" stroke="#8001C6" stroke-linecap="round" stroke-linejoin="round"/>
<path d="M332.809 66.5308V75.569" stroke="white" stroke-opacity="0.6" stroke-linecap="round" stroke-linejoin="round"/>
<path d="M329.918 65.1791V74.2173" stroke="white" stroke-linecap="round" stroke-linejoin="round"/>
<path d="M327.028 63.8319V72.8702" stroke="white" stroke-linecap="round" stroke-linejoin="round"/>
<path d="M324.133 62.4847V71.523" stroke="white" stroke-linecap="round" stroke-linejoin="round"/>
</svg>
