<svg
  width="216"
  height="259"
  viewBox="0 0 216 259"
  fill="none"
  xmlns="http://www.w3.org/2000/svg"
>
  <path
    fill-rule="evenodd"
    clip-rule="evenodd"
    d="M145.45 156.483C152.516 149.306 156.413 139.81 156.413 129.711C156.413 119.611 152.528 110.128 145.45 102.939L158.571 89.8181C180.385 111.879 180.385 147.53 158.571 169.579L145.45 156.458V156.483Z"
    fill="#F11653"
  />
  <path
    d="M158.558 90.2744C168.941 100.88 174.639 114.864 174.639 129.723C174.639 144.583 168.929 158.567 158.558 169.172L145.881 156.495C152.873 149.281 156.721 139.798 156.721 129.735C156.721 119.673 152.873 110.19 145.881 102.976L158.558 90.2991M158.558 89.4236L145.006 102.976C159.791 117.762 159.791 141.722 145.006 156.507L158.558 170.06C180.829 147.789 180.829 111.694 158.558 89.4236Z"
    fill="black"
  />
  <path
    fill-rule="evenodd"
    clip-rule="evenodd"
    d="M71.7685 156.483C56.9829 141.697 56.9829 117.737 71.7685 102.951L58.2161 89.3989C35.9452 111.67 35.9452 147.764 58.2161 170.035L71.7685 156.483Z"
    fill="#8514F5"
    stroke="black"
    stroke-width="0.93421"
    stroke-miterlimit="10"
  />
  <path
    fill-rule="evenodd"
    clip-rule="evenodd"
    d="M174.195 185.228C204.629 154.547 204.629 104.875 174.195 74.2064L187.303 61.0856C205.554 79.4473 215.604 103.815 215.604 129.711C215.604 155.607 205.554 179.974 187.303 198.336L174.195 185.215V185.228Z"
    fill="#F11653"
  />
  <path
    d="M187.303 61.5295C224.569 99.2641 224.569 160.182 187.303 197.917L174.626 185.24C189.301 170.343 197.366 150.662 197.366 129.723C197.366 108.784 189.301 89.1029 174.626 74.2063L187.303 61.5295ZM187.303 60.6539L173.751 74.2063C204.407 104.863 204.407 154.571 173.751 185.228L187.303 198.78C225.445 160.638 225.445 98.7955 187.303 60.6539Z"
    fill="black"
  />
  <path
    fill-rule="evenodd"
    clip-rule="evenodd"
    d="M43.0236 185.24C12.3673 154.584 12.3673 104.875 43.0236 74.2188L29.4712 60.6664C-8.6704 98.808 -8.6704 160.651 29.4712 198.792L43.0236 185.24Z"
    fill="#8514F5"
    stroke="black"
    stroke-width="0.93421"
    stroke-miterlimit="10"
  />
  <path
    fill-rule="evenodd"
    clip-rule="evenodd"
    d="M135.227 155.434C150.012 140.649 150.012 116.689 135.227 101.903L148.779 88.3507C171.05 110.622 171.05 146.716 148.779 168.987L135.227 155.434Z"
    fill="white"
    stroke="black"
    stroke-width="0.93421"
    stroke-miterlimit="10"
  />
  <path
    fill-rule="evenodd"
    clip-rule="evenodd"
    d="M81.7077 155.434C66.9221 140.649 66.9221 116.689 81.7077 101.903L68.1553 88.3507C45.8844 110.622 45.8844 146.716 68.1553 168.987L81.7077 155.434Z"
    fill="white"
    stroke="black"
    stroke-width="0.93421"
    stroke-miterlimit="10"
  />
  <path
    fill-rule="evenodd"
    clip-rule="evenodd"
    d="M163.972 184.179C194.628 153.523 194.628 103.815 163.972 73.1582L177.524 59.6058C215.666 97.7474 215.666 159.59 177.524 197.732L163.972 184.179Z"
    fill="white"
    stroke="black"
    stroke-width="0.93421"
    stroke-miterlimit="10"
  />
  <path
    fill-rule="evenodd"
    clip-rule="evenodd"
    d="M52.9628 184.179C22.3065 153.523 22.3065 103.815 52.9628 73.1582L39.4104 59.6058C1.2688 97.7474 1.2688 159.59 39.4104 197.732L52.9628 184.179Z"
    fill="white"
    stroke="black"
    stroke-width="0.93421"
    stroke-miterlimit="10"
  />
  <path
    d="M127.754 128.527C127.754 139.107 119.085 147.69 108.393 147.69C97.7018 147.69 89.0327 139.107 89.0327 128.527C89.0327 117.946 97.7018 109.364 108.393 109.364C119.085 109.364 127.754 117.946 127.754 128.527Z"
    fill="white"
    stroke="var(--primary-contrast)"
    stroke-width="0.93421"
    stroke-miterlimit="10"
  />
  <path
    d="M111.698 81.593V5.18655"
    stroke="var(--primary-contrast)"
    stroke-width="0.93421"
    stroke-miterlimit="10"
  />
  <path
    d="M114.769 6.08679L111.698 0.759552L108.628 6.08679H114.769Z"
    fill="var(--primary-contrast)"
  />
  <path
    d="M94.2489 82.2466L59.1779 47.188"
    stroke="var(--primary-contrast)"
    stroke-width="0.766053"
    stroke-miterlimit="10"
  />
  <path
    d="M61.4592 45.9424L56.6376 44.6476L57.9324 49.4693L61.4592 45.9424Z"
    fill="var(--primary-contrast)"
  />
  <path
    d="M129.147 82.2466L164.218 47.188"
    stroke="var(--primary-contrast)"
    stroke-width="0.766053"
    stroke-miterlimit="10"
  />
  <path
    d="M165.464 49.4693L166.759 44.6476L161.937 45.9424L165.464 49.4693Z"
    fill="var(--primary-contrast)"
  />
  <path
    d="M111.698 177.853V254.26"
    stroke="var(--primary-contrast)"
    stroke-width="0.93421"
    stroke-miterlimit="10"
  />
  <path
    d="M108.628 253.36L111.698 258.687L114.769 253.36H108.628Z"
    fill="var(--primary-contrast)"
  />
  <path
    d="M129.147 177.187L164.218 212.258"
    stroke="var(--primary-contrast)"
    stroke-width="0.766053"
    stroke-miterlimit="10"
  />
  <path
    d="M161.937 213.504L166.759 214.799L165.464 209.977L161.937 213.504Z"
    fill="var(--primary-contrast)"
  />
  <path
    d="M94.2489 177.187L59.1779 212.258"
    stroke="var(--primary-contrast)"
    stroke-width="0.766053"
    stroke-miterlimit="10"
  />
  <path
    d="M57.9324 209.977L56.6376 214.799L61.4592 213.504L57.9324 209.977Z"
    fill="var(--primary-contrast)"
  />
</svg>
