<svg
  width="207"
  height="243"
  viewBox="0 0 207 243"
  fill="none"
  xmlns="http://www.w3.org/2000/svg"
>
  <g>
    <path
      d="M175.344 68.2852H32.0263C29.1795 68.2852 26.8717 70.5929 26.8717 73.4398V162.375C26.8717 165.222 29.1795 167.53 32.0263 167.53H175.344C178.191 167.53 180.499 165.222 180.499 162.375V73.4398C180.499 70.5929 178.191 68.2852 175.344 68.2852Z"
      fill="var(--senary-contrast)"
      style="mix-blend-mode: multiply; transition: opacity 0.3s ease;"
      opacity=".7"
    />
  </g>
  <g style="mix-blend-mode: color-burn;">
    <path
      d="M165.96 47.1982H7.96734C4.11939 47.1982 1 50.3176 1 54.1656V235.773C1 239.621 4.11939 242.74 7.96734 242.74H165.96C169.807 242.74 172.927 239.621 172.927 235.773V54.1656C172.927 50.3176 169.807 47.1982 165.96 47.1982Z"
      stroke="var(--primary-contrast)"
      stroke-width="0.36"
      stroke-miterlimit="10"
    />
  </g>
  <path
    d="M160.398 180.441H13.5535C13.322 180.441 13.1343 180.629 13.1343 180.86V196.756C13.1343 196.987 13.322 197.175 13.5535 197.175H160.398C160.63 197.175 160.817 196.987 160.817 196.756V180.86C160.817 180.629 160.63 180.441 160.398 180.441Z"
    stroke="var(--primary-contrast)"
    stroke-width="0.5"
    stroke-miterlimit="10"
  />
  <path
    d="M160.398 209.901H13.5535C13.322 209.901 13.1343 210.089 13.1343 210.32V226.216C13.1343 226.447 13.322 226.635 13.5535 226.635H160.398C160.63 226.635 160.817 226.447 160.817 226.216V210.32C160.817 210.089 160.63 209.901 160.398 209.901Z"
    stroke="var(--primary-contrast)"
    stroke-width="0.5"
    stroke-miterlimit="10"
  />
  <path
    d="M163.604 175.286H20.6073C19.3133 175.286 18.2643 176.335 18.2643 177.629V189.677C18.2643 190.971 19.3133 192.02 20.6073 192.02H163.604C164.898 192.02 165.947 190.971 165.947 189.677V177.629C165.947 176.335 164.898 175.286 163.604 175.286Z"
    fill="#F637E3"
    stroke="black"
    stroke-width="0.5"
    stroke-miterlimit="10"
  />
  <path
    d="M163.604 204.746H20.6073C19.3133 204.746 18.2643 205.795 18.2643 207.089V219.137C18.2643 220.431 19.3133 221.48 20.6073 221.48H163.604C164.898 221.48 165.947 220.431 165.947 219.137V207.089C165.947 205.795 164.898 204.746 163.604 204.746Z"
    fill="#F11653"
    stroke="black"
    stroke-width="0.5"
    stroke-miterlimit="10"
  />
  <path
    d="M37.5631 18.7H29.6832V26.5798H37.5631V18.7Z"
    stroke="var(--primary-contrast)"
    stroke-width="0.5"
    stroke-miterlimit="10"
  />
  <path
    d="M22.457 0.362793H18.2643V4.55553H22.457V0.362793Z"
    stroke="var(--primary-contrast)"
    stroke-width="0.5"
    stroke-miterlimit="10"
  />
  <path
    d="M1 60.0847H172.915"
    stroke="var(--primary-contrast)"
    stroke-width="0.38"
    stroke-miterlimit="10"
  />

  <path
    d="M157.266 73.9371H16.6858C14.7243 73.9371 13.1343 75.5271 13.1343 77.4886V156.953C13.1343 158.915 14.7243 160.505 16.6858 160.505H157.266C159.227 160.505 160.817 158.915 160.817 156.953V77.4886C160.817 75.5271 159.227 73.9371 157.266 73.9371Z"
    stroke="var(--primary-contrast)"
    stroke-width="0.46"
    stroke-miterlimit="10"
  />

  <path
    d="M188.021 34.6692H51.8307C48.657 34.6692 46.0842 37.242 46.0842 40.4157V129.265C46.0842 132.438 48.657 135.011 51.8307 135.011H188.021C191.194 135.011 193.767 132.438 193.767 129.265V40.4157C193.767 37.242 191.194 34.6692 188.021 34.6692Z"
    fill="#8514F5"
    stroke="black"
    stroke-width="0.5"
    stroke-miterlimit="10"
  />
  <path
    d="M192.694 141.017L206.111 139.981L181.423 126.342L188.243 153.718L192.694 141.017Z"
    fill="white"
    stroke="black"
    stroke-width="0.5"
    stroke-miterlimit="10"
  />
  <path
    d="M60.0066 108.757L89.6517 73.2176L111.232 97.4985L141.506 61.0957L179.857 108.757H60.0066Z"
    fill="white"
  />
  <path
    d="M141.506 61.5769L179.216 108.449H60.6725L89.6517 73.6865L110.763 97.4371L111.244 97.9673L111.701 97.4124L141.506 61.5645M141.506 60.5903L111.22 97.0178L89.6394 72.7369L59.353 109.053H180.498L141.506 60.5903Z"
    fill="black"
  />
  <path
    d="M46.0842 108.733H193.767"
    stroke="black"
    stroke-width="0.5"
    stroke-miterlimit="10"
  />
  <path
    d="M77.7147 48.3081C88.0872 48.3081 96.4957 39.8995 96.4957 29.5271C96.4957 19.1546 88.0872 10.7461 77.7147 10.7461C67.3422 10.7461 58.9337 19.1546 58.9337 29.5271C58.9337 39.8995 67.3422 48.3081 77.7147 48.3081Z"
    fill="#F637E3"
    stroke="black"
    stroke-width="0.5"
    stroke-miterlimit="10"
  />
  <path
    d="M77.7147 32.2647C81.4197 32.2647 84.4231 29.2612 84.4231 25.5563C84.4231 21.8513 81.4197 18.8479 77.7147 18.8479C74.0098 18.8479 71.0063 21.8513 71.0063 25.5563C71.0063 29.2612 74.0098 32.2647 77.7147 32.2647Z"
    fill="white"
    stroke="black"
    stroke-width="0.5"
    stroke-miterlimit="10"
  />
  <path
    d="M77.7147 36.519C73.4726 36.519 65.2598 38.7264 64.3843 42.7588C67.7878 46.187 72.4985 48.3204 77.7147 48.3204C82.931 48.3204 87.6416 46.1993 91.0451 42.7588C90.1696 38.7264 81.9444 36.519 77.7147 36.519Z"
    fill="white"
    stroke="black"
    stroke-width="0.5"
    stroke-miterlimit="10"
  />
  <path
    d="M9.86641 55.5465C10.7245 55.5465 11.4202 54.8509 11.4202 53.9927C11.4202 53.1346 10.7245 52.439 9.86641 52.439C9.00828 52.439 8.31262 53.1346 8.31262 53.9927C8.31262 54.8509 9.00828 55.5465 9.86641 55.5465Z"
    stroke="var(--primary-contrast)"
    stroke-width="0.5"
    stroke-miterlimit="10"
  />
  <path
    d="M15.7979 55.5465C16.6561 55.5465 17.3517 54.8509 17.3517 53.9927C17.3517 53.1346 16.6561 52.439 15.7979 52.439C14.9398 52.439 14.2441 53.1346 14.2441 53.9927C14.2441 54.8509 14.9398 55.5465 15.7979 55.5465Z"
    stroke="var(--primary-contrast)"
    stroke-width="0.5"
    stroke-miterlimit="10"
  />
  <path
    d="M21.7294 55.5465C22.5876 55.5465 23.2832 54.8509 23.2832 53.9927C23.2832 53.1346 22.5876 52.439 21.7294 52.439C20.8713 52.439 20.1757 53.1346 20.1757 53.9927C20.1757 54.8509 20.8713 55.5465 21.7294 55.5465Z"
    stroke="var(--primary-contrast)"
    stroke-width="0.5"
    stroke-miterlimit="10"
  />
</svg>
