<svg
  width="297"
  height="205"
  viewBox="0 0 297 205"
  fill="none"
  xmlns="http://www.w3.org/2000/svg"
  class="docs-what-is-angular-svg"
  style="overflow: visible"
>
  <g style="mix-blend-mode: multiply;">
    <path
      d="M63.2808 128.703H13.5968C9.45343 128.703 6.08691 132.07 6.08691 136.213V157.362C6.08691 161.505 9.45343 164.872 13.5968 164.872H50.234L60.7158 173.948V164.872H63.2808C67.4242 164.872 70.7907 161.505 70.7907 157.362V136.213C70.7907 132.07 67.4242 128.703 63.2808 128.703Z"
      fill="var(--senary-contrast)"
    />
  </g>
  <g style="mix-blend-mode: multiply;">
    <path
      d="M239.289 43.5782H288.973C293.116 43.5782 296.483 46.9448 296.483 51.0882V72.2368C296.483 76.3803 293.116 79.7468 288.973 79.7468H252.336L241.854 88.8228V79.7468H239.289C235.146 79.7468 231.779 76.3803 231.779 72.2368V51.0882C231.779 46.9448 235.146 43.5782 239.289 43.5782Z"
      fill="var(--senary-contrast)"
    />
  </g>
  <path
    d="M235.713 39.3488H285.397C289.54 39.3488 292.906 42.7153 292.906 46.8587V68.0074C292.906 72.1508 289.54 75.5173 285.397 75.5173H248.759L238.278 84.5933V75.5173H235.713C231.569 75.5173 228.203 72.1508 228.203 68.0074V46.8587C228.203 42.7153 231.569 39.3488 235.713 39.3488Z"
    fill="white"
    stroke="var(--primary-contrast)"
    stroke-width="0.93421"
    stroke-miterlimit="10"
  />
  <path
    d="M148.615 185.737C192.556 185.737 228.178 150.115 228.178 106.173C228.178 62.2318 192.556 26.6101 148.615 26.6101C104.673 26.6101 69.0513 62.2318 69.0513 106.173C69.0513 150.115 104.673 185.737 148.615 185.737Z"
    stroke="var(--primary-contrast)"
    stroke-width="0.93421"
    stroke-miterlimit="10"
  />
  <path
    d="M173.322 181.818C201.095 172.746 212.548 131.53 198.904 89.7605C185.26 47.9909 151.684 21.4845 123.911 30.5567C96.1383 39.629 84.6847 80.8445 98.329 122.614C111.973 164.384 145.549 190.89 173.322 181.818Z"
    stroke="var(--primary-contrast)"
    stroke-width="0.93421"
    stroke-miterlimit="10"
  />
  <path
    d="M173.321 181.818C184.546 178.151 182.586 141.317 168.941 99.5474C155.297 57.7778 135.136 26.8896 123.91 30.5565C112.684 34.2235 114.645 71.0571 128.289 112.827C141.934 154.596 162.095 185.485 173.321 181.818Z"
    stroke="var(--primary-contrast)"
    stroke-width="0.93421"
    stroke-miterlimit="10"
  />
  <path
    d="M135.676 66.5675C164.802 57.0532 186.542 43.6094 184.232 36.54C181.923 29.4705 156.44 31.4523 127.314 40.9665C98.1875 50.4808 76.4482 63.9246 78.7575 70.9941C81.0668 78.0636 106.55 76.0817 135.676 66.5675Z"
    stroke="var(--primary-contrast)"
    stroke-width="0.93421"
    stroke-miterlimit="10"
  />
  <path
    d="M144.433 93.3979C182.597 80.9314 211.081 63.3153 208.055 54.0512C205.029 44.787 171.638 47.383 133.474 59.8494C95.3105 72.3158 66.826 89.9319 69.8522 99.1961C72.8784 108.46 106.269 105.864 144.433 93.3979Z"
    stroke="var(--primary-contrast)"
    stroke-width="0.93421"
    stroke-miterlimit="10"
  />
  <path
    d="M153.616 121.498C195.386 107.854 226.562 88.5745 223.251 78.4364C219.939 68.2983 183.393 71.1406 141.624 84.785C99.8541 98.4293 68.6778 117.709 71.9895 127.847C75.3012 137.985 111.847 135.143 153.616 121.498Z"
    stroke="var(--primary-contrast)"
    stroke-width="0.93421"
    stroke-miterlimit="10"
  />
  <path
    d="M162.397 148.23C201.901 135.326 231.301 116.83 228.063 106.919C224.825 97.0072 190.177 99.4333 150.673 112.337C111.169 125.242 81.7697 143.737 85.0073 153.649C88.245 163.56 122.894 161.134 162.397 148.23Z"
    stroke="var(--primary-contrast)"
    stroke-width="0.93421"
    stroke-miterlimit="10"
  />
  <path
    d="M168.898 168.485C200.446 158.18 223.932 143.434 221.356 135.548C218.78 127.663 191.118 129.625 159.571 139.93C128.023 150.235 104.537 164.981 107.113 172.867C109.689 180.752 137.351 178.79 168.898 168.485Z"
    stroke="var(--primary-contrast)"
    stroke-width="0.93421"
    stroke-miterlimit="10"
  />
  <path
    d="M232.149 7.11401H224.269V14.9939H232.149V7.11401Z"
    fill="var(--page-background)"
    stroke="var(--primary-contrast)"
    stroke-width="0.93421"
    stroke-miterlimit="10"
  />
  <path
    d="M24.0278 34.2435H16.1479V42.1234H24.0278V34.2435Z"
    fill="var(--page-background)"
    stroke="var(--primary-contrast)"
    stroke-width="0.93421"
    stroke-miterlimit="10"
  />
  <path
    d="M200.902 22.3925H196.709V26.5852H200.902V22.3925Z"
    fill="var(--page-background)"
    stroke="var(--primary-contrast)"
    stroke-width="0.93421"
    stroke-miterlimit="10"
  />
  <path
    d="M8.91125 15.9064H4.71851V20.0991H8.91125V15.9064Z"
    fill="var(--page-background)"
    stroke="var(--primary-contrast)"
    stroke-width="0.93421"
    stroke-miterlimit="10"
  />
  <path
    d="M258.834 110.305H254.642V114.497H258.834V110.305Z"
    fill="var(--page-background)"
    stroke="var(--primary-contrast)"
    stroke-width="0.93421"
    stroke-miterlimit="10"
  />
  <path
    d="M4.71813 98.2441H0.525391V102.437H4.71813V98.2441Z"
    fill="var(--page-background)"
    stroke="var(--primary-contrast)"
    stroke-width="0.93421"
    stroke-miterlimit="10"
  />
  <path
    d="M44.1047 96.1231C46.0038 54.1587 74.798 19.211 113.643 8.08789"
    stroke="#F637E3"
    stroke-width="0.93421"
    stroke-miterlimit="10"
  />
  <path
    d="M47.312 95.3584L44.0072 100.55L41.1709 95.0995L47.312 95.3584Z"
    fill="#F637E3"
  />
  <path
    d="M113.644 11.3681L117.935 6.96576L111.967 5.44897L113.644 11.3681Z"
    fill="#F637E3"
  />
  <path
    d="M240.028 140.714C226.131 177.684 190.443 204 148.614 204C125.419 204 104.11 195.91 87.3633 182.395"
    stroke="var(--primary-contrast)"
    stroke-width="0.93421"
    stroke-miterlimit="10"
  />
  <path
    d="M236.775 140.467L241.498 136.546L242.534 142.601L236.775 140.467Z"
    fill="var(--primary-contrast)"
  />
  <path
    d="M90.051 180.496L83.9839 179.547L86.1912 185.281L90.051 180.496Z"
    fill="var(--primary-contrast)"
  />
  <path
    d="M260.562 69.5858C260.488 69.5858 260.414 69.5488 260.316 69.4748C257.258 67.1195 254.027 64.5669 251.141 61.558C249.735 60.1028 248.169 58.3641 247.281 56.2431C246.393 54.1097 246.393 51.7297 247.294 49.7196C248.145 47.8206 249.748 46.3778 251.795 45.6749C252.165 45.5516 252.547 45.4776 252.929 45.3913C253.114 45.3543 253.299 45.3173 253.484 45.2679H254.742C254.927 45.3419 255.186 45.4036 255.457 45.4776C256.024 45.6256 256.616 45.7735 257.147 45.9832C258.33 46.4641 259.366 47.3396 260.291 48.6591L260.525 48.9798L261.08 48.3262C261.29 48.0795 261.487 47.8329 261.697 47.6109C262.893 46.3408 264.373 45.6009 266.087 45.3789C266.198 45.3666 266.297 45.3296 266.383 45.2926H267.702C267.863 45.3296 268.109 45.3913 268.356 45.4406C268.886 45.5639 269.392 45.6749 269.848 45.8845C272.573 47.0807 274.115 49.1894 274.423 52.149C274.694 54.6523 273.881 56.909 271.809 59.4739C269.17 62.7171 265.976 65.3684 262.918 67.8101C262.572 68.0937 262.215 68.365 261.857 68.6363C261.512 68.9076 261.167 69.1665 260.821 69.4378C260.71 69.5365 260.612 69.5735 260.525 69.5735L260.562 69.5858Z"
    fill="#F11653"
  />
  <path
    d="M267.638 45.5885C267.86 45.6502 268.082 45.6995 268.304 45.7488C268.822 45.8721 269.303 45.9831 269.747 46.1681C272.398 47.3396 273.841 49.3003 274.149 52.1736C274.408 54.5906 273.619 56.7733 271.597 59.2642C268.982 62.4828 265.788 65.1217 262.755 67.5634C262.409 67.847 262.052 68.1183 261.694 68.3896C261.349 68.6486 261.004 68.9199 260.671 69.1912C260.609 69.2405 260.572 69.2528 260.572 69.2651C260.572 69.2651 260.547 69.2528 260.51 69.2282C257.465 66.8728 254.246 64.3325 251.36 61.3359C249.979 59.8931 248.438 58.1914 247.562 56.1074C246.699 54.0603 246.711 51.7666 247.575 49.8306C248.388 48.0055 249.918 46.6244 251.891 45.9461C252.236 45.8228 252.594 45.7612 252.988 45.6748C253.148 45.6378 253.321 45.6132 253.481 45.5762H254.653C254.887 45.6378 255.134 45.6995 255.38 45.7612C255.96 45.9091 256.515 46.0448 257.033 46.2544C258.167 46.7107 259.154 47.5492 260.042 48.8194L260.498 49.473L261.016 48.8687C261.127 48.7454 261.226 48.6221 261.324 48.4988C261.522 48.2521 261.719 48.0178 261.929 47.7959C263.075 46.5874 264.494 45.8721 266.134 45.6625C266.282 45.6502 266.405 45.6008 266.504 45.5638H267.638M267.724 44.9473H266.393C266.282 44.9843 266.171 45.0336 266.06 45.0583C264.259 45.2802 262.73 46.0571 261.485 47.3766C261.164 47.7095 260.88 48.0795 260.547 48.4618C259.672 47.2286 258.636 46.2298 257.267 45.6748C256.466 45.3542 255.59 45.1816 254.739 44.9473H253.407C252.828 45.0829 252.236 45.1569 251.681 45.3542C246.909 47.0066 245.207 52.0749 246.983 56.3293C247.858 58.438 249.35 60.1274 250.904 61.7429C253.728 64.6778 256.897 67.2181 260.116 69.6968C260.264 69.8077 260.412 69.8694 260.547 69.8694C260.708 69.8694 260.868 69.7954 261.041 69.6598C261.731 69.1048 262.446 68.5869 263.125 68.032C266.319 65.467 269.463 62.8404 272.065 59.6465C273.853 57.4515 275.074 55.0468 274.753 52.0996C274.42 49.0167 272.817 46.834 269.993 45.5885C269.278 45.2679 268.477 45.1569 267.712 44.9473H267.724Z"
    fill="black"
  />
  <path
    d="M80.2482 77.4411C80.2482 70.9917 74.8223 65.8124 68.2989 66.2193C62.6881 66.5646 58.1254 71.1273 57.7801 76.7382C57.7061 78.0453 57.8417 79.3155 58.187 80.5116C58.4213 81.3625 58.7666 82.1641 59.1859 82.9163L59.2352 83.015C59.2352 83.015 59.2352 83.0273 59.2352 83.0396L67.7933 98.5157C68.3236 99.4653 69.6801 99.4653 70.2103 98.5157L78.8301 82.9286C79.7303 81.3132 80.2482 79.4511 80.2482 77.4657V77.4411ZM69.0018 81.8188C66.8315 81.8188 65.0804 80.0677 65.0804 77.8974C65.0804 75.727 66.8315 73.9759 69.0018 73.9759C71.1722 73.9759 72.9233 75.727 72.9233 77.8974C72.9233 80.0677 71.1722 81.8188 69.0018 81.8188Z"
    fill="#F11653"
    stroke="black"
    stroke-width="0.93421"
    stroke-miterlimit="10"
  />
  <path
    d="M210.791 133.525C210.791 127.075 205.365 121.896 198.829 122.303C193.218 122.648 188.656 127.211 188.31 132.822C188.236 134.129 188.372 135.399 188.717 136.595C188.952 137.446 189.297 138.248 189.716 139L189.765 139.099C189.765 139.099 189.765 139.111 189.765 139.123L198.324 154.599C198.854 155.549 200.21 155.549 200.741 154.599L209.36 139.012C210.261 137.397 210.778 135.535 210.778 133.549L210.791 133.525ZM199.544 137.902C197.374 137.902 195.623 136.151 195.623 133.981C195.623 131.811 197.374 130.06 199.544 130.06C201.715 130.06 203.466 131.811 203.466 133.981C203.466 136.151 201.715 137.902 199.544 137.902Z"
    fill="#8514F5"
    stroke="black"
    stroke-width="0.93421"
    stroke-miterlimit="10"
  />
  <path
    d="M144.349 105.064C144.349 98.6142 138.923 93.435 132.387 93.8419C126.776 94.1872 122.214 98.7499 121.868 104.361C121.794 105.668 121.93 106.938 122.275 108.134C122.509 108.985 122.855 109.787 123.274 110.539L123.323 110.638C123.323 110.638 123.323 110.65 123.323 110.662L131.881 126.138C132.412 127.088 133.768 127.088 134.298 126.138L142.918 110.551C143.818 108.936 144.336 107.074 144.336 105.088L144.349 105.064ZM133.102 109.441C130.932 109.441 129.181 107.69 129.181 105.52C129.181 103.35 130.932 101.598 133.102 101.598C135.273 101.598 137.024 103.35 137.024 105.52C137.024 107.69 135.273 109.441 133.102 109.441Z"
    fill="#F637E3"
    stroke="black"
    stroke-width="0.93421"
    stroke-miterlimit="10"
  />
  <path
    d="M57.7813 123.586H8.09733C3.95392 123.586 0.587402 126.952 0.587402 131.096V152.244C0.587402 156.388 3.95392 159.754 8.09733 159.754H44.7344L55.2163 168.83V159.754H57.7813C61.9247 159.754 65.2912 156.388 65.2912 152.244V131.096C65.2912 126.952 61.9247 123.586 57.7813 123.586Z"
    fill="#8514F5"
    stroke="black"
    stroke-width="0.93421"
    stroke-miterlimit="10"
  />
  <path
    d="M59.2344 133.241H6.65259V136.127H59.2344V133.241Z"
    fill="white"
    stroke="black"
    stroke-width="0.93421"
    stroke-miterlimit="10"
  />
  <path
    d="M59.2344 140.776H6.65259V143.661H59.2344V140.776Z"
    fill="white"
    stroke="black"
    stroke-width="0.93421"
    stroke-miterlimit="10"
  />
  <path
    d="M37.8268 148.31H6.65259V151.196H37.8268V148.31Z"
    fill="white"
    stroke="black"
    stroke-width="0.93421"
    stroke-miterlimit="10"
  />
  <defs><linearGradient id="wia-hero-linear-gradient" x1="727.41" y1="596.44" x2="869.08" y2="805.48" gradientUnits="userSpaceOnUse"><stop offset="0" stop-color="#5c44e4"/><stop offset=".41" stop-color="#5941e1"/><stop offset=".7" stop-color="#4f3bda"/><stop offset=".96" stop-color="#4030ce"/><stop offset="1" stop-color="#3d2ecc"/></linearGradient><linearGradient id="wia-hero-linear-gradient-2" x1="625.39" y1="183.79" x2="625.39" y2="455.19" gradientUnits="userSpaceOnUse"><stop offset="0" stop-color="#e90464"/><stop offset=".17" stop-color="#e10362"/><stop offset=".58" stop-color="#d50260"/><stop offset="1" stop-color="#d20260"/></linearGradient><linearGradient id="wia-hero-linear-gradient-3" x1="577.08" y1="917.25" x2="577.08" y2="777.39" gradientUnits="userSpaceOnUse"><stop offset="0" stop-color="#eadbe7"/><stop offset=".36" stop-color="#e8d9e5"/><stop offset=".49" stop-color="#e4d2e1"/><stop offset=".58" stop-color="#dcc6da"/><stop offset=".61" stop-color="#d8c0d6"/></linearGradient><linearGradient id="wia-hero-linear-gradient-4" x1="364.3" y1="917.25" x2="364.3" y2="748.28" href="#wia-hero-linear-gradient-3"/><linearGradient id="wia-hero-linear-gradient-5" x1="259.54" y1="300.27" x2="532.44" y2="772.94" gradientUnits="userSpaceOnUse"><stop offset="0" stop-color="#f637e3"/><stop offset="0" stop-color="#f535de"/><stop offset=".08" stop-color="#f228bd"/><stop offset=".15" stop-color="#ef1ca1"/><stop offset=".23" stop-color="#ec138a"/><stop offset=".33" stop-color="#eb0c79"/><stop offset=".45" stop-color="#e9076d"/><stop offset=".6" stop-color="#e90465"/><stop offset=".99" stop-color="#e90464"/></linearGradient><linearGradient id="wia-hero-linear-gradient-6" x1="584.51" y1="183.79" x2="584.51" y2="838.11" gradientUnits="userSpaceOnUse"><stop offset="0" stop-color="#e90464"/><stop offset=".29" stop-color="#e00362"/><stop offset=".75" stop-color="#c90160"/><stop offset="1" stop-color="#ba005e"/></linearGradient><radialGradient id="wia-hero-radial-gradient" cx="443.93" cy="614.25" fx="443.93" fy="614.25" r="238.36" gradientUnits="userSpaceOnUse"><stop offset="0" stop-color="#eadbe7"/><stop offset=".52" stop-color="#e8d8e5"/><stop offset=".76" stop-color="#e3d1e0"/><stop offset=".96" stop-color="#dac4d8"/><stop offset="1" stop-color="#d8c0d6"/></radialGradient><linearGradient id="wia-hero-linear-gradient-7" x1="124.54" y1="670" x2="124.54" y2="751.85" gradientUnits="userSpaceOnUse"><stop offset="0" stop-color="#ffd473"/><stop offset="1" stop-color="#ffb900"/></linearGradient><linearGradient id="wia-hero-linear-gradient-8" x1="199.13" y1="207.47" x2="199.13" y2="268.78" href="#wia-hero-linear-gradient-7"/><linearGradient id="wia-hero-linear-gradient-9" x1="770.8" y1="218.94" x2="770.8" y2="300.79" href="#wia-hero-linear-gradient-7"/><linearGradient id="wia-hero-linear-gradient-10" x1="871.69" y1="645.49" x2="871.69" y2="706.79" href="#wia-hero-linear-gradient-7"/></defs>
  <g transform="translate(120.26 -42.53) scale(0.07760)"><path fill="url(#wia-hero-linear-gradient)" d="M757.12,462c50.24,76.16,144.24,121.06,235.05,112.29-37.58,54.74-8.43,143.98-60.6,185.05-26.93,21.2-65.53,19.62-95.66,35.97-21.34,11.58-36.85,31.24-54.69,47.7-17.84,16.46-41.02,30.62-64.99,26.83-38.55-6.1-66.99-56.07-104.35-44.79,0,0-123.5-113.14-130.41-295.14l275.65-67.92Z"/><path fill="#3d2ecc" d="M843.52,791.62c25.92-11.29,56.49-12.65,80.36-26.99-11.62-8.48-33.19-16.48-40.18-20.85-48.21-30.09-91.07-68.72-125.99-113.54,13.17,60.27,43.28,116.71,85.81,161.38Z"/><path fill="#3d2ecc" d="M601.13,691.71c-.99,29.96,2.86,60.08,11.34,88.83,3.54,11.99,7.87,23.72,12.2,35.45.95,2.57,1.9,5.13,2.84,7.7,27.38,3.25,51.02,34.42,79.88,43.99-19.94-27.51-84.89-120.16-106.27-175.96Z"/><path stroke="#eadbe7" stroke-width="68.81" d="M202.73,720.07s-91.34-36.44-3.59-107.68"/><path fill="url(#wia-hero-linear-gradient-2)" d="M804.02,424.3l-262.02-230.13c-4.03-3.56-8.93-5.56-13.96-5.94l-59.01-4.44-14.83,29.04-6.94,21.58-14.44,191.78,385.15,29c-.17-11.71-5.07-23.05-13.95-30.89Z"/><path fill="#9b005c" d="M648.66,725.43l-220.57,110.23-.22,2.95,50.9,3.83h0c6.74.51,13.6-.59,20.04-3.35l190.69-85.38c6.9-3.01,13.02-7.51,18.04-13.11l-58.89-15.18Z"/><path fill="#ac015f" d="M817.96,455.19h0c-.03-1.76-.17-3.51-.41-5.24l-384.35-28.94,14.05-186.61-227.45,145.91c-14.34,9.26-21.61,26.93-18.16,44.12l58.36,264.36c3.09,14.38,11.64,26.79,23.69,34.37l145.8,93.71-1.41,18.78,231.77-107.34,47.69,12.3c4.47-4.99,8.07-10.85,10.53-17.33l97.29-252.64c1.83-5.04,2.67-10.28,2.6-15.45Z"/><path fill="url(#wia-hero-linear-gradient-3)" d="M532.45,822.16c13.7,90.52,38.22,95.09,38.22,95.09h38.81c6.89,0,12.47-5.59,12.47-12.47v-118.11c0-2.52-1.69-4.72-4.12-5.38l-5.53-1.49c-24.81-6.66-51.28.72-69.07,19.25l-5.16,5.37c-4.53,4.72-6.6,11.27-5.62,17.73Z"/><path fill="#e90464" d="M535.68,862.85h61.79c7.75,0,14.03,6.29,14.03,14.03v1.56c0,21.99-17.86,39.85-39.85,39.85h-2.69c-21.99,0-39.85-17.86-39.85-39.85v-9.04c0-3.62,2.94-6.56,6.56-6.56Z" transform="translate(1140.63 1781.14) rotate(-180)"/><path fill="url(#wia-hero-linear-gradient-4)" d="M409.79,904.78c0,6.89-5.59,12.47-12.47,12.47h-38.81s-26.36-45.29-39.69-145.81h0c20.12-27.55,59.9-31.09,84.58-7.53h0c4.09,3.9,6.4,9.31,6.4,14.96v125.92Z"/><path fill="#e90464" d="M323.51,862.85h61.79c7.75,0,14.03,6.29,14.03,14.03v1.56c0,21.99-17.86,39.85-39.85,39.85h-2.69c-21.99,0-39.85-17.86-39.85-39.85v-9.04c0-3.62,2.94-6.56,6.56-6.56Z" transform="translate(716.3 1781.14) rotate(-180)"/><path fill="url(#wia-hero-linear-gradient-5)" d="M469.02,183.79c-4.87-.37-9.86.89-14.24,3.82l-284.79,188.96c-13.91,9.29-21,26.98-17.7,44.15l55.91,264.18c2.96,14.38,11.22,26.76,22.87,34.31l170,112.54c5.76,3.67,12.17,5.77,18.69,6.26l49.26-654.21Z"/><path fill="url(#wia-hero-linear-gradient-6)" d="M419.76,838c6.53.49,13.17-.63,19.42-3.39l184.93-85.81c12.65-5.72,22.67-16.73,27.75-30.5l94.84-252.82c5.83-16.49,1.47-35.04-10.89-46.3l-253.29-229.47c-3.9-3.55-8.64-5.54-13.51-5.9l-49.26,654.21Z"/><path fill="#940054" d="M268.08,686.05c5.59-2.46,14.2-6.19,22.83-9.91-4.68-3.23-8.01-8.38-9.18-14.36l-29.69-151.35c-4.12-21.01,15.19-38.47,33.19-30.59l-17.56-8.63c-20.46-10.05-42.97,9.81-38.27,33.76l33.25,169.49c.86,4.38,2.77,8.34,5.44,11.59Z"/><path fill="#aa0060" d="M290.91,676.14c-8.63,3.72-17.24,7.46-22.83,9.91,1.91,2.32,4.2,4.29,6.82,5.73l149.69,82.15,1.76-23.32-133.67-73.36c-.61-.33-1.19-.71-1.76-1.11Z"/><path fill="url(#wia-hero-radial-gradient)" d="M605.38,504.31l-164.41,52.02-154.77-76.05c-18.27-8.98-38.37,8.76-34.17,30.15l29.69,151.35c1.32,6.71,5.33,12.39,10.95,15.47l133.67,73.36,143.15-52.52c6.01-2.2,10.83-7.21,13.14-13.65l52.02-145.2c7.35-20.52-9.87-41.07-29.27-34.93Z"/><path fill="#940054" d="M592.49,710.48c-5.16-3.27-13.11-8.24-21.08-13.22,5.11-2.49,9.17-7.08,11.23-12.82l52.02-145.2c7.22-20.15-9.26-40.31-28.23-35.21l18.66-5.9c21.73-6.87,41.01,16.13,32.78,39.11l-58.26,162.6c-1.51,4.2-3.99,7.84-7.11,10.65Z"/><path fill="#aa0060" d="M571.4,697.26c7.97,4.97,15.93,9.95,21.08,13.22-2.24,2.01-4.79,3.61-7.6,4.64l-160.3,58.81,1.76-23.32,143.15-52.52c.65-.24,1.29-.53,1.91-.83Z"/><ellipse fill="#0f0f11" cx="506.34" cy="634.62" rx="29.11" ry="16.53" transform="translate(-164.5 1091.88) rotate(-85.69)"/><path fill="#c8005d" d="M511.96,589.13l13.8-5.46c6.23-2.47,9.38-10,7.04-16.82h0c-2.35-6.82-9.3-10.35-15.53-7.88l-13.8,5.46c-6.23,2.47-9.38,10-7.04,16.82h0c2.35,6.82,9.3,10.35,15.53,7.88Z"/><path stroke="#0f0f11" stroke-width="6.24" d="M431.8,678.17s17.99,1.62,25.8-6.92"/><ellipse fill="#0f0f11" cx="364.62" cy="623.94" rx="29.11" ry="16.53" transform="translate(-284.94 940.68) rotate(-85.69)"/><path fill="#c8005d" d="M374.1,577.33l-14.46-3.33c-6.53-1.51-10.77-8.48-9.48-15.57h0c1.3-7.09,7.65-11.63,14.18-10.12l14.46,3.33c6.53,1.51,10.77,8.48,9.48,15.57h0c-1.3,7.09-7.65,11.63-14.18,10.12Z"/><path stroke="#0f0f11" stroke-width="6.24" d="M431.8,678.17s-18.03-1.1-24.48-10.7"/><path stroke="#eadbe7" stroke-width="68.81" d="M742.58,724.07s91.34-36.44,3.59-107.68"/><path fill="#e90464" d="M765.8,753.15s6.6-4.04,16.45-10.61c.05-.04,23.68-16.79,20.92-41.88-.82-7.48-4.83-14.32-10.96-18.69-20.56-14.66-46.71-2.21-46.77-2.18,0,0,0,0,0,0-8.68-2.18-30.29-6.21-37.26,5.6-2.48,4.2-.95,8.6,2.53,12.74-1.19.7-2.36,1.4-3.49,2.1-41.83,25.91-4.49,89.57,38.54,65.7,6.24-3.46,12.91-7.68,20.04-12.78Z"/><path fill="#d20260" d="M179.51,753.15s-6.6-4.04-16.45-10.61c-.05-.04-23.68-16.79-20.92-41.88.82-7.48,4.83-14.32,10.96-18.69,20.56-14.66,46.71-2.21,46.77-2.18,0,0,0,0,0,0,8.68-2.18,30.29-6.21,37.26,5.6,2.48,4.2.95,8.6-2.53,12.74,1.19.7,2.36,1.4,3.49,2.1,41.83,25.91,4.49,89.57-38.54,65.7-6.24-3.46-12.91-7.68-20.04-12.78Z"/><path fill="url(#wia-hero-linear-gradient-7)" d="M165.46,710.93c-23.8,9.46-31.47,17.12-40.92,40.92-9.46-23.8-17.12-31.47-40.92-40.92,23.8-9.46,31.47-17.12,40.92-40.92,9.46,23.8,17.12,31.47,40.92,40.92Z"/><path fill="url(#wia-hero-linear-gradient-8)" d="M229.79,238.12c-17.83,7.08-23.57,12.83-30.65,30.65-7.08-17.83-12.83-23.57-30.65-30.65,17.83-7.08,23.57-12.83,30.65-30.65,7.08,17.83,12.83,23.57,30.65,30.65Z"/><path fill="url(#wia-hero-linear-gradient-9)" d="M811.72,259.86c-23.8,9.46-31.47,17.12-40.92,40.92-9.46-23.8-17.12-31.47-40.92-40.92,23.8-9.46,31.47-17.12,40.92-40.92,9.46,23.8,17.12,31.47,40.92,40.92Z"/><path fill="url(#wia-hero-linear-gradient-10)" d="M902.34,676.14c-17.83,7.08-23.57,12.83-30.65,30.65-7.08-17.83-12.83-23.57-30.65-30.65,17.83-7.08,23.57-12.83,30.65-30.65,7.08,17.83,12.83,23.57,30.65,30.65Z"/></g>
</svg>
