<svg xmlns="http://www.w3.org/2000/svg" viewBox="0 0 626.14 467.8"><defs><style>.cls-1{isolation:isolate;}.cls-2,.cls-8{fill:none;}.cls-2{stroke:#3c9ae2;}.cls-10,.cls-11,.cls-2,.cls-5,.cls-6,.cls-7,.cls-8{stroke-miterlimit:10;}.cls-3,.cls-6{fill:#dd0031;}.cls-11,.cls-4{fill:#fff;}.cls-5{fill:#d8ebf9;}.cls-10,.cls-11,.cls-5,.cls-6,.cls-7{stroke:#000;}.cls-7{fill:#3c9ae2;}.cls-8{stroke:#fff;}.cls-9{fill:#e6e6e6;mix-blend-mode:multiply;}.cls-10{fill:#ffedf1;}</style></defs><g class="cls-1"><g id="Layer_1" data-name="Layer 1"><polyline class="cls-2" points="119.85 340 119.85 327.62 254.09 327.62 254.09 343.35"/><rect class="cls-3" x="96.93" y="340.5" width="45.84" height="45.84" rx="2.34"/><path d="M140.43,341a1.84,1.84,0,0,1,1.84,1.84V384a1.84,1.84,0,0,1-1.84,1.84H99.26A1.83,1.83,0,0,1,97.43,384V342.84A1.83,1.83,0,0,1,99.26,341h41.17m0-1H99.26a2.84,2.84,0,0,0-2.83,2.84V384a2.84,2.84,0,0,0,2.83,2.84h41.17a2.85,2.85,0,0,0,2.84-2.84V342.84a2.85,2.85,0,0,0-2.84-2.84Z"/><rect class="cls-3" x="164.05" y="340.5" width="45.84" height="45.84" rx="2.34"/><path d="M207.55,341a1.84,1.84,0,0,1,1.84,1.84V384a1.84,1.84,0,0,1-1.84,1.84H166.39a1.84,1.84,0,0,1-1.84-1.84V342.84a1.84,1.84,0,0,1,1.84-1.84h41.16m0-1H166.39a2.85,2.85,0,0,0-2.84,2.84V384a2.85,2.85,0,0,0,2.84,2.84h41.16a2.85,2.85,0,0,0,2.84-2.84V342.84a2.85,2.85,0,0,0-2.84-2.84Z"/><rect class="cls-3" x="231.17" y="340.5" width="45.84" height="45.84" rx="2.34"/><path d="M274.68,341a1.83,1.83,0,0,1,1.83,1.84V384a1.83,1.83,0,0,1-1.83,1.84H233.51a1.84,1.84,0,0,1-1.84-1.84V342.84a1.84,1.84,0,0,1,1.84-1.84h41.17m0-1H233.51a2.85,2.85,0,0,0-2.84,2.84V384a2.85,2.85,0,0,0,2.84,2.84h41.17a2.84,2.84,0,0,0,2.83-2.84V342.84a2.84,2.84,0,0,0-2.83-2.84Z"/><line class="cls-2" x1="186.97" y1="340" x2="186.97" y2="307.6"/><rect class="cls-4" x="116.47" y="130.8" width="303.53" height="178.86" rx="10.25"/><path d="M409.75,131.3a9.76,9.76,0,0,1,9.75,9.75V299.41a9.76,9.76,0,0,1-9.75,9.75h-283a9.77,9.77,0,0,1-9.75-9.75V141.05a9.76,9.76,0,0,1,9.75-9.75h283m0-1h-283A10.75,10.75,0,0,0,116,141.05V299.41a10.76,10.76,0,0,0,10.75,10.75h283a10.75,10.75,0,0,0,10.75-10.75V141.05a10.75,10.75,0,0,0-10.75-10.75Z"/><path class="cls-5" d="M116.72,146.55H263.1a0,0,0,0,1,0,0V309.37a0,0,0,0,1,0,0H127.16a10.44,10.44,0,0,1-10.44-10.44V146.55A0,0,0,0,1,116.72,146.55Z"/><path class="cls-4" d="M116.47,146.71v-9.37A6.55,6.55,0,0,1,123,130.8H413.27a6.58,6.58,0,0,1,6.54,6.41l.18,9.5Z"/><path d="M413.27,131.3a6.08,6.08,0,0,1,6,5.92l.17,9H117v-8.87a6,6,0,0,1,6-6H413.27m0-1H123a7,7,0,0,0-7,7v9.87H420.5l-.19-10a7,7,0,0,0-7-6.9Z"/><circle class="cls-6" cx="129.14" cy="138.75" r="3.04"/><circle class="cls-6" cx="140.72" cy="138.75" r="3.04"/><path class="cls-4" d="M187.68,219.73a18.81,18.81,0,1,1,18.8-18.81A18.83,18.83,0,0,1,187.68,219.73Z"/><path d="M187.68,182.61a18.31,18.31,0,1,1-18.31,18.31,18.32,18.32,0,0,1,18.31-18.31m0-1A19.31,19.31,0,1,0,207,200.92a19.31,19.31,0,0,0-19.3-19.31Z"/><path class="cls-3" d="M187,222.51a21.6,21.6,0,1,1,21.59-21.59A21.61,21.61,0,0,1,187,222.51Zm0-20.1c-4.76,0-13.68,2.5-13.76,7.3v.15l.09.13a16.4,16.4,0,0,0,27.34,0l.09-.13v-.15C200.65,204.91,191.73,202.41,187,202.41ZM187,185a7.13,7.13,0,1,0,7.13,7.13A7.14,7.14,0,0,0,187,185Z"/><path d="M187,179.82a21.1,21.1,0,1,1-21.09,21.1A21.13,21.13,0,0,1,187,179.82m0,19.89a7.63,7.63,0,1,0-7.63-7.63,7.64,7.64,0,0,0,7.63,7.63m0,18.12a16.91,16.91,0,0,0,14.09-7.56l.17-.26v-.31c-.08-5.12-9.33-7.79-14.26-7.79s-14.18,2.67-14.26,7.79V210l.17.26A16.91,16.91,0,0,0,187,217.83m0-39a22.1,22.1,0,1,0,22.1,22.1,22.1,22.1,0,0,0-22.1-22.1Zm0,19.89a6.63,6.63,0,1,1,6.63-6.63,6.62,6.62,0,0,1-6.63,6.63Zm0,18.12a15.92,15.92,0,0,1-13.26-7.12c.07-4.39,8.84-6.8,13.26-6.8s13.19,2.41,13.26,6.8A15.92,15.92,0,0,1,187,216.83Z"/><rect class="cls-4" x="144.74" y="269.56" width="65.18" height="2.82"/><path d="M209.41,270.05v1.82H145.24v-1.82h64.17m1-1H144.24v3.82h66.17v-3.82Z"/><rect class="cls-4" x="144.74" y="257.02" width="84.47" height="2.82"/><path d="M228.7,257.53v1.81H145.24v-1.81H228.7m1-1H144.24v3.81H229.7v-3.81Z"/><rect class="cls-4" x="144.74" y="244.5" width="84.47" height="2.82"/><path d="M228.7,245v1.81H145.24V245H228.7m1-1H144.24v3.81H229.7V244Z"/><rect class="cls-5" x="282.39" y="222.04" width="103.4" height="57.89" rx="3.11"/><rect class="cls-7" x="282.39" y="186.91" width="103.4" height="17.6"/><circle class="cls-8" cx="373.55" cy="194.5" r="4.19"/><line class="cls-8" x1="380.28" y1="201.12" x2="376.64" y2="197.47"/><circle class="cls-6" cx="152.3" cy="138.75" r="3.04"/><circle class="cls-9" cx="466.89" cy="149.25" r="60.83"/><circle class="cls-3" cx="458.89" cy="141.79" r="60.33"/><path d="M458.89,82a59.83,59.83,0,1,1-59.84,59.83A59.9,59.9,0,0,1,458.89,82m0-1a60.83,60.83,0,1,0,60.83,60.83A60.83,60.83,0,0,0,458.89,81Z"/><polygon class="cls-10" points="426.36 142.81 434.32 134.03 450.1 151.38 483.46 114.59 491.41 123.42 450.1 168.99 426.36 142.81"/><polygon class="cls-9" points="327.4 333.35 353.58 331.32 305.39 304.71 318.7 358.13 327.4 333.35"/><polygon class="cls-10" points="319.9 325.85 346.08 323.82 297.89 297.21 311.2 350.63 319.9 325.85"/><rect class="cls-9" x="417" y="268.19" width="111.88" height="111.88" rx="4.67"/><rect class="cls-6" x="405.45" y="256.59" width="111.88" height="111.88" rx="4.67"/><rect class="cls-11" x="393.75" y="244.9" width="111.88" height="111.88" rx="4.67"/><rect class="cls-4" x="412.97" y="262.22" width="73.45" height="21.21" rx="4.9"/><path d="M481.51,262.72a4.41,4.41,0,0,1,4.41,4.4v11.41a4.42,4.42,0,0,1-4.41,4.4H417.87a4.41,4.41,0,0,1-4.4-4.4V267.12a4.41,4.41,0,0,1,4.4-4.4h63.64m0-1H417.87a5.42,5.42,0,0,0-5.4,5.4v11.41a5.42,5.42,0,0,0,5.4,5.4h63.64a5.42,5.42,0,0,0,5.41-5.4V267.12a5.42,5.42,0,0,0-5.41-5.4Z"/><rect class="cls-4" x="423.18" y="268.39" width="8.87" height="8.87" rx="0.3"/><path d="M431.55,268.89v7.87h-7.87v-7.87h7.87m.2-1h-8.27a.8.8,0,0,0-.8.8V277a.8.8,0,0,0,.8.8h8.27a.8.8,0,0,0,.8-.8v-8.27a.8.8,0,0,0-.8-.8Z"/><line class="cls-11" x1="439.49" y1="271.17" x2="474.44" y2="271.17"/><rect class="cls-4" x="412.97" y="290.23" width="73.45" height="21.21" rx="4.9"/><path d="M481.51,290.73a4.42,4.42,0,0,1,4.41,4.41v11.4a4.42,4.42,0,0,1-4.41,4.41H417.87a4.42,4.42,0,0,1-4.4-4.41v-11.4a4.42,4.42,0,0,1,4.4-4.41h63.64m0-1H417.87a5.42,5.42,0,0,0-5.4,5.41v11.4a5.42,5.42,0,0,0,5.4,5.41h63.64a5.42,5.42,0,0,0,5.41-5.41v-11.4a5.42,5.42,0,0,0-5.41-5.41Z"/><rect class="cls-3" x="423.18" y="296.4" width="8.87" height="8.87" rx="0.3"/><path d="M431.55,296.9v7.88h-7.87V296.9h7.87m.2-1h-8.27a.8.8,0,0,0-.8.8V305a.8.8,0,0,0,.8.8h8.27a.8.8,0,0,0,.8-.8V296.7a.8.8,0,0,0-.8-.8Z"/><line class="cls-11" x1="439.49" y1="299.19" x2="474.44" y2="299.19"/><rect class="cls-4" x="412.97" y="318.25" width="73.45" height="21.21" rx="4.9"/><path d="M481.51,318.75a4.42,4.42,0,0,1,4.41,4.4v11.41a4.41,4.41,0,0,1-4.41,4.4H417.87a4.41,4.41,0,0,1-4.4-4.4V323.15a4.41,4.41,0,0,1,4.4-4.4h63.64m0-1H417.87a5.42,5.42,0,0,0-5.4,5.4v11.41a5.42,5.42,0,0,0,5.4,5.4h63.64a5.42,5.42,0,0,0,5.41-5.4V323.15a5.42,5.42,0,0,0-5.41-5.4Z"/><rect class="cls-4" x="423.18" y="324.42" width="8.87" height="8.87" rx="0.3"/><path d="M431.55,324.92v7.87h-7.87v-7.87h7.87m.2-1h-8.27a.8.8,0,0,0-.8.8V333a.8.8,0,0,0,.8.8h8.27a.8.8,0,0,0,.8-.8v-8.27a.8.8,0,0,0-.8-.8Z"/><line class="cls-11" x1="439.49" y1="327.21" x2="474.44" y2="327.21"/><rect class="cls-6" x="405.45" y="256.59" width="111.88" height="111.88" rx="4.67"/><rect class="cls-11" x="393.75" y="244.9" width="111.88" height="111.88" rx="4.67"/><rect class="cls-5" x="412.47" y="261.72" width="74.45" height="22.21" rx="5.4"/><rect class="cls-7" x="422.68" y="267.89" width="9.87" height="9.87" rx="0.8"/><line class="cls-11" x1="439.49" y1="271.17" x2="474.44" y2="271.17"/><rect class="cls-10" x="412.47" y="289.73" width="74.45" height="22.21" rx="5.4"/><rect class="cls-3" x="423.18" y="296.4" width="8.87" height="8.87" rx="0.3"/><path d="M431.55,296.9v7.88h-7.87V296.9h7.87m.2-1h-8.27a.8.8,0,0,0-.8.8V305a.8.8,0,0,0,.8.8h8.27a.8.8,0,0,0,.8-.8V296.7a.8.8,0,0,0-.8-.8Z"/><line class="cls-11" x1="439.49" y1="299.19" x2="474.44" y2="299.19"/><rect class="cls-5" x="412.47" y="317.75" width="74.45" height="22.21" rx="5.4"/><rect class="cls-7" x="422.68" y="323.92" width="9.87" height="9.87" rx="0.8"/><line class="cls-11" x1="439.49" y1="327.21" x2="474.44" y2="327.21"/><rect class="cls-5" x="349.81" y="347.22" width="12.35" height="12.35"/><rect class="cls-5" x="499.94" y="209.07" width="12.35" height="12.35"/><rect class="cls-10" x="523.14" y="187.61" width="6.57" height="6.57"/><rect class="cls-11" x="313.77" y="374.39" width="6.57" height="6.57"/><rect class="cls-11" x="373.35" y="100.98" width="6.57" height="6.57"/></g></g></svg>