<svg xmlns="http://www.w3.org/2000/svg" viewBox="0 0 1300 700">
  <style>
    .land { fill: #f2f2f2; }
    .water { fill: #ddd; }
  </style>
  <title>Loved by Millions</title>
  <defs>
    <symbol id="angular-logo" viewBox="0 0 200 200" width="32" height="32">
      <polygon points="100,0 6.9,33.2 21.1,156.3 100,200 178.9,156.3 193.1,33.2" fill="#dd0031" />
      <polygon points="100,0 100,200 178.9,156.3 193.1,33.2 100,0" fill="#c3002f" />
      <path d="M100,22.1L41.8,152.6h21.7l11.7-29.2h49.4l11.7,29.2h21.7L100,22.1z M117,105.4H83l17-40.9L117,105.4z"
        fill="#fff" />
    </symbol>
  </defs>
  <rect class="water" width="1300" height="700" />
  <path class="land"
    d="M413.09,113.78c.61.85,3.19.18,4,1.66-6.27,1.7,7.05,3.1,5.89-2.39.33-2.85-14.63-10.75-8.22-2.42C413.5,110.08,411.89,111.52,413.09,113.78Z" />
  <path class="land"
    d="M410.09,246.78,410,247c-1.31-1.72-5.81,2.57-5.24,4.75-1.07.52-3.12,4.14-2.15,6.12-.55-.74-2.78,1-.66,1.39.09,0-.92.73,0,1.29-1.27-2.26-3,3.5-2.91,1.28-.12.15-.9.3-1.23,1.19.14,0,1.58,0,2.95,0-1.55.39-7.26,7,0,4.14.05.08,0,0,0,.28,2.41,0,5.93,1.34,8.71-.74-.12.52.6,1.1-.95,1.64,1.55.33,2.55-.68,4.72-.84.06,1.06-4.58,2.73-3.73,4.07,2.27.36,2.6-2,4.82-3.46.11,0,0,.05-.31.89,2.42-4.74,2.3-1.44,1.71,2.84.92-.47,2.24-3.08,1.66.19,1.26,4.56,5.46-8.24,1.7-3.44-1.78-1.39,4.41-5.78-2.52-1.41-.71-.2,1.9-1.84-.11-1.52.15-.18,1.71-.21.91-1,1.66-.89,4.61-3.58-1.77-1,0-.19,1.2-.34,1.46-1.51-.16-.17-1.57.19-.54-.69-.05,0-.22.07-1.09.12,2.18-.48,3.23-5-1-2.88-.06-.17-.12-.26-.07-1.08-.47.16-1,.92-1.92,1.45-.15-.78-.62.55-1.19,1,.29-1.74.95-1.2-.08-2.19-.65.57-.78-.37-2.5.2.07-.22.69-.31.77-1.17-.17-.09-.39-.14-1,.27,1.31-.75,3-2.94-.08-1.73.31-1.85-.62-.23-2.32,1.76-.66-3.3,5.08-6.47,2.78-9.4C409.46,248.59,412,245.37,410.09,246.78Z" />
  <path class="land"
    d="M376,684.85c-.86,2.37-13.84-9.27-10.1-9.18-1.18-4.47-4.09-2.29-7.52-1.91,2.7,2.35-4.82,2,3.61,4.23-7.88,3,3.29,4.6.14,6.49-.22-2.72-2.78.67-4.63-3.38a1.67,1.67,0,0,0,.88-.11,8.09,8.09,0,0,1-.53-2.13c0,.22-.89-.15-.4,1.15-1.77.6-.14,2.36,1.17,4.21-.15-.12-.28-.06-1.37-.25.45-1.89-1.72.42-3.87-.31-1.83.73,4.55,3.12,7.31,1.67C358.52,685.81,379.31,688.78,376,684.85Z" />
  <path class="land"
    d="M483.37,482.52c-1.56-6,1.12-6.75-8.74-9.37-4.35-2.78-8.22-8-15.25-6.39-2.52-.15-6.1-3.22-9-.25.18-2.11.4-1.28-1.86,1.38-.28-1,1.17-2.44,1-3.61-.27.16-.44-.1-.8.72,0,0,0,0-.33-.38.43-.27,1.27-.67.37-1.81,0-.05,0,.15-.45.19l.21-.23c-.69,0-1.11-1.92-2.14-.06.31-1.15-2-1.55-3.13-2.38-.47.64-4-2.39-4.22-.92-.36-.05-1.22-.74-1.91,0-.8-.46-.66.43-1.72,1.31.46.07-.68.86.36,1.17.09.11-.35-.23-.4.45-1.33-1.26-2.6,1.81-4.13,3.63.5-.8.33-1.06,1.14-3.22-2.77.88-4.37,1.92-5.9-2.59-1.35,1-3.17,2.68-5.88,2,3.14-.27,2.87-2.88,5.49-5.29,1.35-2,7.77-4.58,1.36-7.53-.87-1.7-.36-6-2.93-7.58-.06.31.08.11-.37.87-.13-.32-.36-3.45-1.23-1,0-.67.64-.6-.76-1.78l-.37.32c.17-1-5.42-5.28-6.44-2.05,2.43-1.84-5.55-3.68-6.12-1.19-.47-.58-4.44-2.29-4.52.59.86-1.57-3.73-7.27-5.24-3,1.4-2.63,0-5.56-3.75-7v.14c-1.57-2-4.25.31-6.61-.91,2.16-.11,4.14-3,.11-4.57-.13.13.07.39-.62.29-.06.1.13.13.1.64-.35-.23-.36-1.14-1.47-1.22.1.1-.12,0,0,.55-.1-.05-.09,0-.24-.21-.5,1-.48-.68-1.33-1.19-.12.15.27.54-.49.57.51-.29.08-1.24-.61-1.68.7-.19,2.48.12,3.64-.74-2.22.07-5.23.19-8.51.38l.18.32a2.22,2.22,0,0,1,1.81.14c-6.94,3.53-5.63-1.36-14,0-2.92.79-.79-2.09-3.87-3.3-.93-.54-3.46.87-3.82-2.43-2.32-.21-.9,1.17.38,2.27-1.69,0-3.07,1.14-5.85,1.81-.95-.49,4.17,10.12-1.42,5.43-2.14-1.67,1.87-3,.5-5.54a.41.41,0,0,0,.31-.06c-2.65-1.89.89-1.89,1.71-4.09-1.68-3.22-5.32,3.26-8.86,3.17-1.14-1.26-3.67,2.8-2.3,1-2-.65-3.42.35-4.85,3,.06-.07,0,.09.53-.33.14,3.82-4,3.48-4.55,7.55-2.25-2.49-6.66-7-11-4.4-1.51.57-4.52,3.54-6.74.71,0,.27-.06-.14.4.65-2.7-.66-8.13-6.65-7-11a.33.33,0,0,1,.3.12c.23-.32-.5-1.67.31-2.45-.13,3.55,1.17-7.82,1-7.48.11,0,.23-.43.51-.69-.54-.13-.53-1.11-1.82-1.34-.06.05.24-.06.62.52-.57.39-3.77-1.92-.94-.66-.81-.52-.74-1.4-2.65-1.69.09.05,0,.1.33.15-1.51-.47-3-.17-5.48-.7,0,0,.1-.06.17.26-2.29.63-6.34,1.08-9.34,0-2.67,2.93,3.94-7.66.86-8.77.19-.08.29-1.41,1.11-1.76.51,4,1,.66,2.14-2.74-3.79,1,6.48-7.62.13-7.32,3.31.76-10.19-1.08-10.72,3-.26,2.34-.35,5.69-3.63,7.12.15,0,0,.05.44-.25.42.58-.12,2.52-2.11,1.24-2.26-1.55-7.53,3.24-13.28-.75.08,0-.13,0,.5.28a1.59,1.59,0,0,1-1.23-.58,1.49,1.49,0,0,0,.53.16c-2.28-3.18-5.43-7.19-6.95-12,.21.69,1.34,1.31,1.21,2.82-4.06-6.83,3.18-16.36-1.26-23.64.41.89,2.69.16,1.18-1.49.32-.46,1,.57,1.4-1l-.38.13c-.23-.48.22-.19.74-.65,0,0-.08,0,.14.26.25-.26.3,0,.42-1,0,0,.56.68,1.24-.14-.36-.12-.43-.15-.77-1,.27-.31.52.91.93.21.13-.08.27.13,1.28.1a3.68,3.68,0,0,0-.79.56c1.46-.89,5.46-2,4.26-4.83.34.27,1.49-.83.86.62.13.15.1-.14.89,0a2,2,0,0,0-.82.65c.55.07,4.43-2.89,3.08-1.7,1.55-.1,3.67,1.1,6.41.77-.45-2,1.46.47,2.85.21,0,.27-.11.18.35,1,.09.09-.43-.26-.49.11.4.18,5.81,1.38,4-1,.6.41,2.74.7,2.76,2.22.19-.1.07,0,.49-.4,0,.06,0-.1.28.26,2-1.19-3.25-1.55-1.42-2.72l-.11-.11c.14-.12.06-.13.83-.38.06-.07-.15-.45-.16-.91-.64-.13-1.39,1.68-1.18-.51-.57.06-1,1.15-2.38.13-.08-1.84,7.3,1,8.45-2.24.26.21.28.92.77,1.63a5.47,5.47,0,0,0-.76.24c.36-.14,1,.25,2-.65,0,.13.09.06-.19.34-.22.1,1.15.07,1.16-.93,0,.09,0-.19.35.16,0,0,0-.15.26-.29.2.32.16.5-.72.94.74.25,2.89-1.25,3.79-.27-.33,0-.2-.19-1.16,0a10,10,0,0,1,2.46.93c.11-.14-.14-.46.53-.48-.37.08.2.74-.25.66s1.42.71,1.19,1.54c0-.08,0,.12-.27-.41.87,2.28,3.08-1.83,5.43-.7,4.09,4,4.36,2.92,4,9.17.24-.14.88-.1.24-1,.23-.38.31.53.8.24.29.34.05.77-.94,1.58.61.23.54,2.09,1.88,2.58,0-.1.08-.06,0-.37.06,0,0-.13.59-.1-.23-.1-.55,2.62.65,1.07-1.15,1.94,1.83,3.3,3,5.66-1.92-1.24,1,3.08,2.83-2.52.05,0,0,0,.12.17,1.14-3.43-1.52-7.46-2.5-11.45.5.37.26.49.51,1.63.14,0,0-.38.3-.7,0,.07-.28,1.69.53,2.46-.39-3.93-4.33-8.07-3.47-13.21.08.3.88-.08.22-.63.11,0,.41-.12.72-.72-.08-.07,0,.05-.29,0,0-.34.81-.81.51-1.39a1.68,1.68,0,0,0,1.09-2.35l.33.46c.1,0,0-.08.22-.24-.15.8,1.47,0,0-.48.26-.23,2.8.24,2.47-1.23a2.82,2.82,0,0,0,2.48-2.48c.11.18-.24.08.12.67-.13-2.54,3.81-1.89,4.36-3.87a2.84,2.84,0,0,1,.09,1,3.35,3.35,0,0,1,1.93-2.47c-.15-.33-.12-.06-.12-.86,0,.57,2.6.51,3.69-.88-.47-.66-1.67.9-2.49-.92.56.57,1.22,1.23,2-.5-.24-.48-1-.19-1.85-1.1,1.11-.15,2.33,1.55,3.78.09.81,0,1.1-3.88-.42-.79.35-1.37-.31-1.23-2.26-1.14.06-.18,0-.23,0-1.17,0,1.09.69.69,1.78.48l-.15-.31a1.5,1.5,0,0,0,.42.19,1.37,1.37,0,0,0,0-.58c0,.17.68.06,1.15.72.2-.08-.93-1.53-.44-2.37.43.81.35,2.15,1.45,3.63-2.08-4,.63-3.72-6-6.55,1.72,0,5.07,2.85,1.73-.77-.07-.13,1.34,1.81,1.26.52l.48.13c-.16,0,.45-.53-.36-.76l.21-.18c-1-.33-1.25-1.09-2.83-2.63.5-.42,2.59,4,3,1.21-.94-1.69-5.29-1-2.69-4.43.57.28-2,2.71.1,2,.07.12-.11.18.39.68,0-.07.08.11.08-.43-.15.28,1,.64,1.85,1.34.24-.81-1.11-1-1.18-2.33.09.06.14,1,1,1.08-.56-.43-.23-1.79-.58-3.11.4.1.81.21,0-.92l.53.2c0-.12.15-.4.31-.8l.2.36c.07-.16.07,0,.1-.52,0,.06.11,0,.11.26.54,0,.25-.85.9-.92l0,.36.34,0c0,.11-.11,0-.45.46.05,0-.07-.09.44.15-.31.2-1.44-.38-1.19,1.41l.29-.27c0,.2.06.08-.19.59-.14-.08-.63-.22-.5.37,0,.14.44-.56.57.25-.07.27-.46-.32-.61.64.08-.06.11,0,.22-.28.24,0,.24.3,1,.76-1-.67-1.5,1.6.06,1.21l.06.18c.06,0,0-.12.38-.32-.15.11.19.39-.24.86.19.18.66.12.27.87,0,.06.11-.12.68.08-.07.69-1.74,2.08-1,3.53.69-1.48,2-3.61,3-5.62,0,.07.07,0,.05.27,0,.06.51-1.14-.39-1,1.56-.8-4.05-4.22.39-6.27-3,2.12-.78,1.7.42,4.67a4.35,4.35,0,0,0,1.93-2.7c.63.28.72-1.13,1.2-2a6.52,6.52,0,0,0-.05.93c-.13-.2.64-1.93.29-3-2.25.11,1.08-1.38.1-3.67.44.33.49.94-.06,2.3,1.65-3.69,8.62-.5,9.13-4.84.2.06.1.07.41.53,0,.07,0-.17.43-.3.12,0-.42.21-.06,1.19.3.21,2.06-2,1.79-.21a5.86,5.86,0,0,1,2.49-.66s.4-1.82-1-1.94c0,.09,0,0,.15.26l.09-.13c1.39,3.06-1.37.51-3.07-1.26,1.61-1.36,0-2,2.73-6.39a1.57,1.57,0,0,1,1.07-.89.78.78,0,0,0,0,.33s0,.05.36-.16c0,0,0,0,.23.23.06-.09,0-.1,0-.67.1,0,0,.13.23.29.06.07-.11-.25.27-.69,0,.07,0,0,.11.55.17-.06.08.08.23-.5.07.13,0,0,.13.42,1.47-.45,1.4-1.38,2.66-3.28.14,0-.36.68.19.63a.8.8,0,0,0-.36.5,1.13,1.13,0,0,1,1,.39c.11-.2-.08-.42.29-1.21.22.78,1-.89,1.39.6,0-.09.21.07.33-.39l.19,0c.3-1.47,4.06,0,2.75-3.52.13.28,3.68,1,3.32-.82a3.74,3.74,0,0,0,.54-.41s.05,0-.29.5c.81.76,5.26-1,5.2-3.14.11-.13.22,1,1.11.56-.23.7-1.28,1-2.1,2.29,1.29.16,2.82-.43,5.43.05-.24.62-3.24-.3-2.7,1.7.18-.16-1.24-.51-.68-1.42l-.42-.14c0,.86-3.4,1.63-4.5,3.16a2.35,2.35,0,0,0,.8-.31c-.2.71-1.67.24-2.27,1.59.19,0,.24-.66,1-.65-.6.66-1.92,2.4-.59,4a1.46,1.46,0,0,0,.2-.35c.52,0,.79,1.88,2.23,1.27.41-1.21,2.2-1.44,3.4-3.65.91.17-.64-.81.74-1.38l.24.49c.06,0,.09-.21.35-.77,0,.38,2.17,1.69,1.39-.19-1,1.05,12.27-3.41,7.54-3.38,1.86-1.22-1.66-2.5-4.54-1.4,0-.05.09,0,.18-.46-1.27-.31-2.73,0-4.77-1.4l.79-.44c-1.78-.58-4.2-1.58-3.51-4.84-.14-.34-1,.27-1.72-.2.94-.41,1.32-1.66,2.17-3.22-.12.16.08-.45-1.21-.35l.16-.28c-2.15,1.83-2.92-1.37-6-.92.52-1,11.25.74,7.7-4.3a1.89,1.89,0,0,1,1.08.18C373,252,356.77,272.13,343.11,281c.39-.18,1.25-1.37,2.58-1.69-.07-.21.25-.33-1.2-.92.15,0,25-13.06,11.59-15,7.44,2.21,2.48,1.66,9.84-3.67l-.22-.26c6.78-.17-.62-7.55,16.51-5.72,7.47-1,7.57,4.28,19.33-5.82.35-.36,11.59-3,7.31-6.12.89.58,2.3-.84-1.1-.86,3.88.37,1.12-11.13-3.54-5.36-.11.15.14-.72-.69-.77,5.48-3-6.41-4.71-1.41-3-2.93.29-5.16,3.16-8.44,4.93,0,0,0,0-.06-.13s.17,0,.33-.32c-.27-.17-.34-.09.53-.84,0-.18-.2,0-1-1,2-.74,8.58-2.82,10.24-5.88-2.28-1.83-2.94.52-6.24-3.4-.37.73-1,1.07-2,2.35.08-.61.65-1.06,1.41-2.2-1.15-.5-2.18-1.21-4.15.7,1-1.07,1.24-2.41,1-4.46,0-.05,0,.11-.48-.12l-.3.48c.7-1.27-3.85-1-2.6-2,.54-1.15-3-1-.44-2-.29-.37-.59.11-2.05-.59,0,0,.15-.27.95-.45-.57-.65-1.62-.58-2.67-1.76.12,0,0-.25.71-.19.13,2.57,7,.14,1.12-2.67,1.07-1.23-.39-1.09-1.82-1.56,3.73.23,1.4-6.39-2.69-3.44.39-.12,4.89-4.65.45-2.63,0-.92-.64.16-1.42.54-.05-.65,4.68-3.07.89-3.6.64-.18-.49-1,.21-1.29-.51-.63-1.2.65-2.63,0,1.14.8,3.11-2.65.69-1.52.07-.38.19-.29-.69-.9,1-.33.47-1.26-.3-2.86,0,.15,0-.28-.6.57.15-.36.75-3.32-1.9-1.89,3.59-1.65-2.43-4.15-.91,1.68l-.1.13c-.87-1-3,.41.06,2.51.3.65-2.41-2.22-1.31.5l-.36-.24c-.08.07,0,.13-.33.94-1.38,0,1.78,1.14.22,1.37.19.12-1-.5-.56.28.11-.12-1.36-.08-.47.74-1.61.32.37,1.19-.63,2.89.58-3.91-4.32-.68-5.84,2.91-.19-.25.19-1.52-.28-2.74-.29.31-.2,1.2-1.08,1.77,1.27-4.65-.51.6-3.43,1.56,3.44-2.2,5.67-7.54-3.3-6.09.88-.06.11-2,1.3-.09.16-.37,1.95-3.88-.26-3.48-.3-2.16,2.16-4-3.42-4.74,3.91.22,3.39.94,3.86-7.34-.39-.09-.81,2.56-2.07,1,1.1-1.74-6.3-.37-5.27-3.56-1.81.51,2.07-3-2.12-1.38,1.41-.19-.21-3.42-1.84-1.76,1.58-1.63-4.25-7.58-6.54-2.05-.73-.62-2.21-2.4-4.07-.48l-.07-.1.47-.42c-4-3.84-13.11-2.53-6.47,5.14-1.14,1.11-.45,3.33-2.34,5.35a3.75,3.75,0,0,0,2,0l.05.11c-1.16,2.21,1,4.83.84,8.65-1.12-2-2.79,2.73-4.06,6.33,8.44,5.53,11.09,18.46-1.84,24.2-4.76,1.26-.6,2.1-.75,4.53.85.07.44.94,1,1.59-1.3.36.5,5.92,1.75,9.12-2,1.61-1.11,3.25-1.6,6-.38-3.72-4.91-2.07-1.56,2.43-.91-1.29-2.94-4.72-5.29-2,2.8-1.48,0-6-3.43-6.19,2.86-1.51-2.63-1.42-1.14-8.78-1.78-3.08,3.43-13.17-11.3-8,2-3.17-4.2-4.24-7.72-6-3-4.75-10.71-9.69-16.92-5.82-.1,0,.26,0,.24-.45-.18-.13-.84.31-1.73.8,3.31-1-2.89-20-5.4-9,.39-2.28.09-3.21-2.2-5.19,1-2.09,1-6.86.69-9.92,1.77-1.09,2.17-5,3.34-7.53.61-1.44,2.69-.51.81-2.95-.44.33,4.13-1.32,1.32-3.17.65,0,1.33.56,2.39,1.48-1-1.57-1-3,2.08-3.2.64-.49-3.56-1-.62-2.05,6.79,2.37,6.43-8.13-1.24-5.38,3.35-3-4-.31-4.33-4.69-.54.57,15.11,8.34,12.4,1.34.31.13,2.12.49.31-1.19.2-1.21,3.95,2.93,3.09.11,1.09,4.34,12.11-10,5.42-9.45-5.11,1.72-8-7.3-11.89-4.73-2.88-1.75.76-1.15,4.2-.36l-.34-.53c2.94-.68,9.81,13,13.47-2.51-1.61-.36-4.09-3.19.65-2.63-.46-1.31,14.49,9.06,3.62-3.54-1.15,2.1-.91-3.38,2.2.78,1.82,2.62,2.73,7.35,8.43-1.33,4.79-.81-.8-9.58-2-12.12-2.47-1.88,9.45-2.84,1.66-5.53,3.73-3.48,1.8-2.21-2.8-6,4.57-1.62-6.35-3.55-9.78-3.43,1,2.35-1,5.67,2.37,7.58.22.9-1.82,1.84,0,2.93-4.8-1.4-2.74,11.52-8.88,14.76-2.67-6.91-5.13-5.3-1.53-11.65-3-8.4-5.19-12.62-8.36,1.81-1.93-1.63-.54-3.86-1.34-6.61.66-.71-3.35-3.42-1.54-3.61.53,1.65.53-1.42,2.14-1.41-.63-.64-1.94-.86-3.6-.69,0-.19.31-.23,1-1.11-.84-.73-3.1,2.61-3.8-.17-.2-.57-1.24.18-2.31-.15.49-.9,5.47-4.24,1.32-4.42a5.58,5.58,0,0,1,.78-1.41c4.16,3.92,1-3.15-2.43-6.43,1.9-5.22-3.46-9.38-6.16-12.41-3.7,1.66-3.45,3.85-2.92,7.18-3.14-3.62-5.63,8.42-1.13,6.91.29-.09-.95.69,0,1.53-5.35-.2-.14,11.46,4.23,9.17.69,2.73,3.47.79,4.38,2.81-.24.45.14.1-1.12,1.48-.52-.4.12-.76.46-1.89-.35,0-4.21,1.66-1.63,2.78-2.45,1.4-1.94,7.28.95,1.4,1.2.67-.52,3.23,1.28,3.61-4.85,6.91-8.61,2.08-6.7,15.17-1.71,2-3.12-2.31-1.56,3.23.77-.92-4.65-4.87-.78-3.57,1.14,1.87,4.05-2,.85-1.49-1.89-2.07-2.43-3.31-.68-9.82-.87-.1-1.46,1.52-2.64,2-.12-.48.89-1.47,1-2.56-.15,2.48-6.39-4.85-4.79-.73-.78.64-1.63.22-3,.23,0,.63.65.93.93,2.34l-.4-.16c1,3.55,1.07.07,4.54,2.58.29,5.45-3.58-1.11-5.32-1.74,1.82,3.2,0,3.28-5.25,1.9-2.64.23-6,2.43-9.24-.13-4-6.28-1.88,5.1-11.68-10.13-6.82,2-15.73,9.55-1.56,5.4,2.55-6.31,5.75.73-4.19,3-.78,3.16.64,6.4,2.26,10.54-.14.06,0,0-.86-.59-2.41-1.1-.86,2.61.5,4.85-1.39-1.37-2.59-3.85-4.35-6.14,4.21,2.56-.57-7.57-1.25-3-.76-1.33.08-3.09-2.93-3-.71-.54-.78-3.47-3.18-1.31-.3,1.36-18.09,4.34-16.16-1.78,10.33-3-3.9-11.58-3.07-7.17-8.91-.26-15-9.81-24.49-9.64-.68,1.21-.23,4.75-3.61,4.39-3.53.67,1.08-2.3-1.05-3.62-1.19-.48,1.18-6.65-2.25-3,.24.29,0,0,.78.37-.46.16-.62,2-1.52,1.64.89,17.08-11.17-15.75-9.81-5.49-.31.33-.17.84,1.08,1.07-2.2.67-2.26,4.56-5,5.55,2-4.37-5.76.27-6.57,5.07,0-.31.07-4.21-1.25-1.51,1.54-2.86-7.46,3.23-4.28,4.63.5,1.62-4.24-.68-2.09,1.38-5.06-4.18,13.81-9.52,12.17-14.42-6.54,2.25-8.91,5.12-15.81,9.48.84-.7,1.13-5-1.06-3.78.39,1.57-1.91,1.46-4,3.41l-.27-.2c0,.52-1.73,2.5.41,2.79-3,1,.12.16,1.11,3.32-6.32-1.45-11.28-7.67-18.09-9-6.65-.07-5.77-7.25-16.32-4-8.61-2.62-14.64-5.78-24.26-4.65a3.55,3.55,0,0,0,.62-1.14c-7.46-.61,6.3-3.87-10.6-3.54.43-5.8-2.86,2.6-4.79-.36,5.38-2.37-2.72-3.09-.87-5.07-1.73,1.46-8.62,10-10,5.62-.75,0-1.93,1.34-3,2.57.74-.17.66,1.43,2.45,1.16-.32-.12-.47.81-1.51.29a11.18,11.18,0,0,0-.18,2.27c-.24.17.52-.71-.8-.57-.24-.17.82-.81,0-1.45l.5-1c-2.23.15-3.78,3.72-7.42,4.23.1-.15.33-.28,1.1-1a7.28,7.28,0,0,0-.42-.77c-1.56,2.58-4.45,5.63-4.59,9.66l-.07-.12c-1.18,4.1-5.71,5.68-10.56,5-.15.7.43,4.68-1.54,4.91l.36-.48c-.27.15-.24,0-.85.61,11.34,4.45,9.84,15.16,15.39,11.59a1.74,1.74,0,0,0,.06.76c.55.18,1.28-1,2.71.36-4,5.44,4.92.76,4.89,4.94-1.23.31-4.48.12-6.15-1.69-.61-.8-.09-3.83-2.21-2.49.84,3,3.89,3.45,5.54,6.19l-.27-.44c-2.43.53-11.24,5-9.79-2.93.28-.05.1-.12.9,0,.58-1.22-10.24,1.5-6.76,3.55-2.85.09-4.64,1.46-8.28,4.17a4.23,4.23,0,0,1-.05-.57c-1.85,2.66,4.4,2.84,6.36,4.11-.86-.76-1,1.47-2.84.86,4.54,10,5.94,2.16,13.31,6a1.84,1.84,0,0,1,.32-.78c.15-.06-1.57-.16-.53-1.08.22.34,1.28.73,1.39,2.26a46.88,46.88,0,0,1,3.69-3.6c2.41-.91,5.61,0,.94,3.12,2.67,0,4.44,10.12-2.78,7.2-.68,1.9-2.09,3.33-5.12,4,2.05-1.52-4-3.08-2.27-.11-.77-.27-2.22.64-1.44,3.12a2.16,2.16,0,0,1,.72-.66c-.21.06.41.45-.9,1a1.17,1.17,0,0,0,.3.64l-.07.11c-1.07-1.13-4.33,2.49-2.93,4.59a8.29,8.29,0,0,0-1.64.49c.22.29-.07.37.95.79-.19.49-2.07-.18-1,1.39,1.28-2,.88,5.72,3,1.73-.33,0-.38,1.36.41.56,0,.26-.11.94.91.58-.1.45-.06,0-1.08,1.06,1.33,1,3.87.2,5.59.45-.05.21-.21,0-1.12.35.6.17,3,.47.62,1.88-.6-.55-.32-2.31-2.26,0,1-1.83-1.79-3.14-3.45.36.43-.13,9.36,10.48,9.38,1.93.84,0,1-3.18,2.6-3-3,2.67.93,6.79.19,11.2.12.07,0-.32.87-.23-1.08.44.75,2.48-1.76,3.15,2.36.67,3.19-1.07,6.26-2.75,2.11.15,6.55,8.59,5.47.53.93,1,.78-2.11,2.56,0-3.23-1.52-.86,6.24,4.47-1.06.09.39-1.07,1.68-.58,2.69-.61.44-3.71,2.65-.77,3.62-1.28-.39-2.73,3.4-.94,4.52-2.43-1.87-4.13,5.33-5.12,4-1,1.58-7.74,3.3-4.83,6.79-1.11-1-2.72,1.58-2.14-1.18.44-.13-1.52.74-1-.13-2.5.75-6.68,4.12-7.59,7.24.3,0,1-.31.76-1.38,2,2.33,1.4-2.86,2.58.08,1.72.46,2-4.79,4.17-3-2.69,1.08.28,1,2.47,0,.12.1,3.41-3.94,3-.54.17-.51,4-4,4.06-2.71a6.64,6.64,0,0,1,.8-.85c-.18-.09-.08-.94-1-.73-.63-.54,3.15-1.44,1.67-1.51,4.56-1.9,6.59-6.12,13.61-11.27,7.57-8.11-3-1.61,1.89-9.12-.47-.85,3.76.35,1.61-1.44.83-.28,3.79-1.37.63-3.13,3.41,2,.63-4.82,13-8.67-2.15,1.46-4,2.56.89,4.5-1.63-.35-7.71-2.27-7.88,2.3,1,2.11-5.4,7.1.7,6-2.15,2.07-5.49,5,.93,2.5.72-.61,2.65-2.75,3.7-2.73.31-.11-.41-.37.31-1.26.09.15,0-.15.35,1.06a18.82,18.82,0,0,0,.77-2.37c1.78,4.12,8.08-4.78,2.65-2.7.27-1.08,2.78-.05.3-2.41.65.48,1.86-2,.51-1.32.54-.93,1.15,0,2.32-1.5-.45.09-1.66,4.14.65,1.62,1.33,1.33,2.11-1.15,4.5-.85-.49,0-2.53,1.22-.37,2.17a7,7,0,0,1-.63.58c1.14-.13,1,.42,3.15.56a2.51,2.51,0,0,1-.79,1.23c1.48-.1,1.62,2,4.25-1.36-3.49,4.3,8.58,5.77,11.54,3.9.09.24,1,.33,0,1.5,3.53,3.75,5.07-2,8.51.47-.7,0-1,0-1,1.56.71-4.7-4.86.69,2.71,3,0,.09,0,.06-.16.25,2.63,1.14,3.21,4.46,6.87,6-.43-.31,4.6-1,.44-2.49.53-.37-.56-2-2-1.73,0-.13.64-.3.25-1.09,1-.34,3.73,4.27,3-.09.22.22,0,0,.47,1.18.09.1-.12-.28.67-.16-2.83.5,5.85,10.78,1.14-2.07,0,0,.08-.08.36,0a1.81,1.81,0,0,0-.3-.68c.27-.11.23,0,.42-.76.07,1.16,2.31,11.35,5.23,6.1-1.22,2-.73,4.55,2.4,4.25-1.27,0-2,0,.27,2-4.46-3.09,1.81,7.19,5.51,8.69-.7-.88-3.94,5.61-1.12,3.49,0-1.47,1-1.91,2.94-2.75-.43,2.73,1.81,16.64,3.54,1.25-.47,1.38.19,2.88-.08,5.12a5.31,5.31,0,0,0,.89-3.08c.09,0,0,1.17.83.6-.51,1.46-6.44,8.4-.23,7.47-1.34.82-4.25,2.17.22,5.78,1.22-.42,1.26-4.66,3.62-3.57-2.58,1.76,1,1.45,2.13,3.43-.4-1-1.93-.7-3.44-1.66-1.44-3.37.37,5.1,3,3.78a9.06,9.06,0,0,0-.77,3.15c.41,0-.09-.3,1.15-1.08-.65.58.15,1.32-1.45,2.24a4.92,4.92,0,0,1,.9,2.1c-.1-2.51,3.41-3.3,3.8-6,1.11,2.24-2.63.19,1.08,4.48a26.32,26.32,0,0,0-1.86-1.9c-.25.28-2.29.39-2.17,2.3h.46c-.2.09-1.07,2.31.29,2.9.33-1,1.43-1.65,3.36-1.27-4.86-1-4.2,7.26.61,3.62.29-.15-.44,1.28.5,1.21-1.15,1.33.13.66,1.68.85-3.39,0-.09,2.61,1.26.19-.33,1.17,2,1.65,2.39-1.23-1.55,1.57,2.16,10.25,3.21,3.78,1.4-.22-1.35,3.1,1.28,2.73-3.45-.65-.21,3.42,1.39,0-.13.39-.78,3,1.08,1.51,0,.34-.21.6-1.23.75.23-.17-.2,1,.52.69-.31,2.2.43-2.31,2,3.05-.35.94-.7-.09.39,1.5-.15,0-1,.43,0,1,.1-.06,0,.05-.07-.52.46.86,1,6-2.15,5.41.14,0,.6-1.95.91-.4a2.1,2.1,0,0,1,.21-.51c.36.57,1-.44.12-1.53.09-.08,1-1.08.31-1.63.17.87-1.42,1.27-1.69,2.73a1.33,1.33,0,0,0,.53-.09c-.58.61-1.48.47.33-1.94.07.07.06,0,.07.3.3.15.55-1.16.08-2.1-1.88.46-4,0-6.79-1.27-.19,2,1.71,4.4,2,7.39a1.33,1.33,0,0,0,.1-.42c.38,0,0,.21.94.37-2.06.72.35.77-.36,2.7,0-.08-.15.06-.35-.87a8.19,8.19,0,0,1-.1,1.65,4.3,4.3,0,0,1,3,.63c-.82-.21-1-.07-2.7-.33a51.38,51.38,0,0,1-1.05,13.82c0,.08.05-.23.32-.07-3.08,3.09,1.67,7.34-.09,12.45h.11a.63.63,0,0,0-.1.35l-.11,0s.08-.05,0-.17c0,3.48,1.91,8,4.84,11.81l-.36-.46a2.73,2.73,0,0,1-.07,1.06l.23-.3c.18,0,.83.91,1.64,1-.66-1.57,1.48-1.27,3.31-1-1.14.53-4.47-1.38-1.92,2.55-.25-.16-1.17-.31-1.1-1.37-2.42.42,5.1,8.81,6.41,14,1.46.73,11,1.77,11.66,7.86.13.1,2.26,3.14,1.84,3.83,1.56,2.34,2.49,5.06,4.06,8.32,2.07,1.56,6.33,3.69,5,7,.13.22-.39.32.32,1-.05,0-.9,0-.82-.77-.84.43-.39.38-2.59.12.8.57,4.48,5.94,6.62,3.51.26,2.7,2.77.4,4.67,8.95,1.92-.37,7.5,10.42,8.46,4.39-1.4-3-3.4-1.78-4.62-4.23,1.25,1.37-4.84-12.34-3.39-7.69-2.14-1.73-3.53-7.44-6.33-9.22-2.65-3.47-5-6.52-5-12,1.34,1.4,5.47,1.32,6.42,3.36,1.19,4.38,3.39,11.44,9.06,12.85-1.44,2.51,3.56,3.61,5,6.3-.08,0-.14.07-.29-.2-1.1.26-1,4.1,1.1,2.21-1.05,1.06.95,1.17,3,2.69-.15.09-.4.13-.86-.18-.82.18,5,4,1.81,2.34,3.25,2.67,10.48,8.84,7.93,13.81-.72,4.39,4.94,8.71,13.18,10.94,6.61,3.82,16.1,10.17,24.53,5.87-.87.38-.78-1.51,0-.21.09.15.44-.46.72-.11l-.34.32a20.54,20.54,0,0,1,2.39.76c-2.61-3.64,3.51,6.7,19.4,10.14.06,0-.29-.11-.71-.3,1,1.06,3.48-.85,4.18,0,2.22,2.31-2.28-.29.13,1.85,0,.66,7.17,5.25,5.46,6.61,2.08.84-.75.9.8,3.32,1,.49,4.38,2.51,1.47-1.05.75,1.73,6.5,2.66,5.37,5.78a2.05,2.05,0,0,0,1.56.74c0-.41,0-.13-.63-1.06,1-.13,1.05,1,2.08,2.23.09-1,.48-.7,2.26-.84,1.27-.15,2.91,3.68,4.12,1.44-.49,2.09,3,3.41,3.48.82.34-.24-3.63-1.48,1.14-3.26l-.23-.15c.94-3,4.68.26,5,.47s.6.58,1.06,0c.15.36.08.48,1.19,1.27-1-.05-.8-1.67-2.33.26-.12,1.93,4.62,4.27,3.34,6.22-.63.5,2.21,1.45-.22,2.62.6.49,1.48,3.37.05,4.62l.39-.13c.17.37-.45.17.18,1.06l.28-.4c.3-.22-.32,1.18.71.51a41.05,41.05,0,0,1-2.59,4.17c-1,1.57-3.48-.64-2.68,3.28.06.24-.91-1-1.58.52,3.07,2.72-4.52-.82-4.42,7.8-.06-.06,0,.16-.61-.12-1.59.32-2.45,10.1,1.58,6.15,0,1,.38.72.58-1,1.89,4.28-4.39,4.6-5.26,9.06,2.09,3.22-.5,4.7,5,7.8,3.65,7.36,11.09,16.72,12.4,24.63,13.58,20.71,31-4.85,16.42,63.33,1.61,8-.91,21.17-6.66,27.56-.81,3.26,1.69,6.51,1,10.75-.62,1.94-4.11,6.57-1,9.07.09.24-.3,0-.39.75,1.08.73,1.9-.17,3-1,.41-.14,1.12,2,2-.09.92.32-4.06,2.45-.63,2.25a20.73,20.73,0,0,1,.24,2.13c.26-.5-2.34-2-.71.36-.83-.34-.82,1-.44,2.52-.75.93-3.45,5.71.33,6.74.6,1.84-2.53,1.8-2.75,3.94a2.22,2.22,0,0,1,1.8,1.07c-4.22-2-1,3.35-3.55,5.62.18-2.29,3-5.12-1.58-1.79.71.85,3.22-4.87,1-3.79,1.34,3-5,.51-2.9,3.5-.14.6-4.46,2.36-2,4,.3.07.82-.68-.24-1.08.31-.62.78-.06,2-1.1-1.06,3,3.42-.36,2.9,3.42-1.74.51,0,1.81-.29,2.56-2.86-2.37,0,4.61,1.85-.12.23.59.1,1.82,1.16,2.71-1,0-2.1-.93-4.22-.93.06.8-.36,2.87,2,2.49-1.62.14-1.91,3.64-.75,5.46.25-.2.08-2.15,1-2.57-.31.9-1,1.84.35,3.15-.84-.75-3.26.71-.62,1.73l.19.36c-.7.23-1.32-.56-2.36,1.08a6.14,6.14,0,0,0,2.38,1.73L345,661c.06.24-.29.72.73,1.89.49,0,.31-1.25,1.13-1.85.05,0-.3.23.13.88-.2.12-.77,0-.66,1.58-3.41-1.3-.15-4.53-4.53-1.42-.25,3.12,5,1.58,4.1,5.21-.22.05-.46-.67-.94.36,0-.23-.05.57,1.06.43.52,2.38,7.54.67,2.45-1.57,1.8-.58,3.28,3,1.83,5.13.59-4.2-.46-.57-3.54-1.75.14,2-3.2-1.2-1.64,1.74.36.87,2,3.2,3.4.6.86,0-.14,1.57-1.62,2,2.43,4.09,1.9-2.66,4.24-1.22.37-.57,1.76-1,3.26-.11-.87.6-2.11.19-3.92,1.22-.05-1.53-3.06,3.18.27,3.74.33-2.51,8.66-7.83,2.31.37-1.84-6.16-2.79,5.06,3.24.89-1-4.38,3.76-9.37,8.89-7.65-.15-1.09-1.32-4.25-3.6-4.37,1.61,0,1.9-1,.93-3.3-.05.07,0-.12-.53.29-1-.65,5.85-6.61,1.31-5.73-.24-.33,1.61.21,1.1-1.35,3.55,5.62.86-3.45,10-9.61,0-.68-.78-.38-1.46-.6,8.27-3.43-16.68-6.49,2.2-14.92,1-2.25.27-7.51,4.5-9.23a7.19,7.19,0,0,1-2.49-1c1.53-2.67,2.38.89,4.69.22.52-.55.82-4.86-2-2.62l.68.07c-.87,3.63-6.55-5.45-2.62-7,0,0,.09.07-.17.27,5.06,1.85,9.55,4.16,9.4-6.54l.44,0c-7.31-3.72,22,1,18-13.34-3-.8.7-4-2.14-5.72-5-1.65-3-5.87-2.3-10.67,1.81,1.27-6.86,9.17,10,9.78,6.69,1.89,10.19-10.39,14.11-17.13,0,.05.08,0,.26.32,0-.64.48-1.42-.05-2.9.07,1.93,2.76,0,2.52,1.63-.41,1.84-3.93,4.76-5.13,6.83,6.34-6.08,14-16,11.82-24.86.72-.8,1.65-.61-.19-2,.91.92.56-.61,1.92-.23l-.2.36c.33.11.89-.59,1.18-1.29,0-.06-.08.13-.29-.12,3.65-3,7.28-4.78,12-6.72-1.23-.52,1.3-1.84,3.14-1a4.68,4.68,0,0,1-1.05.18c.88.52,2.44-.42,3.12-1.26-.51,1.19,2.87,1.44,4,.24,6.09-7.8,11.31-19.64,10.46-32.24l-.15.35c-.4.52.43-2-.28-1.84-.34-.58,1.68-1.71.83-2.85.27-.1.37.08.57-.59,1.33,2.79,3.59-1.61,4.81-5,.05.11-.07.26-.12.67-.18,0,.35.29.61-1.19.85-1.14,4.12-2.44,4.54-4.88C482,490,483.29,485.5,483.37,482.52ZM328.45,291.62c-3.65,3-9.2,6.67-14.59,6.32a4.91,4.91,0,0,1,1.15-.31c-3.45-.24-2.32-2.48.05-5.52.08.82,2.65,2-1,1.75-1.6,1.36.52,1.13,1.61,1.85.07-.87.9-1.17,2.24-1.8.06,0,0,0,0,.28,1-2.32,2.93-2,6.42-1.41-4.37-1.51,5.11-.59,3.5-2.62C328.25,290.16,328.46,290.87,328.45,291.62Zm-2.58-3.41c1.26-1.69,4.58-2.35,7.27-2.42l-.08,0c.15.28.3.23,1.08.21-.15,0-.35.42.24.08-.27.49.38.57,1.13-.08,0,0-.07-.11-.61.11-.09-.19.27-.23.63-.77-.79.28-.91-.26-1.58-.2-.37-.05-.17-.06-1,.28.06-.35,1.22-.49,2-.55l0,.2c0,.14.19-.22.48-.15-2.16,1.83,7.75-3.86,1.91.39-.05,0,.11.05.16.31,0,.07.9-.53.4.19,0,.07,0,0,.43,0,0-.05-.48.88-.57.5.41,3.07-3.54,3.25-7.33,2.43C330.27,288.11,323.78,291.62,325.87,288.21ZM281.94,272a38.19,38.19,0,0,1,9.34-6.72c.2-.51,3.2-4.57,1.82-1.27,1.28.3.79-2.93,2-2.56.58.62-.77.78-.66,2,.38-.92.5-.18,1.41-1.26-.92-3.29.86-.54,5.48-.38,2.92.7-1.06,4.58,6.09,4.34a4.62,4.62,0,0,0-.4.94c-.82,1.05,1.31,1.32,1.21,2.47-1.26,1.27.41,1.42.74,2.17-2.16,2.33,4.57,3,9.29,4,0-.15,1.41-.53.44.09-.06.12.36.11,0,.31,1.63-.59,3.15.8,4.21,1.77.25,1,.1,1.12,1.37,1.4-.43.25.34,2.59,1.21,2.31.12.06-.25.24.07.53-4.27-1.22,2.76,2-4.33.74-.26-.11.59-1.5-.78-.75,0-.09.85-.81.42-1-1.1,1-.46-2.71-2.36-1.16,1.84,1.17,1.57,3,.12,4.95-.74,1.48.77,4.94-2.71,5.66-.89-.84.28-6.86-3.41-4.32.46,1.56-4.31,2.52-.26-1.69,1.47-.38-.56-3.91.65-3.83-.68-1.85-3.51-3.34-6-3.58.31.31-1.22,1.25.18,1.77-1.85.17-1.25,1.17-2.18,3.16,0,0,.27-1.77,0-.64-.05,0,.1.16-.26.48s.79-3-.23-1.59c-5.09,3.43-.21,9.35-3.11,15.11-3.68,5.15-5.28-3.31-4.31-7.36-.52,0,4-10.35-.6-4.92-.39-1.74,2.42-3.6,3.47-6.76,0,1.42,0,.88,1.48.17.37.37-1,.78-.21,1.3,1.24-1.94,4.34-3.25,6.71-1.24-.78-1.59,4.91.42,1.67-1.77,1-2.5-3.84.23-2.56-2.77-2.51-.22-5.28,1.64-7.75,1.3-1,.51-2-4-4.49-1.46-.09-5.17-3.61,2.1-8.11.6-1,1,.08-.56-.3-1.42C285.57,270.85,283.23,273.49,281.94,272Z" />
  <path class="land"
    d="M350.62,1.26c-2.26,4,4.3,9.83,8.76,7.91-2.79.56.39,7.14,3.89,5.55.76-2.05,1.68-1.14,4-.47,3.93-1.95,5.51-5.93,5.08,3.87-2.51-3-7.84-1.52-9.72,1.21-3.07-1-9.93.29-5.56,4.29-.89,2.81,2.32,1.44,3.66-.93-2.46,4.18,2.23,4.37,5.44,5.42-9.42,2.63-1.18,9.28,5.18,9.73-.19-1.13-4-4.6,1.1-2.58,1.62-2.67,1.39.11,3.68.13,5.16-2.61,9.44-3.6,16.84,1.47,7,5.25,6.18,2.63,8.49,11.84,1.88,5,9.89,8.35,3.09,14.29,2.66-1.72,5.66,1.74,4.44,4.62-.81,1.72-.05,2.31.81,4.65a4.61,4.61,0,0,0,1-.94c1.78-.46-3.07,8.76,1.31,5.4,2.41,1.8,1,5.7-1.75,6.81,1.45-.39-2.16,6.28,2.37.5-.41,2.7-7,13.27,2.54,11,.52-.08,1.41-.67.54-2.66,4.15-.42-1.14-6.3,1.29-8-1.49,1.61,1.38,3.51,1.12,6.51l.67-.2c-1.78,3.71-1.37,2.81,4.8,1.4-14.18,7.12,8.67,6.1,0,7.35,2.92,1.34-.16,4.1,3.84,6.49-3.22,1.47-8.87-7.83-13.54-3.17,2.65,4.36,9.23,7.91,14.8,7-.4,2.28-2,4.19-2.65,8.21,5.34-.09-.95-.11-.61,4.58.32,0,.79-.08,1.55-.75-1.94,7.09-6.38-4.18-9.05,5,2-.55,3.29,1.58,6.15.23-.09-.2,1.89-2.8,1.5-.49-2,7.55-6.29-5.81-8.89,7.23,4.1-2.11,1.49-2.57,10-2.16-1.7.6-.38,1.08,1,2.35-2.21-1-3-.92-6.68-2.15-3.52,1-9.11,7.87.44,8-3.87-.9-9.8,14.26,4.09,0-1.71,2.33-4.68,4.7-7.62,7.3.32-.08-.06.68,1,.61-1.74,6.62,3.05,2.76,7.09,1.93-1.17-.11-5.21,2.37-4.78,4.46,2.67.59-1.16,15.11,4.61,3.61a6.36,6.36,0,0,1-.29,1.28c1.91-.41,1.86-2.17.92-4.72.33,2.5,2.87,3.16,3.34,6.2-.34-.07-2.13-4.1-2.9-.91-1.94-1.17-6.13,7,1.4,2,0,.28-.65,1.28.62.8-.71.61-2.7.78-4.53,1.66-.14,2.8,2,6.13,4.07,9.25.54-.17.62-1.2,2.1-1.71-1,.79-1.69,2-1.85,4.37a8.15,8.15,0,0,0,2.69,1.81c-1.05,2.31,0,1.25,2.55,1.14-1.67.31-1.76,1.8-1.62,3.63.61,1.4,3,2.13,3.18,4.25a11,11,0,0,1,2.16,0c-.38.25-3.5,2.22.15,1.93a2,2,0,0,1-.24-.71,7,7,0,0,0,6.77-2.81c-1.15,2-.83,8.1,3.92,4a2.32,2.32,0,0,1-2.15,2.07c-.26,1.41,2.79,4.11,4,.71.65.27-2.48,3.25.56,2.44,0,.06-.1-.06-.18.65a2.79,2.79,0,0,0,1.61-.19c-.06-.28-.71-.47-1-1.16,3,2.12,4.86-2.07.11-4,5.09,2,4.17-3.55,5.62-7.87l-.92-.26c2.77-.5.39-3.47,1.52-6.37-.62-.25-1.4.06-2.77-1.15,2.18.15,6.75.24,2.7-3.76.66.45,3.48,3.49,4-2.37,1.47.84,3-6.14.06-4.81a12.31,12.31,0,0,0-1.93-1.43c.44-.54,3.16,1.77,3.1-.25,2,0,1.92-2.32.15-4.78a2.09,2.09,0,0,1-1.09.39c0-.52-.38-.64-.42-1.92,3.69.64,5.63,0,3.95-3.82,1.82-.8,8.6.64,5.07-3.86a7.46,7.46,0,0,1,1.33.91c.4-.55.18-1.93,1.37-3.09-.54-.44-.14.14-1.42-1.08-.54,0,4.11-.11,2.72,1.19-1.85,1.28-3.29,8.94.23,4,.39,0,.14.23.89-.7.25,1.17,2.06,1,1.88-1.16.1.26.62,0,.53,1.51,1-1.51,3.62-2,1.8-5.27,3.68,5.09,7.35-5.25,9.28-10,1.92-4.55,4.76-.18,3.16-8.22.25,0,6.39,6.89,5.65,1.76,1.21.83,19.45-3.38,19.45-9.74.74-.39,4.14-1.11,3.14-3.24.56,0,3.22.91,1.51-1.52-.75.69,7.92-3.09,5.08-3.94-11.23,0-7.78-5.42-18.31,1,5.23-6.42,5-3.54-5.07-4.31,1.57-1,6.3-3.12,2.37-5.8,2.15.53,13.79.51,8.17-5.5-.36,0-5.15.4-3.3-1.46,9.86-1.93,12.47,23,16.09,8.38,0,1.2.11,2.23.18,4.2,5.09,3.63,2.51-18.26-.12-8.39-.59-1.8-.21-2.7,1.61-5.46-1.8.59-7.73-9.47-11.1-6.84,2.73-7.68,2.88-6.38-5.41-4.29,13.39-7.82,1-1,15.34,6.9,1.19-8.21,3.3-9.35-7.26-15.32-3.65.17-6.34,3.37-10.74,4.23-3-2.89,7.12,1.25.5-4.47,3.53,3.76,11.58.72,6.15-5.16,1.26.19,2.74,6.07,4.8,1.09,2.45,9.84,16.08,4.37,12.73-1.35-8.13-3.32-6.39,1.14-5.09-8.94.37,2.06,1.69,10.09,6.07,3.7,6.22,1.84,2.5-5.05,1-9.13-2.34-2.76-1.23,5.57-3.71,4.08,2.81-9.49-1.75-1.18-4.2-6,2.06,3.06,4.21-1.23,6.65-2.63,6.19,6.06,2.48-6.22,1.26-12.2-1.35-3-4.46.15-5.9-2.61.15-4.73-4.42-3-2.75-6.23,8.88,1.49,1.61-6.4,13.5,0,3.1-8.77,1-5.48-6.13-10.09-3.59-8.82,2.23-1.39,3.7-3.45-1.67-3.22-5.62-7.69-8-.5-1.65-3.12,1.42-7.48,1.31-12H350.12C350.22.29,350,.17,350.62,1.26Z" />
  <path class="land"
    d="M546.25,165.29c2.34-2.19,8.68-3.11,9-7.29.26,1.19,4.23-2.8,2.21-3.7-.16.35,1.12-3.27-.1-2.85-.14-.24-.84-1.76-2.42-.36,1.76-1.66-1.48-1.23-1-2.19,1.61-1.8-3.62-1.88.56-4.73-4.34,4-5.53-5.87-6.65,1.61-1.19,1.29-2.1-1.39-3.74,2-4.14-5.69-.6,5-3.18,0-2-4.53-2.84.49-4.2,1.4-2-2.52-2-4.9-2.94,2-.92-1.36-1.73-.45-2.27,2.53,0-1-1.11-1.49-.9-2.74-.28,0-.07-.09-1-1.11.62.69,2.2-1.38.5-2.09.91.33-1.65-4.08-4.82-4.1-.37.16-1.86,1.5.71.9,0,.3.07.16.71.62-4.06.42,2.1,1.07-.46,3.44-.18.13.43-1.2-.38-1.47,0,0-.22.55-1,.49.71-1.2-3.25-2.81-1.46-.37-.21.08-2.54-.92-.32,1.24-.31-.26-2.69.73.84,1.11-.95,1.38-4.33-1.79-2,1.79-.88-1.14-4.42,0,.22,1,.76-1,10.58-2.31,4.52,1.89a1.91,1.91,0,0,0,2.57.08c.09,2-2.75.55-4.68,1.84-5.64,1.06-3,1.05,3,2-.53,1.55.16,1.77,2.31.82,0,.1-2.36,1.23-1.09,1.91.12,0-.4.18-.53.63.41.34,1.08-1.08,2.07-.53-1.3-.18-2.18,4.82-4.35,2.38-.13.48-.33.62.17,2,1.1-.26,4,.05,5.48-.84-.55.11,1.41,2.42,2.39,1-1.54,1.66,4.81,3.87,7.71,2.61C542.33,167.8,543.34,165.78,546.25,165.29Z" />
  <path class="land"
    d="M893.51,430.85c-1.51-1.76-2.88-8.28-6.6-8.14,0,.53.77,0,1.66.92-.43.05-.31.07-1.2-.34.29,1.65-.83,3-1.06,5.49-.21-.21-.1.07-.12-1C884.26,433.41,891.84,441.46,893.51,430.85Z" />
  <path class="land"
    d="M782.69,509.27c-.06.73-1.68-13.6-5-8.87-.25.81-.06,4.87-3.37,4.3.49,1.12-1.38,2.15.08,3.62-.83-.59-.92.72-1.88,1.16.53-2.51-.89.44-1.41,1.65.86-1.56-3.45,0-2.06,1.6-5.82-1.21-11.36,3.91-7,13.35.34,3.37-3.93,6-4.2,10.15,1,14.26,13,19.28,17.07-1.09,2.46-8.17,5.83-15.6,5.74-24C781.35,511.31,784,515.76,782.69,509.27Z" />
  <path class="land"
    d="M341.67,386.11c2.76-1.24,6.85-.3-1.69-3.47.16-1.18-2.5-1.54-4.46-1.84,0,0-.09.05.11-.26a7.87,7.87,0,0,1-.93-.71c-.28.17-.26.81-.94-.09-.09-.12.51.35.78-.11-.51-.08-.35-.42-1.54-.92,0,.05,0,0,.3.38-2.23-1.37-5.64-1.86-8.27-3.91l.11-.23a50.55,50.55,0,0,1-5.07-1c-2.86.1-10.37,0-11.37,4.21-1.63.84-.67,0,0,1,.41-.8,12.63-5.72,8.53-2.3.13.25,2.79,1.81,3.14.45.21.74,1.28,1.26,2.46.55,3,3.36,4.52-.34,8.74,5.26.33.24,5.87-.72,1,3.19,2.15-.57,6.17.11,9-.57A.93.93,0,0,1,341.67,386.11Z" />
  <path class="land"
    d="M353.93,393.93c2.07,1.38-1.06-1.52,6.54-2.45,2.71,1,9.66-.37.52-2.48-.13-.71.48.08,1.37-.57-2.15,0-3.31-2.2-6.5-2.28,1.53,1-14.13-1.32-5.7,1.66-.23.05.06.79-.38,1.36,4.84,4.47-4.64,0-5.8,2.49C345.4,394,352.21,390.08,353.93,393.93Z" />
  <path class="land"
    d="M584.8,215.9c.18,1.24,1.29,1.3,2.74-.44-.35,1.2-2.41,4.56-1.12,6,.09-.16-2,3.36-.28,2.82,1-1.38-.2-4.15,2.08-5.48-.25.41-1.17.85-.82,2.17.32-.61.85-.38,1.51-1.7,0,.27-.55.79.76,1.38-1.9-.54.34,2.67-1.66,5.85-.54-.31-.75.69.51,1.81-.44-.7,3.62-1,6.59-1.6-4.36,2.3.26,3.57.39,7.31-.28.27-1.12,1.94.62,2.49-.47,0-.49.41-1.11-.69-.23.22-.58-.09-.12,1-1.41-1-4.66.2-5.57,2.63.44.1.73-.69,2-.63.13.31-.22,1.61.43,2.16-.42,2-2.69,2.14-4.51,3.77.57,2.09,1.75.38,4.12,1.24,0,.13,0-.25-.5.51,2.65-.9,1.13,3.2,6.33-1-1.23,1.82-2.21,3.45-6.17,3.09-.76,2-3.59,4.18-5,6.27,2,.11,2.39-1.91,7.16-1.48.14-2.89,3.24-1.71,5.71-1.68,0-.08,0,.12-.25-.54.35-.12,1.21.44,2.45-.52l-.28-.42c1.75,2.07,16.51-1.48,6.47-3.17,0-.32,3.15-.42,1.15-1.48,3.16-.65,7.06-8.38-2.48-6.72,1.93-1.34.46-4.59-2.48-4.78a4.45,4.45,0,0,1,2.72.67c.4,0-2-2-.7-3-6-3.05-2.67-11.52-13-12.07,1.07,1.55,6.88-2.53,1.69-1.69,3.09-.74,11.29-12.05-2.9-7.78-.51-.13,2-1.79.35-1.79.57-2.06,8.81-7.15-1.4-4.38-.19-.18-3.41-1.4-2,1.67-.93-.07-2.16.94-.53,2.52-.29-.48-3.43.56-1.49,2.18-1.44.32.39,1.05-.52,4.48C585.93,215,583.19,215.8,584.8,215.9Z" />
  <path class="land" d="M647.86,2.53l.53-.13c-.28-.38.21-2.69-1.6-2.23A14.65,14.65,0,0,1,647.86,2.53Z" />
  <path class="land"
    d="M656.24,127.9a8.8,8.8,0,0,0,3.47-1.89c1.77,3.74,7.31-10.31,1.53-1.68,0-1.78,1.43-5.55.68-7.27-2.18,2-1.1,4-2.23,7.11C659.3,126.34,655.18,125.25,656.24,127.9Z" />
  <path class="land"
    d="M313.84,163.84c2.32.74,3.43,4,7.31,4.29.1-.8,4.42-2.5,1-3.32,2.32-2.48-5.88.2-3.7-1.74,2.67-.6-9.67-13.09-10.72-9.71-1.76,1.92-.3-7-3.67-4.45-2.06,4-1.08,10.14-2.13,14.7-.72.3-3.87,2.47-2.23,3.8,8.57-3.73,2.4,5.48,7.36,2.92C307.36,171.89,313.54,159.36,313.84,163.84Z" />
  <path class="land"
    d="M570.78,243.25l.16.08c0,.67-1.65.22-1.51,1.83a3.52,3.52,0,0,0,2.61-.42,5.49,5.49,0,0,0-1.84,1.54c.45,0,1-.53,2.1-.45-.15.46,0-.52-1.1,1.11-.24-.09,6-.05,5-2.28,1.43.63,3.25-1,5.07-2,.1.33,1,.62,2.26,0l-.49-.56c2.9-1.77-.11-7.71,1.08-9.74-.07,0,.13.07-.22-.43.69.45,1.58-.48,2.32-1.68-.42-.09-.25.22-.39-1.08.19,0,.25.15.65.65.09-.36,0-2-1.38-1.2.82-.39,0-4.72-2.89-3.35-.79,0-2.7,1.55-.92-.27-.14.13-.67-.76-1.42-.75l.22.37c-1.27-.12,0,1.55-1.25,2-.18,0,.47-.15.08-.52.19,0,.57-1.41-.45-1.18l0,.39c-2-.65-1.94,1.78-3.56,3.06a2.73,2.73,0,0,0,2.22.25c.06,1-2.23,1-1.45,2.4-.19.52-4.45-1.55-5.44.51l.41-.19c0,.08.12,0,.15.66l.27-.11c.06.36,0,.32-.2,1.37.13.1-.15-.26,1.18-.1,0,0-.11,0,0,.45.17-.1-2.52.68-.5,1.18.33.12-2.09-.09-1.18.74-.24.41-.22.45.91.49l-.28.31a15.84,15.84,0,0,0,3.33.79c-.42.57-1.28.15-1.87,1.51.46.61-.38,1.25-1.6,2.18.88-.64,2.29.35,3.26-1.07.17.13.07.25.72.43-1,.62-2.39.11-3.94,1.59.25,0-.07.2.47.87-.4.24-1.89-.82-2.18.66A6.2,6.2,0,0,0,570.78,243.25Z" />
  <path class="land"
    d="M307.24,2.28c.93-.13,1.11-.45,2.42,1.09-9.89,2.88-1.19,21.56,5.72,3.11-1.84,9.26-7,16.47-14,2.61-7.44-3.68-5.73,5.81-.85,10.54-4.89-.49-15.74,9.38-6.09,11.71.13-1.22-.57-2.81.17-5.32a39.09,39.09,0,0,0,.35,5.55,8.13,8.13,0,0,1,3.16.28l0-3c.32,2,.29,2.05,2.85,3.14a15.8,15.8,0,0,1,.79-3.12c1.59,5.39,9.39,5.69,7.84-1.37-.59,4.59,10.42,5.68,6-.73,1.29,2.43,3.79,2.7,6,4.74.26.53-2.2,5.28,1.81,2.73,5.95-2.85,13.48-9.7,3.51-11.42,1.27-4.17-2.7-2.34-5.76-4.46-1.45-.75-2.8,2.83-3.87-.51,1.56-.06,3.55.38,1.4-3.68,2.27,3.57,11.45,6.31,12.65-.68.79-1.73-1.93-6.25,1.62-6.26,4.82,2.36,9.29-6.18,7.89-7.07h-33.4Z" />
  <path class="land"
    d="M298,3.36c1.44,2.18,4.6-.26,5.74-2.86A26.65,26.65,0,0,1,302.64,5c2.24,0,3.83-1.78,4.39-4.81h-8.87A16.53,16.53,0,0,1,298,3.36Z" />
  <path class="land"
    d="M336.9,81.24c-2.64-3-11.77.09-3.66,5.27a16.25,16.25,0,0,1-4.16-2c-.73,1.29-.79,3,.4,5.36-2.16-.72-.52-4.14-2.6-5.81.07,2.13-4.18-3.49-2,2.45-1.62-1.12-2.2,1.76-3.66,3.06.15-.39-.68-2.16.82-2.22-1.84-.81,2.23-6.69-1.93-2,3.12-6.6,4.93-2.5.09-13.76.92-5.59-9.78-4.46-9,.25-5.42-1.11-7.64,4.38-1.67,7.46-5.26-5.43-7.66,4.22-1.29,4.91-1.46.93.05,1.91,1.19,3.8-1.78-3-7.3-2-4.32,2.57,2.35,2.21,4.06,4,2.26,8.94,0-.15-1.12-.4-.46-1.46-1.93-1.12-3.34,1.3-5.58,1.37,10.24-6.56,2.39,1.37-.28-19.73.62-4.16,3.06-7.86,6.05-11.63C303.63,63.82,295,68,293.32,73.5a36,36,0,0,0-3.44,20.71c1.94,3.25,6.33,1.89,9.52,5.23-2.09,1.87-4.82-.72-8.14-.54.88,3.89,3.33,9.56,8.41,7.79-.91-1.69.92.19,2.34-1.46-3.86,6.5,16.05,3.66,19.25,7.54.76-1.21-1.08-2.57-2.56-3.7,19.42,6.21,3.52-5.94,9.67-4.3,1.33,4,4.54.76,4.6,6.84.51.49,3.36-1.37,2,2.31,6.39-1-2.12-.7,4.33,3,2.16,2.69-2.64,1.89-2.79,4-1.19,5.26,4-1.1,6.56-1.31-.05-.45-1.14,2.8.06,2.31.85,2.58,1.17,3.52,3,1,.8.08-1.39,5.46,1.92,3.19,2.44,9.53,7.69,8.62-3.76,19.57-.8,2,3,3.24,2.9,6.17-1.83-.43-5.43,1.46-7.81,1.92.59.55,1.95,1.8,1.12,3.44.55-2.46-7.12-8.3-7-2.65-3.54,1.46-6.22,10,9,5.72.85,0,1.12-1.06-.08-2.66.68-.65,2.38,1.23,3.13,3,.53-.82.45-1.71,2.65-1.3-1.43,2,2.8,6.21,6.65,8-2,.7-2.16,4.5,1.53,3.59-1.74,2.67,4.71,1.49,5.55,4.2,1.16,1.34,12.47,8,11.91,2.74.81,1-18.45-18.61-6.13-9.29a11.25,11.25,0,0,0-.6-2.44c-.19-.75,5.54,8.3,4.36,3.67-.17,0,1.83,3.77,1.42,1.21,1,0,5.19,6.5,3.93,1.2,2.32,1.77.45-2.31-.21-6.33,1.12.92,2.95,8.45,2.22.67,0-.07,0,.14.53-.21-.25.28,0-1.83-1.37-1.66,1.06-.61-.88-.68-2.79-3.16,1.1.65,3.22-2,.22-1.57-.38-.49,1.84-.29.35-1.81-.85,1-1-3.38-2.76,0-.61-.68.75-1.21-1.48-2.29-.18.37-.09.39-.14,1.54-.69-1.27-.35-2.92-2.32-4.42,0-.31.29,0,.77-.79-1,.22-.15-2.74-3-1.19.09-.94-.28-4.69-2.77-5.29,1.36-2,3.62,5,5.51,1.43-.6-1-2.13-1.27-2.41-4,.4-.19,3.63,4.25,2-.7-.05.18,1.78.9,1-.46,1.16-.18,2.12,6.19,4.66,3.57l.12.08c-2,2.91,1.33,2.36,4.25-1-.78,3.19-6.35,2.51-.38,10.21a5.84,5.84,0,0,1,1-2.38c.06.46-.86,1.86.42,2.8.59-.77,1-.45,1.91,1.14.92-1,.83-3.44.95-5.76-1.61-.51-.26.13-.43-2,.18,2.94,5.44,1.9,2.94-1.4.2-.47.82.55,2.22-.16-1.09-1.58-1.4-.42-2-3.22,1.35.59,6.06,1.45,1.51-2.08,5.29,2.15,2.5-5.69-5.55-1.58,1.41-1.36,1.08-1.25,2.32-3.7-.27-.23-2.16-2.43-2.79-.26a15.68,15.68,0,0,0-1.83.07c0-.42.05-.16-1.21-.85l2.43,0c.07-.31-.73-1.31.56-2l-.6-.82-.48.3c-.21-2.12-3.09-.7-3.06-2.49,1.94-1.92-2.14-1.67-1.32,2-1-.21.59-4.35-1.62-2.29-.06-.12-.58,0-.28-1.39-2.45,2.51-1.43,2.74-.95-2-1.25.35-1.24-.15-1.66,2.36a1.69,1.69,0,0,0-.16-.93,1.78,1.78,0,0,1-.68.59c1-1-1.37-2.69.74-3.58-.73.23-16.46-6.23-4.11-3.25,1.53-2.38-1.08-4.57-4.07-3.05,1.78-2.27,4.51-.53,8.2-.69,1.14-2.47-5.47-4.48-8.94-3.41,1.42-2.24,5.45-1.74,7.31-2.89,0-.58-2.48-8.19-4.06-3.89.54.14-.86,3.08-2.4,2.06,4.27-6.06-5.56,1.59-3.07-1.54,12.64-4.62-3.21-13.38-5.44,0-.13-2.73,2.52-5.43-1.62-3.15,4-2.89,9-10.75-2.61-4.21,1.77-3.37,11.38-4.62-1-9.22-.94,1-1.74,1.75-1,4.35-.65-.77-.91-1.78-1.87-3.35-.1-.1-.53,1.38-1.7,2,4.1-6.42-.81-4.66-2.81,2,.37-1.48.28-2.46,1-5,.1-.22-.81.61-1.78-.38,7-.87,1.81-9.34-2.52-.09C339.59,88,346.44,83.87,336.9,81.24Z" />
  <path class="land" d="M956.26,2.38c-4.13,8.84,3.35,1.19,18.22-2.21C972.46.74,956-1.58,956.26,2.38Z" />
  <path class="land"
    d="M1122.38,50.64c2.88,3.36,12.94,7.19,13.7-1.28-.41-.11-.26-.14-1,.78-2.59-4.23-6,.71-7.89-4.37-4.9-1.64-3.82,3.75-6.14-2.3C1119.72,45.65,1118.62,49.09,1122.38,50.64Z" />
  <path class="land"
    d="M1087.5,48.29c3.55,4.45,5.69,11.64,10.12,4.15,3.66,3.7,3.92-3.4,9.64,1.24,4.87-1.8-6.31-9.43-.26-12.17,4.18-1.84-4.3,11,6.53,8.59,2.3-1.31,0-4.66,3.34-5.91-10.23-10.17-3.28,1.51-13.62-8.67-2.45.57-.75,7.82-3.3,6.81-1-3.49-9.92-13.3-10-1.37-2.56-1.35-1.54,3.73-1.47,5.76-.29,0-.28.18-1.08-.23A2.48,2.48,0,0,0,1087.5,48.29Z" />
  <path class="land"
    d="M1109.79,70c-7.28-9.07-5.28-2.36-12.87,1.76.49,2.17,2.42-1.3,4.51.1C1103.52,73,1112.77,77.43,1109.79,70Z" />
  <path class="land" d="M651,.7c.15,2,4.29,2.38,5.28-.53h-5.63C650.73.25,650.82.16,651,.7Z" />
  <path class="land"
    d="M664.77.37C663.93.5,660-.4,661,2.48c-.08-.23-6,2.19-4.89,3.78-1.82-3.29-3.64.87-.76,3.9,1.41,1.32,9.55-4.72,10.35-.43-2.29,0-8.35.66-8.23,4.46-7.42-3.9,3.73,11.6,6.64,14.55,2,2.22,1.69-7,3.5-11.81C671,11.16,670.4,9.51,673,.17,672.37.32,665.42-.15,664.77.37Z" />
  <path class="land"
    d="M678.87,2.06a7.23,7.23,0,0,0,3,5.57c-1.15,4.55-6.95,10.4,3.63,6.1-3.16,10.6,3.93-.66,7.79-3.32-2.45-4.49-6.35,1.44-5.86-7.67C686.34.93,683.56,4.33,684,.17H678C678,.73,677.94.93,678.87,2.06Z" />
  <path class="land"
    d="M786.9,92.48c.89,4,5.05-1.1,7.42,3.48-.22.59.7,1.29,1.88,2.25.26.71-1.41-1-1.05.59-1.38-.65-.17,1.33-1.67,2.12,1,.73,2.39.62,4.28,2,.07,0-.14,0,.16-.65.77.9,3.38,1,4.56,1l.51.32a1,1,0,0,1,.19-.42c.11.48,2.94,2.15.42-.6,11.27,4.53-5-7.55-3-15.28-1.1-5.06,3.08-7.66,3.33-13.13-2-1.19-13.53-3.41-10.48,3.71-.87-.51-5.12,2.19-1.6,2.93C792.52,86.34,785.17,86.24,786.9,92.48Z" />
  <path class="land"
    d="M796.37,70.32c-.2.55-.37.88.34,2.34,1-3.82,11.85,6.35,10.59-6,.82.43,2.68,2.29,1.6-2.22,2.67-1.42,3.55-2.11,2.69-6.26,1.7.62,1.9.86,2.49-2.55.44,0,2.27,2.86,1.78-.7,0,.5,4.54-1.94,1.73-3,6.24-9.47,20.57-10.66,28.94-20.45,6-7.46-5-14.13-9.55-2.48-5.74,3.3-8.13,5.79-16.16,4.56.27,3.69-10.84,4.55-12.49,13.31-3-2.13-2.06,1.6-3.94,3.36-.79-2.51-4.91-.43.05,1.88-1.15,1.14-5.49,4.92-1.27,6.12-3.73.77-3.4,3.08-5.26,6.91C796,65.77,793.52,67.72,796.37,70.32Z" />
  <path class="land"
    d="M168.48,263.06c.8.52,5,2,3.37-1-.21.08,0,0-.28.62-.51-2-3.78-5.14-8.24-9.67-.55-.59-14-4.17-6.65-.84a1.05,1.05,0,0,1-.07-.4,4,4,0,0,1,1,.14c-.05.08-.38.24-.07,1-1.28-1.75-2.89,2.09.77,1.51.6,1.1,1.37,1.72,4,2.47-2,.33-2.31,1.53.69,1.46-.27.59.07.72,1,1.15,0,0,0,.15-.65.51.59.61,3.17,1.4,3.57-.65C167.69,261.13,163.05,261.2,168.48,263.06Z" />
  <path class="land"
    d="M237.27,89.63c-3.17-9.55.48-13.51-11.32-16.94a1.17,1.17,0,0,0,.33,1.6c-2.22,3.19.37,10.65,2.22,15.44-5.13,10.37-1.21-12.15-11.8-12.93-1.14,1.28,3.68,3.09.78,4.44-.26-.34-3.29,5.48-2.9,2-.44.11-.37.41-1.45,1.83-.16,0,.29-.12-.77-.64,6.56-2.94-5.65-12.5-5.64-3.94.2-.31-3.33,1.93-3.51.8,8.9-16.93-17.67-2.21-13.05,3.93-1.62,1.71-6.35,8.45,1.64,7.1-5.67,6.23,6.38.09,8.58,1.83.41.75-3.94-.68-2.07,1.23-7.11.91-14,7.69-.68,8.49,5-.45,11.19-2.13,15.65,3-4.69,2.37-26.57-4.17-17.16,9,1.94,2.81,8.14-.33,10.09,3.15-.09,7.32,3,6.44,11.17,4.81,3.6-.36,7.48-2.48,11.35-4.67.75-.35,2.49-6.77,3.11-1.57,4.39,2,8.81,6.94,15.81,2.23.15-1.93-.62-8.06-4.44-1.77,2.22-2-4.85-6.38,1.76-3.44.28-6.06,3,.83,4-3,.29,2.94,3.79,1.74,1.17-3-2.23-.13-4-2.63-6.82-5.23-.49-.37,1.83,3.07-1.74.2C235.62,97.31,241,98.55,237.27,89.63Z" />
  <path class="land" d="M267.22,48.51c-1.14.89-1.41,2.35.08,4.05l.31-.41C284.38,69.44,275.79,28.68,267.22,48.51Z" />
  <path class="land"
    d="M265.27,26.73c1.06-.18,2.32,3.25,4.2,2.15-3.84,2.43,4.52,7.16,8.24,3.37,1.6.28,1.21,2.39,2.72,5,2.72.78-1.33,25.43,5.82,16.71-1.51,2,6.29,6.36,5.93,1,.74.59.75-2.16,1.2.73,4.29-5.71-4,4.91,7.69,2.64l-.23-.89c.91-.07,3.9,2,4.42-.57,0-.17,1.54,2.5,1.45-.08,1.69,2.57,8,.55,5.41-3.92.34-.06.71,1,1.47,1.14-2.37,5.82,13.81,5.63,9.69-1.16.53.82,5,1.2,2.41-1.59-.05.12-4.14,1-1.78-.87,7-2.26-4.3-13.07-10.79-9.25-1.12-1.6-9.85,2-9.54,5-1.32,0-3.23-1.38-4.59-3.11-.43.4-.45.48-1,1.86-.23-.07.1-.15-.67-1.27l-1.66.89c-1.87-2.5-1.8-3.35-2.52.81-.6-.46-.92-2.06-2.56-1.55,4.08-3.73-2.43-6-6.19-9.4,12.47,2.11,7-1.74-.13-4.13,8.22,1.85-1.59-7-7.35.76,6.84-6.34-15.08-14-10.09-5.29-.25.18-.45,1.24-1.67-.08C265.24,25.51,264.86,26.25,265.27,26.73Z" />
  <path class="land" d="M231.81,68.12c-2.88,1.41-2.05,2.59.88,5.67C236,85.37,243.44,64.28,231.81,68.12Z" />
  <path class="land" d="M341.83,129.11c-2.26-9.59-14.21,7.49-3.93,7.26C342,136.55,341.74,132.72,341.83,129.11Z" />
  <path class="land"
    d="M257.83,120.68c3,1.66,6.65,7.68,12.89,1.24,0,.06.27-1.75-1-.29-.22-1.64-11.68-17.43-8.63-6.11-.3.15-2.56-2.53-1.43-.23,1.16,3.32-5.78,2.29-3.06,5.94C257,121.56,257.14,121.27,257.83,120.68Z" />
  <path class="land"
    d="M262.38,66c-2.86,2.16-5.87,1.59-8.68-.52,1.31,3.61-5.63-2.47-1.35,6-.85-3.55-8.52-.5,2.45,2.87-5.69-2.71,1.49,5.31-2,2.85-1.32,9.9-5.23-6.1-7.85.79a3.52,3.52,0,0,0,.8,3.73c2.07,2.78,3.78,3.12,6.6,5.54,2.9,4.08,8.3,16.64,7.74,3-.1,5.22,8.59,1.69,5.35-5.34,1.66.17,2.18-6.87-1.15-3.55.27-1.4-1-7.4-4.35-3.62-.52-.3-.28-1.22.67-2.18.76-3,4.81-1.93,2-5.13C264.45,70.77,266,66.28,262.38,66Z" />
  <path class="land"
    d="M285,73.23c.54-1.87,7.81-10.93-3.42-8.3-1.27-3.73-14.21-3.09-9,3.6,1,1.28-1.58-1.37-2.72-.53-.41.25-.32,22.72,3.37,20.06,2.5,1.33,6-6.6,1.41-8.27,5.18-2,8.44,4.53,9.34-5.73C284,73.89,284.42,73.89,285,73.23Z" />
  <path class="land"
    d="M245.09,44.43A59.75,59.75,0,0,1,257,41.83c-.86,1.1-8.29,4-3.37,6.45-1.8-.29-1.38,3.59,1.28,3.3,1.73-1.25,7.22,1.69,6.13-2.82,2.46,3.26-.54-2.23,1.37-4.25,1.77,2,.41-.06-.3-11.9,1.63-1.91-6-9.11-4.05-1.94-2.1-3-11.63-3-3.82,2.28-1.9,1.12-2.28,1.1,1.54,2.44-4.15-1.61,3.59,10.48-7.05-4.31-2-.92-3.22,3.32.06,3.27-.52.42-2.53,2.85.34,3.28-.15.38-.76,3.57,1.61,2.78C251,42.58,245.07,35.05,245.09,44.43Z" />
  <path class="land"
    d="M324.89,68.34c-.56.27-5-3.33-3,2.7,4.48,13.58,2.27,5.8,15.24,8C339.78,74,331.48,68,324.89,68.34Z" />
  <path class="land"
    d="M163.59,89c14.16,2.43.37,15.82,18.44,4.51.13-7,2.59-6.23,5.08-12.33,3.49-3.81,9.28-6.13,12.95-10.35-1.73-3.3-9-15.34-13.1-6.42-.11-.66.29-4.42-2.14-1.19-.12-.39.08-.64.58-1.59-2.9.19-4.18-3.83-7.68-4-2.59,1.7-12.24,1-9.94,3.8,1.81,8.43,4.51,2.34-.53,13.51-1.73,1.34,2.15,1.94-.11,3.24-1.42,2.18-1.78,4.91-2.91,8.29C164.13,86.25,162.91,88.34,163.59,89Z" />
  <path class="land"
    d="M174.64,35.08c.84.64-1.7,5.28,2.51,1.93,1.89,1.31,3.15.63,3.85-2.11,1.26,1.72.35,8.41,4.49,2.87.11-1.3-1.28-2.77,0-5.24,2.66,8.23,1.89-3.07,5.08-6.5,1.59-3.47-1,13.11,3.7,5.57-.71-2.75,2.77-1.77,3.8-4.64.47-.62-1.44-1.91-.84-3.13.34.08,2.19.1.77-1.3-2.83-2.38.28-2.83,1.72-5.11-1-2.28-6.75-6.62-4.64-.36,0,0-.13.41-1.24-.23-11.31-1.68-8.71,9.87-17.66,14.65-1.86.23-1.73,2.08-2.57,4.08A7,7,0,0,1,174.64,35.08Z" />
  <path class="land"
    d="M198.7,32.17c-1,2.25,1.76,1.6,3.52,2.83-6.9-2.21-10.29,5.25-.75,4-7.79.73-11.65,7.14-.46,2.71-1.47,5-16.94,2.43-3.89,8.75,2.65,4.37,1.71-2.55,3.71.36,2.06,3.72,2.15-4.63,3.54-2.6a23.43,23.43,0,0,1,.53-2.69c.36.66.52.86,1.93.25-7.44,10,12.43-1.13,7.34,4.46-19.56,5.5-7.63,16.28,9,.36-.23,0,1.47.46.28,1,18.32,6.2,9.41-28.13,6.46-9.5-.37-2-.33-5-3.89-1.78,1.15-2.84,2-2.27-1.27-4.48.89-2.61-.23-20-6.69-3.2.82,2.3,5,1.69,1.59,6.37.84,2,5.77,3.51,2.27,5.47-13,1.2-7-12.57-16.3-10C204.49,34,204.78,26.27,198.7,32.17Z" />
  <path class="land"
    d="M207.81,11c-2.32,9.9,18.17,4.2,8.2-1.69.37-1.49,3.13-.69,4.14-3C221.44,2.52,204.7,5.74,207.81,11Z" />
  <path class="land"
    d="M1232.91,598.2c-.76-1.73-3.43,4.12-7.85-.14-.62-.71-.75-2.26-1.26-3.73-.06.18-.54,0-1.09-1.12-1,1.33,2.92,4.62-2,1.88-1-.93.24-2.82-1.76-4.91a1.52,1.52,0,0,0,.67.05c-.23-.11.08-1-.69-1.79h0c-.5-.93-2.07-.83-3.33-2.23,0,0-.15.25-.57.58.18-.56-1.51-1.07-.85-2.34a4.11,4.11,0,0,0-1.19.11c.82.41,1.6,3.15,2.36,4.45.1.1.27-.88.88-.78-2.14.58,3.73,7.54,1,2.53.34.22-.3.75,1.28,1.44.07,0-.17-.05,0-.34a1.81,1.81,0,0,1,.47,1.9c0,.17-.07-.41-.75-.48.9,1.15.18,1.39,2.6,2.58,0,.1-.64-.17-.68.57,0,.12.06-.31-.44-.64-.22.15,0,.76.55,1.18-.12.7-.31.39.57,2-1.48,1.56.74,3.58-4.09,6.51,1.67,4,7.37.24,3.78,9.25-.06,0-.15-.53.21-.22,1.58,4.42,5.75-2.64,7.77-7.19-1.86-.61,1.1-4.4,2.81-2C1230.69,604,1234.39,600.35,1232.91,598.2Z" />
  <path class="land"
    d="M1218.06,614.58l-.35,0a1.77,1.77,0,0,0,.93-1l-.28,0,0-.18c-.18,0-.18.21-.75,0,0,0-.1,0,.09.37-.47,0,0,.62-.8.92.28-.24.13-1,.72-1.63-.67-.5-2.38,2.58-3.28,1.24,1-.7-3-2.76-.44-3.08-.91-1.25-5.34,5.41-5.73,9-.68.1-.92.91-1.06,2-.08,0,.21-.33-.15-.79.25-.05-.94.67-.82,1.48.17-.26-1.36-.48-.44.3-.15,0-.42-.61-1.09.07,0,.08.2-.13.33.36-.82-.42-.51.37-1.89,1.17l.18.1c-.07,0,0,.1-.26.06,0,0-.09-.06,0,.37-.07.27-2.59.26-2.31,1.82-.94-.23-4.6.84-4.46,3.66-.23-.74-1.73.28-1.56,1.44l-.19-.64c.1.08-1.43.73-.54,1.25,0-.12-.07.33-.46-.15,0,0-1,1,.36,1.18.06.1-.8-.12-.26.6-.09,0-.1-.09-1-.49.08,0-.17.06.18.48.08.14-.74-.42-.65.67.07-.06,0,.15.9-.06.28-.14-1.85,1,0,.9-.06.63-2.18-.16-1.79,1.26,0-.17,0,.38.79-.37,0,.29.19.24-.24.76.13,0,.17.2.94-.42-2,2.24,1.39.64,4.08,2,3.39,3.9,10.47-1.33,10.27-7.19.62.44,1.22-2.18.85-3.17.77-.44,1.73-.9,3.3-1.79,0-.06-.12-.14-.5-.93.57,1,1.18.21,1.92.34l-.37.29c.83.21,4.76.43.17-1.78.06-.27,1.33-.16.35-.92-.55,1.08,7-6.42,5.13-7.57-.13-.94.49-1.47,1-2.64C1218.75,614,1219,614,1218.06,614.58Z" />
  <path class="land"
    d="M1145.76,559.2c-3.09-5,1.37-10.88-9.09-18-.87.13-.6-6-1.44-4-.8.15-2.65-3.19-2.13,0a4.55,4.55,0,0,1-.53-.61c-.88.71-.94-3-3.85-7.18.07-.06-.07.15.55,0-3.54-4.27-10.5-2.66-10.45-13.1-1.42-.22-1.45-1.71-1.89-3.74,0-3.06-1.72-6.32-5.69-5.52-.32-2.47-1.72-5.83-2-8.55-1.43.09-1-2.34-2-4.28-1.54-.28-2,2.54-2.27,4.63,0,0,0,.08-.31-.28-.83.87-.53,1.72.17,2.95-3.45.37,1.78,10.91-5,17.38-1.33,1.4-9.93-4.84-17.79-9.79-1-1.78,9-12,2.8-9.84,1.54,1.35-3.37.38-1.24-.72l-.22-.07c.06-.17-.06-.09.31-.44-3.3,4.93-19.19-7.8-11.28,1.06-.17.2-.89-.52-1.06.61-.58-1.06-3.17,1.13-3.94-.81.12.57-1,0-.94,1a1.36,1.36,0,0,0-.53.09c-.1,0,.22.35,0,.67-.85-1-2.39,1-2.57,3.18-.07-.22-4.3,3.48-1.54,4,0,.13,0,0-.33.32a1.75,1.75,0,0,0,.86.65c-.36.08-1.06-.1-.76,1.12-.21-.23-1.58-2.09-1.47.08.22-1.49-4.51-2.09-3.38.5,0,0,0-.14-.35-.27,0-.08.06.23-.3.38,1-2.78-2.82-7.13-6.37-4.2-.12.18,0-.88-.72-.66a2.47,2.47,0,0,1-.57,2.3c-.33,0,.14-.45-.53-.63,0-.08,0,.3-.27.31,1.25-1.81-3.19.68-1,1.75,0,.49-.25.35-1.22-.05-.13.37,0,.19-.7.57.16.17.12.8.83.52-.09,0,.23.36-.2.58-.15-.06.22-.2-1.14-.69.11,1-2,.44-.66,2.52a1.36,1.36,0,0,1,.5-.6c.08.26-.21.28-.25,1.11-1.12,0-.72.77.69,1.05-1.82.21-3.59-1.36-4.51.32,1.91,2.3.85.56.26,3.74-5.22-10.49-1.89,5.91-11.84,8.78-7,1.58-15.86,3-21.29,9.6.07-.29-.13-1.36-.06-2.46-1.6,2.39-2.13,6.74-2.19,10.48.1-.62,4.7,10.44,1.24,5.46a1.06,1.06,0,0,1-.31.57c-3-6.85,2.25,6-1.44-.31-.18.16.25.94-.6.39.9-.86,14.64,31.52,6.36,29.48-1.2,3.46,5.54,7.84,11,6.2A19.09,19.09,0,0,1,1039,582.6c4.43-3.9,6.34-7,17.09-8,4.08-3.2,19.52-2.21,21.21,2.82.33,1.62,6.87,6.29,3.59,7.69.56-.16,1.06.52,1.85,1.5.3-.27.47-.47,1.13.18-.86-4.19,5.83-4.72,6.37-10.08,1.53,2.42-.72,7.88-3.16,11.17,2.63.28,3.36-1.39,4.24-4.53,1,1.49,2.42,3.8.34,6.13.43,1.22,4.5-2.78,3.88,0-.43-.25-.18-.34-1.13-.13,3.75,2.4,1.63,7,5.42,10.36,5,1.08,9.28,5.82,14.61,1.1-.15-.12,0-.15-1-.32.77-1.5,4.71-.44,1.14.9.63,1.89,2.4-1.76,2.9.24-1.44,1,.63.3,1.38,2.26.8-.82,2.47,2.43,1.73-.36l-.32.33c1.27-2.78,7.94-4.53,12.64-6.06a30.8,30.8,0,0,1,4.57-15s0,0-.38-.1c0,.07.12-.35.43-.09.49-1.75.82-4.1,3.31-5.27.08,0-.19,0-.18-.18C1143.87,574.12,1144.68,566.09,1145.76,559.2Z" />
  <path class="land"
    d="M1127.36,618.61c-1-1.79,2.56-9.44-5.25-4.4-2-.06-4.63-1.14-7.49-2.28-.95,2.05,1.25,4.59,1.82,7.09,0-.1.1.21.33-.24-.36.41,1,.33.49,1.63-.24-.36.22-.39-1-1.23.2,1.88,1.22,4.72,3.61,5.34-.05.2-1.33-.51-.64.92.82-1,3.06,1.91,3.63-1.3.14,0-.48-.14-.28-.57.36.72,1.63-.22,1.06-1.75,0,.22.2-.36.54,1.16.94-1,.5-1.59,1.17.89,1.46.16-.35-3.38,1.31-5.36,0-.11-.22,0,.2-.56-.05,0,.24.18-.11.44.39,0,.19.77.52.93C1127.37,619.26,1127.31,619.14,1127.36,618.61Z" />
  <path class="land" d="M1191.45,536.19c4.92,1.84-5.19-6.09-8.83-7.92C1183.47,531.53,1187.92,534.27,1191.45,536.19Z" />
  <path class="land"
    d="M1274.61,146.24c-.41-.2-.49-.2-1.64-.23.24-.26.18-1.89-1.26-.69-.35-2.79-4.06-6.49-8.45-7.2,2,1.23,2,1.41-.78.87.61,1.21-1.47,1.86.25-.9-.58-.27-4.34-1.13-4.79.17,1.73.25,2.21,2.13,1.14,4.16.75.36,2.41,1.53.46,3.07-.12-.62.49-.44-.07-2.12-.28.18-.36-.1-1.09,1.12-1.79-2.74-1.31-5.37-2.14-9.74-.54.14.29.74-1.31.73,2.83-3.48-7.64-7.32-7.57-8.68a13,13,0,0,0-3-2.58c-.11.63,3.49,2,1.12,2.86,1-1.85-2-1.39-2.45-3.77a2.38,2.38,0,0,0,.75.72c-6.62-6.07-19.24-15.79-28.78-12.2-2.33-1.59-6-2.49-9.81-2.89a6.29,6.29,0,0,1-1.14,4.88c5.2,2.08,3.15,18-8.91-1.14-5.16,6.88-16.91-5.76-21.62,4.4.12,2.07.88,5.86-2.19,7.4,3.05-4,.69-10.47-4-13.12,5.09-22-25.54-6.89-28-11.61a2.54,2.54,0,0,0,1.17-.44c-.9-2.54-3.83-5.52-7-2.2,3.83-3.49.18-2.79-4-5.7,5.53-1.62,4.37-4.18-1.94-6.43-7.32-2.52-5,7.15-11.7,6.84-1.31-3.11,1.87-.81,2.4-3.52-.16-.71-1.18-3.31,1.66-1.33l-.78,2.18a5.43,5.43,0,0,0,2.9-4c-2.38-1.17-7.9,2.55-9.36.42,1.89-1.21,3.91-1.79,7.26-1-.13-3.71-12.77-3.54-16.09-4.92-2.42-1.5-4.67-3.05-2,2.17-1.64,1.85-8-.28-6.69,4.89.67.28,1.79-1.49,3.56-.32-1.28,0-1.17,1.81-2.91,2.73,1.74.53.89,2.77,2.19,5.12-3.61,1.92-3.16-3-5.13-.78-.49-1.23-4.08,1.84-.74,2.61-.16-.06-.68.22-1.65,1.07,1.36,3.16-4-4.73-6.89-4.43-4,1.31-7.81,6.76-11.36-3.31-1.69.27-3.62,18.89-6.67,10.59-.08,3.45-10.17-9.85-4.56-8.49a21.34,21.34,0,0,0-1.19-2.4c-.16-.07.68,1.54-.74,2.22-.66-2.5-3.74-5-3.89-7.72,5.2,7.78,9.25,1.33,2.16-1.18,1.72,0,4.92-3.77.63-4.24.23-.64,1.65-1,1.77-2.6-1.13.49-.35-2.21-3-1.87-.17-2.14-4.47-5.42-6-.82-1.21-.54-.57-1.09-1-2.62a14,14,0,0,1-2.31,1.24c.13-1.37-4.57-6.2-6.33-2.21-4.39-2.57,2.34,10.77-4.16,7.3-.54.24-.59.43.49,1.45-.83,1-22.22-2.62-13.42-7-4.82-3-13.23-3.21-19.08-.3a2.1,2.1,0,0,0,1.32,2c-.7,1.63-4,6.51-.61,8.28-4.39,2,2-10.33-3.08-15.93,3,4.65-8.63,3.47-4.52-.85-.17,0,.2-.16-1.48-.31l-.26,1.44c-4.07-3.32-8.09,4.75-.9,2.26.08.69-2.9,4.55-5.16,3.38-4,4.63-7.11,1.78-14.73,8.56,2.45-7.62,40.4-35.33,27.47-35.94-3.21-5.73.42-3.61,1.86.11.91-.79,1.31-2.85,1.31-5.07l-1,.42c-.61-.75.31-6-2-5a1.62,1.62,0,0,1-1.16,2.72c.69-.59.47-7.62-2.51-4.8,1.85-6.36-8.92-5.72-13.76-5.09-.12,2.81-2.19,3.85-5.68,3.12l-.1-1.16c0,.09.2-.2.89.24,5.47-10,1.16-4.48-3.49-8.1a34.52,34.52,0,0,1-5.08,0c13.33-4.35-.07-12.14-2.25-8.48-4.86.72-13.93,15.44-6.6,17.92l-.3.69c.8-.43-12.33-2.13-9.25.13,1.51,1.72,5.42,6.9,1.67,9.15,3.08-3.36-2.26-10.14-6.83-2.54-.65-1.46-1.51.54-3.53,1.28,1.12-2.29-1.22-1.49-2.65.27l-.31-.28c3.21-4.13.53-2.88-3.79-3.76-.32,1.48-4.45-.12-5.18,1.83l-.46-.71c-.27.11-.82,4.1.72,1.68l.8.83c.12,0-.19,0,.59-.79.38.52.5.58,2.05,0-7.62,4.21-19.75,7.21-25.37,12.47,2.75-.32,1.55,3.77-1,5.17L908.87,54c-.23-.34.21,1.67-1.13,1l-.31,1.26c1.9.1,3.33,1.77,5.06,3.68-7.57-2.94-2,3,1.2,7.06-1.72,4.52-9.52,1.28-3.15,8.65-8.53-5,3.39-6.65.24-9.65-11.59,5.26-24.73-1.45-21.92,9.9,3.26,2-3.21,7,5,9.29,1.73,3.41,3,3.52,5.6,6.92-3.18,6.61,4.36,13.31-2.7,16.38,1.49-3.76.73-14.43-1.92-2.51-1.33-5.1,2.19-9.51,3.11-14.27-6.56,2.62-15.16-15.58-19.74-4,2.14-2.29,5.58,5.51-3,.6-5.61,1.15.8,8.08,5.5,8.36.58,1.07.3,3.85,3.07,2.86-1.83,3.83-5.34-4.05-7.58-1.36C864.47,96,875.65,86.8,870,78.66c-3-.37,2,5.23-1.22,9-12.7,7.42.35,10.33-2.35,18.24-2.58,4.59-2,8.55-.56,13,24.79-3.22,5,13.23,17.39,14.47-9.38,2.34-3.33-6.69-7.69-11.18.14-3.78-9.19-.94-8.24,3.42,3.12,4.47-.66,8.74-2.6,13.73-2.93,1.94-3.84,3.86-6.1,6-.84-.4-16.09-3.2-7.66-5,1-1.12.67,2,3.35.61-2.11,1.49-.77,2.58,3,.55a4.65,4.65,0,0,0-.61-2.47c5.21-3.36,10.09-13.44,4.17-19.26-1.18-9.18,3.37-18-2.41-25.2,5.64-13.24,5.5-17.37-8.9-16.63-4.86,17-.48,8.87-9.29,21.15l.54-.23c-.1.53-1.73,3.85,1,2.42.37,1.74,1.19,7.3-.76,8.59,0,1-.94,2.59-.1,4.66,3.53-4.91,3.36,7.2,7.89,6-.69,1.47-.72,4.41-2.71,6.1-3.35-3.09-7-7.71-12.22-9-1.61-5.07-21.6-10.25-14.88,1.36l.69-.35c.39,1.36-.13,4.94-3.39,4.27.56,3.63-2.43,6.65-3-2.9-.59.29-2.29,0-2.88,1.67l-.23-.54c-5.27,6.1-2.93.43-10.15,3.52-3.38,2.68,1.86,3.22-7.12,2.44,4.05-1.61-.36-5.4,4.33-7-2.47-.63-5.24,1.44-7.55,3.72,2-.54.89,5.22-1,.64-3.9.35-7.27,6.3-11.61,6.08-.63.35.79.92.27,2-5.41-1.17-1.33,7.6-8.23,8-4-2.57-9.44-7.17.69-10.07-1.66-7.68-6.41-5.19-11.79-7.22,5,4.52,2.74,6.76,1.58,13.23,3.87,2,1.66,6.18,1.13,11-.27.08-.69-2.07-2-1,.15-7.17-11.33,1-13.34,5.76-.81.79,4.78,6.07,1.09,5.62-3.2,5.31-9.19-7.45-12.39-1.38-.5,3.3,4,3.62,5.08,6,2.43,6.4-12.29-.72-10.64-4.45-3.14-3.64,2.55-12.13-5.6-13.29.08-.2.61.22,1-1-2.68-1.06-2.84-4.67-6.19-6.38a9.77,9.77,0,0,1,3.64.67c-.81,2.22,2.4,2.87,5.35,3.87,10.52,8.66,35.07,4.32,18.61-13.75,0,.14,0-.21.28,1-6.69-2.85-15.59-17.83-23.5-9.67.48-.33,2.57-5.34-.57-2.94-.23-.1,0,0,.07-1-.6.3,0-.28-2.18-.09-2.8-3.13,7.24,0-1.39-4.79-.14.11.12.22,0,1.46-2.24.71-.16,1.58-5.32.16l-.2.73c-.42-.19.3-.78-.67-1.42-.67,3.87-2.82-1.66-5.12-2.89,2.92,1.55,12.21-1.47,5-4.14-.82-1.27-6-7.57-7.11,3.07-.4-1,.38-3,.08-4.77.06-.25-.25.62-1.11.28,5.57-3.38-4.47-7-1.24-1.33-1.83-.48-1,3.29-3.38,4.15-.18-1.52.65-3.23.27-5.6-2.44,1.44-3.07,6.43-5.69,8.71-1.6-1.84,4.19-7.2,1.38-8.41-.72,2.33-2.07-3-3.5.21.39,2.91-4.48,5.24-3.82,9.49-1.36.2-1.2-6.58-3.63-2.89l-.36-.47c.08-.24-.26.59-.79.17-4.43,1.62-.39.13-.22,4.91-.51-2.26-7.26-2-4.19,3-.86-.74-1.39,1-2.41,1.87.38-1.53,1.68-3.7,1-6.16-1.79.82-1.46,2.91-2.4,5.25-.17-.82.52-2.11.16-3.82-.89.29-5.5,3.1-2.72,4.7-.8,1.55-2.2-2.92-2.75-.44,1.29,3.35-10.81,9.68-2,9.06-.6,1.35-7.08-.84-4.15,3.36-.11.46-.69.69-.28,2-.71-.35-.46-1.77-1.07-3.25-.52.9-3.21.37-1.76,2.83-1.7-2-4.34,4.4-.72,1.5.32.1-1.26,2.81,1.26,2,.42.54-.4-.31-.23,1.77-.75-4.19-8,1.28-.57.93-.44.63-8.39,1-5.18,4-.77.24-2.81,0-2.7,2.27l-.31,0a7.42,7.42,0,0,0,0,2.69c.44.26,2.14-.8,3.22-.58-2-1.09-11.48,11.94-3.93,8.18-.34.3-1.49,3.5-2.66,1.34-.88,1.06-3.07,1-3,3.5.11.09.13-.3,1.18-.48-2.39,2.19-6.11,5-7.17,9.13.62,1.22,5.18,1.29,4.64-1.92,0,.32,1.09-1.79,1.91-.65a6.14,6.14,0,0,0-1,.83c2.47,1.25-2.68.93-1.46,3.45-2.57,1.27-3.46-2.43-5.89,0,.33-.85-.46-2.44-2.42-.56,2.6,3.62-3.36-.51.79,5.34-1.66-4.56-12.55,1.84-1.85.87,0-.07-3.47.34-1.42,1.11-.78,1-5.1-2.22-5.47,1.35.55,0,0-.08,2-.46-1.63,1.85-1.89-.83-5.11,2.11-2,1.75,2,2.6,5.24,2.37-.69,2.23-10.21-3.52-4.89,2.83-4.12.94,2.73,4.73,4.43,1.43.35.94,2,2.06,3-1.06.26.39-1.2,1.64.57,1.64,0,.52-2.35.27-2,1.86.79-1.24-6.45-2.08-7.08.12,0,.86-.07,3.9,2.2,1.78-.73.81-3.79,2.77.14,4a2.19,2.19,0,0,0-1.77,3.35c2.06-1.8,2.27-5.67,6.36-6.09a3,3,0,0,0-1.65,2.53c-.19-.29.44-1,0-1.79,0-.11-5.25,5.51-1.07,4-2.7-.06-7.73,8.34.67,1.87-.6.36-3.69,4.79-.14,3.83-3.58.28-5,2.33,1.16,5.21-.42.32-.92,1.46.77.54.41,2.85,8.35-2,8.43-4.77.16-.36,2.25-.57.87-1.74.05,0,.49-.35,1,1,.15.24.34-.5,1.19-.34,1-1.42.74-2.5,1.46-5.19-.11,2.08.28,3.72,2.79,5-1.41-1.33-.32,2.3-.5,4.49,1,.67,1.49,3.38,2.51,6.2l.33-.14c-.78,1.76,4.54,5.53,2.12,6.45-.18.15,1.6,2.06-.66.94.29,1.24,2.61,3.28,1.46,5.47,9.12.94,1.43-1.19,6.57-3.85,1.35-3.87,5.09,6,6.83-12.08-.25-1.06.57-1-.16-3.43a1.86,1.86,0,0,0,1-.39c0-.37-1.23-.88-2.49-1,3.12.15,6.05-2.14,8.45-4.68-6.48-1.11,6.76.54-2.33-8.81-3.11,1-3-4.52-2.67-8.22.08-.06-.06.19.94.29a4.31,4.31,0,0,1,.6-4.08,1.7,1.7,0,0,1-.79-2.07c.7.53.93.52,2.21-.7-.42-.39-.35-.93-.46-2.18.17-.15-.35.55.65.38,0,0,0,0-.06.35a2.08,2.08,0,0,0,1.5-1.52l-.67-.06c0-.27,2-1.49,1.69-1.86a2.12,2.12,0,0,0,2-1.87l.49.42a1.89,1.89,0,0,1,0-.67c.17,1.31,7.71-5.5,6.65-8.26-1.88-2,1.37-4,.06-6.38.1.5,2-1.1,2.37-2.47l.59.11c.13-.34.06-3.25,1-1.67.29-.14.19.09.73-.65-.16.66,4.07,1.35,6.62.1-1,2.61,3.58-.2,2.32,8.37-2.65-1.58-4.63,6.55-10.44,10.89.07,0-.18,0,.09.48.6,1.73-3.34.87-2.44,3.13l-.62,0c-2.27,3.09-.18,7.11.32,11.63h-.21c.58,1.38-1.75,4.87.38,6.87,0,.1,0-.27.67-.44a2.78,2.78,0,0,0,2.75,1.51c-.52.43-.53,4.85,1,1.16,0,.44,2.12,1.47.34,2.72,2.64-1.29,6-1.45,9.46-3.55.2.61.25.25,1.34-.05,0-.22.17-.1-.28-.94.74.16,1.5,1.12,2.28-1.1.1.37-.41.34-.25,1.53-.91.57,8.62-3.16,7.34-.56L706,190c.19,3,5.61,1.47,5.74,4.69-1.85-1.61-3.39.31-5.64.16-3.29,3.36-1.42,3.52-10.58,1.46-.27,1.5-3.26.52-5.12,1.84l.1.55c-1.35-.65-3.62,2.71-1.41,3.43-1.77,2,1,2.91,3,3.37-1.15,3.66.15,15-7,3.68-9.56.36-1.25,20.38-6.89,17.3.42-.79,1.83-1.68,1.83-3.89.65-.37-7.35,13-9.42,5.33.24-.05.08,0,1.28.67-3.7-5.12-12.51,7.11-17.49,3-.33,2.25,2.42.49,2.66,2.89-2.22.24-4.39-6.34-7.75-4.21-1.22,1-2.74,2.5-5.14,2.1-1.88-.17,4.05-2-3.69-2.85.92-.08.13-3.11-1.45-3.43.17-1.06,1.6-3.69,1.58-4.95,1.4.18.76-1.23,1.84-2.71.48,1.6,3.52-1.95.22-1.54-1.53-1.51-.07-4.66.42-7.83.68-.09-13.13,7.36-6.46,6.53-.07-.76,2.08-4.13,1.49.15-.38-.86-1.34-.6-1.84,1.31-4.32-2.82-.47,6.28-.35,8.46,1.76,4-.84,6,4.26,9.46-1.24-.61-4.94-4.64-4.53.94-.17.1.43-.73-.57-1.24-.25-.32.11,1.56-.79.81,1.08-2.07-5.5-1.94-3.21,1.09-2.72-2.54-5.58.76-8.54,2,.36,2.41-3.72,5.22-2.06,7.6l-.62.08c-.07.08.53.27.94.69-.74.5-1.35-1.52-2.9-.38.47.79,1.19.4,2.74.86-1.49-.17-11.24,1.26-9.26,6.27.47,1.28-8.12,3-4.06,4.22-2.84,2.94-5.94-2.16-8.12-.66,1,1.11.45,3.45,1.74,5-.2,0-1.26.44-1.86-.24a1.28,1.28,0,0,0-.35.61c.8-.78-14.14-1.52-7.87,1.46.14.09-.72-.07-1.18.07.19.35,0,.12.87.63,0,.31-.61.12-1.23.68,1.56,1.14,4.22,1.59,6.85,2.28.51.84.92,1.42,3.48,2-4.51-.75,2.39,4.37,2.5,7.47-.09,0,.13-.13-.63-.15a8.77,8.77,0,0,1,2.33,3.83c-.92-.48-.16-1.66-1.88-2.64a20.05,20.05,0,0,0-.57,4.28c.14-.1,0-.05.32-.48l.27.37c-3.55,8.91,3.69,6.57-24.36,4.84.26,1.29-6.92,2.08-3.24,4.29.25-.12-1.33,1.71.4.75.19.1-.34.63.29,1.08.07.05-.27.15-.3.6a.62.62,0,0,1,.44.05c-.16,0-1.36,1.43-.3,1.56.22-.15-1.13,1,.07,1.14,2.15,1.39-5.87,18.62-.13,12-.41,1.2-3.54,2.61.44,2.92l-.75-.09c.17,1.62.73,3.77-.41,6.23,2.13-.55,4.66.34,7.5-1.08-.16.8.69.44,1.65,2,.09.12-.14-.37.63-.35-1.26,7.41,5.59-.56,11.65.74,3.41.76,3.44-3.64,7.67-3.89-1.15-1.92,2.06-3.47,3.08-5.29-4.78-2,2.18-7.06,2-9.07,2.15-2.39,8.62-2.33,9.11-6.83-2.09-2.5.37-7.59,5.21-5.19.16-.21.23-.1,1-.31,7.52,7.85,12.65-17.13,21.24,4.9,2.58.17,3.88,3.7,6.82,5.38,1.21-.11,3.11-.22,3.64,2.18-.35-.07,2.29-.5.93.9,2.55-1.13,1.19,1.09,3.35,2.42,4.23,1.44,2.23,5.84,1.51,9.55,1.45.27,3.89-3.53,4.91-5.88-3.29-3.46-1.58-8.67,4.3-2.54,2.5-5.14-10.13-5.18-8-9.72-2.43.21-4.24.06-6.61-2.72-.46-5.48-9.56-7-5.79-14.74l-.36.38c1.45.24,3.16-3,4.75-.79-1.57-.22-.25,7.65,1.86,1.44,2.62.19,1.23,3.74,4.07,5.24a1.84,1.84,0,0,0-1.22.07c1.71,3.57,5.91,3.21,9.14,6.77-.2.06-1.48-1.08-2.38-.78,1.55.25,3.5,1.9,5.63,2.71,2.8,3.91,3.27.26,2.79,9.61,0,0-.13-.17-.42-.14,2.15,1.51,3,6,6.41,6.47-2.23-.25-.4,3.22.66,2.19.25.85,2.59.83,3.83.22-.41.41,4.82,1.4,1.66,1.72,0,.06.07-.09.09.41-3.91-2-8.36-3-3.61,5.35.41-2,1-1.24,2.1,1.26.35-1.53.14-2.26,2.36,0-.14-1.31-1.2-3.06-1.36-5,1.35,1.05,3.55,1.89,1-1.4,1.18-1.14,2.42.23,3.54.85.4-2.55-2.06-4-5.22-5.14.46-.45.59.37,1.75-.77l-.36,0c.08-.31-1-1.11.1-1.34,4,3.32-4.29-4.32-.25-5.73-.44.41,1.06,2.67,2.64,2.88-1.21-1-1.45-2,1.15-.29-.74-.94-1.68-2.75,1.21-.57-5-4,1.91-4,8.61-2.19-.35.67-2.08.76-2.07,2.52,2.26-3.48,7-3.77,10-5.3-3.89-.7-2.41-2.74-5.53-5.8a28.27,28.27,0,0,0,4.94-10.13l-.29.05c.48-.2-.25-2.24,1-2-.26.1.06.42-.17,1.07,2.2.08,2.63-1.87,2-4.78,3-.15,3-3.83,6.8-5.32l-.11.57c1.28.54,1.9-.82.8-2.8,1.2.58-.29,4.32,2.88,3.05-.54.94-1.41.55-3.6.32,0,.43,2.87.66.79,1.16,2.1,2.51,12-1.37,2.56,4.61,7.88.32-2,8.91,10,2.11.31-.94,1-.32,2.45-.26.57.2,1.42-.23,1.83-1.8-2.15.25-8.82-.13-4.72-5.25.35.37.28,1-.76,1.69,1.61-1,3.24-3.92,6.26-3.08,1.45-1.79,4.22-1.63,6.91-2.8-.12.29-.12-.08-.73.57,1.08-.55,5.5-.52-.4,1.73a1.58,1.58,0,0,1,.22.76c-.46-.28-1.23.07-2.59.14-.07,1,1.58,1.31,2.56,2.76-.43.22-1.1-.6-1.46.78.28-1.54-1.83,1.27-1.43,2.23-.12,1.53-2,.4-3.34.58.28.2.15,0,.77.41-4.45.53,15.58,8.93,16.61,15.17,2.3,8.21-20.82,5.94-22.89.56-5-.13-9.85.58-14.49,4.34-1.52-.4-12.32-1.1-4.16,1.55-.71.58-2.06-.25-3.74,1,.18.2.29.08.94.5-.52.41-2.41,0-4,.2.31-.22.26-1-.69-.46l.41.45c-2.11-.07-6.49-.4-6.1,4.16,4.34-.71.85-.61,3.17,2.61-.33.16-1.75,2.08.46,1.94,0,.6-1.59-.2-1.66.52-.12-.45-1.32-2.78-.9-.14-1.5.85,1.92.53,2.94,2.15-.7.91-.31,1.91,1,3.15.19.23-1.34-.28-1,.82.82-.32,1.61-.08,3.45-.23-.29.82-1.73.89-2.78,1.38.42.36.92-.1,2.22-.17.1,0-.24.08-.23.51,2.2-3.09,7.47,6.74,9.23-1a15.9,15.9,0,0,1,2.49.28c7.71,6.6,6,.12,17,.25-1.51-2-.36,29.05-14,22.92.46.9-.25.81-1.57,0a1.4,1.4,0,0,0,.43-.77c0-.15.07.33.86.57-.64-1-3.27-.85-5.53-.31.12-.15.62,0,1.26-.61-6,2.07-3.35,4.37-15.7.22-6.31,1.35-19.28-13.29-22.84-.17,1.85,6.7-4.14,5.13-9.7,1.79-6.14-1.29-3.78.5-7.73-5.35-5-2.19-8.33-1.17-13.37-3.43.05,0-.07,0,.24-.15-.46-.2,0-.38-1.1-1.42-.07-.07,0,.58-.82.47a1.46,1.46,0,0,1,0-.73c-5.31-.21.92-4,1.17-7,.6-2.47-4.86-1.47.29-6.64,0-.14-.07.21-.26-.87-.38-.42-1.48,1.68-2.67,1.27,0,.24.15-2.46-1.47-2.06-.14.11.35.19-.16.52,0,0-.3-.23,0-.76-3.19,0-5,3.4-9.26,1l.12.54c-10.87,1.35-19-1.36-32.18,8.07-.58-.3-3.63.75-3.72-1.33-.7.91-8.56,2.41-8.11-2.13-3.78-.2-3,6.16-6.14,8.51-16.24,6.31-2.33,13.92-16.68,23.11-8.71,2.16-8.54,11.46-14.81,17.61,0,0,.18-.21.63-.65-.72,3.52-4.93,6.64-4.39,11.42.23-1.44.76-.81,1.71.75,0-.05.09.07.11-.39.78.46,1.69,2.58.31,4.58l.49-.14c.33,3.33,2.07,13.75-4.33,17.32l.32.37c.32-.76,1.65.33,2.3,2.32.06,0,.12,0,.61-.13-1.08,2,1.19,2.52,4.18,2.05-.15.27-2-.34-2.66.67-1.37.67-2.69-3-2,2.48.16,0,.18-.09.52-.46,1.46.28-3,1.13,1.24,1.7-1.29,1.38,1.33.43,1.06,1.61.32.41,2.13-1.1,3-.46-.29.15-3.23.43.1,1.13-.21.22-.7-.34-1.43.66.9-.09-.44.82.92.9l0,.45c.11.06,0,0,.59-.4-.4,1.91.81-.3,1.33,1.61l.29-.28c-.36,1.27,1.79,3,3.18,3-.17.32.37.33,0,1.38,1.17-.43.86,1.95,2.22,2.31-.58,0-1.17,1.53.54.79a.82.82,0,0,1-1.25.59c.41.34,1.16,3.06,2.74,2.58-1.77,0,12.62,9.81,14.85,11.06,3.41,2.15,6.24-1.94,11.24-1.89-.14-.08-.06-.17-1.08-.07.79-.41,2.73.21,4.68-.27-.46-.25-.53,0-2,0,1.1-1.11,3.68,1.37,5.13-.4.09,0-.4.55.46.76,0,.11-.2-.17-.8.06,5.17,2.78,14.83-4.32,24.61-5.13.16-.06-.5.21-1.06.54,2.62-1,4.78,2.11,6.6,2.52,0,.09-.14.34.45.33-.63-.11-1.61,1,.33.48.21.28-1.56.65-.26,1.12-1.11-.44,1.61,4.51,2.79,2.52-.37.27.83,1.05,1.09-.15.26.19-.1.78,1,.36-.1,0-.26-.51-.33-1.23-.11.71,1.74,2.08,1.09,0,.3.17,1.09,1.14,1.59.21.09.57,3.65,1.17,2.54-.93,0-.1.57.91,1.12.6-.45.16.58,1.61.32.28.66-.36,1.54,3.91,2.89,2.11.22-.09.09.43.65,0l.07.07c-.23.22-.2.29.18.71a.55.55,0,0,0-.64.19c.21-.12-.14.85.73.61l-.33.3c1.73,1.54.58,5.1-1,8.34,2.81.73-2.84,2.86,2.16,3.29.21.09-.54-.18-.72.52.08-.26-1.43-.1-1.55-1-.15.52,0,4.81-2.29,3.25.45.33.57,3,2.26,2.55-.35.46.08.64.62.95-.51.23-.88.15-1.71-1a5.65,5.65,0,0,0,1.57,2.28.93.93,0,0,0-.65-.21c.66.64,1,1.81,2.68,2.25-.33.2.15.22-1.19-.29,2.54,3,8.08,6.17,8.56,11,.46,1.62,1.35,1.09,3.2.82-6.55.46,4,7.29-.05,11,0-.06,0-.06.14-.37,6.84,16.84-3.24,6.33-4.78,31.66,2.38,5.91,8,12.25,9.71,19.19,0,0,0,.08-.2-.15.57,6,1.15,13.23,4.5,19.61.66-.53,12.91,19.4,7.9,19.14-1.23.84,1.73,2.62,1.75,6.85-.47-.47,1.53-2.5,1.3.07.12,0,2.18-.22,1.64,1.06,2.13,1.42,6.75-1.4,12.08-2.55,5.14.69,8.59.29,14.45-1.66,5.34-2.48,21.69-19.26,21.49-30.27-.28.14-.15,0-.38.72-4-4.23,10.65-4.72,9.19-9.29-.56,1,1-9.62-.28-5.29-.25-3-2-6.65-2.58-10.26,1.63,1.12,3.81-2.5,5.68-3.62,2.5-3.11,7.13-5.55,12.59-8.33-1,.78,5.69-7.45,2.82-6.85.11-1.39-.49-3.1-.27-5.56H748c1.26-1.86-1-4.92.57-7.65l-.39-.23a1.75,1.75,0,0,0,.44-.37,5.53,5.53,0,0,0-3.12-2.33c-.17-2.07-1.24-5.66-1.54-7.79,3.4-5.89-8.23,0,5.64-20.12,0,0-.09,0,.21.11,27.68-27.84,17.1-9,36.69-43.45,0-.35.09-.21-.68-.6,0,.18.06.42-.57.39,1-1.1-.36-2.61.79-4.91-7.17.85-15.84,4.11-24.53,4.81-2.12-.85-2.5-4.52-6.18-3.89.15-.4,5.4-.92,1.68-4.73l-.1.33A110.71,110.71,0,0,0,746,402.29c-.3.11-.08.57-.28,1.25-2.56-2.77-1.62-8.39-5.28-11.49-3.58-1.12-4-6-4-10.41,0,.05.08-.07.37.24.73-2.75-9.19-8.31-5.18-10.91-3.78-3.77-6.17-10-8.05-15.63-1.5-1.44-4.85-5.42-3.26-8,2.37,4.14,4.83,15.45,8.46,1.68a40.88,40.88,0,0,1-1.22,5.92c2.2-2.22,8.52,12,15.17,20h-.2c2.1,3.24-2.46,6.16,6.66,11.82,1.53,5.66,8.26,9.31,7.07,16.24,0,0,0,.05-.32-.22l-.14.34c1.86,1.47,1.41,5.5,2.92,9.08,9.15-.36,18.1-6.39,28.81-9.61,2.9-.56-.27-3.77,7.36-5.34,3.48-1.48,2.44,1.23,7.14-3.85,4.36.52.52-3.59,6.79-3.91.58-1-.94-4.89,1.79-6-.48,2.63,3.94-3.23,5.55-6.37-.18-1.16-2.24-1.75-3.49-4.13-2.32-2.55-9.66.6-8.74-11.19-2,2-8.63,12.78-16.67,7.61-.16.24-.26.21-1,0-.11.09.3-.42.36-.88,0-.1,0,.24-.5-.14,3.2-1-1.14-12.26-1.63-.7-1-1.19-3.4-5.84-2.31-7.23-.67-.92-2.38-1.5-3.42-3l.22-.22c-2.72-.36-2.19-6.76-5.33-7.52,0,.05.49-1.11,1.48-.72-1.79-3.83,1.31.72,3.14-3.53l-.12-.23c0-.17,2,.46,0,.54,7.63,1.33,3.71,7.38,12.66,11.46,4.08,5.1,7.53,2.88,14.5,1.43,4.09,3.17-5,5.88,17.09,7.47l-.07.06c2,.54,3.81-.67,6.76-.09,1.73-1.2,6.41.08,10.47-.91-.44-.22-.09-.31-1.19-.18,1.06-2.37,3.41,4.88,5.33,6-.12.21.27.85.75.06,0-.15.24.52.63.21a1.56,1.56,0,0,1,.27.36c0-.08,0,.14.18-.4.06.14-.12-.19.24,1,.51,0,.55-.61,1.91-1-3.58,1.3,2.8,6,6,2.9,0,2.34-4,2.48-5.34,3,.78,3.63,12.13,9.39,10.78,1.76,0-.4,1.68-1.11.51-1.68a10.92,10.92,0,0,1,2.2.14c-.2.38-1-.56-1,1,0,0,0,.11.62,0-.32.31-.36.06-.55,1a4,4,0,0,0,2-.2c-.08.19-.82.14-1.75,1.08,0,0,0,.09.42,0,.5,1.67-.2,4.39.23,7.25-.07.43-.44.55.66.89,0,.06-1.15-.38-.54,1.12.2-.16.2,0,.49-.66.09,3.39.13,9.47,3,12.74l-.21.31c.21.17,0,.06.56.64h-.46c3,5.89,5.9,13.7,9.35,20.88-.61.37.12-.8-.76-1.38,4.6,12.79,3.81,2.53,11.14,2.59-5.37-1.47,4.35-4.31,1-7.49.42-2.42,3-5.91,1.63-8.56,0-.07.18.38.53.82,0,.36-2.57-10.22,1.82-8.2,4.54-2,14.2-13.45,16.42-14.35,0-.18,3.24-.29,2.64-1.32.15,0,.09-.08.46.17,3.92-3-1.52-2.67,6.27-7.89,0-.27-.75,0-.77-.95,1.18-.05.11,3.86,1.22,2.32.45.81,1.2.59,1.24-1.37.64.35-.1,1.06.37,2-.08-.07.25.07.39-.6.07-.1,0,.6.68.34-.1-.11.2-.32-.36-1.07h.28l.08-.59c-.09.89,1.78,3.09,1.52-.68a9.54,9.54,0,0,1,.3,1.9c1-.46.61-1.4,1.47-2.62a1.53,1.53,0,0,0-.11,1.67,2.52,2.52,0,0,1,.89-.51c-1.39,1.39,1.18,2.55,1.21-2.82-1-.7,1.65-.94-1-2.08a3.49,3.49,0,0,0,1,.13c.11,0-.14-.45.17-.65.08.9.36,6,3.08,2.68,0,.64.64,1.07,1.12,2.21a.74.74,0,0,1,.23-.2,11.27,11.27,0,0,0,3,7.68,2,2,0,0,0,0-1c0,.08,1.08.68.29,1.31.17.31.53.32.86-.72.18.19.13-.05-.07.82a.54.54,0,0,1,.28,0c-.26.18-.66.58.34,1.23,0-.24.07,0-.12-.71.59-.36.68.29,1.93.48a2.38,2.38,0,0,0-.33.5c.74.54,2.71,2.73-.42,1.5.11-.09.28,1.3,1.53,1.73.25-.2-.12-.67.41-1.42.26,0-.67,1.1.71,2l-.27,0c2.88.7-1.66,14.16,1.87,8.1.2.36-.25,1.12-.14,2.2a1.21,1.21,0,0,0,.81-1c.06.54-.18.36.18,1.32.22-.22,1.09.45,1.42-1-1.36,2.73,3.81-.56,3-2.43.61,1.8,3,.66,2.33-2.3.1,0,.49.5,1.22,1.11-.07.22.12,2.85,1.85,1.92-.9,1.41.23,3.93.51,6.61.19,0,.19-.31.52.31l-.31-.16c0,.68.56,2,.77,3.76l.18-1.19c.5,1.51,1.73,3.45,1.68,5.83,0,0-.69.53.06.44.22.56-1,2,.64,1.79-.58,1.53-1.74,3.58-1.11,6,0,.12,0-.28.5-.55-.92,4.37-4.39,4.6,3.14,10,1.63,2.64,3,7.19,4.22,11.65,0,0,0,0-.29.2,2.24,3.13,6.07,8.84,11.52,8.74a1.93,1.93,0,0,0,0-.59c3,2.91-2.26-3.29-2.38-12,.06-2.55-12.73-8.88-10.62-8.72.76-.12-.08.39.92,1.13-.61-.86-.45-3.06-1.35-4.49-.92,1-.27-2.36-1.54-2.84-1.69.71-2,0-1.88-3.36,2.43-2.62,1.33-10.34,5-11.73,2.12-.32,0,3.35,1.71,3.19,1,.42,2.79-.65,4,1.22,0,0,0,0,.1-.23a2.09,2.09,0,0,0,1,1,1.17,1.17,0,0,0,.19-.33c.31.05.53,1,1.19,1.76,0,0-.08,0,.06-.24,1.29.93-.91,4,2.48,2.54.78-.06-1.66,3.26.76,1.43,3.92,1.88,3.6.48,3.6,6.73l-.44.52c.27.09,7.48-3,3.73-4.94.35.56,4.77,3.5,1.07-.78,0,1.23,4.29,1.26,1.16-.27,0,.14,2.18-.16.49-.59l.43-.25c.15,0,.91,1.44,1-.44-.3,2,7.53-1.42,7.77-4.79.05,0-.11-.05.11.36.09-.46-.21-.62-.14-1.8l.34.09c.14-.18-.77-.8.11-1.29.08,0-.13,0,.39.54,0-1.15-.73-2-.7-4.48l.15.32c-.52-6.47-5.44-9.55-10.31-14.46l.43.17c-2.28-5-5.13-2.37,1-12.07-.36.59,6.3-2.07,6-3.41.08.6,2.31.81,2.12,1.74.13-.21,1.88.54,1.55-.95.15-.35.32.78.83.5.1-.1-.14.33.61.3a2.75,2.75,0,0,0,.18,4s0,.09-.34,0c3.09,2,.73-1.66,1.84-3.44.68.51,4.06-.57,5.39-1.91.25-.15,2,1.2,1.47-.49.52.69,1.85,1,2.56-.86,0,.68,1,.3,1.61-.05h0a2.87,2.87,0,0,0-.76-2.59c.5.08.11-.7,1-.82-.23.64.07,1.71,1.39,2.33-.34.59-.73.3.88.81a.7.7,0,0,0,0-.92c.09-.16.37-.25,1,0,0-1.78,7.11.34,7.3-3.11.41-.23.81.23,1-1.12.43.66,1.46-.75,1.6.23a.56.56,0,0,0,.23-.78c.05,0,0-.41.69-.17-.19-.69,2.79-1.28.75-2.43.21-.79,3.47.35,2.8-1.38,1.42,0,.3-1.72,2.28-1.53-1.83-2.21,2.15.68.89-1.38.41-1.8.71-.81-1.41-2.05.82.54,3.71-.22,1.58-2.58.15.1.46.44.83-.24-.29,2.88,3.57-2.83,3.25-4.56.85.29.62-.59,1.65-1.33.14.52.15.4,1.38.21-.78-.79.52-1.83-.25-2.53.36.18,1-.38-.32-.8,1,.09,3.61-2.28.2-1.41.66-.36.71-.76,2-1.55-2.12-1.29-3.8-1.57-6.64-1.49,3.3-1.08,11.08-4.45-.56-6.89,1.89-1.43,3.53.56,6.44.95a34.41,34.41,0,0,1-5.85-10.89c-2-1.57-6.85-1.05.29-7.07-1.33-1.37,0-.2,1.39-.79.09,0,.24-2.47,1.31-1.92,2.44-2.15,4.81.32,5.68-3.45-2.63.65-5-2.35-8.48-1.22-.58,1.61-4.73,5.65-4.63-1.6-.91-.78-4.26.35-4.86-2.59.11-3.29,2-1.85,5.21-2.67a20.45,20.45,0,0,1,9.83-8c2.64,3,.72,2.46-1.12,6.1-.38.06-.21-.06-.87.43,0,.18.23,0,0,.72.34.14,1-.08,1.91,0,.09.22-1,.18-.48,1.25.08.31-2.84.36-1.82,1.68,2.58-1.07,5.14-3.79,8.75-5.18a1.73,1.73,0,0,0,2.45-.59c-.12.7.58.39,1,1.8,4-1.71.6,3.66,3.22,4.18-1.69,0-1.59.85-3,2.47.26.22,1,0,2,.33-.31.14,0,0-.91.55,0,.32.94-.2,1.3.91.93.16,1.28-2.49,2.67-.08,1.08-2,2.8,2.39,2.65,4,0-1.92-4.59.59-1.35.57,0,.66.44,2.26.56,3.34,1.35.24-1.42,1.24-.12,1.51-.56.2-2,3-.07,3.18-.06,0,.09.09-.42.29,0,0,.09-.06.18.25-1.42-1.1-1,3.33,2.54-.25-.43,1.21.41,2,.81-.37,2,1.79-1.39-1.8,3.4-.12-.62-2.76,3,2.1,4-5,.26-3.81-4.7-12-7.21-14.66-.83-3.4,6.5-3.2,7.7-8-1.56-3.28,4-4.68,3.5-7.18,2.17,1,2.32-2.41,4.59-3a1.75,1.75,0,0,0-.52.88c.44-.1.42.24,1.56-1,.14.54.06.55,0,2.05,7,5,27.32-23,28.86-34.81-2-6.32,6.06-12.76,1.15-18.63,5.14,2.11-2.86-8.07-7.67-7.14.17.78.87,4.36-1.43,4.59,5.21-6.51-7.4,4.72-1.46-2.49a2.37,2.37,0,0,1-1.75-.92c.58-.38.43.06,1.15-1.09-1.73-.15-1.75.44-1.79,2.75-3.07.86-.42-2.71-1.55-4.8-2.89.48-9-.14-1.9-4.42,3.91-1.54,19.15-26,25.84-25.88,2.61-2.27,9.57,2.55,10.27-.59.1-.15,10.54,2,8.08.39.22-.12-.53.12.19-1.09.09-.1.09.68,1.43.3-1.28-2.67,2.81-1.81,5.15-.47,0,.05-.22,0-.65.43,2.57.72.16-2.63,6.25,1.86-.86.78-1.91,0-4,1,1.07,3.6,6.26-1.16,14.2-.73,1.24-3.48-5.47,0-2.71-4.73,4-4.85,10.39-18.46,18.16-13.21,4.85-3.3,1.84.65.83,5.56.34.51.69-1.07,2.07-.5a7.81,7.81,0,0,0-.72,2.78c4.75-2.05,6.11-8.56,10.63-7.28-1.44-3.12.77-11.45,7.81-6,0,.06-.92-.48-.74.55-3.94-3.21-5,7.17-5.27,10.73-8.25,3.45-12.38,13-19.1,20-13.61,4-8.62,28.61-5.38,42.44,2.25-1.87,8-6.94,5.93-11.26.08-.29.42-1.08,1.1.28.79-.71,2.48-2.86,4.5-1.28-1.62-6.24,0-7.09,7.31-9.62-2-3.36-1.21-9.63,3.28-11-4.35,4.08,4.84,4-.87-2.25-.5-1.94.72-3.71,1.53-5.92-.59-.33-2.41-2.28-2.93.48,0,0-.07,0,.07-.4-3.88-1.59,1-7.29,2.37-9,.59-.05,1.13-9.25,3.61-5.28.89-.71.78-2.2,3,.38.52-1.78,2.26-3.34,4.91-4.51,0,1.13-1,2.56-.58,4.46,6.39-6.93,8-6.7,14.9-1.38.06-4.55,8.19-5.94,8.55-10.17,3.86-.9,9.32-5.62,15.24-8.36-3.32-2.84,3.87,1,6.79,2.05,2.13-3.21,1.26-5.1-1.15-9.37-.17.17.15.17-.18,1.14-.79-.21.67-1-1.06-1.65,1.81-.49.47-3.61-.75-6.05-3.57,4.23-.07-6-7.34-1.8,2.3-3.61-1.92-1.49-5.6-.8,1.71-2.29,15.33-.14,6.31-3,3-1.43,4.43,4,8.28,3.42,6.22-4.9,6.91-3.07,5.69-13.05.5,1.31,1.4-.42,1.9-1.65.16,1.31.53,3,2.17-.24a11.59,11.59,0,0,1-.77,3.37c0,.1-.07-.29-.68-.17,2.66,6.92,1.21,3.36,9.21,4.46,3,1,.3,3.8,3.09,5.76,2.77-1.58,5.36,6.3,7.43,2.27-.62,1.16,1,4.11,1.49.11.17.15,1.53,2,1.79.42-1.58-.58-1.14-2.77-2.43-2.8,0-.58,6.11-1.86,1.49-3.57.46-.06,1.9-.1,1.51-1.74-.09,0,0,.11-.65.05.35-.49-.14-1.18-1.29-2-.85-1.26,8.78,5.15,5-1,1,.67,2.36,3.53,3.43-1.06C1272.71,146.81,1275.32,148.37,1274.61,146.24ZM728.46,496.62c1.3,1.93-2.84,2.38,1.3,10.28.32.85-.82,0-1.16-.84-1.75,2.57-1.29-3.36-3.14-6.4.67-1.69,1.66-5.27-.18-7.89C725.35,486.21,727.51,494.92,728.46,496.62Zm-8.81-40.11s0-.07.19-.09c.23.41.35-.07.73-.56,0-.06,0,.17.23.26a.45.45,0,0,0-.14.22c.62-.15,1.56.41,1.81-1.08,0-.06.26-.06.62-.16,0,.92.75.84,2.15.9a2.18,2.18,0,0,0,1.26,1.92c.1-.42,1.46-1.6,1.64-.15-2,0-3.31,2.43-3.09,4.24-1-.35-.92.87-2.19,1.42-.17.05.68-.2.8.25-3.19,1,3.6-.45-.33,1.62.11.87-3.08-1.48-1.65,1.35-.11,0-.17-.08-.71.47.12-.22.74-2.38-.74-1.66-.71-.95-2.07-.68-1.92.87-.14.14-.45-.76-.65.14-.06-.13-.29,0,0-.61C717.15,464,716.48,457.77,719.65,456.51Zm78.5-156c-.12.63-1.92-.47-1.17.92-1.28-.3-3.76.45-5-1.59,0,1-1.83,3.72.32,5.78-.94-1,1.3-1.91,2,1-.06-.09-.73.39-1.3-.28.2-.12-.7.65-.27,1.55.32-.66.9-.19,1.92.25-.3-1.3,2.36,12.07-.09,10.43,0-.08.18.14.83-.34-6.29,2.57-20.3,0-17.23-9.75-.06,0,.38,0,.38.59,1.76-1.41-.68-7.1,4.37-5.78-3.41-3.82-11.59-9.72-9.56-16.94-.39.31-.33.36-.64,1.59,1-2.79-4.32-3.81-1.62-6.43,0,0-.06.08.28.29,0-1,2-2.59,1.34-4.27.21,0,.06-.12.6.47a30.85,30.85,0,0,0,5.67-3.55c-.06-.1-.33-1,.4-.59,1.86-1.12,6.29-5.18,9.58-2.19.8.15,2.56-2.12,3.7.5,1,2.07-2.8,5.53.22,7.09-1.6-.53-11.58-.53-5.83,3.94.7.48-6.93-1.86-3.77,1.16,2.87.47,1.76,7.13,7.31,7.16.87,2.21-1.53,4.44,1.06,7.53C791,295.88,793.47,290.57,798.15,300.55Zm23.05-26.31c-1.19.9-2.44,3-4.86,2.15-.27.14-.15.46-.41,1,.63.56,2.71,7.56-.84,7.64,1.3-1.7-2.52-1.16-.29-4.88a4.44,4.44,0,0,0-1.11-3.19c-.07,0-.07.06-.27.56-.13,0,0-.07-.13-.44-2.35,2.83.68,4.2-2.28,6.68-1.63-.59,2-11.67,3.46-6.25-.07,0,.22-.62.25,0,1.1-.62,1.08-1.34.54-3.16.94.56,2.07,2.23,4.34.83,1.19-1.72-4.7-.11-2.19-2.57.35-.12.45-.2.85.75-.07-.61,2,0,.49-1.26A23.89,23.89,0,0,1,821.2,274.24Z" />
  <path class="land"
    d="M659.11,315.42a9.38,9.38,0,0,1,1.65-3c-2.71.48-7.06,1.81-10.2.38-3.43,1.85,4.1,4.86,8.36,6.56-.45-.84,1.32-1.26.22-2.27l.2-.16C659.09,316.6,658.54,316.4,659.11,315.42Z" />
  <path class="land"
    d="M1061.82,333.52c-1.15.32.44.71,1,2.11-.42,0-.36,0-1.1-.86-.48.59.89.92.32,2,.25-1.11,2,0,2-1-1.88-.36.33-3.56.51.63.08,0-.12.1.5.16-1.48,1.28-1,3.68-1.73,5,1.48,3,2.42-4.56,1.89,1.6,2.09-.81,3.53-5,4.31-8,.47-.45-.6-.28,0-1.17-.16-.06.2.13-1.27-.08.93-1.65.71-1.07-1.68-1.67,0-2.09-3.46,0-4.27,1.47Z" />
  <path class="land"
    d="M1081.38,323.53c-4.83.43-12.79,1.81-15.28,7.41,1.28.17,2.29-.88,4.32.58-1.48-.8,8.3-5.23,11.48-3-1.45.89-1.92,8.35,5.16.48-.85-.25-2.09-2,.06-2.55-1.39,1.81,2.88.33.58,1.92a6.93,6.93,0,0,1,4-.05c.26-.28,1.23-3.27,2.51-1.82-.72,3.45.18-.14,2-1.17,1.13.88.29.5,1-.95,2.32-2.22-.7,1.69.52,2.65,1.68-.76,1.16-2.79,3.35-3.52-1.72-1.25-.1-10.2,3.41-14.77,2.24-3.39-2.47-6.23-1.36-10.57-.68.69-2.55-1.85-2.31,1.23,3.72-1.84,0,3.94-.83-.34-1.3-.37-.17,1.27-2.25,2.83.91,1.64-1.22,2.78.46,3.87,2.58,3.2-14.12,20.3-9.6,9.94C1086.89,313.9,1084,328.12,1081.38,323.53Z" />
  <path class="land"
    d="M1025,420.12c-2,2.35-5.35,4-7.05,7.43,2.65-2.53,9.58-5.75,8-10.51C1025.26,417.75,1025.46,418.72,1025,420.12Z" />
  <path class="land"
    d="M1028,373.72a7.32,7.32,0,0,0,.84,2.53l0,0c1,.25.91,1.67,1.84,2.34C1033.89,373.5,1036.4,355.33,1028,373.72Z" />
  <path class="land"
    d="M1027.66,399.6c-2.46-3,2.06,10.89,2.1,4.81,2.75,1.58-.1.57.19,3.87,1-1.14.86,1.85,4-.48.68-.59,3.08,3.85,3.13,1.94-2.43-4.68,2.63,1.24,4.89,3-.09-.23.26.33.29-1.67-.29.21-.34-.37-1.25-.27.74-1-2.19-1.77.25-2.46-1.4-1.46-2,.3-2.81-.17.83-1.26-3.39-2.76-2.71-.54-1.22,1.3-3.83-3.54-2.38-6.22-1.19-.85,5.18-2.93,2.32-6.06-1.17.22,1.08-5.41-.68-3.57C1024.8,387.75,1031.87,400.48,1027.66,399.6Z" />
  <path class="land"
    d="M989.14,452.56c-.6.46-.84,2.9.8,4.08-1.72,2.63,1.28,2.34,2.68,5,.31,1.07-.5,6.71,3.09,5.25-1,.76,1.46.47,2.8-.07.77,0,.07,1.66.74,2.31.7-1.47,3.35.7,4-2.15l1.08,1.08c1.69-1.07-.34,2,3.52,0-.05-.18-.29,1.74.64.49-.46,4.1,4.22,2,6.09-.87.15,0-.47-.24-.32-.67.4.25.79,0,.73-1.24l-.24.09c.25-.28,2-1,0-1.62a.94.94,0,0,0,.39-1.23c-.08,0,.12-.05-.53,0,.35-.59,2-1.16,1.64-2.58,2.65,2.07,2.79-5,4.12-7.45-.14.57,7.94,3.18-.43-3.22,1.23-.4,1.07-1.69-.53-2.78,0,0-.07,0,.2-.22-.07,0,.11,0-.45-.14l.24-.08c-1-.71-.53-1.58-2-2.34-.05-.26,1.25.41,1.59-.37,3.31,1-4.06-1.94,3.65-2.26.73-.31-3.16-2.46,0-2.06-.41,0,3.23,0,2.36-1.55-1.55.4-2.45-2.16-4.4-1-.56-.46,1.2-.25.11-1.21a2.91,2.91,0,0,1-1.77.59c1.51-.78-.71-5.36-2.5-2.52.64-4.22-2.25,4.11-4.17,3.5-1.62.42,1.68,2.43-2,2.46,0,0,.08,0,.08-.41-3.15,1-4.63,3.31-7.25,6.47-1.87.29-5.09,1.52-6.13,2.52.46,1-1.47,2.82-.07,3.62-1.41-.91-4.2-.29-5.61-2.2a3.59,3.59,0,0,0-2.17,2.74,2.1,2.1,0,0,1,.42-.05C989.42,452.39,989.63,452.39,989.14,452.56Z" />
  <path class="land"
    d="M1123.06,480.16c5.72.54.69-3.43-3.94-4.28-1.67.2.4-1.75-1.94-3.48-3.39-2.3-18.81-9.07-28.36-9.8.54-1.45-8.53,9.74-8.92,4.26-.75.65-1-2.88-1.35-.27-1.83-1.74-.11-5.3-1.71-7.26-1.38.48-4.35-2.73-9.41.31-.14,1.81-3,1.89,2.23,2.53,0,2.61,3.16,3.11,7,1.88,0,.31,0,.09-.46.67l.38,0c.19.53-.62.09-.7,1.11-1.83-1.22-2.13.25-6.08.57,2.43-.5,3.66,8.83,5.44,2.17.77.42.07-1.41,1.14-1.24-1.68,1.62,1.08,3.6,3.67,3.08-2.86.71,4.65,2.74,8.41,3.51.85.28,2.63,2.59,3.73,2.55,0,.09-.19-.18-.49.45.09,0-.13.1.61.13-.77.51.69,2.39,1.73,3.55-1-.19-1.24,1.18,1.09,1.17-.06.23-.94-.16-1.5.21,2.32.06-1.23,5.55,1.76,2.56,0,1,1.95.95,3-.2-2.64,5.93,20.4,5.78,7.35.95a8,8,0,0,0,5,0,2.64,2.64,0,0,0-.34-.7c.1-.2.57.15,1.3.06l-.17-.27s0,.07.36,0a6.57,6.57,0,0,0-1-1.7c1.19,1.6,2.31.39,4.25.6.46,1.44,2.76.34,4.38,1.89.89.42,1.08,3.21,3,3.13,0,3.39,8.51,5.26,13,5.15-.13-.23-.13.1-.83-.64.17-.39.37.41,1.55-.36.24.16-5.93-.58-3-1.94-1.46-.81-2.4.74-3.06-2.37-.81-.25-2,1.49-2.43-1.12C1127.59,485.19,1121.51,482.94,1123.06,480.16Z" />
  <path class="land"
    d="M1104.37,240.86c-.79.93-.29,3.44-.29,4.66,3.88,2.21-.73,20.7,1.25,30.89.25-2.29,3.58-7.11,4.76-.56,1.58-2.8-1.46-4.77-3.07-8.73.22-3.92,2.55-14,7.58-4.72-5.2-9.7-3.91-21.79-7.1-32.46-.37.21.42,1-1.26.81,0,.51,1.91,1.84,1.08,3.23l.16,0C1106.67,238.65,1104.49,231,1104.37,240.86Z" />
  <path class="land"
    d="M1099.18,291.3c-2.76,1.24-1,3.26-.85,6.74,1.28.17.78-1.75,3.75-1.73-6.64-4.15.5-4.58,7.48-1.09.38-5,5.17-3.52,9-6.4-3.72,2.32-1.4-4.29-2.15-4.18-3.72,7.19-11.48-10.1-12.79-4.44.67-.17,1.14,12.48-3.51,9C1098.59,288.82,1100.38,290.09,1099.18,291.3Z" />
  <path class="land"
    d="M1133.57,474.62l.22-.23c-1.43,2.18-2.09,1.45-6.42,1.66,3.46,4.84,13.93,2,14.28-4.2,0,.26-2.75-1.24-3,0C1140.92,472.87,1133.48,478.65,1133.57,474.62Z" />
  <path class="land"
    d="M976.2,476.06c1.79,3.37,3.95-9.06.17-11-.52-.91-2.83,1.46-2.64.17,1.46-1.39-.46-.7-1-4.84a3,3,0,0,1-3.36-2.35c1.19-1.6,2.46-4.05-3-2,1.57-.64,2.8-.87-1.15-2.79,1,.52-5.84-6.93-4.69-3.23-3.73-3.65-8.08-6.83-11.91-11.43-1.2,1.44-11.1-4.46-7.05,1.63,13.56,9.61,17,26.88,32.31,37.09.14,0-.32-.46-.16-1.3C974.41,476,974.8,477.56,976.2,476.06Z" />
  <path class="land"
    d="M1005.53,486.32c0,.06,2.06.58,3.14,1-2.45-3.61,3.21-3.18-6.3-4.27,0-3.32-3.91-1.78-6.3-3.81-4.14,3.33-7.59.63-13.91-2-.83,2.05-2.86-1.91-4.89,2,.11-.29-.59,2.08-1,.68-1.46,1.1,1.63.11,4,1.37C977.31,483.2,997.18,485,1005.53,486.32Z" />
  <path class="land"
    d="M1027,459.4l-.27-.29c-.29,1.5-6.31,10.34-.76,10,1.82,2.58-3.61,8.4,3.29,7.1.25.79-2.13-13.91,2.24-9.45-.88,2.08.12,2.8,1.82,4.63-1.12,3.86,1.41,1.07,4,.7,0,0,0,0,0-.24,1.86.41-.72-1.62-1.65-2.67,1.55-2.2-2.13-4.08-3-6.06-.57,1.09,12-5.52,5.05-4.09,0,.07.12,0,.21.34-2.63-.36-4.88,1.07-7.36,2.12-1-.17-5.24-5-.77-6.58,4.69-.66,14.7,3.8,16.13-3.88-3.3,2.28-8.3,3.91-13.39,1.35-3.14.26-6.71,2.43-5.32,7.36Z" />
  <path class="land"
    d="M1046.61,425.36c-2.26-.14-2.61,2.07-5.71,3.28,2.71-4.25-8,0-6.06,4,1.65-.24-.44-2.56,3.76-2.71.37.44-.14.52,1,1-.07-1.67,2-2.17,2.81.49-2.19,1.23,1.07,6.4,3.52,4.22,2.06,5.16,0-3.22,2.23-4.45a24.42,24.42,0,0,1,1.28,3.59c-.5-1.77,2-2.59,1.25-5-.79-1.69-.81-3-1.24-5.46C1047.08,423.72,1047.45,420.55,1046.61,425.36Z" />
  <path class="land"
    d="M1040.54,492.28c-.86,2.4,6.87-3.41,12.82-6.14-.23-.77-13.46,1.12-12.58,5.82C1040.72,492,1040.87,492,1040.54,492.28Z" />
  <path class="land" d="M640.15,301.39c-6.31-13.5-5,18.75-.08.92h.09C640.16,302,640.18,301.69,640.15,301.39Z" />

  <use href="#angular-logo" x="130" y="119" />
  <use href="#angular-logo" x="146" y="196" />
  <use href="#angular-logo" x="194" y="169" />
  <use href="#angular-logo" x="228" y="206" />
  <use href="#angular-logo" x="186" y="247" />
  <use href="#angular-logo" x="216" y="265" />
  <use href="#angular-logo" x="268" y="288" />
  <use href="#angular-logo" x="226" y="323" />
  <use href="#angular-logo" x="293" y="294" />
  <use href="#angular-logo" x="281" y="215" />
  <use href="#angular-logo" x="318" y="246" />
  <use href="#angular-logo" x="304" y="395" />
  <use href="#angular-logo" x="335" y="423" />
  <use href="#angular-logo" x="364" y="575" />
  <use href="#angular-logo" x="371" y="428" />
  <use href="#angular-logo" x="399" y="469" />
  <use href="#angular-logo" x="580" y="272" />
  <use href="#angular-logo" x="590" y="213" />
  <use href="#angular-logo" x="626" y="230" />
  <use href="#angular-logo" x="663" y="203" />
  <use href="#angular-logo" x="633" y="143" />
  <use href="#angular-logo" x="697" y="100" />
  <use href="#angular-logo" x="721" y="173" />
  <use href="#angular-logo" x="701" y="208" />
  <use href="#angular-logo" x="697" y="369" />
  <use href="#angular-logo" x="868" y="360" />
  <use href="#angular-logo" x="884" y="269" />
  <use href="#angular-logo" x="932" y="266" />
  <use href="#angular-logo" x="963" y="257" />
  <use href="#angular-logo" x="963" y="309" />
  <use href="#angular-logo" x="989" y="304" />
  <use href="#angular-logo" x="1008" y="207" />
  <use href="#angular-logo" x="1039" y="213" />
  <use href="#angular-logo" x="958" y="100" />
  <use href="#angular-logo" x="1151" y="85" />
  <use href="#angular-logo" x="1096" y="518" />
</svg>
