<svg xmlns="http://www.w3.org/2000/svg" viewBox="0 0 626.14 467.8"><defs><style>.cls-1{isolation:isolate;}.cls-2{fill:#fff;}.cls-13,.cls-14,.cls-2,.cls-3,.cls-4,.cls-5{stroke:#000;}.cls-10,.cls-13,.cls-14,.cls-2,.cls-3,.cls-4,.cls-5,.cls-6{stroke-miterlimit:10;}.cls-10,.cls-3,.cls-6{fill:none;}.cls-4{fill:#d8ebf9;}.cls-5{fill:#ffedf1;}.cls-6{stroke:#3c9ae2;}.cls-10,.cls-6{stroke-dasharray:10 10;}.cls-13,.cls-7{fill:#3c9ae2;}.cls-8,.cls-9{fill:#e6e6e6;}.cls-12,.cls-9{mix-blend-mode:multiply;}.cls-10{stroke:#dd0031;}.cls-11,.cls-14{fill:#dd0031;}</style></defs><g class="cls-1"><g id="Layer_1" data-name="Layer 1"><circle class="cls-2" cx="312.74" cy="235.44" r="111.4"/><ellipse class="cls-2" cx="312.74" cy="235.44" rx="74.07" ry="111.4" transform="translate(-57.65 108.76) rotate(-18.09)"/><ellipse class="cls-2" cx="312.74" cy="235.44" rx="29.94" ry="111.4" transform="translate(-57.65 108.76) rotate(-18.09)"/><ellipse class="cls-3" cx="288.77" cy="162.06" rx="77.67" ry="18.85" transform="translate(-36.05 97.69) rotate(-18.09)"/><ellipse class="cls-3" cx="299.21" cy="194.07" rx="101.77" ry="24.7" transform="translate(-45.47 102.52) rotate(-18.09)"/><ellipse class="cls-3" cx="311.35" cy="231.19" rx="111.4" ry="27.03" transform="translate(-56.4 108.12) rotate(-18.09)"/><ellipse class="cls-3" cx="323.82" cy="269.17" rx="105.36" ry="26.43" transform="translate(-67.58 113.87) rotate(-18.09)"/><ellipse class="cls-3" cx="334.61" cy="302.68" rx="84.12" ry="21.02" transform="translate(-77.45 118.88) rotate(-18.09)"/><rect class="cls-4" x="418.65" y="96.76" width="11.03" height="11.03"/><rect class="cls-4" x="127.27" y="134.74" width="11.03" height="11.03"/><rect class="cls-2" x="380.06" y="118.15" width="5.87" height="5.87"/><rect class="cls-5" x="111.27" y="109.07" width="5.87" height="5.87"/><rect class="cls-2" x="461.17" y="241.22" width="5.87" height="5.87"/><rect class="cls-2" x="105.41" y="224.35" width="5.87" height="5.87"/><path class="cls-6" d="M166.47,220.39a134.71,134.71,0,0,1,96.37-122"/><polygon class="cls-7" points="171.56 219.11 166.28 227.57 161.59 218.77 171.56 219.11"/><polygon class="cls-7" points="262.76 103.64 269.78 96.55 260.13 94.02 262.76 103.64"/><rect class="cls-8" x="100.65" y="276.31" width="92.01" height="5.05"/><rect class="cls-8" x="100.65" y="289.49" width="92.01" height="5.05"/><rect class="cls-8" x="100.65" y="302.67" width="54.56" height="5.05"/><path class="cls-9" d="M188,259.4H102.72a14,14,0,0,0-14,14v35.34a14,14,0,0,0,14,14h58.93a28.55,28.55,0,0,0,14.26,12.72,21.26,21.26,0,0,1-2.4-12.72H188a14,14,0,0,0,14-14V273.38A14,14,0,0,0,188,259.4Z"/><path class="cls-4" d="M154.21,315.2h-59a14,14,0,0,1-14-14V265.88a14,14,0,0,1,14-14h85.27a14,14,0,0,1,14,14v35.34a14,14,0,0,1-14,14H166.05"/><rect class="cls-2" x="93.15" y="268.81" width="92.01" height="5.05"/><rect class="cls-2" x="93.15" y="281.99" width="92.01" height="5.05"/><rect class="cls-2" x="93.15" y="295.17" width="54.56" height="5.05"/><path class="cls-4" d="M153.9,314.78a28.57,28.57,0,0,0,14.51,13.14c-2.47-5-2.79-8.08-2.36-13.22"/><path class="cls-10" d="M440.37,284.73a136.73,136.73,0,0,1-212.64,58"/><polygon class="cls-11" points="435.14 284.38 442.77 277.96 444.52 287.78 435.14 284.38"/><polygon class="cls-11" points="232.09 339.81 222.25 338.16 225.74 347.51 232.09 339.81"/><path class="cls-9" d="M530.92,141.47H445.64a14,14,0,0,0-14,14V190.8a14,14,0,0,0,14,14h14.48a21.18,21.18,0,0,1-2.4,12.72A28.55,28.55,0,0,0,472,204.77h58.93a14,14,0,0,0,14-14V155.45A14,14,0,0,0,530.92,141.47Z"/><path class="cls-8" d="M500.81,151.32h-2.32a4.89,4.89,0,0,1-.58.19,12.87,12.87,0,0,0-8,4.06c-.56.59-1.07,1.23-1.63,1.89a13.06,13.06,0,0,0-5.75-4.86,43.19,43.19,0,0,0-4.42-1.28h-2.32a30,30,0,0,0-3,.71c-8.35,2.89-11.34,11.76-8.23,19.21,1.54,3.68,4.14,6.64,6.87,9.48a142.36,142.36,0,0,0,16.12,13.91,1.17,1.17,0,0,0,1.61-.06c1.21-1,2.45-1.89,3.65-2.85,5.6-4.49,11.09-9.09,15.64-14.68,3.13-3.84,5.26-8,4.7-13.21a13.23,13.23,0,0,0-8.33-11.39A27.66,27.66,0,0,0,500.81,151.32Z"/><path class="cls-5" d="M464.43,197.27h59a14,14,0,0,0,14-14V148a14,14,0,0,0-14-14H438.14a14,14,0,0,0-14,14V183.3a14,14,0,0,0,14,14h14.45"/><path class="cls-5" d="M464.74,196.85A28.57,28.57,0,0,1,450.22,210c2.47-5,2.79-8.08,2.37-13.22"/><path class="cls-11" d="M480.79,186.92a.72.72,0,0,1-.45-.19,140.87,140.87,0,0,1-16.07-13.86c-2.46-2.55-5.2-5.59-6.77-9.32a14.48,14.48,0,0,1,0-11.44,13.28,13.28,0,0,1,7.9-7.11,16.85,16.85,0,0,1,2-.49l.93-.19h2.2l1.33.35a23,23,0,0,1,3,.89,12.57,12.57,0,0,1,5.53,4.69l.37.53.95-1.12c.36-.43.71-.85,1.08-1.25a12.44,12.44,0,0,1,7.71-3.91,1.9,1.9,0,0,0,.51-.15l.1,0h2.17c.4.11.81.2,1.22.3a14.36,14.36,0,0,1,2.63.78,12.8,12.8,0,0,1,8,11c.47,4.4-.95,8.36-4.6,12.84-4.62,5.68-10.22,10.33-15.56,14.61-.61.49-1.24,1-1.87,1.46l-1.78,1.39a1,1,0,0,1-.54.24Z"/><path d="M493.18,144.82l1.18.29a14.25,14.25,0,0,1,2.54.74,12.21,12.21,0,0,1,7.74,10.59c.46,4.25-.93,8.1-4.48,12.47-4.59,5.63-10.17,10.26-15.49,14.52-.61.5-1.24,1-1.86,1.46s-1.2.92-1.79,1.4a.63.63,0,0,1-.23.13.32.32,0,0,1-.15-.08,141.09,141.09,0,0,1-16-13.82c-2.43-2.52-5.14-5.51-6.66-9.16a14,14,0,0,1,0-11.05,12.76,12.76,0,0,1,7.6-6.83,15,15,0,0,1,1.92-.48c.3-.05.59-.11.88-.18h2.08c.42.12.85.23,1.27.33a24.17,24.17,0,0,1,2.91.87,12.21,12.21,0,0,1,5.3,4.52l.74,1.05.84-1,.53-.63c.36-.44.71-.85,1.07-1.23a12,12,0,0,1,7.4-3.75,2.26,2.26,0,0,0,.63-.18h2m.13-1H491a4.89,4.89,0,0,1-.58.19,12.87,12.87,0,0,0-8,4.06c-.56.59-1.07,1.23-1.63,1.89A13.06,13.06,0,0,0,475,145.1a43.19,43.19,0,0,0-4.42-1.28h-2.32a30,30,0,0,0-3,.71c-8.35,2.89-11.34,11.76-8.23,19.21,1.54,3.68,4.14,6.64,6.87,9.48A142.36,142.36,0,0,0,480,187.13a1.23,1.23,0,0,0,.76.29,1.38,1.38,0,0,0,.85-.35c1.21-1,2.45-1.89,3.65-2.85,5.6-4.49,11.09-9.09,15.64-14.68,3.13-3.84,5.26-8,4.7-13.21a13.23,13.23,0,0,0-8.33-11.39,27.66,27.66,0,0,0-4-1.12Z"/><g class="cls-12"><path class="cls-8" d="M222.07,204.34a13.14,13.14,0,0,0-26.25-.81,13.35,13.35,0,0,0,.47,4.4,12.83,12.83,0,0,0,1.17,2.8h0l.06.11v0l10,18.08a1.61,1.61,0,0,0,2.82,0l10.07-18.22h0A13,13,0,0,0,222.07,204.34Z"/></g><g class="cls-12"><path class="cls-8" d="M401.68,281.28a13.14,13.14,0,0,0-26.26-.82,13.32,13.32,0,0,0,.47,4.4,13.12,13.12,0,0,0,1.17,2.81h0l.06.11v0l10,18.08a1.61,1.61,0,0,0,2.82,0L400,287.67h0A13.13,13.13,0,0,0,401.68,281.28Z"/><circle class="cls-8" cx="388.54" cy="281.81" r="4.58"/></g><g class="cls-12"><path class="cls-8" d="M308.65,241.44a13.14,13.14,0,0,0-26.25-.82,12.87,12.87,0,0,0,.47,4.41,13.23,13.23,0,0,0,1.16,2.8h0l.06.11v0l10,18.09a1.61,1.61,0,0,0,2.82,0L307,247.83h0A13,13,0,0,0,308.65,241.44Z"/><circle class="cls-8" cx="295.51" cy="241.97" r="4.58"/></g><path class="cls-13" d="M217.57,201.84a13.14,13.14,0,0,0-26.25-.81,13.35,13.35,0,0,0,.47,4.4,12.36,12.36,0,0,0,1.17,2.8h0l.06.11v0l10,18.08a1.61,1.61,0,0,0,2.82,0l10.07-18.22h0A13,13,0,0,0,217.57,201.84ZM204.43,207a4.58,4.58,0,1,1,4.58-4.58A4.58,4.58,0,0,1,204.43,207Z"/><g class="cls-12"><path class="cls-8" d="M339.11,111a13.14,13.14,0,0,0-26.25-.81,13.35,13.35,0,0,0,.47,4.4,12.83,12.83,0,0,0,1.17,2.8h0l.06.11,0,0,10,18.08a1.62,1.62,0,0,0,2.83,0l10.07-18.22h0A13.12,13.12,0,0,0,339.11,111Z"/><circle class="cls-8" cx="325.98" cy="111.57" r="4.58"/></g><path class="cls-13" d="M397.18,278.78a13.14,13.14,0,0,0-26.26-.82,13.32,13.32,0,0,0,.47,4.4,13.12,13.12,0,0,0,1.17,2.81h0l.06.11v0l10,18.08a1.61,1.61,0,0,0,2.82,0l10.07-18.21h0A13.13,13.13,0,0,0,397.18,278.78Z"/><circle class="cls-2" cx="384.04" cy="279.31" r="4.58"/><path class="cls-14" d="M304.15,238.94a13.14,13.14,0,0,0-26.25-.82,12.87,12.87,0,0,0,.47,4.41,13.23,13.23,0,0,0,1.16,2.8h0l.06.11v0l10,18.09a1.61,1.61,0,0,0,2.82,0l10.07-18.22h0A13,13,0,0,0,304.15,238.94Z"/><circle class="cls-2" cx="291.01" cy="239.47" r="4.58"/><path class="cls-14" d="M334.61,108.53a13.14,13.14,0,0,0-26.25-.81,13.35,13.35,0,0,0,.47,4.4,12.83,12.83,0,0,0,1.17,2.8h0l.06.11,0,0,10,18.08a1.62,1.62,0,0,0,2.83,0L333,114.92h0A13.12,13.12,0,0,0,334.61,108.53Zm-13.13,5.12a4.58,4.58,0,1,1,4.57-4.58A4.58,4.58,0,0,1,321.48,113.65Z"/></g></g></svg>