<svg width="962" height="594" xmlns="http://www.w3.org/2000/svg" xmlns:xlink="http://www.w3.org/1999/xlink"><defs><path id="a" d="M0 0h19.147v15H0z"/><path id="b" d="M0 0h19.147v15H0z"/><path id="c" d="M0 0h19.147v15H0z"/><path id="d" d="M0 0h19.147v15H0z"/><path id="e" d="M0 0h19.147v15H0z"/><path id="f" d="M0 0h19.147v15H0z"/><path id="g" d="M0 0h19.147v15H0z"/><path d="M0 0h304v150.74H0V0z" id="y"/><path d="M66.626 229.312c20.246 23.029 49.983 37.571 83.13 37.571 61.002 0 110.454-49.252 110.454-110.006 0-60.755-49.452-110.007-110.454-110.007-61.001 0-110.453 49.252-110.453 110.007 0 27.741 10.31 53.084 27.323 72.435z" id="h"/><path id="C" d="M0 0h276v136.765H0z"/><path d="M65.024 214.583c16.652 18.929 41.112 30.882 68.376 30.882 50.175 0 90.85-40.483 90.85-90.422 0-49.938-40.675-90.421-90.85-90.421s-90.85 40.483-90.85 90.421c0 22.803 8.48 43.634 22.474 59.54z" id="i"/><mask id="r" maskContentUnits="userSpaceOnUse" maskUnits="objectBoundingBox" x="0" y="0" width="19.147" height="15" fill="#fff"><use xlink:href="#a"/></mask><mask id="s" maskContentUnits="userSpaceOnUse" maskUnits="objectBoundingBox" x="0" y="0" width="19.147" height="15" fill="#fff"><use xlink:href="#b"/></mask><mask id="t" maskContentUnits="userSpaceOnUse" maskUnits="objectBoundingBox" x="0" y="0" width="19.147" height="15" fill="#fff"><use xlink:href="#c"/></mask><mask id="u" maskContentUnits="userSpaceOnUse" maskUnits="objectBoundingBox" x="0" y="0" width="19.147" height="15" fill="#fff"><use xlink:href="#d"/></mask><mask id="v" maskContentUnits="userSpaceOnUse" maskUnits="objectBoundingBox" x="0" y="0" width="19.147" height="15" fill="#fff"><use xlink:href="#e"/></mask><mask id="w" maskContentUnits="userSpaceOnUse" maskUnits="objectBoundingBox" x="0" y="0" width="19.147" height="15" fill="#fff"><use xlink:href="#f"/></mask><mask id="x" maskContentUnits="userSpaceOnUse" maskUnits="objectBoundingBox" x="0" y="0" width="19.147" height="15" fill="#fff"><use xlink:href="#g"/></mask><mask id="A" maskContentUnits="userSpaceOnUse" maskUnits="objectBoundingBox" x="0" y="0" width="220.907" height="220.013" fill="#fff"><use xlink:href="#h"/></mask><mask id="F" maskContentUnits="userSpaceOnUse" maskUnits="objectBoundingBox" x="0" y="0" width="181.7" height="180.843" fill="#fff"><use xlink:href="#i"/></mask><filter x="-50%" y="-50%" width="200%" height="200%" filterUnits="objectBoundingBox" id="j"><feOffset dy="5" in="SourceAlpha" result="shadowOffsetOuter1"/><feGaussianBlur stdDeviation="2.5" in="shadowOffsetOuter1" result="shadowBlurOuter1"/><feColorMatrix values="0 0 0 0 0 0 0 0 0 0 0 0 0 0 0 0 0 0 0.25 0" in="shadowBlurOuter1"/></filter><filter x="-50%" y="-50%" width="200%" height="200%" filterUnits="objectBoundingBox" id="l"><feOffset dy="1" in="SourceAlpha" result="shadowOffsetOuter1"/><feGaussianBlur stdDeviation=".5" in="shadowOffsetOuter1" result="shadowBlurOuter1"/><feColorMatrix values="0 0 0 0 0 0 0 0 0 0 0 0 0 0 0 0 0 0 0.15 0" in="shadowBlurOuter1"/></filter><filter x="-50%" y="-50%" width="200%" height="200%" filterUnits="objectBoundingBox" id="n"><feOffset dy="1" in="SourceAlpha" result="shadowOffsetOuter1"/><feGaussianBlur stdDeviation=".5" in="shadowOffsetOuter1" result="shadowBlurOuter1"/><feColorMatrix values="0 0 0 0 0 0 0 0 0 0 0 0 0 0 0 0 0 0 0.15 0" in="shadowBlurOuter1"/></filter><filter x="-50%" y="-50%" width="200%" height="200%" filterUnits="objectBoundingBox" id="p"><feOffset dy="1" in="SourceAlpha" result="shadowOffsetOuter1"/><feGaussianBlur stdDeviation=".5" in="shadowOffsetOuter1" result="shadowBlurOuter1"/><feColorMatrix values="0 0 0 0 0 0 0 0 0 0 0 0 0 0 0 0 0 0 0.15 0" in="shadowBlurOuter1"/></filter><circle id="m" cx="6" cy="6" r="6"/><circle id="o" cx="25" cy="6" r="6"/><circle id="q" cx="45" cy="6" r="6"/><linearGradient x1="0%" y1="50%" x2="0%" y2="0%" id="B"><stop stop-color="#FFF" offset="0%"/><stop stop-color="#FFF" stop-opacity="0" offset="100%"/></linearGradient><linearGradient x1="100%" y1="61.249%" x2="44.837%" y2="61.249%" id="E"><stop stop-color="#ED2222" offset="0%"/><stop stop-color="#4BA4E7" stop-opacity=".297" offset="100%"/></linearGradient><rect id="k" x="11" y="17" width="940" height="560" rx="4"/></defs><g fill="none" fill-rule="evenodd"><use fill="#000" filter="url(#j)" xlink:href="#k"/><use fill="#EAEAEB" xlink:href="#k"/><g transform="translate(35 38)"><use fill="#000" filter="url(#l)" xlink:href="#m"/><use fill="#FF6057" xlink:href="#m"/></g><g transform="translate(35 38)"><use fill="#000" filter="url(#n)" xlink:href="#o"/><use fill="#FFC22E" xlink:href="#o"/></g><g transform="translate(35 38)"><use fill="#000" filter="url(#p)" xlink:href="#q"/><use fill="#28CA40" xlink:href="#q"/></g><rect fill="#FFF" x="111" y="32" width="774" height="29" rx="4"/><path d="M901 40h25.178M901 47h25.178M901 54h25.178" stroke="#FFF" stroke-width="4" stroke-linecap="square"/><path fill="#FFF" d="M21 74h920v491H21z"/><path d="M58.105 282.803h242.61m-242.61 29.911h242.61m55.265-28.611h242.61m-242.61 29.912h242.61m50.062-29.912h242.61m-242.61 29.912h242.61" stroke-opacity=".7" stroke="#E1E2E3" stroke-width="11.7" stroke-linecap="square"/><g transform="translate(49 98)" fill="#E1E2E3" fill-opacity=".7"><rect y=".773" width="265.356" height="160.57" rx="5.2"/><rect x="293.973" y=".773" width="265.356" height="160.57" rx="5.2"/><rect x="586.644" y=".773" width="265.356" height="160.57" rx="5.2"/></g><path fill="#EFEFEF" d="M21 341h921v32.72H21zm0 66h921v32.72H21zm0 68h921v32.72H21zm0 66h921v25.72H21z"/><path d="M211.553 341v222.386M280.48 341v222.386M349.409 341v222.386M418.337 341v222.386M519.815 341v222.386M585.871 341v222.386M648.098 341v222.386" stroke="#C8C8C8" stroke-linecap="square"/><path d="M866.85 341.355v222.386" stroke="#0037FF" stroke-linecap="square"/><path d="M908.015 341.355v222.386" stroke="red" stroke-linecap="square"/><g transform="translate(32.53 350)"><use stroke-opacity=".5" stroke="#979797" mask="url(#r)" stroke-width="3" fill="#EFC535" xlink:href="#a"/><path fill="#DBD8D8" d="M31.592 0h129.24v15H31.592zm156.046 0h52.653v15h-52.653zm68.928 0h52.653v15h-52.653zm68.928 0h52.653v15h-52.653zm72.758 0h79.459v15h-79.459zm96.691 0h51.696v15h-51.696zm66.056 0h48.824v15h-48.824z"/></g><g transform="translate(32.53 383)"><use stroke-opacity=".5" stroke="#979797" mask="url(#s)" stroke-width="3" fill="#9279EA" xlink:href="#b"/><path fill="#DBD8D8" d="M31.592 0h129.24v15H31.592zm156.046 0h52.653v15h-52.653zm68.928 0h52.653v15h-52.653zm68.928 0h52.653v15h-52.653zm72.758 0h79.459v15h-79.459zm96.691 0h51.696v15h-51.696zm66.056 0h48.824v15h-48.824z"/></g><g transform="translate(32.53 416)"><use stroke-opacity=".5" stroke="#979797" mask="url(#t)" stroke-width="3" fill="#EFC535" xlink:href="#c"/><path fill="#DBD8D8" d="M31.592 0h129.24v15H31.592zm156.046 0h52.653v15h-52.653zm68.928 0h52.653v15h-52.653zm68.928 0h52.653v15h-52.653zm72.758 0h79.459v15h-79.459zm96.691 0h51.696v15h-51.696zm66.056 0h48.824v15h-48.824z"/></g><g transform="translate(32.53 449)"><use stroke-opacity=".5" stroke="#979797" mask="url(#u)" stroke-width="3" fill="#79B256" xlink:href="#d"/><path fill="#DBD8D8" d="M31.592 0h129.24v15H31.592zm156.046 0h52.653v15h-52.653zm68.928 0h52.653v15h-52.653zm68.928 0h52.653v15h-52.653zm72.758 0h79.459v15h-79.459zm96.691 0h51.696v15h-51.696zm66.056 0h48.824v15h-48.824z"/></g><g transform="translate(32.53 483)"><use stroke-opacity=".5" stroke="#979797" mask="url(#v)" stroke-width="3" fill="#79B256" xlink:href="#e"/><path fill="#DBD8D8" d="M31.592 0h129.24v15H31.592zm156.046 0h52.653v15h-52.653zm68.928 0h52.653v15h-52.653zm68.928 0h52.653v15h-52.653zm72.758 0h79.459v15h-79.459zm96.691 0h51.696v15h-51.696zm66.056 0h48.824v15h-48.824z"/></g><g transform="translate(32.53 516)"><use stroke-opacity=".5" stroke="#979797" mask="url(#w)" stroke-width="3" fill="#EFC535" xlink:href="#f"/><path fill="#DBD8D8" d="M31.592 0h129.24v15H31.592zm156.046 0h52.653v15h-52.653zm68.928 0h52.653v15h-52.653zm68.928 0h52.653v15h-52.653zm72.758 0h79.459v15h-79.459zm96.691 0h51.696v15h-51.696zm66.056 0h48.824v15h-48.824z"/></g><g transform="translate(32.53 549)"><use stroke-opacity=".5" stroke="#979797" mask="url(#x)" stroke-width="3" fill="#EFC535" xlink:href="#g"/><path fill="#DBD8D8" d="M31.592 0h129.24v15H31.592zm156.046 0h52.653v15h-52.653zm68.928 0h52.653v15h-52.653zm68.928 0h52.653v15h-52.653zm72.758 0h79.459v15h-79.459zm96.691 0h51.696v15h-51.696zm66.056 0h48.824v15h-48.824z"/></g><path fill-opacity=".55" fill="#FFF" d="M22 341h920v225H22z"/><path fill="#2FAE57" d="M696.336 516h27.86v15h-27.86z"/><path fill="#4BA4E7" d="M724.099 516h20.655v15h-20.655z"/><path fill="#2FAE57" d="M704.952 549h16.031v15h-16.031z"/><path fill="#4BA4E7" d="M720.27 549h15.71v15h-15.71z"/><path fill="#2FAE57" d="M685.805 481h27.86v15h-27.86z"/><path fill="#4BA4E7" d="M713.568 481h20.655v15h-20.655z"/><path fill="#2FAE57" d="M676.232 450h27.86v15h-27.86z"/><path fill="#4BA4E7" d="M703.995 450h13.958v15h-13.958z"/><path fill="#2FAE57" d="M670.992 416h20.655v15h-20.655z"/><path fill="#4BA4E7" d="M691.549 416h13.958v15h-13.958z"/><path fill="#2FAE57" d="M664.29 384h16.031v15H664.29z"/><path fill="#4BA4E7" d="M678.151 384h20.655v15h-20.655z"/><path fill="#2FAE57" d="M659 349h10.45v15H659z"/><path fill="#4BA4E7" d="M666.155 349h20.655v15h-20.655z"/><path d="M20.5 339.5h925.365" stroke="#EAEAEB" stroke-width="3" stroke-linecap="square"/><g transform="translate(328 76)"><mask id="z" fill="#fff"><use xlink:href="#y"/></mask><g mask="url(#z)" stroke-width="14.168" stroke="#FFF"><use mask="url(#A)" xlink:href="#h"/></g></g><path d="M374.107 223.149h208.241" stroke="#FFF" stroke-width="7.084" stroke-linecap="square"/><path d="M489.947 218.346a6.5 6.5 0 01-1.45.724c-.603.288-1.498.574-2.503.337-1.897-.13-3.693-1.12-4.763-2.833-1.793-2.869-.872-6.678 2.057-8.508a6.4 6.4 0 011.252-.605c9.839-5.54 45.071-20 45.071-20 5.29-2.199 5.75-1.332 1.027 1.945 0 0-35.112 24.235-39.812 28.367a3.797 3.797 0 01-.88.573z" fill="#E72A2D"/><path d="M460.017 194l18.911 4.017 17.728 6.88-.991 9.386c.819 0 2.118 5.037 2.114 5.081-.07.755 0 9.734 0 9.734L501 240h-41l.017-46z" fill="#EAEAEB"/><g fill="#FFF"><path d="M478.909 223.744h-4.706l-2.229 6.092h-4.154l11.089-27.225v.02V198l-17.738 6.926 2.706 25.681 15.032 9.117z"/><path d="M475.67 219.989h3.239v-8.533z"/><g opacity=".9"><path d="M478.909 223.744h4.706l2.229 6.092h4.154l-11.089-27.225v.02V198l17.738 6.926-2.706 25.681-15.032 9.117z"/><path d="M482.148 219.989h-3.239v-8.533z"/></g></g><path d="M27.277 6.138l-4.495 11.71M40 12l-7 11M15.175 2.884l-2.38 12.239M1.203.774l-.435 12.46" transform="translate(483 146)" stroke="url(#B)" stroke-width="2.3" stroke-linecap="square"/><g transform="translate(345 74)"><mask id="D" fill="#fff"><use xlink:href="#C"/></mask><g mask="url(#D)" stroke-width="16.1" stroke="url(#E)"><use mask="url(#F)" xlink:href="#i"/></g><g mask="url(#D)" fill="#E3E3E4"><path d="M-390.13 433.415a8.261 8.261 0 01-2.002 1.523c-.654.445-1.578.891-2.704.886-2.456.341-5.015-.464-6.814-2.393-2.96-3.174-2.742-8.188.487-11.198a8.16 8.16 0 011.31-.996c10.863-9.267 51.78-36.084 51.78-36.084 6.138-4.063 6.935-3.08 1.796 2.19 0 0-38.148 38.924-43.039 45.254a4.73 4.73 0 01-.814.818z"/></g></g></g></svg>