<?xml version="1.0" encoding="UTF-8" standalone="no"?>
<!-- Created with Inkscape (http://www.inkscape.org/) -->

<svg
   xmlns:dc="http://purl.org/dc/elements/1.1/"
   xmlns:cc="http://creativecommons.org/ns#"
   xmlns:rdf="http://www.w3.org/1999/02/22-rdf-syntax-ns#"
   xmlns:svg="http://www.w3.org/2000/svg"
   xmlns="http://www.w3.org/2000/svg"
   xmlns:sodipodi="http://sodipodi.sourceforge.net/DTD/sodipodi-0.dtd"
   xmlns:inkscape="http://www.inkscape.org/namespaces/inkscape"
   id="svg2"
   version="1.1"
   inkscape:version="0.48.4 r9939"
   viewBox="0 0 335.88126 355.80875"
   width="335"
   xml:space="preserve"
   sodipodi:docname="AngularJS-Shield.svg"
   inkscape:export-filename="/usr/local/google/home/stephenfluin/AngularJS-Shield.png"
   inkscape:export-xdpi="90"
   inkscape:export-ydpi="90"><metadata
     id="metadata8"><rdf:RDF><cc:Work
         rdf:about=""><dc:format>image/svg+xml</dc:format><dc:type
           rdf:resource="http://purl.org/dc/dcmitype/StillImage" /><dc:title></dc:title></cc:Work></rdf:RDF></metadata><defs
     id="defs6" /><sodipodi:namedview
     pagecolor="#ffffff"
     bordercolor="#666666"
     borderopacity="1"
     objecttolerance="10"
     gridtolerance="10"
     guidetolerance="10"
     inkscape:pageopacity="0"
     inkscape:pageshadow="2"
     inkscape:window-width="1393"
     inkscape:window-height="697"
     id="namedview4"
     showgrid="false"
     inkscape:zoom="0.25757162"
     inkscape:cx="171.15375"
     inkscape:cy="177.21499"
     inkscape:window-x="2290"
     inkscape:window-y="312"
     inkscape:window-maximized="0"
     inkscape:current-layer="g10"
     fit-margin-top="0"
     fit-margin-left="0"
     fit-margin-right="0"
     fit-margin-bottom="0" /><g
     id="g10"
     inkscape:groupmode="layer"
     inkscape:label="ink_ext_XXXXXX"
     transform="matrix(1.25,0,0,-1.25,-188.84625,636.71875)"><g
       id="g12"
       transform="scale(0.1,0.1)"><path
         d="M 2850,5093.75 1510.77,4622.45 1722.39,2867.82 2851.42,2247.28 3986.27,2876.23 4197.82,4630.79 2850,5093.75 z"
         style="fill:#b3b3b3;fill-opacity:1;fill-rule:nonzero;stroke:none"
         id="path14"
         inkscape:connector-curvature="0" /><path
         d="m 4064.25,4529.39 -1217.38,415.13 0,-2548.98 1020.22,564.62 197.16,1569.23 z"
         style="fill:#af2b2d;fill-opacity:1;fill-rule:nonzero;stroke:none"
         id="path16"
         inkscape:connector-curvature="0" /><path
         d="m 1661.05,4521.89 181.34,-1569.22 1004.47,-557.13 0,2549.03 -1185.81,-422.68 z"
         style="fill:#df2e31;fill-opacity:1;fill-rule:nonzero;stroke:none"
         id="path18"
         inkscape:connector-curvature="0" /><path
         d="m 3129.05,3676.7 -279.96,584.64 -246.46,-584.64 526.42,0 z m 106.74,-245.83 -742.11,0 -166.02,-415.26 -308.82,-5.71 828.04,1842.06 856.9,-1842.06 -286.23,0 -181.76,420.97 z"
         style="fill:#f2f2f2;fill-opacity:1;fill-rule:nonzero;stroke:none"
         id="path20"
         inkscape:connector-curvature="0" /><path
         d="m 2846.87,4851.96 2.21,-590.62 279.67,-585.09 -281.25,0 -0.63,-245 388.9,-0.38 181.77,-421.04 295.49,-5.48 -866.16,1847.61 z"
         style="fill:#b3b3b3;fill-opacity:1;fill-rule:nonzero;stroke:none"
         id="path22"
         inkscape:connector-curvature="0" /></g></g></svg>