<svg xmlns="http://www.w3.org/2000/svg" width="335.881" height="355.809"><path d="M167.404 0L0 58.913 26.453 278.24l141.127 77.57 141.857-78.619L335.88 57.87 167.404 0z" fill="#b3b3b3"/><path d="M319.185 70.545L167.012 18.654v318.622L294.54 266.7l24.645-196.154z" fill="#af2b2d"/><path d="M18.785 71.482l22.667 196.153 125.56 69.641V18.647L18.784 71.482z" fill="#df2e31"/><path d="M202.285 177.131l-34.995-73.08-30.807 73.08h65.802zm13.343 30.729h-92.764l-20.753 51.907-38.602.714L167.014 30.224 274.126 260.48h-35.778l-22.72-52.621z" fill="#f2f2f2"/><path d="M167.012 30.224l.277 73.827 34.959 73.136H167.09l-.079 30.625 48.613.048 22.721 52.63 36.936.685-108.27-230.951z" fill="#b3b3b3"/></svg>