<svg width="24" height="25" viewBox="0 0 24 25" fill="none" xmlns="http://www.w3.org/2000/svg">
<path d="M7 4.74365H6.5C5.39543 4.74365 4.5 5.63908 4.5 6.74365V10.2437C4.5 11.3482 3.60457 12.2437 2.5 12.2437V12.2437" stroke="#F637E3" stroke-width="2" stroke-linejoin="round"/>
<path d="M17 4.74365H17.5C18.6046 4.74365 19.5 5.63908 19.5 6.74365V10.2437C19.5 11.3482 20.3954 12.2437 21.5 12.2437V12.2437" stroke="#F637E3" stroke-width="2" stroke-linejoin="round"/>
<path d="M7 20.7437H6.5C5.39543 20.7437 4.5 19.8482 4.5 18.7437V14.2437C4.5 13.1391 3.60457 12.2437 2.5 12.2437H2" stroke="#F637E3" stroke-width="2" stroke-linejoin="round"/>
<path d="M17 20.7437H17.5C18.6046 20.7437 19.5 19.8482 19.5 18.7437V14.2437C19.5 13.1391 20.3954 12.2437 21.5 12.2437H22" stroke="#F637E3" stroke-width="2" stroke-linejoin="round"/>
<path fill-rule="evenodd" clip-rule="evenodd" d="M13.3042 8.74365L8.43359 17.7437H10.7077L15.5783 8.74365H13.3042Z" fill="#F637E3"/>
</svg>
