<?xml version="1.0" encoding="UTF-8"?>
<svg xmlns="http://www.w3.org/2000/svg" xmlns:xlink="http://www.w3.org/1999/xlink" width="25px" height="25px" viewBox="0 0 25 25" version="1.1">
<g id="surface1">
<path style=" stroke:none;fill-rule:evenodd;fill:rgb(2.745098%,28.235295%,99.215686%);fill-opacity:1;" d="M 18 5.234375 L 19.75 6.976562 L 17.222656 9.496094 L 15.46875 7.753906 Z M 12.941406 8.527344 L 16.34375 11.921875 L 9.535156 18.800781 L 6.03125 15.410156 Z M 16.34375 0 L 14.59375 1.746094 L 16.34375 3.390625 L 13.71875 6.007812 C 13.476562 5.765625 13.183594 5.644531 12.890625 5.644531 C 12.601562 5.644531 12.308594 5.765625 12.066406 6.007812 L 3.40625 14.539062 C 2.917969 15.023438 2.917969 15.796875 3.40625 16.28125 L 5.253906 18.125 L 0 23.261719 L 1.75 25.003906 L 6.910156 19.769531 L 8.660156 21.515625 C 8.855469 21.710938 9.242188 21.804688 9.535156 21.804688 C 9.730469 21.804688 10.117188 21.710938 10.3125 21.515625 L 18.972656 12.890625 C 19.265625 12.597656 19.363281 12.40625 19.363281 12.019531 C 19.363281 11.628906 19.265625 11.4375 18.972656 11.144531 L 21.503906 8.625 L 23.253906 10.371094 L 25.003906 8.625 Z M 16.34375 0 "/>
</g>
</svg>
