<svg width="20" height="21" viewBox="0 0 20 21" fill="none" xmlns="http://www.w3.org/2000/svg">
<path d="M6.64551 15.6716H13.3538V14.4216H6.64551V15.6716ZM6.64551 12.13H13.3538V10.88H6.64551V12.13ZM4.58301 19.2133C4.24967 19.2133 3.95801 19.0883 3.70801 18.8383C3.45801 18.5883 3.33301 18.2966 3.33301 17.9633V3.79663C3.33301 3.4633 3.45801 3.17163 3.70801 2.92163C3.95801 2.67163 4.24967 2.54663 4.58301 2.54663H12.1038L16.6663 7.10913V17.9633C16.6663 18.2966 16.5413 18.5883 16.2913 18.8383C16.0413 19.0883 15.7497 19.2133 15.4163 19.2133H4.58301ZM11.4788 7.67163V3.79663H4.58301V17.9633H15.4163V7.67163H11.4788Z" fill="#A39FA9"/>
</svg>
