<svg width="24" height="25" viewBox="0 0 24 25" fill="none" xmlns="http://www.w3.org/2000/svg">
<circle cx="12" cy="12.7437" r="9.25" stroke="#F637E3" stroke-width="1.5"/>
<path d="M17.25 12.7437C17.25 15.3925 16.6043 17.7543 15.5995 19.4288C14.5858 21.1183 13.2899 21.9937 12 21.9937C10.7101 21.9937 9.41417 21.1183 8.40048 19.4288C7.39575 17.7543 6.75 15.3925 6.75 12.7437C6.75 10.0948 7.39575 7.73301 8.40048 6.05846C9.41417 4.36898 10.7101 3.49365 12 3.49365C13.2899 3.49365 14.5858 4.36898 15.5995 6.05846C16.6043 7.73301 17.25 10.0948 17.25 12.7437Z" stroke="#F637E3" stroke-width="1.5"/>
<line x1="11.75" y1="3.74365" x2="11.75" y2="21.7437" stroke="#F637E3" stroke-width="1.5"/>
<line x1="3" y1="12.9937" x2="21" y2="12.9937" stroke="#F637E3" stroke-width="1.5"/>
<line x1="4" y1="7.99365" x2="20" y2="7.99365" stroke="#F637E3" stroke-width="1.5"/>
<line x1="4" y1="17.9937" x2="20" y2="17.9937" stroke="#F637E3" stroke-width="1.5"/>
</svg>
