<svg width="24" height="25" viewBox="0 0 24 25" fill="none" xmlns="http://www.w3.org/2000/svg">
<path d="M14.8131 9.23061C14.8787 9.05943 15.1209 9.05943 15.1866 9.23061L16.0767 11.5517C16.097 11.6047 16.1388 11.6465 16.1918 11.6668L18.5129 12.5569C18.6841 12.6226 18.6841 12.8647 18.5129 12.9304L16.1918 13.8205C16.1388 13.8408 16.097 13.8826 16.0767 13.9356L15.1866 16.2567C15.1209 16.4279 14.8787 16.4279 14.8131 16.2567L13.923 13.9356C13.9027 13.8826 13.8608 13.8408 13.8079 13.8205L11.4868 12.9304C11.3156 12.8647 11.3156 12.6226 11.4868 12.5569L13.8079 11.6668C13.8608 11.6465 13.9027 11.6047 13.923 11.5517L14.8131 9.23061Z" fill="#F637E3"/>
<path fill-rule="evenodd" clip-rule="evenodd" d="M4 4.74365H11V6.74365H4V4.74365ZM4 18.7437H11V20.7437H4V18.7437ZM12.8587 8.74365H8V10.7437H10.6415C10.6838 10.7245 10.7272 10.7064 10.7717 10.6893L12.3438 10.0865L12.8587 8.74365ZM17.1429 8.74365L17.6578 10.0865L19.23 10.6893C19.2744 10.7064 19.3178 10.7245 19.3601 10.7437H20V8.74365H17.1429ZM15.7678 10.7437L15.1875 9.23044C15.1219 9.05925 14.8797 9.05925 14.8141 9.23044L14.2338 10.7437H15.7678ZM14.2339 14.7437H15.7677L15.1875 16.2565C15.1219 16.4277 14.8797 16.4277 14.8141 16.2565L14.2339 14.7437ZM10.6423 14.7437H8V16.7437H12.8589L12.3438 15.4005L10.7717 14.7976C10.7275 14.7807 10.6844 14.7627 10.6423 14.7437ZM17.1428 16.7437L17.6578 15.4005L19.23 14.7976C19.2741 14.7807 19.3173 14.7627 19.3594 14.7437H20V16.7437H17.1428Z" fill="#F637E3"/>
</svg>
