<svg xmlns="http://www.w3.org/2000/svg" width="24" height="25" viewBox="0 -960 960 960" fill="#F637E3">
<path d="M450.001-611.691v-32.386q-39.385-9.923-64.692-41.897-25.308-31.975-25.308-74.025 0-49.922 35.038-84.96 35.039-35.038 84.961-35.038t84.961 35.038q35.038 35.038 35.038 84.96 0 42.05-25.308 74.025-25.307 31.974-64.692 41.897v32.386l273.846 157.538q17.173 9.912 26.663 26.582 9.491 16.671 9.491 36.495v62.152q0 19.824-9.491 36.495-9.49 16.67-26.663 26.582L516.154-111.771q-17.203 9.846-36.217 9.846t-36.091-9.846L176.155-265.847q-17.173-9.912-26.663-26.582-9.491-16.671-9.491-36.495v-62.152q0-19.824 9.491-36.495 9.49-16.67 26.663-26.582l273.846-157.538Zm-6.155 364.537L200-387.461v58.537q0 3.078 1.539 5.962 1.538 2.885 4.615 4.808l267.692 154.692q3.077 1.923 6.154 1.923t6.154-1.923l267.692-154.692q3.077-1.923 4.615-4.808 1.539-2.884 1.539-5.962v-58.537L516.154-247.154q-17.203 9.847-36.217 9.847t-36.091-9.847Zm6.155-162.847V-542.77L250.46-427.691l223.386 128.846q3.077 1.924 6.154 1.924t6.154-1.924l223.001-128.846L509.999-542.77v132.769h-59.998ZM480-699.999q25 0 42.5-17.5t17.5-42.5q0-25-17.5-42.5t-42.5-17.5q-25 0-42.5 17.5t-17.5 42.5q0 25 17.5 42.5t42.5 17.5Zm-2.308 538.61Z"/>
</svg>
