<svg width="24" height="25" viewBox="0 0 24 25" fill="none" xmlns="http://www.w3.org/2000/svg">
<path fill-rule="evenodd" clip-rule="evenodd" d="M14.7934 15.538C16.3361 13.9953 16.3361 11.494 14.7934 9.95125L16.2076 8.53703C18.5314 10.8608 18.5314 14.6284 16.2076 16.9522L14.7934 15.538Z" fill="#0546FF"/>
<path fill-rule="evenodd" clip-rule="evenodd" d="M9.20857 15.538C7.66583 13.9953 7.66583 11.494 9.20857 9.95125L7.79436 8.53703C5.47057 10.8608 5.47057 14.6284 7.79436 16.9522L9.20857 15.538Z" fill="#0546FF"/>
<path fill-rule="evenodd" clip-rule="evenodd" d="M17.7934 18.538C20.993 15.3384 20.993 10.1508 17.7934 6.95125L19.2076 5.53703C23.1882 9.51768 23.1882 15.9716 19.2076 19.9522L17.7934 18.538Z" fill="#0546FF"/>
<path fill-rule="evenodd" clip-rule="evenodd" d="M6.20857 18.538C3.00898 15.3384 3.00898 10.1508 6.20857 6.95125L4.79436 5.53703C0.813713 9.51768 0.813713 15.9716 4.79436 19.9522L6.20857 18.538Z" fill="#0546FF"/>
<path d="M14 12.7437C14 13.8482 13.1046 14.7437 12 14.7437C10.8954 14.7437 10 13.8482 10 12.7437C10 11.6391 10.8954 10.7437 12 10.7437C13.1046 10.7437 14 11.6391 14 12.7437Z" fill="#0546FF"/>
</svg>
