<svg width="24" height="25" viewBox="0 0 24 25" fill="none" xmlns="http://www.w3.org/2000/svg">
<circle cx="17.5" cy="8.24365" r="0.75" fill="#0546FF"/>
<circle cx="17.5" cy="13.2437" r="0.75" fill="#0546FF"/>
<circle cx="17.5" cy="18.2437" r="0.75" fill="#0546FF"/>
<path d="M6.40556 2.99743C6.43778 2.91036 6.56092 2.91036 6.59313 2.99743L7.6988 5.98544C7.70893 6.01281 7.73051 6.0344 7.75788 6.04452L10.7459 7.15019C10.833 7.1824 10.833 7.30554 10.7459 7.33776L7.75788 8.44343C7.73051 8.45355 7.70893 8.47514 7.6988 8.50251L6.59313 11.4905C6.56092 11.5776 6.43778 11.5776 6.40556 11.4905L5.29989 8.50251C5.28977 8.47514 5.26819 8.45355 5.24081 8.44343L2.2528 7.33776C2.16573 7.30554 2.16573 7.1824 2.2528 7.15019L5.24081 6.04452C5.26819 6.0344 5.28977 6.01281 5.29989 5.98544L6.40556 2.99743Z" fill="#0546FF"/>
<path fill-rule="evenodd" clip-rule="evenodd" d="M8 6.13412V8.35383L10 7.61377V6.87418L8 6.13412ZM10.0072 9.74365H20V6.74365H12.7529C12.6033 6.11232 12.1656 5.54301 11.44 5.27449L10.0054 4.74365H21C21.5523 4.74365 22 5.19137 22 5.74365V10.7437V15.7437V20.7437C22 21.2959 21.5523 21.7437 21 21.7437H9C8.44772 21.7437 8 21.2959 8 20.7437V15.7437V12.9353C8.19626 12.7341 8.35812 12.4838 8.46883 12.1846L9.27131 10.0159L10.0072 9.74365ZM20 14.7437H10V11.7437H20V14.7437ZM10 19.7437V16.7437H20V19.7437H10Z" fill="#0546FF"/>
</svg>
