<svg width="10" height="11" viewBox="0 0 10 11" fill="none" xmlns="http://www.w3.org/2000/svg">
<path d="M3.60912 4.42049C3.59738 4.45223 3.57235 4.47726 3.54061 4.489L0.0757174 5.77113C-0.0252391 5.80849 -0.0252391 5.95128 0.0757174 5.98864L3.54061 7.27076C3.57235 7.28251 3.59738 7.30753 3.60912 7.33927L4.89125 10.8042C4.9286 10.9051 5.0714 10.9051 5.10875 10.8042L6.39088 7.33927C6.40262 7.30753 6.42765 7.28251 6.45939 7.27076L9.92428 5.98864C10.0252 5.95128 10.0252 5.80849 9.92428 5.77113L6.45939 4.489C6.42765 4.47726 6.40262 4.45223 6.39088 4.42049L5.10875 0.9556C5.0714 0.854644 4.9286 0.854644 4.89125 0.9556L3.60912 4.42049Z" fill="url(#paint0_linear_5019_2756)"/>
<defs>
<linearGradient id="paint0_linear_5019_2756" x1="-8.75022" y1="-2.45465" x2="16.1398" y2="-6.91692" gradientUnits="userSpaceOnUse">
<stop offset="0.11416" stop-color="#FA2C04"/>
<stop offset="0.348335" stop-color="#F11653"/>
<stop offset="0.606888" stop-color="#F637E3"/>
<stop offset="0.897436" stop-color="#8514F5"/>
</linearGradient>
</defs>
</svg>
