<svg id="Layer_1" xmlns="http://www.w3.org/2000/svg" viewBox="0 0 150 150"><style>.st0{fill:#C3002F;} .st1{fill:#DD0031;} .st2{fill:#FFFFFF;}</style><path class="st0" d="M140 75c0-35.9-29.1-65-65-65-11.2 0-21.8 2.9-31 7.9l88.2 88.2c4.9-9.3 7.8-19.9 7.8-31.1z"/><path class="st1" d="M44 17.9C23.7 28.9 10 50.3 10 75c0 35.9 29.1 65 65 65 24.7 0 46.1-13.7 57.1-34L44 17.9z"/><path class="st2" d="M77.2 90.2H34c-5 0-9.1-4.1-9.1-9.1V59.2c0-5 4.1-9.1 9.1-9.1h43.2c5 0 9.1 4.1 9.1 9.1v21.9c0 5-4.1 9.1-9.1 9.1zM34 55.2c-2.2 0-4.1 1.8-4.1 4.1v21.9c0 2.2 1.8 4.1 4.1 4.1h43.2c2.2 0 4.1-1.8 4.1-4.1v-22c0-2.2-1.8-4.1-4.1-4.1H34z"/><path class="st2" d="M55.6 99.9c-1.4 0-2.5-1.1-2.5-2.5v-9.7c0-1.4 1.1-2.5 2.5-2.5s2.5 1.1 2.5 2.5v9.7c0 1.3-1.1 2.5-2.5 2.5z"/><path class="st2" d="M69.9 99.9H41.3c-1.4 0-2.5-1.1-2.5-2.5s1.1-2.5 2.5-2.5h28.5c1.4 0 2.5 1.1 2.5 2.5.1 1.3-1 2.5-2.4 2.5zM53.5 76.2l-3-5.1c-.4-.6-.2-1.4.5-1.7.6-.4 1.4-.2 1.7.5l1.2 2 4.9-5.8c.4-.5 1.2-.6 1.8-.2.5.4.6 1.2.2 1.8l-7.3 8.5zm66.1 18.9h-15.5c-3 0-5.5-2.5-5.5-5.5V60.5c0-3 2.5-5.5 5.5-5.5h15.5c3 0 5.5 2.5 5.5 5.5v29.1c0 3-2.5 5.5-5.5 5.5zm-15.5-35.9c-.7 0-1.2.6-1.2 1.2v29.1c0 .7.6 1.2 1.2 1.2h15.5c.7 0 1.2-.6 1.2-1.2v-29c0-.7-.6-1.2-1.2-1.2h-15.5z"/><path class="st2" d="M109.7 80.7l-3-5.1c-.4-.6-.2-1.4.5-1.7.6-.4 1.4-.2 1.7.5l1.2 2 4.9-5.8c.4-.5 1.2-.6 1.8-.2.5.4.6 1.2.2 1.8l-7.3 8.5zm13.3 7.8h-21.2c-.4 0-.8-.3-.8-.8s.3-.8.8-.8H123c.4 0 .8.3.8.8s-.4.8-.8.8z"/></svg>