<svg viewBox="0 0 502 304" xmlns="http://www.w3.org/2000/svg" fill-rule="evenodd" clip-rule="evenodd" stroke-linecap="round" stroke-linejoin="round" stroke-miterlimit="1.5"><path d="M71.445 103.213h4.304v12.588h3.996l-6.148 6.148-6.148-6.148h3.996v-12.588z"/><g font-family="'ArialMT','Arial',sans-serif" font-size="18"><text x="60.505" y="279" transform="translate(-6 -207)">child</text><text x="47.501" y="300.23" transform="translate(-6 -207)">selector</text></g><path d="M177.039 211.489l-10.085-.151.612-40.853-9.364-.141 14.622-14.191 14.192 14.623-9.365-.14-.612 40.853z" fill="#df002d"/><path d="M244.694 214.06a2.06 2.06 0 00-2.06-2.06h-133.88a2.06 2.06 0 00-2.06 2.06v81.88a2.06 2.06 0 002.06 2.06h133.88a2.06 2.06 0 002.06-2.06v-81.88z" fill="#fff" stroke="#df002d"/><g font-family="'ArialMT','Arial',sans-serif" font-size="20"><text x="39.962" y="279" transform="translate(95.543 -32.51)">@Input()</text><text x="19.552" y="300.23" transform="translate(95.543 -32.51)">property from</text><text x="58.448" y="321.46" transform="translate(95.543 -32.51)">child</text></g><path fill="#fff" stroke="#df002d" d="M137.114 189.938h74v33h-74z"/><text x="149.229" y="212.534" font-family="'ArialMT','Arial',sans-serif" font-size="20">target</text><path d="M265.001 74.973l10.251.023-.077 35.114 9.519.021-14.676 14.612-14.612-14.676 9.519.021.076-35.115z" fill="#3345cc"/><path d="M341.287 32.263a1.51 1.51 0 00-1.509-1.51H205.796a1.51 1.51 0 00-1.509 1.51v59.981a1.51 1.51 0 001.509 1.509h133.982a1.51 1.51 0 001.509-1.509V32.263z" fill="#fff" stroke="#3345cc"/><path fill="#fff" stroke="#3345cc" d="M236.42 5.938h74v33h-74z"/><text x="243.535" y="28.534" font-family="'ArialMT','Arial',sans-serif" font-size="20">source</text><g font-family="'ArialMT','Arial',sans-serif" font-size="20"><text x="19.552" y="279" transform="translate(193.035 -217.181)">property from</text><text x="50.66" y="300.23" transform="translate(193.035 -217.181)">parent</text></g><g font-family="'ArialMT','Arial',sans-serif" font-size="14.787"><text y="10.592" transform="translate(1 129.629) scale(1.3525)">&lt;app-item-detail [</text><text x="114.66" y="10.592" fill="#df002d" transform="translate(1 129.629) scale(1.3525)">item</text><text x="142.596" y="10.592" transform="translate(1 129.629) scale(1.3525)">]=&quot;</text><text x="160.589" y="10.592" fill="#3345cc" transform="translate(1 129.629) scale(1.3525)">currentItem</text><text x="235.371" y="10.592" transform="translate(1 129.629) scale(1.3525)">&quot;&gt;&lt;/app-item-detail&gt;</text></g></svg>