<svg viewBox="0 0 800 333" xmlns="http://www.w3.org/2000/svg" fill-rule="evenodd" clip-rule="evenodd" stroke-linecap="round" stroke-linejoin="round" stroke-miterlimit="1.5"><g font-family="'ArialMT','Arial',sans-serif" font-size="14.787"><text y="10.592" transform="translate(6.5 138.629) scale(1.18142)">&lt;app-input-output [</text><text x="124.552" y="10.592" fill="#df002d" transform="translate(6.5 138.629) scale(1.18142)">item</text><text x="152.488" y="10.592" transform="translate(6.5 138.629) scale(1.18142)">]=&quot;</text><text x="170.481" y="10.592" fill="#3345cc" transform="translate(6.5 138.629) scale(1.18142)">currentItem</text><text x="245.263" y="10.592" transform="translate(6.5 138.629) scale(1.18142)">&quot; (</text><text x="259.545" y="10.592" fill="#df002d" transform="translate(6.5 138.629) scale(1.18142)">deleteRequest</text><text x="354.913" y="10.592" transform="translate(6.5 138.629) scale(1.18142)">)=&quot;</text><text x="373.722" y="10.592" fill="#3345cc" transform="translate(6.5 138.629) scale(1.18142)">crossOf<tspan x="424.395px 428.503px" y="10.592px 10.592px">fI</tspan>tem($event)</text><text x="511.509" y="10.592" transform="translate(6.5 138.629) scale(1.18142)">&quot;&gt;&lt;/app-input-output&gt;</text></g><path d="M175.345 220.489l-10.085-.151.612-40.853-9.364-.141 14.622-14.191 14.192 14.623-9.365-.14-.612 40.853zm204.081-5.006l-10.251.016-.053-35.115-9.519.015 14.622-14.666 14.666 14.621-9.519.015.054 35.114z" fill="#df002d"/><path d="M519.758 82.024l10.25-.078.267 35.114 9.518-.072-14.532 14.754-14.754-14.532 9.518-.072-.267-35.114zm-264.757 1.949l10.251.023-.077 35.114 9.519.021-14.676 14.612-14.612-14.676 9.519.021.076-35.115z" fill="#3345cc"/><path d="M91.445 112.213h4.304v12.588h3.996l-6.148 6.148-6.148-6.148h3.996v-12.588z"/><g font-family="'ArialMT','Arial',sans-serif" font-size="18"><text x="60.505" y="279" transform="translate(14 -198)">child</text><text x="47.501" y="300.23" transform="translate(14 -198)">selector</text></g><path d="M243 223.06a2.06 2.06 0 00-2.06-2.06H107.06a2.06 2.06 0 00-2.06 2.06v81.88a2.06 2.06 0 002.06 2.06h133.88a2.06 2.06 0 002.06-2.06v-81.88z" fill="#fff" stroke="#df002d"/><path d="M593.648 40.883c0-.846-.687-1.534-1.533-1.534H457.181c-.846 0-1.533.688-1.533 1.534v60.933c0 .846.687 1.533 1.533 1.533h134.934c.846 0 1.533-.687 1.533-1.533V40.883zm-265.361.38a1.51 1.51 0 00-1.509-1.51H192.796a1.51 1.51 0 00-1.509 1.51v59.981a1.51 1.51 0 001.509 1.509h133.982a1.51 1.51 0 001.509-1.509V41.263z" fill="#fff" stroke="#3345cc"/><path d="M446.641 223.679a2.062 2.062 0 00-2.06-2.061H310.702a2.063 2.063 0 00-2.061 2.061v81.879c0 1.137.924 2.06 2.061 2.06h133.879a2.06 2.06 0 002.06-2.06v-81.879zM135.42 198.938h74v33h-74z" fill="#fff" stroke="#df002d"/><text x="147.535" y="221.534" font-family="'ArialMT','Arial',sans-serif" font-size="20">target</text><path fill="#fff" stroke="#df002d" d="M341.42 199.938h74v33h-74z"/><text x="353.535" y="222.534" font-family="'ArialMT','Arial',sans-serif" font-size="20">target</text><path fill="#fff" stroke="#3345cc" d="M486.42 14.938h74v33h-74z"/><text x="493.535" y="37.534" font-family="'ArialMT','Arial',sans-serif" font-size="20">source</text><path fill="#fff" stroke="#3345cc" d="M226.42 14.938h74v33h-74z"/><text x="233.535" y="37.534" font-family="'ArialMT','Arial',sans-serif" font-size="20">source</text><g font-family="'ArialMT','Arial',sans-serif" font-size="20"><text x="39.962" y="279" transform="translate(93.85 -23.51)">@Input()</text><text x="19.552" y="300.23" transform="translate(93.85 -23.51)">property from</text><text x="58.448" y="321.46" transform="translate(93.85 -23.51)">child</text></g><g font-family="'ArialMT','Arial',sans-serif" font-size="20"><text x="32.184" y="279" transform="translate(297.243 -23.614)">@Output()</text><text x="31.773" y="300.23" transform="translate(297.243 -23.614)">event from</text><text x="58.448" y="321.46" transform="translate(297.243 -23.614)">child</text></g><g font-family="'ArialMT','Arial',sans-serif" font-size="20"><text x="22.882" y="279" transform="translate(445.42 -208.691)">method from</text><text x="50.66" y="300.23" transform="translate(445.42 -208.691)">parent</text></g><g font-family="'ArialMT','Arial',sans-serif" font-size="20"><text x="19.552" y="279" transform="translate(180.035 -208.181)">property from</text><text x="50.66" y="300.23" transform="translate(180.035 -208.181)">parent</text></g></svg>