<?xml version="1.0" encoding="UTF-8" standalone="no"?>
<svg width="184px" height="200px" viewBox="0 0 184 200" version="1.1" xmlns="http://www.w3.org/2000/svg" xmlns:xlink="http://www.w3.org/1999/xlink" xmlns:sketch="http://www.bohemiancoding.com/sketch/ns">
    <!-- Generator: Sketch 3.2.2 (9983) - http://www.bohemiancoding.com/sketch -->
    <title>shield-large</title>
    <desc>Created with Sketch.</desc>
    <defs></defs>
    <g id="Page-1" stroke="none" stroke-width="1" fill="none" fill-rule="evenodd" sketch:type="MSPage">
        <g id="shield-large" sketch:type="MSArtboardGroup">
            <g id="Imported-Layers" sketch:type="MSLayerGroup" transform="translate(7.000000, 10.000000)">
                <path d="M83.6923077,0.282218978 L0.609384615,29.9165182 L13.2403846,139.938803 L83.6923077,179 L155.411385,139.413562 L169.153923,29.3912774 L83.6923077,0.282218978 L83.6923077,0.282218978 Z M120.051385,135.883212 L108.603846,109.751825 L61.8682308,109.751825 L51.4119231,135.820496 L31.7782308,136.148445 L83.6923077,20.2100146 L138.076615,135.883212 L120.051385,135.883212 L120.051385,135.883212 Z" id="Fill-1" fill="#FFFFFF" sketch:type="MSShapeGroup"></path>
                <path d="M68.7296923,94.0729927 L101.882308,94.0729927 L83.6923077,57.374073 L68.7296923,94.0729927" id="Fill-2" fill="#FFFFFF" sketch:type="MSShapeGroup"></path>
                <path d="M83.6923077,0.282218978 L0.609384615,29.9165182 L13.2403846,139.938803 L83.6923077,179 L155.411385,139.413562 L169.153923,29.3912774 L83.6923077,0.282218978 L83.6923077,0.282218978 Z M120.051385,135.883212 L108.603846,109.751825 L61.8682308,109.751825 L51.4119231,135.820496 L31.7782308,136.148445 L83.6923077,20.2100146 L138.076615,135.883212 L120.051385,135.883212 L120.051385,135.883212 Z" id="Fill-3" fill="#FFFFFF" sketch:type="MSShapeGroup"></path>
                <path d="M68.7296923,94.0729927 L101.882308,94.0729927 L83.6923077,57.374073 L68.7296923,94.0729927" id="Fill-4" fill="#FFFFFF" sketch:type="MSShapeGroup"></path>
                <path d="M83.6923077,57.374073 L83.6923077,94.0729927 L101.882308,94.0729927 L83.6923077,57.374073" id="Fill-5" fill="#F2F2F2" sketch:type="MSShapeGroup"></path>
                <path d="M83.6923077,0.282218978 L83.6923077,20.2100146 L138.076615,135.883212 L120.051385,135.883212 L108.603846,109.751825 L83.6923077,109.751825 L83.6923077,179 L155.411385,139.413562 L169.153923,29.3912774 L83.6923077,0.282218978" id="Fill-6" fill="#F2F2F2" sketch:type="MSShapeGroup"></path>
                <path d="M68.7296923,94.0729927 L83.6923077,94.0729927 L83.6923077,57.374073 L68.7296923,94.0729927" id="Fill-7" fill="#FFFFFF" sketch:type="MSShapeGroup"></path>
                <path d="M61.8682308,109.751825 L51.4119231,135.820496 L31.7782308,136.148445 L83.6923077,20.2100146 L83.6923077,0.282218978 L0.609384615,29.9165182 L13.2403846,139.938803 L83.6923077,179 L83.6923077,109.751825 L61.8682308,109.751825" id="Fill-8" fill="#FFFFFF" sketch:type="MSShapeGroup"></path>
            </g>
        </g>
    </g>
</svg>