<svg xmlns="http://www.w3.org/2000/svg" viewBox="0 0 186 200"><defs><style>.cls-1{fill:#ff7043;}.cls-2{fill:#f4511e;}.cls-3{fill:#ffb8a1;}.cls-4{fill:#ffc6b4;}.cls-5{fill:#ffe2d9;}.cls-6{fill:#fff;}</style></defs><title>animations</title><g id="Layer_2" data-name="Layer 2"><g id="Layer_1-2" data-name="Layer 1"><polygon class="cls-1" points="92.8 0 92.8 0 92.8 0 0 33.3 14 156.1 92.8 200 92.8 200 92.8 200 171.7 156.1 186 33.3 92.8 0"/><polygon class="cls-2" points="92.8 0 92.8 22.2 92.8 22.2 92.8 123.2 92.8 123.2 92.8 200 92.8 200 171.7 156.1 186 33.3 92.8 0"/><rect class="cls-3" x="43" y="71.2" width="68.4" height="68.84" rx="4" ry="4"/><rect class="cls-4" x="57.4" y="62.3" width="68.8" height="68.84" rx="4" ry="4" transform="translate(38.6 -25.6) rotate(20)"/><rect class="cls-5" x="71.3" y="59.2" width="68.8" height="68.84" rx="4" ry="4" transform="translate(66.9 -42.1) rotate(32.5)"/><rect class="cls-6" x="81.6" y="58.3" width="68.8" height="68.84" rx="4" ry="4" transform="translate(99.6 -54.9) rotate(45)"/></g></g></svg>