<svg xmlns="http://www.w3.org/2000/svg" viewBox="0 0 240 240"><defs><style>.cls-1{fill:#fff;}.cls-2{fill:#546e7a;}.cls-3{fill:#455a64;}</style></defs><title>lazy-loading</title><g id="Layer_2" data-name="Layer 2"><g id="Layer_1-2" data-name="Layer 1"><rect class="cls-1" width="240" height="240"/><path class="cls-2" d="M20,120A100,100,0,0,0,120,220V20A100,100,0,0,0,20,120Z"/><path class="cls-3" d="M120,20V220a100,100,0,0,0,0-200Z"/><path class="cls-1" d="M140,113.7a24.4,24.4,0,0,0,10.1,2.1,24.9,24.9,0,1,0-20.3-10.6l-10,10.1-9.8-9.8a24.5,24.5,0,0,0,4.7-14.6,24.7,24.7,0,1,0-15,22.9l10.8,10.8L67.7,167.5l3.7,3.8a7.9,7.9,0,0,0,11.2,0L119.8,134l37.6,37.7a7.9,7.9,0,0,0,11.2,0l3.7-3.8-43.2-43.3ZM129.8,90.9a20.4,20.4,0,1,1,20.3,20.4,20.8,20.8,0,0,1-6.6-1.1,20.5,20.5,0,0,1-13.7-19.3ZM96.2,110.3a18.9,18.9,0,0,1-6.3,1,20.4,20.4,0,1,1,20.3-20.4,20.6,20.6,0,0,1-3.4,11.3A20.3,20.3,0,0,1,96.2,110.3Z"/></g></g></svg>