<svg width="20" height="20" viewBox="0 0 20 20" fill="none" xmlns="http://www.w3.org/2000/svg">
<path fill-rule="evenodd" clip-rule="evenodd" d="M7.59948 19.0428C7.59948 18.8069 7.59118 18.182 7.58656 17.3526C4.89071 17.9526 4.32164 16.0201 4.32164 16.0201C3.88087 14.8718 3.24533 14.5663 3.24533 14.5663C2.36518 13.9492 3.31179 13.9621 3.31179 13.9621C4.28471 14.0323 4.79656 14.9868 4.79656 14.9868C5.66102 16.5052 7.06456 16.0672 7.61748 15.8125C7.70564 15.17 7.95579 14.732 8.23271 14.4837C6.08056 14.2331 3.81764 13.3801 3.81764 9.57199C3.81764 8.48737 4.19564 7.6003 4.81548 6.90522C4.71625 6.65414 4.38302 5.64384 4.91056 4.27537C4.91056 4.27537 5.72471 4.00814 7.57594 5.29399C8.34856 5.07384 9.17795 4.96307 10.0027 4.95937C10.8256 4.96307 11.6546 5.07384 12.429 5.29399C14.2793 4.00814 15.0921 4.27537 15.0921 4.27537C15.621 5.64337 15.2883 6.65368 15.1881 6.90522C15.8093 7.6003 16.1841 8.48737 16.1841 9.57199C16.1841 13.3898 13.9179 14.2298 11.7589 14.4758C12.1073 14.7828 12.4166 15.3892 12.4166 16.3165C12.4166 17.6452 12.4041 18.7174 12.4041 19.0428C12.4041 19.3091 12.579 19.6178 13.071 19.5205C16.9193 18.2041 19.6936 14.4814 19.6936 10.0926C19.6936 4.60353 15.3538 0.154297 10.0009 0.154297C4.64887 0.154297 0.309021 4.60353 0.309021 10.0926C0.309483 14.4828 3.08656 18.2078 6.9381 19.5218C7.42225 19.6128 7.59948 19.3058 7.59948 19.0428Z" fill="#A39FA9"/>
</svg>
