<svg width="20" height="15" viewBox="0 0 20 15" fill="none" xmlns="http://www.w3.org/2000/svg">
<path d="M18.7556 2.94783C18.5803 1.98018 17.745 1.27549 16.7756 1.05549C15.325 0.747832 12.6403 0.527832 9.73563 0.527832C6.83266 0.527832 4.105 0.747832 2.65266 1.05549C1.685 1.27549 0.847969 1.93549 0.672656 2.94783C0.495625 4.04783 0.320312 5.58783 0.320312 7.56783C0.320312 9.54783 0.495625 11.0878 0.715625 12.1878C0.892656 13.1555 1.72797 13.8602 2.69563 14.0802C4.23563 14.3878 6.87563 14.6078 9.78031 14.6078C12.685 14.6078 15.325 14.3878 16.865 14.0802C17.8327 13.8602 18.668 13.2002 18.845 12.1878C19.0203 11.0878 19.2403 9.50314 19.285 7.56783C19.1956 5.58783 18.9756 4.04783 18.7556 2.94783ZM7.36031 10.6478V4.48783L12.728 7.56783L7.36031 10.6478Z" fill="#A39FA9"/>
</svg>
