<?xml version="1.0" encoding="UTF-8"?>
<svg version="1.1" viewBox="0 0 267.64 295.96" xmlns="http://www.w3.org/2000/svg"
  xmlns:cc="http://creativecommons.org/ns#" xmlns:dc="http://purl.org/dc/elements/1.1/"
  xmlns:rdf="http://www.w3.org/1999/02/22-rdf-syntax-ns#">
  <defs>
    <filter id="g" x="-.6875" y="-.36871" width="2.375" height="1.7374"
      color-interpolation-filters="sRGB">
      <feGaussianBlur stdDeviation="9.821428" />
    </filter>
    <filter id="a" x="-.32323" y="-.20911" width="1.6465" height="1.4182"
      color-interpolation-filters="sRGB">
      <feGaussianBlur stdDeviation="6.113183" />
    </filter>
    <filter id="i" x="-.60711" y="-.3192" width="2.2142" height="1.6384"
      color-interpolation-filters="sRGB">
      <feGaussianBlur stdDeviation="2.235874" />
    </filter>
    <filter id="h" x="-.20228" y="-.6072" width="1.4046" height="2.2144"
      color-interpolation-filters="sRGB">
      <feGaussianBlur stdDeviation="2.235874" />
    </filter>
    <filter id="b" x="-.16212" y="-.3564" width="1.3242" height="1.7128"
      color-interpolation-filters="sRGB">
      <feGaussianBlur stdDeviation="6.351255" />
    </filter>
    <filter id="c" x="-.26311" y="-.22062" width="1.5262" height="1.4412"
      color-interpolation-filters="sRGB">
      <feGaussianBlur stdDeviation="1.868782" />
    </filter>
    <filter id="j" x="-.29184" y="-.46969" width="1.5837" height="1.9394"
      color-interpolation-filters="sRGB">
      <feGaussianBlur stdDeviation="6.32608" />
    </filter>
    <filter id="e" x="-.57354" y="-1.4081" width="2.1471" height="3.8162"
      color-interpolation-filters="sRGB">
      <feGaussianBlur stdDeviation="6.182556" />
    </filter>
    <filter id="f" x="-.2876" y="-1.4502" width="1.5752" height="3.9004"
      color-interpolation-filters="sRGB">
      <feGaussianBlur stdDeviation="2.586588" />
    </filter>
    <filter id="d" x="-.16498" y="-.36227" width="1.33" height="1.7245"
      color-interpolation-filters="sRGB">
      <feGaussianBlur stdDeviation="2.252435" />
    </filter>
  </defs>
  <metadata>image/svg+xml <rdf:RDF>
      <cc:Work rdf:about="">
        <dc:format>image/svg+xml</dc:format>
        <dc:type rdf:resource="http://purl.org/dc/dcmitype/StillImage" />
      </cc:Work>
    </rdf:RDF>
  </metadata>
  <g transform="translate(11.042 -9.5012)">
    <title>Layer 1</title>
    <g>
      <path
        d="m91.945 72.496c27.138 0.30258 57.949 34.887 81.317 0 29.92-34.193 62.363-13.391 82.833 0v80.812c-27.915-2.8567-46.364-29.419-82.507-11.859-42.127 20.468-87.981-29.714-123.56-66.428 24.504 2.919 36.216 1.2694 41.921-2.5254z"
        stroke="#000" />
      <path d="m74.518 172.69-23.218-7.317-13.861 51.109 21.254 6.4241 15.825-50.216h3.1e-5z"
        stroke-width="0" />
      <path d="m59.709 215.32-22.38 1.2045-7.4787 74.929 30.058-0.31159-0.19983-75.822-3.1e-5 3e-5z"
        stroke-width="0" />
      <path
        d="m62.226 194.75c-4.3262 13.599-11.065 24.104-15.052 23.464-3.9867-0.64052-3.7114-12.184 0.6148-25.783 4.3262-13.599 11.065-24.104 15.052-23.464 3.9867 0.64052 3.7114 12.184-0.61482 25.783l-4e-6 2e-5z"
        filter="url(#a)" opacity=".54808" stroke="#000" />
      <path d="m69.99 173.14 22.807-8.5128 16.391 49.832-20.787 8.0076-18.411-49.327v3e-5z"
        stroke-width="0" />
      <path
        d="m41.241 77.574 11.859 10.31-39.133 45.01s-10.562-4.4301-11.24-9.8059c-0.67784-5.3758 38.514-45.515 38.514-45.515h-1.5e-5 -3.1e-5z"
        stroke="#000" />
      <path
        d="m64.067 47.483s4.2083 25.538-11.28 27.021 10.552 23.843 10.552 23.843l19.782 8.2676 33.094-14.913s-7.5285-12.225-10.031-12.562c-2.5028-0.33676-13.448-2.319-16.173-12.369-2.7249-10.05-0.41495-15.854-0.41495-15.854l-25.529-3.4349h-6.1e-5z"
        stroke="#000" />
      <path
        d="m61.325 52.192c5.8849 10.744 25.445 15.003 35.243 5.1137 3.7641-4.1141 2.9136-11.869 2.1797-16.998s-4.1074-5.8897-4.1006-8.0152c7e-3 -2.1255 1.1313-1.8719 0.51407-4.3746-6.2657-27.818-53.688-12.607-40.426 12.625-3.7319 7.1826 0.1217 11.174 6.5897 11.649v3.1e-5z"
        stroke="#000" />
      <path
        d="m62.096 52.409c5.7656 10.526 24.929 14.699 34.529 5.01 3.6878-4.0308 2.8546-11.628 2.1356-16.653s-4.0241-5.7703-4.0175-7.8528c7e-3 -2.0825 1.1083-1.834 0.50366-4.2859-6.1387-27.254-52.6-12.351-39.607 12.369-3.6562 7.037 0.11923 10.948 6.4561 11.413v-3.1e-5z"
        stroke="#000" />
      <path
        d="m63.507 54.818c12.538 13.071 26.191 9.2315 34.417 1.4728-14.553 10.143-25.788 6.1748-34.417-1.4728z"
        stroke="#000" />
      <path
        d="m84.621 30.575s2.7779 14.9 5.8084 14.647c-0.44134 0.17191-6.3155 3.8076-8.8388 1.2627 0.69727-1.2367 3.1921 1.681 5.3688-1.3929 0.81992-1.7809-1.1302-6.0501-2.3384-14.517z"
        stroke="#000" />
      <path
        d="m84.621 30.575s2.7779 14.9 5.8084 14.647c-0.44134 0.17191-6.3155 3.8076-8.8388 1.2627 0.69727-1.2367 3.1921 1.681 5.3688-1.3929 0.81992-1.7809-1.1302-6.0501-2.3384-14.517z"
        filter="url(#i)" stroke="#000" />
      <path
        d="m69.03 37.466c0.14066 1.798 12.691-0.98444 14.467-3.9984 4.3018 0.6434 10.735-0.22946 11.178-1.4225 1.7027-4.5798-4.6747-2.635-11.629-1.0497-6.9547 1.5854-16.541-0.92746-14.284 6.4706l0.26788-3.1e-5h-3.1e-5z"
        stroke="#000" />
      <path
        d="m69.03 37.466c0.14066 1.798 12.691-0.98444 14.467-3.9984 4.3018 0.6434 10.735-0.22946 11.178-1.4225 1.7027-4.5798-4.6747-2.635-11.629-1.0497-6.9547 1.5854-16.541-0.92746-14.284 6.4706l0.26788-3.1e-5h-3.1e-5z"
        filter="url(#h)" stroke="#000" />
      <path
        d="m81.522 32.928c0.84876 1.8448-2.5194 2.5192-5.6442 3.5081-3.1248 0.98904-5.5627 1.8298-5.7602 0.63113-0.53281-3.234 1.5685-3.0128 4.6933-4.0019 3.1248-0.98901 6.4079-1.0954 6.7111-0.13742z"
        stroke="#000" />
      <path
        d="m84.818 32.076c-0.05411 1.7074 2.7767 1.1278 5.5219 0.87174 2.7452-0.2561 4.9095-0.40228 4.6703-1.3958-0.64536-2.6805-2.2014-1.8215-4.9466-1.5654-2.7452 0.2561-5.3242 1.248-5.2457 2.0895l3.1e-5 -6.1e-5z"
        stroke="#000" />
      <path d="m68.05 34.513s9.1964-4.2857 12.768-3.4821" stroke="#000" stroke-width="1px" />
      <path d="m84.568 30.674s8.4821-0.625 9.1964-2.7679" stroke="#000" stroke-width="1px" />
      <path
        d="m93.883 48.197c1.6163 2.5565-0.35864 6.4995-5.2404 6.2187-4.8401-0.27841-9.5687 0.93256-9.655 0.28659-0.09891-0.741 4.0474-1.0987 8.7613-2.3987 4.7139-1.3 5.2702-4.6136 6.1341-4.1066z"
        stroke="#000" />
      <path
        d="m110.66 80.232-12.591 9.4031 35.689 47.787s10.861-3.6351 11.936-8.9458c1.0744-5.3107-35.034-48.244-35.034-48.244h3e-5z"
        stroke="#000" />
      <path
        d="m2.4678 124.59c1.517-10.859 11.535-8.3905 11.535-8.3905l23.973 43.264-3.7433 5.6921s-33.281-29.707-31.764-40.566z"
        stroke="#000" />
      <path
        d="m22.743 116.29c-8.5536 7.5969-16.55 12.56-17.859 11.085-1.3098-1.4748 4.5625-8.8288 13.116-16.426 8.5536-7.5969 16.55-12.56 17.859-11.085 1.3098 1.4748-4.5625 8.8288-13.116 16.426z"
        filter="url(#b)" opacity=".54808" stroke="#000" />
      <path
        d="m146.55 130.82c-0.70239-10.942-10.876-9.2279-10.876-9.2279l-27.135 41.354 3.3081 5.9555s35.405-27.14 34.703-38.082v3e-5z"
        stroke="#000" />
      <path
        d="m125.14 117c8.5536 7.5969 16.55 12.56 17.859 11.085 1.3098-1.4748-4.5625-8.8288-13.116-16.426-8.5536-7.5969-16.55-12.56-17.859-11.085-1.3098 1.4748 4.5625 8.8288 13.116 16.426z"
        filter="url(#b)" opacity=".54808" stroke="#000" />
      <path
        d="m51.988 74.692s14.415 17.143 24.394 16.071c9.9796-1.0714 20.329-8.5714 19.589-13.929-0.73923-5.3571 16.866 2.8571 16.866 2.8571s6.4495 11.429 11.105 15.357c2.4727 2.0867-8.0362 18.214-8.0362 18.214s-4.5227-7.0144-5.1931-5.3497c-7.2437 17.984-22.657 50.095-17.154 57.998 4.7157 6.7723-42.977 1.7603-42.977 1.7603 9.8284-22.663-12.917-54.815-14.158-59.888 0 0 1.5326-1.1295-5.3796 5.8368-1.4805 1.4921-11.031-15.357-11.031-15.357s9.9751-4.2857 16.828-20.357l15.146-3.2143v-6.1e-5z"
        stroke="#000" />
      <path
        d="m50.258 166.49c-0.5813-1.1995 48.173-2.4055 45.637 0-5.6648 5.3748-9.9369 13.418-15.812 21.568-4.4765 2.3502-8.9531 1.5652-13.43 0.38849-7.2687-17.08-14.251-17.531-16.396-21.957z"
        stroke="#000" />
      <path
        d="m81.464 177.49c0 5.6138-3.8159 10.165-8.5232 10.165-4.7072 0-8.5232-4.5509-8.5232-10.165s3.816-10.165 8.5232-10.165c4.7072 0 8.5232 4.5509 8.5232 10.165z"
        filter="url(#c)" stroke="#000" />
      <path
        d="m67.644 181.15c-0.12726 1.2675-0.58893 7.3753 7.556 6.4745 2.901-0.32086 5.0615-2.6568 5.0615-6.2899 0-9.8345-0.20319-14.736-0.20319-14.736"
        stroke="#000" stroke-dasharray="4.18484951, 1.04621238" stroke-width="1.0462" />
      <path d="m79.991 186.04c3.9193-7.455 7.1667-13.986 14.038-18.663" stroke="#000"
        stroke-dasharray="4.18484951, 1.04621238" stroke-width="1.0462" />
      <path d="m66.662 185.88c-1.7544-10.631-9.8827-13.64-15.159-18.663" stroke="#000"
        stroke-dasharray="4.18484951, 1.04621238" stroke-width="1.0462" />
      <path d="m85.887 213.73 23.271 0.7644 5.1592 75.19-28.63-0.13312 0.19983-75.822v3e-5z"
        stroke-width="0" />
      <path
        d="m127.66 150.32c5.5904-7.0652 9.0979-13.555 7.8342-14.495-1.2637-0.94047-6.82 4.0246-12.41 11.09-5.5904 7.0652-9.0978 13.555-7.8341 14.496 1.2637 0.94047 6.82-4.0246 12.41-11.09z"
        filter="url(#b)" opacity=".54808" stroke="#000" />
      <path
        d="m98.34 177.58c-3.5569-3.6226-6.0251-8.294-4.6952-11.345 1.1842-2.7169 4.5644-4.3068 8.2529-5.5964 7.4352-2.5995 10.578-0.1094 13.177 7.3258 0.90197 4.619-12.495 12.423-16.735 9.6159z"
        stroke="#000" />
      <path
        d="m47.058 174.81c3.8174-3.347 6.6273-7.8212 5.5287-10.963-0.97815-2.7977-4.2303-4.6354-7.8123-6.1967-7.2205-3.1471-10.54-0.89846-13.687 6.3221-1.2442 4.5388 11.533 13.321 15.971 10.838z"
        stroke="#000" />
      <path
        d="m101.02 113.41c-1.4005 8.0312-10.098 11.211-17.308 7.3128-5.7908-3.1309-10.8-13.875-8.9424-7.3128 1.5825 5.5888-2.3873 6.6157-3.5214 6.712-15.173 1.2892-23.275 10.274-25.759-6.712-1.1159-7.6288-16.491-24.668-4.7454-27.457 4.396-1.0436 23.015 12.939 32.511 11.294 13.012-2.2532 27.316-12.292 32.892-12.088 13.339 0.48917 2.9559 16.665-5.1263 28.25h1e-5z"
        filter="url(#j)" stroke-width="0" />
      <path
        d="m52.928 74.769s8.8478 14.348 21.62 13.89c4.8502-0.17236-11.688 9.8029-10.751 10.607 1.1307 0.9697 14.023-9.5964 14.023-9.5964s11.682 10.669 12.621 9.5964c0.87979-1.005-13.938-10.352-9.349-11.238 6.9099-1.3343 12.621-15.026 12.621-15.026s-9.7724 12.814-16.711 13.637c-8.7678 1.0404-24.074-11.869-24.074-11.869v3.1e-5z"
        stroke="#000" />
      <path
        d="m80.371 88.218c0 1.0602-1.0593 1.9196-2.3661 1.9196-1.3067 0-2.3661-0.85945-2.3661-1.9196 0-1.0602 1.0593-1.9196 2.3661-1.9196 1.3067 0 2.3661 0.85945 2.3661 1.9196z"
        stroke="#000" />
      <path
        d="m227.51 98.084c3e-5 17.653-7.6751 31.964-17.143 31.964-9.4677 0-17.143-14.311-17.143-31.964-3e-5 -17.653 7.6751-31.964 17.143-31.964 9.4678 0 17.143 14.311 17.143 31.964h3e-5z"
        filter="url(#g)" stroke="#000" />
      <path
        d="m81.464 177.49c0 5.6138-3.8159 10.165-8.5232 10.165-4.7072 0-8.5232-4.5509-8.5232-10.165s3.816-10.165 8.5232-10.165c4.7072 0 8.5232 4.5509 8.5232 10.165z"
        filter="url(#c)" opacity=".54808" stroke="#000" />
      <path
        d="m20.226 149.61c-5.5904-7.0652-9.0979-13.555-7.8342-14.495 1.2637-0.94048 6.82 4.0246 12.41 11.09 5.5904 7.0651 9.0978 13.555 7.8341 14.495-1.2637 0.94048-6.82-4.0246-12.41-11.09h4e-6z"
        filter="url(#b)" opacity=".54808" stroke="#000" />
      <path
        d="m53.645 252.36c0.0925 15.459-3.0668 28.588-7.0565 29.325-3.9897 0.73627-7.2989-11.199-7.3914-26.658-0.0925-15.459 3.0668-28.588 7.0564-29.325 3.9897-0.73628 7.2989 11.199 7.3914 26.658v1e-5z"
        filter="url(#a)" opacity=".54808" stroke="#000" />
      <path
        d="m86.032 197.78c4.3262 13.599 11.065 24.104 15.052 23.464 3.9867-0.64052 3.7114-12.184-0.61481-25.783-4.3262-13.599-11.065-24.104-15.052-23.464-3.9867 0.6405-3.7114 12.184 0.61481 25.783z"
        filter="url(#a)" opacity=".54808" stroke="#000" />
      <path
        d="m94.613 255.39c-0.0925 15.459 3.0668 28.588 7.0565 29.325 3.9897 0.7363 7.2989-11.199 7.3914-26.658 0.0925-15.459-3.0668-28.588-7.0564-29.325-3.9897-0.73628-7.2989 11.199-7.3914 26.658v1e-5z"
        filter="url(#a)" opacity=".54808" stroke="#000" />
      <path
        d="m115.33 288.38c0 6.1368-7.3851 4.326-15.614 4.326-8.2289 0-14.185 1.8108-14.185-4.326s0.24228-10.04 17.043-5.7545c7.9735 2.034 12.757-0.38232 12.757 5.7545h-3e-5z"
        stroke="#000" />
      <path
        d="m60.328 288.52c0 6.1368-7.5622 4.326-15.988 4.326-8.4261 0-14.525 1.8108-14.525-4.326s0.24809-10.04 17.451-5.7546c8.1647 2.0341 13.063-0.38221 13.063 5.7546z"
        stroke="#000" />
      <path
        d="m111.7 288.42c0 2.2871-5.2513 1.6123-11.103 1.6123-5.8513 0-10.087 0.67487-10.087-1.6123s0.17226-3.7419 12.118-2.1447c5.6697 0.75808 9.071-0.14246 9.071 2.1447h2e-5z"
        filter="url(#e)" stroke="#000" />
      <path
        d="m54.971 288.27c0 2.1643-5.3494 1.5256-11.31 1.5256-5.9606 0-10.275 0.63867-10.275-1.5256 0-2.1643 0.17549-3.5409 12.345-2.0295 5.7756 0.71741 9.2404-0.13482 9.2404 2.0295z"
        filter="url(#f)" stroke="#000" />
      <path
        d="m54.864 42.292 6.1149 8.6494 7.5525-2.3529s-6.2699-3.0363-8.6098-5.8115c-1.0703-1.2694-0.48761-3.4601-0.67963-5.0671-0.62283-5.2123-0.13116-10.121 6.7356-13.896l11.909-0.61054s3.2668-0.35864 4.1671 1.0819c0.90036 1.4406-4.11 2.58-4.11 2.58 0.06 0 4.6575 0.29971 6.016-1.6668 0.87598-1.2681-0.1138-5.0548-0.86157-5.0548 7.6948 2.0927 1.2081-7.2626 8.4904 0.90784 1.8007 1.6206 1.6252 3.4243 1.6252 3.4243l1.8007 2.521s-2.1609-19.448-24.13-14.046c-21.969 5.4022-18.726 20.908-18.726 20.908l2.7056 8.4334 3.1e-5 6.1e-5z"
        stroke="#000" />
      <path
        d="m85.482 20.196c-0.21223 0.71253-3.3723-0.51432-3.9431 0.64492-0.41602 0.845 0.45606 2.1323-0.20563 2.611-0.53284 0.38547-2.1553-3.7216-2.7381-3.346-2.905 1.8722-6.0592 2.0577-7.897 2.0577-2.462 0-3.6555 2.1072-5.3396 1.1138-0.44664-0.26346-3.661 1.9328-5.2406 2.9736-0.60786 0.40049-4.8062 8.2142-5.9874 8.8461-1.6078 0.86008-0.10704-4.8796-0.133-5.1018-0.32276-2.7612 8.8307-11.236 9.4887-11.48 1.939-0.71674 5.4451-1.0058 7.3904-1.8905 2.7168-1.2356 9.6646-2.1329 12.725 0.40945 1.2978 1.0781 1.8801 2.338 1.8801 3.1615z"
        filter="url(#d)" opacity=".87019" stroke="#000" />
      <path
        d="m78.43 34.347c0 0.74966-0.60773 1.3574-1.3574 1.3574-0.74967 0-1.3574-0.60774-1.3574-1.3574 0-0.74966 0.60772-1.3574 1.3574-1.3574 0.74966 0 1.3574 0.60773 1.3574 1.3574z"
        opacity=".87019" stroke="#000" />
      <path
        d="m93.341 31.311c0 0.74966-0.60773 1.3574-1.3574 1.3574-0.74967 0-1.3574-0.60774-1.3574-1.3574 0-0.74966 0.60772-1.3574 1.3574-1.3574 0.74966 0 1.3574 0.60773 1.3574 1.3574z"
        opacity=".87019" stroke="#000" />
    </g>
  </g>
</svg>
