<svg width="433" height="58" viewBox="0 0 433 58" fill="none" xmlns="http://www.w3.org/2000/svg">
<path d="M0.905865 45V2.2207H17.3285C20.4102 2.2207 22.975 2.70879 25.0231 3.68496C27.0711 4.64199 28.6023 5.9627 29.6168 7.64707C30.6313 9.31231 31.1385 11.1977 31.1385 13.3031C31.1385 15.0449 30.8035 16.5379 30.1336 17.782C29.4828 19.007 28.5928 20.0023 27.4635 20.768C26.3342 21.5336 25.0709 22.0887 23.6736 22.4332V22.8639C25.2049 22.9213 26.6596 23.3807 28.0377 24.242C29.435 25.0842 30.5738 26.2709 31.4543 27.8021C32.3539 29.3334 32.8037 31.1805 32.8037 33.3434C32.8037 35.5637 32.2678 37.5543 31.1959 39.3152C30.1432 41.057 28.5354 42.4447 26.3725 43.4783C24.2287 44.4928 21.5203 45 18.2473 45H0.905865ZM8.65782 38.54H16.984C19.7977 38.54 21.8266 37.9945 23.0707 36.9035C24.334 35.8125 24.9656 34.4248 24.9656 32.7404C24.9656 31.458 24.6498 30.3096 24.0182 29.2951C23.3865 28.2807 22.4869 27.4768 21.3193 26.8834C20.1709 26.29 18.8119 25.9934 17.2424 25.9934H8.65782V38.54ZM8.65782 20.4234H16.3523C17.6731 20.4234 18.8693 20.1746 19.9412 19.677C21.0131 19.1793 21.8553 18.4807 22.4678 17.5811C23.0994 16.6623 23.4152 15.5809 23.4152 14.3367C23.4152 12.6906 22.8315 11.3316 21.6639 10.2598C20.4963 9.16875 18.7832 8.62324 16.5246 8.62324H8.65782V20.4234ZM55.1431 31.5346V12.9012H62.6941V45H55.3728V39.2865H55.0283C54.3009 41.0857 53.1142 42.5596 51.4681 43.708C49.822 44.8564 47.7931 45.4211 45.3814 45.402C43.2759 45.402 41.4193 44.9426 39.8115 44.0238C38.2228 43.0859 36.9691 41.7174 36.0503 39.9182C35.1507 38.0998 34.7009 35.9082 34.7009 33.3434V12.9012H42.2519V32.1949C42.2519 34.2047 42.807 35.8125 43.9171 37.0184C45.0464 38.2242 46.5203 38.8176 48.3386 38.7984C49.4488 38.7984 50.5206 38.5305 51.5542 37.9945C52.607 37.4586 53.4683 36.6547 54.1382 35.5828C54.8081 34.5109 55.1431 33.1615 55.1431 31.5346ZM65.9407 45V12.9012H73.4917V45H65.9407ZM69.7306 8.39356C68.5247 8.39356 67.4911 7.9916 66.6298 7.1877C65.7685 6.38379 65.3378 5.41719 65.3378 4.28789C65.3378 3.13945 65.7685 2.16328 66.6298 1.35938C67.4911 0.555469 68.5247 0.153516 69.7306 0.153516C70.9173 0.153516 71.9413 0.555469 72.8026 1.35938C73.664 2.16328 74.0946 3.12988 74.0946 4.25918C74.0946 5.40762 73.664 6.38379 72.8026 7.1877C71.9413 7.9916 70.9173 8.39356 69.7306 8.39356ZM84.2893 2.2207V45H76.7383V2.2207H84.2893ZM99.3648 45.5742C96.8574 45.5742 94.5988 44.933 92.5891 43.6506C90.5984 42.349 89.0289 40.4637 87.8805 37.9945C86.732 35.5254 86.1578 32.5299 86.1578 29.008C86.1578 25.4287 86.7416 22.4141 87.9092 19.9641C89.0959 17.5141 90.6846 15.6574 92.6752 14.3941C94.6658 13.1309 96.8957 12.4992 99.3648 12.4992C101.26 12.4992 102.81 12.815 104.016 13.4467C105.222 14.0783 106.179 14.8439 106.887 15.7436C107.614 16.624 108.17 17.4471 108.552 18.2127H108.868V2.2207H116.39V45H109.012V39.9182H108.552C108.15 40.7029 107.586 41.5355 106.858 42.416C106.131 43.2773 105.164 44.0238 103.959 44.6555C102.753 45.268 101.221 45.5742 99.3648 45.5742ZM101.461 39.3727C103.069 39.3727 104.428 38.942 105.538 38.0807C106.667 37.2002 107.528 35.9848 108.122 34.4344C108.715 32.8648 109.012 31.0465 109.012 28.9793C109.012 26.893 108.715 25.0842 108.122 23.5529C107.547 22.0025 106.696 20.8063 105.566 19.9641C104.456 19.1219 103.088 18.7008 101.461 18.7008C99.7955 18.7008 98.3982 19.141 97.2689 20.0215C96.1396 20.902 95.2879 22.1174 94.7137 23.6678C94.1586 25.2182 93.8811 26.9887 93.8811 28.9793C93.8811 30.9699 94.1682 32.75 94.7424 34.3195C95.3166 35.8891 96.1588 37.1236 97.2689 38.0232C98.3982 38.9229 99.7955 39.3727 101.461 39.3727ZM145.996 12.9012V18.7582H127.076V12.9012H145.996ZM131.784 45V9.88652C131.784 7.72363 132.234 5.92441 133.134 4.48887C134.033 3.05332 135.239 1.98145 136.751 1.27324C138.282 0.56504 139.967 0.210938 141.804 0.210938C143.125 0.210938 144.293 0.316212 145.307 0.526758C146.341 0.737305 147.097 0.928712 147.575 1.10098L146.025 6.95801C145.718 6.84316 145.326 6.73789 144.848 6.64219C144.369 6.52734 143.824 6.46992 143.211 6.46992C141.814 6.46992 140.809 6.81445 140.196 7.50352C139.603 8.19258 139.306 9.16875 139.306 10.432V45H131.784ZM160.21 45.6316C157.071 45.6316 154.353 44.9426 152.056 43.5645C149.759 42.1863 147.979 40.2531 146.716 37.7648C145.472 35.2766 144.85 32.3863 144.85 29.0941C144.85 25.7828 145.472 22.883 146.716 20.3947C147.979 17.8873 149.759 15.9445 152.056 14.5664C154.353 13.1883 157.071 12.4992 160.21 12.4992C163.349 12.4992 166.067 13.1883 168.364 14.5664C170.661 15.9445 172.441 17.8873 173.704 20.3947C174.968 22.883 175.599 25.7828 175.599 29.0941C175.599 32.3863 174.968 35.2766 173.704 37.7648C172.441 40.2531 170.661 42.1863 168.364 43.5645C166.067 44.9426 163.349 45.6316 160.21 45.6316ZM160.21 39.5449C161.952 39.5449 163.388 39.0855 164.517 38.1668C165.646 37.2289 166.488 35.9656 167.043 34.377C167.618 32.7883 167.905 31.0273 167.905 29.0941C167.905 27.1227 167.618 25.3426 167.043 23.7539C166.488 22.1652 165.646 20.9115 164.517 19.9928C163.388 19.0549 161.952 18.5859 160.21 18.5859C158.507 18.5859 157.081 19.0549 155.932 19.9928C154.784 20.9115 153.923 22.1652 153.348 23.7539C152.793 25.3426 152.516 27.1227 152.516 29.0941C152.516 31.0273 152.793 32.7883 153.348 34.377C153.923 35.9656 154.784 37.2289 155.932 38.1668C157.081 39.0855 158.507 39.5449 160.21 39.5449ZM177.41 45V12.9012H184.732V18.2988H185.076C185.65 16.423 186.655 14.9875 188.091 13.9922C189.526 12.9777 191.163 12.4705 193 12.4705C193.402 12.4705 193.862 12.4896 194.379 12.5279C194.914 12.5662 195.355 12.6141 195.699 12.6715V19.6195C195.374 19.5047 194.867 19.409 194.178 19.3324C193.489 19.2559 192.828 19.2176 192.197 19.2176C190.799 19.2176 189.555 19.5143 188.464 20.1076C187.373 20.701 186.512 21.5145 185.88 22.548C185.268 23.5816 184.961 24.7875 184.961 26.1656V45H177.41ZM220.453 45.6316C217.237 45.6316 214.462 44.9617 212.127 43.6219C209.791 42.2629 207.992 40.3488 206.729 37.8797C205.485 35.4105 204.863 32.5012 204.863 29.1516C204.863 25.8402 205.485 22.9404 206.729 20.4521C207.973 17.9447 209.724 15.9924 211.983 14.5951C214.242 13.1979 216.902 12.4992 219.965 12.4992C221.936 12.4992 223.802 12.815 225.563 13.4467C227.343 14.0783 228.913 15.0545 230.272 16.3752C231.65 17.6959 232.731 19.3803 233.516 21.4283C234.301 23.4572 234.693 25.8785 234.693 28.6922V31.0465H208.394V25.9646H230.932L227.401 27.4576C227.401 25.6393 227.123 24.0602 226.568 22.7203C226.013 21.3613 225.19 20.299 224.099 19.5334C223.008 18.7678 221.649 18.385 220.022 18.385C218.395 18.385 217.007 18.7678 215.859 19.5334C214.71 20.299 213.84 21.3326 213.246 22.6342C212.653 23.9166 212.356 25.3521 212.356 26.9408V30.4723C212.356 32.4246 212.691 34.0994 213.361 35.4967C214.05 36.8748 215.007 37.9275 216.232 38.6549C217.476 39.3822 218.921 39.7459 220.568 39.7459C221.639 39.7459 222.616 39.5928 223.496 39.2865C224.396 38.9803 225.161 38.5209 225.793 37.9084C226.444 37.2768 226.941 36.5016 227.286 35.5828L234.349 36.4154C233.889 38.2721 233.038 39.899 231.794 41.2963C230.569 42.6744 228.989 43.7463 227.056 44.5119C225.142 45.2584 222.941 45.6316 220.453 45.6316ZM264.009 12.9012L252.583 45H244.199L232.801 12.9012H240.868L248.305 36.76H248.649L256.028 12.9012H264.009ZM277.822 45.6316C274.606 45.6316 271.831 44.9617 269.496 43.6219C267.16 42.2629 265.361 40.3488 264.098 37.8797C262.854 35.4105 262.232 32.5012 262.232 29.1516C262.232 25.8402 262.854 22.9404 264.098 20.4521C265.342 17.9447 267.093 15.9924 269.352 14.5951C271.611 13.1979 274.271 12.4992 277.334 12.4992C279.305 12.4992 281.171 12.815 282.932 13.4467C284.712 14.0783 286.282 15.0545 287.641 16.3752C289.019 17.6959 290.1 19.3803 290.885 21.4283C291.67 23.4572 292.062 25.8785 292.062 28.6922V31.0465H265.763V25.9646H288.301L284.77 27.4576C284.77 25.6393 284.492 24.0602 283.937 22.7203C283.382 21.3613 282.559 20.299 281.468 19.5334C280.377 18.7678 279.018 18.385 277.391 18.385C275.764 18.385 274.376 18.7678 273.228 19.5334C272.08 20.299 271.209 21.3326 270.615 22.6342C270.022 23.9166 269.725 25.3521 269.725 26.9408V30.4723C269.725 32.4246 270.06 34.0994 270.73 35.4967C271.419 36.8748 272.376 37.9275 273.601 38.6549C274.845 39.3822 276.29 39.7459 277.937 39.7459C279.008 39.7459 279.985 39.5928 280.865 39.2865C281.765 38.9803 282.53 38.5209 283.162 37.9084C283.813 37.2768 284.31 36.5016 284.655 35.5828L291.718 36.4154C291.258 38.2721 290.407 39.899 289.163 41.2963C287.938 42.6744 286.358 43.7463 284.425 44.5119C282.511 45.2584 280.31 45.6316 277.822 45.6316ZM293.816 45V12.9012H301.137V18.2988H301.482C302.056 16.423 303.061 14.9875 304.496 13.9922C305.932 12.9777 307.569 12.4705 309.406 12.4705C309.808 12.4705 310.267 12.4896 310.784 12.5279C311.32 12.5662 311.76 12.6141 312.105 12.6715V19.6195C311.779 19.5047 311.272 19.409 310.583 19.3324C309.894 19.2559 309.234 19.2176 308.602 19.2176C307.205 19.2176 305.961 19.5143 304.87 20.1076C303.779 20.701 302.917 21.5145 302.286 22.548C301.673 23.5816 301.367 24.7875 301.367 26.1656V45H293.816ZM318.28 57.0012C317.246 57.0203 316.289 56.9437 315.409 56.7715C314.548 56.6184 313.849 56.4365 313.313 56.226L315.093 50.3402L315.466 50.4551C316.998 50.857 318.299 50.8857 319.371 50.5412C320.462 50.1967 321.333 49.1535 321.984 47.4117L322.615 45.6891L311.016 12.9012H319.027L326.405 37.1619H326.75L334.157 12.9012H342.225L329.362 48.876C328.769 50.5795 327.984 52.0342 327.008 53.24C326.032 54.465 324.826 55.3934 323.391 56.025C321.955 56.6758 320.252 57.0012 318.28 57.0012ZM355.807 45.6316C352.668 45.6316 349.95 44.9426 347.654 43.5645C345.357 42.1863 343.577 40.2531 342.313 37.7648C341.069 35.2766 340.447 32.3863 340.447 29.0941C340.447 25.7828 341.069 22.883 342.313 20.3947C343.577 17.8873 345.357 15.9445 347.654 14.5664C349.95 13.1883 352.668 12.4992 355.807 12.4992C358.947 12.4992 361.665 13.1883 363.961 14.5664C366.258 15.9445 368.038 17.8873 369.302 20.3947C370.565 22.883 371.197 25.7828 371.197 29.0941C371.197 32.3863 370.565 35.2766 369.302 37.7648C368.038 40.2531 366.258 42.1863 363.961 43.5645C361.665 44.9426 358.947 45.6316 355.807 45.6316ZM355.807 39.5449C357.549 39.5449 358.985 39.0855 360.114 38.1668C361.243 37.2289 362.086 35.9656 362.641 34.377C363.215 32.7883 363.502 31.0273 363.502 29.0941C363.502 27.1227 363.215 25.3426 362.641 23.7539C362.086 22.1652 361.243 20.9115 360.114 19.9928C358.985 19.0549 357.549 18.5859 355.807 18.5859C354.104 18.5859 352.678 19.0549 351.53 19.9928C350.381 20.9115 349.52 22.1652 348.946 23.7539C348.39 25.3426 348.113 27.1227 348.113 29.0941C348.113 31.0273 348.39 32.7883 348.946 34.377C349.52 35.9656 350.381 37.2289 351.53 38.1668C352.678 39.0855 354.104 39.5449 355.807 39.5449ZM380.559 26.223V45H373.008V12.9012H380.415V18.385H380.788C381.516 16.5857 382.654 15.1598 384.205 14.107C385.774 13.0352 387.765 12.4992 390.177 12.4992C392.397 12.4992 394.33 12.9682 395.976 13.9061C397.622 14.8439 398.895 16.2221 399.795 18.0404C400.714 19.8396 401.173 22.0217 401.173 24.5865V45H393.622V25.7637C393.622 23.6199 393.067 21.9451 391.957 20.7393C390.847 19.5143 389.315 18.9018 387.363 18.9018C386.042 18.9018 384.865 19.1889 383.832 19.7631C382.817 20.3373 382.013 21.1699 381.42 22.2609C380.846 23.3328 380.559 24.6535 380.559 26.223ZM418.632 45.6316C415.416 45.6316 412.641 44.9617 410.305 43.6219C407.97 42.2629 406.171 40.3488 404.908 37.8797C403.664 35.4105 403.042 32.5012 403.042 29.1516C403.042 25.8402 403.664 22.9404 404.908 20.4521C406.152 17.9447 407.903 15.9924 410.162 14.5951C412.421 13.1979 415.081 12.4992 418.144 12.4992C420.115 12.4992 421.981 12.815 423.742 13.4467C425.522 14.0783 427.092 15.0545 428.451 16.3752C429.829 17.6959 430.91 19.3803 431.695 21.4283C432.48 23.4572 432.872 25.8785 432.872 28.6922V31.0465H406.573V25.9646H429.111L425.58 27.4576C425.58 25.6393 425.302 24.0602 424.747 22.7203C424.192 21.3613 423.369 20.299 422.278 19.5334C421.187 18.7678 419.828 18.385 418.201 18.385C416.574 18.385 415.186 18.7678 414.038 19.5334C412.889 20.299 412.019 21.3326 411.425 22.6342C410.832 23.9166 410.535 25.3521 410.535 26.9408V30.4723C410.535 32.4246 410.87 34.0994 411.54 35.4967C412.229 36.8748 413.186 37.9275 414.411 38.6549C415.655 39.3822 417.1 39.7459 418.746 39.7459C419.818 39.7459 420.795 39.5928 421.675 39.2865C422.575 38.9803 423.34 38.5209 423.972 37.9084C424.623 37.2768 425.12 36.5016 425.465 35.5828L432.528 36.4154C432.068 38.2721 431.217 39.899 429.972 41.2963C428.747 42.6744 427.168 43.7463 425.235 44.5119C423.321 45.2584 421.12 45.6316 418.632 45.6316Z" fill="black"/>
</svg>
