<svg width="700" height="172" viewBox="0 0 700 172" fill="none" xmlns="http://www.w3.org/2000/svg">
<path d="M258.977 22.7056H233.487L193.416 136.701H215.406L224.796 108.626H267.609L277.058 136.701H299.048L258.977 22.7056ZM230.396 91.9903L245.794 46.1118H246.669L262.068 91.9903H230.396Z" fill="black"/>
<path d="M320.803 86.6204V136.702H300.68V51.2484H319.928V65.7824H320.919C322.903 60.9961 326.052 57.2021 330.369 54.4004C334.685 51.5986 340.051 50.1978 346.409 50.1978C352.3 50.1978 357.433 51.4819 361.866 53.9918C366.24 56.5017 369.682 60.179 372.073 64.9653C374.523 69.7516 375.689 75.5302 375.631 82.3594V136.702H355.508V85.3947C355.508 79.6744 354.05 75.2383 351.075 71.9696C348.1 68.7593 344.076 67.125 338.884 67.125C335.385 67.125 332.235 67.8838 329.494 69.4597C326.752 70.9773 324.652 73.1954 323.078 76.1139C321.619 78.974 320.803 82.4762 320.803 86.6204Z" fill="black"/>
<path d="M440.316 51.1901V65.3155H439.208C438.216 63.2142 436.758 60.9962 434.833 58.6614C432.909 56.3266 430.342 54.2837 427.076 52.5909C423.868 50.8982 419.726 50.0811 414.71 50.0811C408.178 50.0811 402.228 51.7154 396.862 55.1008C391.496 58.4863 387.296 63.3893 384.146 69.8684C380.997 76.3474 379.422 84.2857 379.422 93.6832C379.422 103.081 380.997 110.727 384.146 116.914C387.238 123.043 391.496 127.713 396.804 130.806C402.17 133.9 408.119 135.476 414.652 135.476C419.551 135.476 423.576 134.717 426.842 133.258C430.05 131.799 432.675 129.989 434.658 127.771C436.642 125.553 438.158 123.452 439.208 121.35H440.2V137.519C440.2 143.823 438.333 148.376 434.6 151.119C430.867 153.862 426.142 155.263 420.426 155.263C416.402 155.263 413.019 154.738 410.394 153.629C407.769 152.52 405.669 151.119 404.095 149.485C402.52 147.85 401.353 146.216 400.537 144.523L382.397 148.901C383.563 152.87 385.78 156.489 388.929 159.758C392.079 163.026 396.22 165.653 401.411 167.579C406.603 169.505 412.785 170.498 420.018 170.498C427.659 170.498 434.542 169.33 440.608 166.937C446.674 164.544 451.398 160.983 454.898 156.197C458.398 151.411 460.148 145.34 460.148 138.044V51.1901H440.316ZM437.925 107.634C436.408 111.486 434.075 114.463 431.1 116.564C428.067 118.607 424.451 119.658 420.193 119.658C415.935 119.658 412.027 118.549 409.052 116.389C406.019 114.229 403.745 111.194 402.228 107.283C400.653 103.373 399.895 98.8197 399.895 93.5664C399.895 88.3132 400.653 83.8187 402.17 79.7328C403.686 75.7053 405.961 72.495 408.936 70.1602C411.969 67.8254 415.702 66.658 420.193 66.658C424.684 66.658 428.184 67.8254 431.159 70.0435C434.133 72.3199 436.408 75.4719 437.925 79.4994C439.5 83.5269 440.258 88.2548 440.258 93.6248C440.258 99.0532 439.5 103.723 437.925 107.634Z" fill="black"/>
<path d="M521.101 100.746V51.2485H541.224V136.702H521.685V121.526H520.81C518.885 126.312 515.735 130.223 511.302 133.258C506.928 136.293 501.503 137.811 495.087 137.811C489.488 137.811 484.53 136.585 480.272 134.075C476.014 131.565 472.631 127.946 470.239 123.102C467.848 118.315 466.623 112.478 466.623 105.649V51.2485H486.804V102.555C486.804 107.984 488.263 112.303 491.237 115.455C494.212 118.665 498.12 120.241 502.903 120.241C505.878 120.241 508.736 119.541 511.535 118.082C514.335 116.623 516.61 114.463 518.418 111.603C520.226 108.684 521.101 105.065 521.101 100.746Z" fill="black"/>
<path d="M567.938 22.7056H547.814V136.701H567.938V22.7056Z" fill="black"/>
<path d="M642.014 65.3155C639.914 61.5215 637.231 58.5447 633.848 56.3266C630.465 54.1086 626.732 52.5326 622.649 51.5403C618.566 50.548 614.483 50.0811 610.342 50.0811C604.393 50.0811 598.968 50.9566 594.01 52.7077C589.111 54.4588 584.911 57.0854 581.528 60.5876C578.087 64.1481 575.637 68.4675 574.179 73.6624L592.96 76.3474C594.01 73.3705 595.935 70.8607 598.793 68.701C601.709 66.5413 605.559 65.4906 610.517 65.4906C615.183 65.4906 618.741 66.658 621.249 68.9345C623.757 71.2692 624.982 74.4796 624.982 78.6822V79.0324C624.982 80.9586 624.224 82.3595 622.824 83.2934C621.366 84.1689 619.091 84.8694 616 85.278C612.85 85.6865 608.825 86.1535 603.809 86.6788C599.668 87.1458 595.643 87.8462 591.794 88.8385C587.886 89.8308 584.444 91.29 581.353 93.1579C578.262 95.0841 575.87 97.594 574.062 100.746C572.254 103.898 571.379 107.867 571.379 112.712C571.379 118.315 572.604 123.043 575.112 126.837C577.562 130.631 581.003 133.55 585.319 135.476C589.636 137.402 594.477 138.394 599.901 138.394C604.392 138.394 608.242 137.811 611.683 136.585C615.008 135.359 617.75 133.666 619.966 131.623C622.183 129.581 623.874 127.362 625.099 124.969H625.741V136.702H645.105V79.4994C645.105 73.8375 644.055 69.1096 642.014 65.3155ZM624.924 106.058C624.924 109.21 624.166 112.128 622.532 114.813C620.899 117.498 618.624 119.599 615.65 121.234C612.675 122.81 609.175 123.627 605.151 123.627C601.126 123.627 597.51 122.693 594.885 120.708C592.144 118.841 590.802 116.039 590.802 112.303C590.802 109.735 591.444 107.575 592.844 105.941C594.185 104.306 596.052 103.022 598.443 102.088C600.776 101.155 603.518 100.512 606.492 100.104C607.834 99.9287 609.409 99.6953 611.217 99.4618C613.025 99.2283 614.833 98.9365 616.7 98.5862C618.566 98.236 620.199 97.8858 621.716 97.4188C623.232 96.9519 624.282 96.4849 624.924 95.9596V106.058Z" fill="black"/>
<path d="M651.23 136.702V51.2487H670.77V65.4909H671.645C673.22 60.5295 675.903 56.7355 679.694 54.0505C683.486 51.3655 687.86 50.0229 692.76 50.0229C693.868 50.0229 695.151 50.0813 696.493 50.1397C697.893 50.2564 699.059 50.3732 699.993 50.5483V69.0515C699.118 68.7596 697.776 68.4678 695.968 68.2343C694.16 68.0008 692.352 67.8841 690.66 67.8841C686.985 67.8841 683.719 68.7012 680.803 70.2772C677.886 71.8532 675.612 74.0129 673.92 76.8146C672.229 79.6164 671.412 82.8267 671.412 86.4456V136.702H651.23Z" fill="black"/>
<path d="M158.301 27.9591L152.585 117.79L97.9316 0L158.301 27.9591Z" fill="black"/>
<path d="M120.448 144.115L79.1516 167.696L37.8555 144.115L46.2547 123.744H112.048L120.448 144.115Z" fill="black"/>
<path d="M79.1514 44.7109L100.791 97.3604H57.5117L79.1514 44.7109Z" fill="black"/>
<path d="M5.6578 117.79L0 27.9591L60.3693 0L5.6578 117.79Z" fill="black"/>
</svg>
