<svg xmlns="http://www.w3.org/2000/svg" viewBox="0 0 185.6 200"><defs><style>.cls-1{fill:#4a3493;}.cls-2{fill:#311b92;}.cls-3{opacity:0.5;}.cls-4{fill:#fff;}</style></defs><title>augury</title><g id="Layer_2" data-name="Layer 2"><g id="Layer_1-2" data-name="Layer 1"><polygon class="cls-1" points="92.4 0 92.4 0 92.4 0 0 33.3 14 156.1 92.4 200 92.4 200 92.4 200 171.3 156.1 185.6 33.3 92.4 0"/><polygon class="cls-2" points="92.4 0 92.4 22.2 92.4 22.2 92.4 123.2 92.4 123.2 92.4 200 92.4 200 171.3 156.1 185.6 33.3 92.4 0"/><g id="Group-2"><g id="Group-2-2" class="cls-3"><path id="Combined-Shape" class="cls-4" d="M142.4,90.2A44.1,44.1,0,1,1,92.7,52.8a40.3,40.3,0,0,1,6-.4,44.8,44.8,0,0,1,15.9,2.9,25.8,25.8,0,1,0,27.8,34.9Z"/></g><path id="Combined-Shape-2" class="cls-4" d="M140.6,87.8A44.1,44.1,0,1,1,90.9,50.4a40.3,40.3,0,0,1,6-.4,45.6,45.6,0,0,1,15.9,2.9,25.8,25.8,0,1,0,27.8,34.9Z"/></g></g></g></svg>