<svg xmlns="http://www.w3.org/2000/svg" viewBox="0 0 185.6 200"><defs><style>.cls-4{fill:#fff}</style></defs><g id="Layer_2" data-name="Layer 2"><g id="Layer_1-2" data-name="Layer 1"><path fill="#4a3493" d="M92.4 0L0 33.3l14 122.8L92.4 200l78.9-43.9 14.3-122.8L92.4 0z"/><path fill="#311b92" d="M92.4 0v200l78.9-43.9 14.3-122.8L92.4 0z"/><g id="Group-2"><g id="Group-2-2" opacity=".5"><path id="Combined-Shape" class="cls-4" d="M142.4 90.2a44.1 44.1 0 11-49.7-37.4 40.3 40.3 0 016-.4 44.8 44.8 0 0115.9 2.9 25.8 25.8 0 1027.8 34.9z"/></g><path id="Combined-Shape-2" class="cls-4" d="M140.6 87.8a44.1 44.1 0 11-49.7-37.4 40.3 40.3 0 016-.4 45.6 45.6 0 0115.9 2.9 25.8 25.8 0 1027.8 34.9z"/></g></g></g></svg>