<svg xmlns="http://www.w3.org/2000/svg" viewBox="0 0 185.6 200"><defs><style>.cls-3{fill:#fff}</style></defs><g id="Layer_2" data-name="Layer 2"><g id="Layer_1-2" data-name="Layer 1"><path fill="#03a9f4" d="M92.4 0L0 33.3l14 122.8L92.4 200l78.9-43.9 14.3-122.8L92.4 0z"/><path fill="#039be5" d="M92.4 0v200l78.9-43.9 14.3-122.8L92.4 0z"/><rect class="cls-3" x="117.8" y="45" width="30" height="30" rx="1" ry="1"/><rect class="cls-3" x="117.8" y="85" width="30" height="30" rx="1" ry="1"/><rect class="cls-3" x="117.8" y="125" width="30" height="30" rx="1" ry="1"/><rect class="cls-3" x="77.8" y="125" width="30" height="30" rx="1" ry="1"/><rect class="cls-3" x="37.8" y="125" width="30" height="30" rx="1" ry="1"/><rect class="cls-3" x="37.8" y="85" width="30" height="30" rx="1" ry="1"/><rect class="cls-3" x="77.8" y="85" width="30" height="30" rx="1" ry="1"/></g></g></svg>