<svg xmlns="http://www.w3.org/2000/svg" viewBox="0 0 185.6 200"><defs><style>.cls-1{fill:#03a9f4;}.cls-2{fill:#039be5;}.cls-3{fill:#fff;}</style></defs><title>cdk</title><g id="Layer_2" data-name="Layer 2"><g id="Layer_1-2" data-name="Layer 1"><polygon class="cls-1" points="92.4 0 92.4 0 92.4 0 0 33.3 14 156.1 92.4 200 92.4 200 92.4 200 171.3 156.1 185.6 33.3 92.4 0"/><polygon class="cls-2" points="92.4 0 92.4 22.2 92.4 22.2 92.4 123.2 92.4 123.2 92.4 200 92.4 200 171.3 156.1 185.6 33.3 92.4 0"/><rect class="cls-3" x="117.8" y="45" width="30" height="30" rx="1" ry="1"/><rect class="cls-3" x="117.8" y="85" width="30" height="30" rx="1" ry="1"/><rect class="cls-3" x="117.8" y="125" width="30" height="30" rx="1" ry="1"/><rect class="cls-3" x="77.8" y="125" width="30" height="30" rx="1" ry="1"/><rect class="cls-3" x="37.8" y="125" width="30" height="30" rx="1" ry="1"/><rect class="cls-3" x="37.8" y="85" width="30" height="30" rx="1" ry="1"/><rect class="cls-3" x="77.8" y="85" width="30" height="30" rx="1" ry="1"/></g></g></svg>