<svg xmlns="http://www.w3.org/2000/svg" viewBox="0 0 185.6 200"><defs><style>.cls-1{fill:#448aff;}.cls-2{fill:#2979ff;}.cls-3{fill:#fff;}.cls-4{fill:#a2c5ff;}</style></defs><title>components</title><g id="Layer_2" data-name="Layer 2"><g id="Layer_1-2" data-name="Layer 1"><polygon class="cls-1" points="92.4 0 92.4 0 92.4 0 0 33.3 14 156.1 92.4 200 92.4 200 92.4 200 171.3 156.1 185.6 33.3 92.4 0"/><polygon class="cls-2" points="92.4 0 92.4 22.2 92.4 22.2 92.4 123.2 92.4 123.2 92.4 200 92.4 200 171.3 156.1 185.6 33.3 92.4 0"/><polygon class="cls-3" points="73.6 131.4 54.3 98 84.3 46.1 62.8 46.1 32.8 98 62.8 150 84.4 150 73.6 131.4 73.6 131.4"/><polygon class="cls-4" points="152.8 98 122.8 46.1 84.3 46.1 54.3 98 73.6 64.7 112.1 64.7 131.3 98 112.1 131.4 73.6 131.4 84.4 150 122.8 150 152.8 98"/></g></g></svg>