<svg xmlns="http://www.w3.org/2000/svg" viewBox="0 0 185.6 200"><g data-name="Layer 2"><g data-name="Layer 1"><path fill="#8bc34a" d="M92.4 0L0 33.3l14 122.8L92.4 200l78.9-43.9 14.3-122.8L92.4 0z"/><path fill="#7cb342" d="M92.4 0v200l78.9-43.9 14.3-122.8L92.4 0z"/><path d="M113.9 144.1l-1.5-5.5a7 7 0 012.7-7.4 26.2 26.2 0 004.8-4 36 36 0 004.1-4.8 6.7 6.7 0 017.4-2.7l5.4 1.4a1.7 1.7 0 001.4-.1c.5-.3.9-.7.9-1.1l3.7-13.8a1.9 1.9 0 00-1.4-2.2l-5.4-1.5a7.2 7.2 0 01-5.2-6 38.7 38.7 0 00-3.2-12.1 7.1 7.1 0 011.3-7.9l4-3.9a1.9 1.9 0 000-2.6l-10-10a1.8 1.8 0 00-2.5 0l-4 4a7 7 0 01-7.8 1.3A37.4 37.4 0 0096.5 62a7.3 7.3 0 01-6.1-5.2L89 51.4a1.9 1.9 0 00-2.3-1.3L73 53.7a2.3 2.3 0 00-1.1.9 3.4 3.4 0 00-.2 1.4l1.5 5.4a6.9 6.9 0 01-2.7 7.4 38.3 38.3 0 00-4.8 4.1 47.2 47.2 0 00-4.1 4.8 6.8 6.8 0 01-7.4 2.7L48.8 79a1.7 1.7 0 00-1.4.1 1.9 1.9 0 00-.9 1.1l-3.6 13.7a1.9 1.9 0 001.3 2.3l5.4 1.4a6.2 6.2 0 013 1.8 6.8 6.8 0 012.1 4.2 38.7 38.7 0 003.2 12.1 6.8 6.8 0 01-1.3 7.9l-4 3.9a1.9 1.9 0 000 2.6l10 10a1.9 1.9 0 002.6 0l3.9-4a6.8 6.8 0 017.9-1.3 36.8 36.8 0 0012.1 3.2 7.2 7.2 0 016 5.2l1.5 5.4a1.7 1.7 0 002.2 1.3l13.8-3.5a2.3 2.3 0 001.1-.9 1.8 1.8 0 00.2-1.4zm-37.4-27.8a23 23 0 1132.5 0 23.2 23.2 0 01-32.5 0z" fill="#fff" stroke="#fff" stroke-miterlimit="10" stroke-width=".08"/><circle cx="92.8" cy="100" fill="#bed9a1" r="13.3"/></g></g></svg>