<svg xmlns="http://www.w3.org/2000/svg" viewBox="0 0 185.6 200"><defs><style>.cls-1{fill:#8bc34a;}.cls-2{fill:#7cb342;}.cls-3{fill:#fff;stroke:#fff;stroke-miterlimit:10;stroke-width:0.08px;}.cls-4{fill:#bed9a1;}</style></defs><title>compiler</title><g id="Layer_2" data-name="Layer 2"><g id="Layer_1-2" data-name="Layer 1"><polygon class="cls-1" points="92.4 0 92.4 0 92.4 0 0 33.3 14 156.1 92.4 200 92.4 200 92.4 200 171.3 156.1 185.6 33.3 92.4 0"/><polygon class="cls-2" points="92.4 0 92.4 22.2 92.4 22.2 92.4 123.2 92.4 123.2 92.4 200 92.4 200 171.3 156.1 185.6 33.3 92.4 0"/><path class="cls-3" d="M113.9,144.1l-1.5-5.5a7,7,0,0,1,2.7-7.4,26.2,26.2,0,0,0,4.8-4,36,36,0,0,0,4.1-4.8,6.7,6.7,0,0,1,7.4-2.7l5.4,1.4a1.7,1.7,0,0,0,1.4-.1c.5-.3.9-.7.9-1.1l3.7-13.8a1.9,1.9,0,0,0-1.4-2.2l-5.4-1.5a7.2,7.2,0,0,1-5.2-6,38.7,38.7,0,0,0-3.2-12.1,7.1,7.1,0,0,1,1.3-7.9l4-3.9a1.9,1.9,0,0,0,0-2.6l-10-10a1.8,1.8,0,0,0-2.5,0l-4,4a7,7,0,0,1-7.8,1.3A37.4,37.4,0,0,0,96.5,62a7.3,7.3,0,0,1-6.1-5.2L89,51.4a1.9,1.9,0,0,0-2.3-1.3L73,53.7a2.3,2.3,0,0,0-1.1.9,3.4,3.4,0,0,0-.2,1.4l1.5,5.4a6.9,6.9,0,0,1-2.7,7.4,38.3,38.3,0,0,0-4.8,4.1,47.2,47.2,0,0,0-4.1,4.8,6.8,6.8,0,0,1-7.4,2.7L48.8,79a1.7,1.7,0,0,0-1.4.1,1.9,1.9,0,0,0-.9,1.1L42.9,93.9a1.9,1.9,0,0,0,1.3,2.3l5.4,1.4a6.2,6.2,0,0,1,3,1.8,6.8,6.8,0,0,1,2.1,4.2,38.7,38.7,0,0,0,3.2,12.1,6.8,6.8,0,0,1-1.3,7.9l-4,3.9a1.9,1.9,0,0,0,0,2.6l10,10a1.9,1.9,0,0,0,2.6,0l3.9-4a6.8,6.8,0,0,1,7.9-1.3A36.8,36.8,0,0,0,89.1,138a7.2,7.2,0,0,1,6,5.2l1.5,5.4a1.7,1.7,0,0,0,2.2,1.3l13.8-3.5a2.3,2.3,0,0,0,1.1-.9A1.8,1.8,0,0,0,113.9,144.1ZM76.5,116.3a23,23,0,1,1,32.5,0A23.2,23.2,0,0,1,76.5,116.3Z"/><ellipse class="cls-4" cx="92.8" cy="100" rx="13.3" ry="13.3"/></g></g></svg>