<svg xmlns="http://www.w3.org/2000/svg" viewBox="0 0 200 200"><defs><style>.cls-1{fill:#546e7a;}.cls-2{fill:#455a64;}.cls-3,.cls-4{fill:#fff;}.cls-3{opacity:0.5;}</style></defs><title>dependency-injection</title><g id="Layer_2" data-name="Layer 2"><g id="Layer_1-2" data-name="Layer 1"><path class="cls-1" d="M0,100A100,100,0,0,0,100,200V0A100,100,0,0,0,0,100Z"/><path class="cls-2" d="M100,0V200A100,100,0,0,0,100,0Z"/><polygon class="cls-3" points="131.2 73.2 151 47.7 125.6 67.5 108.6 61.8 59.1 111.3 87.4 139.6 136.9 90.1 131.2 73.2"/><rect class="cls-4" x="74.5" y="74.3" width="40" height="60" transform="translate(101.4 -36.3) rotate(45)"/><rect class="cls-4" x="66.8" y="107" width="20" height="30" transform="translate(108.7 -18.6) rotate(45)"/><rect class="cls-4" x="42.6" y="131.1" width="40" height="10" transform="translate(114.6 -4.4) rotate(45)"/></g></g></svg>