<svg xmlns="http://www.w3.org/2000/svg" viewBox="0 0 200 200"><defs><style>.cls-4{fill:#fff}</style></defs><g id="Layer_2" data-name="Layer 2"><g id="Layer_1-2" data-name="Layer 1"><path d="M0 100a100 100 0 00100 100V0A100 100 0 000 100z" fill="#546e7a"/><path d="M100 0v200a100 100 0 000-200z" fill="#455a64"/><path opacity=".5" fill="#fff" d="M131.2 73.2L151 47.7l-25.4 19.8-17-5.7-49.5 49.5 28.3 28.3 49.5-49.5-5.7-16.9z"/><path class="cls-4" transform="rotate(45 94.518 104.25)" d="M74.5 74.3h40v60h-40z"/><path class="cls-4" transform="rotate(45 76.802 121.913)" d="M66.8 107h20v30h-20z"/><path class="cls-4" transform="rotate(45 62.611 136.134)" d="M42.6 131.1h40v10h-40z"/></g></g></svg>