<svg xmlns="http://www.w3.org/2000/svg" viewBox="0 0 186 200"><defs><style>.cls-3{fill:#fff}</style></defs><g id="Layer_2" data-name="Layer 2"><g id="Layer_1-2" data-name="Layer 1"><path fill="#e57373" d="M92.8 0L0 33.3l14 122.8L92.8 200l78.9-43.9L186 33.3 92.8 0z"/><path fill="#ef5350" d="M92.8 0v200l78.9-43.9L186 33.3 92.8 0z"/><path class="cls-3" d="M138.7 90H47c-2.4 0-4-2.3-4-5.6V55.6c0-3.3 1.6-5.6 4-5.6h92.1c2.3 0 3.9 2.3 3.9 5.6v28.8c-.4 3.3-2 5.6-4.3 5.6zm1.1 30H96.3c-2 0-3.3-1.4-3.3-3.6v-12.8c0-2.2 1.3-3.6 3.3-3.6h43.5c1.9 0 3.2 1.4 3.2 3.6v12.8a3.4 3.4 0 01-3.2 3.6zm0 30H96.3c-2 0-3.3-1.5-3.3-3.8v-12.4c0-2.3 1.3-3.8 3.3-3.8h43.5c1.9 0 3.2 1.5 3.2 3.8v12.4c0 1.9-1.3 3.8-3.2 3.8z"/><rect class="cls-3" x="43" y="100" width="40" height="50" rx="4" ry="4"/></g></g></svg>