<svg xmlns="http://www.w3.org/2000/svg" viewBox="0 0 186 200"><defs><style>.cls-1{fill:#e57373;}.cls-2{fill:#ef5350;}.cls-3{fill:#fff;}</style></defs><title>forms</title><g id="Layer_2" data-name="Layer 2"><g id="Layer_1-2" data-name="Layer 1"><polygon class="cls-1" points="92.8 0 92.8 0 92.8 0 0 33.3 14 156.1 92.8 200 92.8 200 92.8 200 171.7 156.1 186 33.3 92.8 0"/><polygon class="cls-2" points="92.8 0 92.8 22.2 92.8 22.2 92.8 123.2 92.8 123.2 92.8 200 92.8 200 171.7 156.1 186 33.3 92.8 0"/><path class="cls-3" d="M138.7,90H47c-2.4,0-4-2.3-4-5.6V55.6c0-3.3,1.6-5.6,4-5.6h92.1c2.3,0,3.9,2.3,3.9,5.6V84.4C142.6,87.7,141,90,138.7,90Z"/><path class="cls-3" d="M139.8,120H96.3c-2,0-3.3-1.4-3.3-3.6V103.6c0-2.2,1.3-3.6,3.3-3.6h43.5c1.9,0,3.2,1.4,3.2,3.6v12.8A3.4,3.4,0,0,1,139.8,120Z"/><path class="cls-3" d="M139.8,150H96.3c-2,0-3.3-1.5-3.3-3.8V133.8c0-2.3,1.3-3.8,3.3-3.8h43.5c1.9,0,3.2,1.5,3.2,3.8v12.4C143,148.1,141.7,150,139.8,150Z"/><rect class="cls-3" x="43" y="100" width="40" height="50" rx="4" ry="4"/></g></g></svg>