<svg xmlns="http://www.w3.org/2000/svg" viewBox="0 0 185.6 200"><defs><style>.cls-1{fill:#2e7d32;}.cls-2{fill:#1b5e20;}.cls-3,.cls-4,.cls-5{fill:#fff;stroke:#fff;stroke-miterlimit:10;}.cls-3{stroke-width:0.24px;}.cls-4{stroke-width:0.27px;}.cls-5{stroke-width:0.27px;}</style></defs><title>http</title><g id="Layer_2" data-name="Layer 2"><g id="Layer_1-2" data-name="Layer 1"><polygon class="cls-1" points="92.4 0 92.4 0 92.4 0 0 33.3 14 156.1 92.4 200 92.4 200 92.4 200 171.3 156.1 185.6 33.3 92.4 0"/><polygon class="cls-2" points="92.4 0 92.4 22.2 92.4 22.2 92.4 123.2 92.4 123.2 92.4 200 92.4 200 171.3 156.1 185.6 33.3 92.4 0"/><polygon class="cls-3" points="107.5 150 100.3 148.2 125.7 50 132.9 51.8 107.5 150"/><polygon class="cls-3" points="81.5 150 74.3 148.2 99.7 50 106.8 51.8 81.5 150"/><circle class="cls-4" cx="65.5" cy="82.8" r="7.1"/><circle class="cls-5" cx="65.5" cy="113.1" r="7.1"/></g></g></svg>