<svg xmlns="http://www.w3.org/2000/svg" viewBox="0 0 186 200"><defs><style>.cls-1{fill:#4caf50;}.cls-2{fill:#388e3c;}.cls-3{fill:#fff;}</style></defs><title>i18n</title><g id="Layer_2" data-name="Layer 2"><g id="Layer_1-2" data-name="Layer 1"><polygon class="cls-1" points="92.8 0 92.8 0 92.8 0 0 33.3 14 156.1 92.8 200 92.8 200 92.8 200 171.7 156.1 186 33.3 92.8 0"/><polygon class="cls-2" points="92.8 0 92.8 22.2 92.8 22.2 92.8 123.2 92.8 123.2 92.8 200 92.8 200 171.7 156.1 186 33.3 92.8 0"/><path class="cls-3" d="M93,150a50,50,0,0,1-50-50A49.3,49.3,0,0,1,71.4,55.1,43.5,43.5,0,0,1,82,51.3,41.1,41.1,0,0,1,92.6,50c27.4,0,50,22.4,50.4,50a49.5,49.5,0,0,1-17.3,37.7,47.7,47.7,0,0,1-21.7,11A42.5,42.5,0,0,1,93,150Zm-.4-95.9a39,39,0,0,0-9.7,1.1,47.2,47.2,0,0,0-9.7,3.5A45.4,45.4,0,0,0,47.1,100,46,46,0,0,0,93,145.9a45.3,45.3,0,0,0,10.1-1.1A43.1,43.1,0,0,0,123,134.6,45.5,45.5,0,0,0,139,100C138.6,74.7,117.8,54.1,92.6,54.1Z"/><rect class="cls-3" x="90.9" y="54.1" width="3.9" height="91.78"/><path class="cls-3" d="M92.8,147.8c-16.3,0-29.7-21.5-29.7-48s13.4-48,29.7-48,29.7,21.5,29.7,48S109.2,147.8,92.8,147.8Zm0-92.1C78.6,55.7,67,75.5,67,99.8s11.6,44.1,25.8,44.1,25.8-19.8,25.8-44.1S107,55.7,92.8,55.7Z"/><rect class="cls-3" x="47.1" y="97.9" width="91.8" height="3.91"/><rect class="cls-3" x="53" y="76" width="80.5" height="3.91"/><rect class="cls-3" x="53" y="117.8" width="80.5" height="3.91"/></g></g></svg>