<svg xmlns="http://www.w3.org/2000/svg" viewBox="0 0 186 200"><defs><style>.cls-3{fill:#fff}</style></defs><g id="Layer_2" data-name="Layer 2"><g id="Layer_1-2" data-name="Layer 1"><path fill="#4caf50" d="M92.8 0L0 33.3l14 122.8L92.8 200l78.9-43.9L186 33.3 92.8 0z"/><path fill="#388e3c" d="M92.8 0v200l78.9-43.9L186 33.3 92.8 0z"/><path class="cls-3" d="M93 150a50 50 0 01-50-50 49.3 49.3 0 0128.4-44.9A43.5 43.5 0 0182 51.3 41.1 41.1 0 0192.6 50c27.4 0 50 22.4 50.4 50a49.5 49.5 0 01-17.3 37.7 47.7 47.7 0 01-21.7 11 42.5 42.5 0 01-11 1.3zm-.4-95.9a39 39 0 00-9.7 1.1 47.2 47.2 0 00-9.7 3.5A45.4 45.4 0 0047.1 100 46 46 0 0093 145.9a45.3 45.3 0 0010.1-1.1 43.1 43.1 0 0019.9-10.2 45.5 45.5 0 0016-34.6c-.4-25.3-21.2-45.9-46.4-45.9z"/><path class="cls-3" d="M90.9 54.1h3.9v91.78h-3.9z"/><path class="cls-3" d="M92.8 147.8c-16.3 0-29.7-21.5-29.7-48s13.4-48 29.7-48 29.7 21.5 29.7 48-13.3 48-29.7 48zm0-92.1C78.6 55.7 67 75.5 67 99.8s11.6 44.1 25.8 44.1 25.8-19.8 25.8-44.1S107 55.7 92.8 55.7z"/><path class="cls-3" d="M47.1 97.9h91.8v3.91H47.1zM53 76h80.5v3.91H53zm0 41.8h80.5v3.91H53z"/></g></g></svg>