<svg xmlns="http://www.w3.org/2000/svg" viewBox="0 0 186 200"><defs><style>.cls-3,.cls-4{fill:#fff}.cls-4{opacity:.5;isolation:isolate}</style></defs><g id="Layer_2" data-name="Layer 2"><g id="Layer_1-2" data-name="Layer 1"><path fill="#3dbeae" d="M92.8 0L0 33.3l14 122.8L92.8 200l78.9-43.9L186 33.3 92.8 0z"/><path fill="#349b8b" d="M92.8 0v200l78.9-43.9L186 33.3 92.8 0z"/><path class="cls-3" d="M76.6 59.9h23.1v22.3l15.8-22.3h24.6l-40.2 59.3v20.7h-7.5L76.6 84.2V59.9z"/><path class="cls-4" d="M143 139.9l-28.6-42.1-12.6 18.6 16.4 23.5H143z"/><path class="cls-3" d="M39 84.2l12.3 44.2 18.3-32.8-11.9 10.7L39 84.2z"/><path class="cls-4" d="M80.7 139.1L69.6 95.6l-18.3 32.8 11.5-11.1 17.9 21.8z"/></g></g></svg>