<svg xmlns="http://www.w3.org/2000/svg" viewBox="0 0 186 200"><defs><style>.cls-1{fill:#3dbeae;}.cls-2{fill:#349b8b;}.cls-3,.cls-4{fill:#fff;}.cls-4{opacity:0.5;isolation:isolate;}</style></defs><title>karma</title><g id="Layer_2" data-name="Layer 2"><g id="Layer_1-2" data-name="Layer 1"><polygon class="cls-1" points="92.8 0 92.8 0 92.8 0 0 33.3 14 156.1 92.8 200 92.8 200 92.8 200 171.7 156.1 186 33.3 92.8 0"/><polygon class="cls-2" points="92.8 0 92.8 22.2 92.8 22.2 92.8 123.2 92.8 123.2 92.8 200 92.8 200 171.7 156.1 186 33.3 92.8 0"/><polygon class="cls-3" points="76.6 59.9 99.7 59.9 99.7 82.2 115.5 59.9 140.1 59.9 99.9 119.2 99.9 139.9 92.4 139.9 76.6 84.2 76.6 59.9"/><polygon class="cls-4" points="143 139.9 114.4 97.8 101.8 116.4 118.2 139.9 143 139.9"/><polygon class="cls-3" points="39 84.2 51.3 128.4 69.6 95.6 57.7 106.3 39 84.2"/><polygon class="cls-4" points="80.7 139.1 69.6 95.6 51.3 128.4 62.8 117.3 80.7 139.1"/></g></g></svg>