<svg xmlns="http://www.w3.org/2000/svg" viewBox="0 0 179.2 192.7"><defs><style>.cls-1{fill:#1de9b6;}.cls-2{fill:#00bfa5;}.cls-3{fill:#bbf8e9;}.cls-4{fill:#fff;}</style></defs><title>labs</title><g id="Layer_2" data-name="Layer 2"><g id="Layer_1-2" data-name="Layer 1"><polygon class="cls-1" points="89.4 0 89.4 0 89.4 0 0 32 13.5 150.4 89.4 192.7 89.4 192.7 89.4 192.7 165.4 150.4 179.2 32 89.4 0"/><polygon class="cls-2" points="89.4 0 89.4 21.4 89.4 21.4 89.4 118.7 89.4 118.7 89.4 192.7 89.4 192.7 165.4 150.4 179.2 32 89.4 0"/><path class="cls-3" d="M124.1,75.8l-37-11.5a2.8,2.8,0,0,0-3.5,1.9l-.2.5a2.9,2.9,0,0,0,1.9,3.5l7.1,2.2L85.2,95.5a30.4,30.4,0,0,0,1.7,60.7A30.7,30.7,0,0,0,98,153.8h0l1.5-.7a30.5,30.5,0,0,0,4.8-51.5l7.2-23.3,10.7,3.4a3,3,0,0,0,3.6-1.9v-.5A2.7,2.7,0,0,0,124.1,75.8Z"/><ellipse class="cls-4" cx="90.4" cy="44.1" rx="7.8" ry="7.9"/><ellipse class="cls-4" cx="126.8" cy="60.3" rx="3.8" ry="3.8"/><ellipse class="cls-4" cx="51.5" cy="73.9" rx="4.9" ry="4.9"/><path class="cls-4" d="M111.3,134.2a26.3,26.3,0,1,1-50.2-15.6"/></g></g></svg>