<svg xmlns="http://www.w3.org/2000/svg" viewBox="0 0 179.2 192.7"><defs><style>.cls-4{fill:#fff}</style></defs><g id="Layer_2" data-name="Layer 2"><g id="Layer_1-2" data-name="Layer 1"><path fill="#1de9b6" d="M89.4 0L0 32l13.5 118.4 75.9 42.3 76-42.3L179.2 32 89.4 0z"/><path fill="#00bfa5" d="M89.4 0v192.7l76-42.3L179.2 32 89.4 0z"/><path d="M124.1 75.8l-37-11.5a2.8 2.8 0 00-3.5 1.9l-.2.5a2.9 2.9 0 001.9 3.5l7.1 2.2-7.2 23.1a30.4 30.4 0 001.7 60.7 30.7 30.7 0 0011.1-2.4l1.5-.7a30.5 30.5 0 004.8-51.5l7.2-23.3 10.7 3.4a3 3 0 003.6-1.9v-.5a2.7 2.7 0 00-1.7-3.5z" fill="#bbf8e9"/><ellipse class="cls-4" cx="90.4" cy="44.1" rx="7.8" ry="7.9"/><circle class="cls-4" cx="126.8" cy="60.3" r="3.8"/><circle class="cls-4" cx="51.5" cy="73.9" r="4.9"/><path class="cls-4" d="M111.3 134.2a26.3 26.3 0 11-50.2-15.6"/></g></g></svg>