<svg xmlns="http://www.w3.org/2000/svg" viewBox="0 0 200 200"><g data-name="Layer 2"><g data-name="Layer 1"><path d="M0 100a100 100 0 00100 100V0A100 100 0 000 100z" fill="#546e7a"/><path d="M100 0v200a100 100 0 000-200z" fill="#455a64"/><path d="M120 93.7a24.4 24.4 0 0010.1 2.1 24.9 24.9 0 10-20.3-10.6l-10 10.1-9.8-9.8a24.5 24.5 0 004.7-14.6 24.7 24.7 0 10-15 22.9l10.8 10.8-42.8 42.9 3.7 3.8a7.9 7.9 0 0011.2 0L99.8 114l37.6 37.7a7.9 7.9 0 0011.2 0l3.7-3.8-43.2-43.3zm-10.2-22.8a20.4 20.4 0 1120.3 20.4 20.8 20.8 0 01-6.6-1.1 20.5 20.5 0 01-13.7-19.3zM76.2 90.3a18.9 18.9 0 01-6.3 1 20.4 20.4 0 1120.3-20.4 20.6 20.6 0 01-3.4 11.3 20.3 20.3 0 01-10.6 8.1z" fill="#fff"/></g></g></svg>