<svg xmlns="http://www.w3.org/2000/svg" viewBox="0 0 200 200"><defs><style>.cls-1{fill:#546e7a;}.cls-2{fill:#455a64;}.cls-3{fill:#fff;}</style></defs><title>lazy-loading</title><g id="Layer_2" data-name="Layer 2"><g id="Layer_1-2" data-name="Layer 1"><path class="cls-1" d="M0,100A100,100,0,0,0,100,200V0A100,100,0,0,0,0,100Z"/><path class="cls-2" d="M100,0V200A100,100,0,0,0,100,0Z"/><path class="cls-3" d="M120,93.7a24.4,24.4,0,0,0,10.1,2.1,24.9,24.9,0,1,0-20.3-10.6l-10,10.1-9.8-9.8a24.5,24.5,0,0,0,4.7-14.6,24.7,24.7,0,1,0-15,22.9l10.8,10.8L47.7,147.5l3.7,3.8a7.9,7.9,0,0,0,11.2,0L99.8,114l37.6,37.7a7.9,7.9,0,0,0,11.2,0l3.7-3.8-43.2-43.3ZM109.8,70.9a20.4,20.4,0,1,1,20.3,20.4,20.8,20.8,0,0,1-6.6-1.1,20.5,20.5,0,0,1-13.7-19.3ZM76.2,90.3a18.9,18.9,0,0,1-6.3,1,20.4,20.4,0,1,1,20.3-20.4,20.6,20.6,0,0,1-3.4,11.3A20.3,20.3,0,0,1,76.2,90.3Z"/></g></g></svg>