<svg xmlns="http://www.w3.org/2000/svg" viewBox="0 0 200 200"><defs><style>.cls-3,.cls-4{fill:#fff}.cls-4{opacity:.5}</style></defs><g id="Layer_2" data-name="Layer 2"><g id="Layer_1-2" data-name="Layer 1"><path d="M0 100a100 100 0 00100 100V0A100 100 0 000 100z" fill="#546e7a"/><path d="M100 0v200a100 100 0 000-200z" fill="#455a64"/><path class="cls-3" d="M25 63.3v75h33.3v-75zm25 60H33.3V120H50zM50 90H33.3v-3.4H50zm0-8.4H33.3v-3.3H50z"/><path class="cls-4" d="M33.3 77.9H50v4H33.3zm0 8.7H50v3.34H33.3zm0 33.4H50v3.34H33.3z"/><path class="cls-3" d="M65 63.3v75h33.3v-75zm25 60H73.3V120H90zM90 90H73.3v-3.4H90zm0-8.4H73.3v-3.3H90z"/><path class="cls-4" d="M73.3 78.3H90v3.34H73.3zm0 8.3H90v3.34H73.3zm0 33.4H90v3.34H73.3z"/><path class="cls-3" d="M98.3 85.3l53.1 53 23.6-23.6-53.1-53zm60.2 24.7l-11.8 11.8-2.3-2.3 11.8-11.8zm-23.6-23.6l-11.8 11.8-2.3-2.3 11.8-11.8zm-5.9-5.9l-11.8 11.8-2.3-2.3 11.8-11.8z"/><path class="cls-4" transform="rotate(-45 121.93 85.295)" d="M113.6 83.6h16.7v3.34h-16.7z"/><path class="cls-4" transform="rotate(-45 127.852 91.142)" d="M119.5 89.5h16.7v3.34h-16.7z"/><path class="cls-4" transform="rotate(-45 151.44 114.772)" d="M143.1 113.1h16.7v3.34h-16.7z"/></g></g></svg>