<svg xmlns="http://www.w3.org/2000/svg" viewBox="0 0 200 200"><defs><style>.cls-4{fill:#fff}</style></defs><g id="Layer_2" data-name="Layer 2"><g id="Layer_1-2" data-name="Layer 1"><path d="M0 100a100 100 0 00100 100V0A100 100 0 000 100z" fill="#546e7a"/><path d="M100 0v200a100 100 0 000-200z" fill="#455a64"/><circle cx="100" cy="100" r="50" fill="#bbc5ca"/><circle class="cls-4" cx="100" cy="100" r="8.33"/><path class="cls-4" transform="rotate(-45 112.503 87.5)" d="M94.82 85.42h35.36v4.17H94.82z"/><path d="M100 59.09A41 41 0 0059.09 100h81.82A41 41 0 00100 59.09zm0 81.82A41 41 0 00140.91 100H59.09A41 41 0 00100 140.91z" fill="none"/><path class="cls-4" d="M100 50a50 50 0 00-50 50h9.09a40.91 40.91 0 0181.82 0H150a50 50 0 00-50-50z"/></g></g></svg>