<svg xmlns="http://www.w3.org/2000/svg" viewBox="0 0 186 200"><defs><style>.cls-1{fill:#e13439;}.cls-2{fill:#b52f32;}.cls-3{fill:#fff;}</style></defs><title>protractor</title><g id="Layer_2" data-name="Layer 2"><g id="Layer_1-2" data-name="Layer 1"><polygon class="cls-1" points="92.8 0 92.8 0 92.8 0 0 33.3 14 156.1 92.8 200 92.8 200 92.8 200 171.7 156.1 186 33.3 92.8 0"/><polygon class="cls-2" points="92.8 0 92.8 22.2 92.8 22.2 92.8 123.2 92.8 123.2 92.8 200 92.8 200 171.7 156.1 186 33.3 92.8 0"/><path class="cls-3" d="M145.3,117.1v-3.6H158a64.9,64.9,0,0,0-18-43.1L130.4,80l-2.5-2.5,9.5-9.6A64.3,64.3,0,0,0,95.3,50.4V63H91.7V50.3A65,65,0,0,0,48.6,67.9l9.6,9.6L55.6,80,46,70.4a64.8,64.8,0,0,0-17.9,43.1H40.7v3.6H28v14.8H158V117.1Zm-93.5-2.2a41.3,41.3,0,1,1,82.5,0Z"/></g></g></svg>