<svg xmlns="http://www.w3.org/2000/svg" viewBox="0 0 186 200"><g data-name="Layer 2"><g data-name="Layer 1"><path fill="#e13439" d="M92.8 0L0 33.3l14 122.8L92.8 200l78.9-43.9L186 33.3 92.8 0z"/><path fill="#b52f32" d="M92.8 0v200l78.9-43.9L186 33.3 92.8 0z"/><path d="M145.3 117.1v-3.6H158a64.9 64.9 0 00-18-43.1l-9.6 9.6-2.5-2.5 9.5-9.6a64.3 64.3 0 00-42.1-17.5V63h-3.6V50.3a65 65 0 00-43.1 17.6l9.6 9.6-2.6 2.5-9.6-9.6a64.8 64.8 0 00-17.9 43.1h12.6v3.6H28v14.8h130v-14.8zm-93.5-2.2a41.3 41.3 0 1182.5 0z" fill="#fff"/></g></g></svg>