<svg xmlns="http://www.w3.org/2000/svg" viewBox="0 0 186 200"><defs><style>.cls-1{fill:#9c27b0;}.cls-2{fill:#7b1fa2;}.cls-3,.cls-4{fill:#fff;}.cls-4{opacity:0.8;}</style></defs><title>pwa</title><g id="Layer_2" data-name="Layer 2"><g id="Layer_1-2" data-name="Layer 1"><polygon class="cls-1" points="92.8 0 92.8 0 92.8 0 0 33.3 14 156.1 92.8 200 92.8 200 92.8 200 171.7 156.1 186 33.3 92.8 0"/><polygon class="cls-2" points="92.8 0 92.8 22.2 92.8 22.2 92.8 123.2 92.8 123.2 92.8 200 92.8 200 171.7 156.1 186 33.3 92.8 0"/><path class="cls-3" d="M123.2,115.4l3.7-9.3h10.7L132.5,92l6.4-16L157,124H143.6l-3.1-8.6Z"/><path class="cls-4" d="M111.8,124l19.4-48H118.4l-13.3,31L95.6,76H85.7L75.6,107,68.4,92.9l-6.5,19.9L68.5,124H81.2l9.1-27.8L99.1,124Z"/><path class="cls-3" d="M41.2,107.5h8a21.2,21.2,0,0,0,6.4-.8l2.1-6.3,5.7-17.6a9,9,0,0,0-1.5-1.9C58.9,77.6,54.6,76,49,76H29v48H41.2ZM51.7,87a6.3,6.3,0,0,1,1.8,4.7A6.7,6.7,0,0,1,52,96.3c-1.2,1.3-3.2,1.9-6.2,1.9H41.2V85.3h4.7C48.6,85.3,50.6,85.9,51.7,87Z"/></g></g></svg>