<svg xmlns="http://www.w3.org/2000/svg" viewBox="0 0 186 200"><defs><style>.cls-3{fill:#fff}</style></defs><g id="Layer_2" data-name="Layer 2"><g id="Layer_1-2" data-name="Layer 1"><path fill="#9c27b0" d="M92.8 0L0 33.3l14 122.8L92.8 200l78.9-43.9L186 33.3 92.8 0z"/><path fill="#7b1fa2" d="M92.8 0v200l78.9-43.9L186 33.3 92.8 0z"/><path class="cls-3" d="M123.2 115.4l3.7-9.3h10.7L132.5 92l6.4-16 18.1 48h-13.4l-3.1-8.6z"/><path d="M111.8 124l19.4-48h-12.8l-13.3 31-9.5-31h-9.9l-10.1 31-7.2-14.1-6.5 19.9 6.6 11.2h12.7l9.1-27.8 8.8 27.8z" opacity=".8" fill="#fff"/><path class="cls-3" d="M41.2 107.5h8a21.2 21.2 0 006.4-.8l2.1-6.3 5.7-17.6a9 9 0 00-1.5-1.9c-3-3.3-7.3-4.9-12.9-4.9H29v48h12.2zM51.7 87a6.3 6.3 0 011.8 4.7 6.7 6.7 0 01-1.5 4.6c-1.2 1.3-3.2 1.9-6.2 1.9h-4.6V85.3h4.7c2.7 0 4.7.6 5.8 1.7z"/></g></g></svg>