<svg xmlns="http://www.w3.org/2000/svg" viewBox="0 0 185.6 200"><defs><style>.cls-1{fill:#1565c0;}.cls-2{fill:#0d47a1;}.cls-3{fill:#fff;}.cls-4{fill:#86a3d0;}</style></defs><title>router</title><g id="Layer_2" data-name="Layer 2"><g id="Layer_1-2" data-name="Layer 1"><polygon class="cls-1" points="92.4 0 92.4 0 92.4 0 0 33.3 14 156.1 92.4 200 92.4 200 92.4 200 171.3 156.1 185.6 33.3 92.4 0"/><polygon class="cls-2" points="92.4 0 92.4 22.2 92.4 22.2 92.4 123.2 92.4 123.2 92.4 200 92.4 200 171.3 156.1 185.6 33.3 92.4 0"/><polygon class="cls-3" points="76.1 128.9 42.8 139.9 42.8 60.9 76.1 49.9 76.1 128.9"/><polygon class="cls-3" points="142.8 128.9 109.5 139.9 109.5 60.9 142.8 49.9 142.8 128.9"/><polygon class="cls-4" points="109.5 139.9 76.1 128.9 76.1 49.9 109.5 60.9 109.5 139.9"/></g></g></svg>