<svg xmlns="http://www.w3.org/2000/svg" viewBox="0 0 186 200"><defs><style>.cls-4{fill:#80d6e0}</style></defs><g id="Layer_2" data-name="Layer 2"><g id="Layer_1-2" data-name="Layer 1"><path fill="#00acc1" d="M92.8 0L0 33.3l14 122.8L92.8 200l78.9-43.9L186 33.3 92.8 0z"/><path fill="#00838f" d="M92.8 0v200l78.9-43.9L186 33.3 92.8 0z"/><path d="M121 40H65a12 12 0 00-12 12v96a12 12 0 0012 12h56a12 12 0 0012-12V52a12 12 0 00-12-12zM93 150a10 10 0 1110-10 10 10 0 01-10 10zm30-44a4 4 0 01-4 4H67a4 4 0 01-4-4V94a4 4 0 014-4h52a4 4 0 014 4zm0-30a4 4 0 01-4 4H67a4 4 0 01-4-4V64a4 4 0 014-4h52a4 4 0 014 4z" fill="#fff"/><rect class="cls-4" x="63" y="60" width="60" height="20" rx="4" ry="4"/><rect class="cls-4" x="63" y="90" width="60" height="20" rx="4" ry="4"/><circle class="cls-4" cx="93" cy="140" r="10"/></g></g></svg>