<svg viewBox="0 0 600 445" xmlns="http://www.w3.org/2000/svg" fill-rule="evenodd" clip-rule="evenodd" stroke-linecap="round" stroke-linejoin="round" stroke-miterlimit="1.5"><path fill="#fff" stroke="#0159d3" stroke-width="3.81" d="M11.864 16.952h575.424v114.429H11.864z"/><text x="208.488" y="67.96" font-family="'ArialMT','Arial',sans-serif" font-size="30.514">NullInjector()</text><g font-family="'ArialMT','Arial',sans-serif" font-size="24"><text x="286.27" y="212" transform="matrix(.84746 0 0 .84762 -81.356 -80.524)">always throws an error unless</text><text x="334.768" y="236.785" transform="matrix(.84746 0 0 .84762 -81.356 -80.524)">you use @Optional()</text></g><path d="M286.822 144.941h-7.161l11.017-11.017 11.017 11.017h-7.161v38.992h-7.712v-38.992zm0 152.571h-7.161l11.017-11.017 11.017 11.017h-7.161v38.993h-7.712v-38.993z" fill="#0159d3" stroke="#0159d3" stroke-width="3.81"/><path fill="#fff" stroke="#0159d3" stroke-width="3.81" d="M11.864 168.913h575.424v114.429H11.864z"/><text x="215.313" y="211.956" font-family="'ArialMT','Arial',sans-serif" font-size="25.429">ModuleInjector</text><g font-family="'ArialMT','Arial',sans-serif" font-size="24"><text x="215.592" y="385" transform="matrix(.84746 0 0 .84762 -24.576 -79.676)">(conﬁgured by PlatformModule)</text><text x="74.879" y="409.785" transform="matrix(.84746 0 0 .84762 -24.576 -79.676)">has special things like DomSanitizer =&gt; platformBrowser()</text></g><path fill="#fff" stroke="#0159d3" stroke-width="3.81" d="M10.599 320.428h577.966v113.581H10.599z"/><g font-size="30"><text x="280.144" y="115" font-family="Courier" transform="matrix(.84746 0 0 .84762 -59.316 262.743)">root</text><text x="370.158" y="115" font-family="'ArialMT','Arial',sans-serif" transform="matrix(.84746 0 0 .84762 -59.316 262.743)">ModuleInjector</text></g><g font-family="'ArialMT','Arial',sans-serif" font-size="24"><text x="165.889" y="559" transform="matrix(.84746 0 0 .84762 15.56 -82.219)">(conﬁgured by <tspan x="324.209px 338.014px 351.361px" y="559px 559px 559px">You</tspan>rAppModule)</text><text x="5.57" y="583.785" transform="matrix(.84746 0 0 .84762 15.56 -82.219)">has things for your app =&gt; bootstrapModule(Y<tspan x="498.332px 511.68px" y="583.785px 583.785px">ou</tspan>rAppModule)</text></g></svg>