<?xml version="1.0" encoding="UTF-8" standalone="no"?><!DOCTYPE svg PUBLIC "-//W3C//DTD SVG 1.1//EN" "http://www.w3.org/Graphics/SVG/1.1/DTD/svg11.dtd"><svg width="100%" height="100%" viewBox="0 0 600 445" version="1.1" xmlns="http://www.w3.org/2000/svg" xmlns:xlink="http://www.w3.org/1999/xlink" xml:space="preserve" xmlns:serif="http://www.serif.com/" style="fill-rule:evenodd;clip-rule:evenodd;stroke-linecap:round;stroke-linejoin:round;stroke-miterlimit:1.5;"><g id="NullInjector"><rect x="11.864" y="16.952" width="575.424" height="114.429" style="fill:#fff;stroke:#0159d3;stroke-width:3.81px;"/><text x="208.488px" y="67.96px" style="font-family:'ArialMT', 'Arial', sans-serif;font-size:30.514px;">NullInjector()</text><g transform="matrix(0.847458,0,0,0.847619,-81.3559,-80.5238)"><text x="286.27px" y="212px" style="font-family:'ArialMT', 'Arial', sans-serif;font-size:24px;">always throws an error unless</text><text x="334.768px" y="236.785px" style="font-family:'ArialMT', 'Arial', sans-serif;font-size:24px;">you use @Optional()</text></g></g><path d="M286.822,144.941l-7.161,0l11.017,-11.017l11.017,11.017l-7.161,0l0,38.992l-7.712,0l0,-38.992Z" style="fill:#0159d3;stroke:#0159d3;stroke-width:3.81px;"/><path d="M286.822,297.512l-7.161,0l11.017,-11.017l11.017,11.017l-7.161,0l0,38.993l-7.712,0l0,-38.993Z" style="fill:#0159d3;stroke:#0159d3;stroke-width:3.81px;"/><g id="Moduleinjector"><rect x="11.864" y="168.913" width="575.424" height="114.429" style="fill:#fff;stroke:#0159d3;stroke-width:3.81px;"/><text x="215.313px" y="211.956px" style="font-family:'ArialMT', 'Arial', sans-serif;font-size:25.429px;">ModuleInjector</text><g transform="matrix(0.847458,0,0,0.847619,-24.5763,-79.6762)"><text x="215.592px" y="385px" style="font-family:'ArialMT', 'Arial', sans-serif;font-size:24px;">(conﬁgured by PlatformModule)</text><text x="74.879px" y="409.785px" style="font-family:'ArialMT', 'Arial', sans-serif;font-size:24px;">has special things like DomSanitizer =&gt; platformBrowser()</text></g></g><g id="root"><rect x="10.599" y="320.428" width="577.966" height="113.581" style="fill:#fff;stroke:#0159d3;stroke-width:3.81px;"/><g transform="matrix(0.847458,0,0,0.847619,-59.3163,262.743)"><text x="280.144px" y="115px" style="font-family:'Courier';font-size:30px;">root</text><text x="370.158px" y="115px" style="font-family:'ArialMT', 'Arial', sans-serif;font-size:30px;">ModuleInjector</text></g><g transform="matrix(0.847458,0,0,0.847619,15.5593,-82.219)"><text x="165.889px" y="559px" style="font-family:'ArialMT', 'Arial', sans-serif;font-size:24px;">(conﬁgured by <tspan x="324.209px 338.014px 351.361px " y="559px 559px 559px ">You</tspan>rAppModule)</text><text x="5.57px" y="583.785px" style="font-family:'ArialMT', 'Arial', sans-serif;font-size:24px;">has things for your app  =&gt; bootstrapModule(Y<tspan x="498.332px 511.68px " y="583.785px 583.785px ">ou</tspan>rAppModule)</text></g></g></svg>