<?xml version="1.0" encoding="UTF-8" standalone="no"?>
<!-- Created with Inkscape (http://www.inkscape.org/) -->

<svg
   xmlns:dc="http://purl.org/dc/elements/1.1/"
   xmlns:cc="http://creativecommons.org/ns#"
   xmlns:rdf="http://www.w3.org/1999/02/22-rdf-syntax-ns#"
   xmlns:svg="http://www.w3.org/2000/svg"
   xmlns="http://www.w3.org/2000/svg"
   xmlns:sodipodi="http://sodipodi.sourceforge.net/DTD/sodipodi-0.dtd"
   xmlns:inkscape="http://www.inkscape.org/namespaces/inkscape"
   width="210mm"
   height="297mm"
   id="svg2"
   version="1.1"
   inkscape:version="0.47 r22583"
   sodipodi:docname="Novo documento 1">
  <defs
     id="defs4">
    <inkscape:perspective
       sodipodi:type="inkscape:persp3d"
       inkscape:vp_x="0 : 526.18109 : 1"
       inkscape:vp_y="0 : 1000 : 0"
       inkscape:vp_z="744.09448 : 526.18109 : 1"
       inkscape:persp3d-origin="372.04724 : 350.78739 : 1"
       id="perspective10" />
    <inkscape:perspective
       sodipodi:type="inkscape:persp3d"
       inkscape:vp_x="0 : 526.18109 : 1"
       inkscape:vp_y="0 : 1000 : 0"
       inkscape:vp_z="744.09448 : 526.18109 : 1"
       inkscape:persp3d-origin="372.04724 : 350.78739 : 1"
       id="perspective2390" />
    <inkscape:perspective
       id="perspective10-4"
       inkscape:persp3d-origin="372.04724 : 350.78739 : 1"
       inkscape:vp_z="744.09448 : 526.18109 : 1"
       inkscape:vp_y="0 : 1000 : 0"
       inkscape:vp_x="0 : 526.18109 : 1"
       sodipodi:type="inkscape:persp3d" />
  </defs>
  <sodipodi:namedview
     id="base"
     pagecolor="#ffffff"
     bordercolor="#666666"
     borderopacity="1.0"
     inkscape:pageopacity="0.0"
     inkscape:pageshadow="2"
     inkscape:zoom="0.35"
     inkscape:cx="230"
     inkscape:cy="577.14286"
     inkscape:document-units="px"
     inkscape:current-layer="layer1"
     showgrid="false"
     inkscape:window-width="1131"
     inkscape:window-height="885"
     inkscape:window-x="22"
     inkscape:window-y="22"
     inkscape:window-maximized="0" />
  <metadata
     id="metadata7">
    <rdf:RDF>
      <cc:Work
         rdf:about="">
        <dc:format>image/svg+xml</dc:format>
        <dc:type
           rdf:resource="http://purl.org/dc/dcmitype/StillImage" />
        <dc:title></dc:title>
      </cc:Work>
    </rdf:RDF>
  </metadata>
  <g
     inkscape:label="Camada 1"
     inkscape:groupmode="layer"
     id="layer1">
    <g
       inkscape:export-ydpi="121"
       inkscape:export-xdpi="121"
       id="g3165"
       transform="translate(759.0225,-8.5714414)">
      <path
         id="path2446"
         d="m -417.40283,71.922736 c 0,0 9.64286,-15 46.78571,-14.285714 37.14286,0.714285 46.07143,32.85714 46.07143,32.85714 l -2.14285,30.714288 -1.78572,9.28571 c 0,0 9.28572,-3.57143 11.42857,2.14286 2.14286,5.71429 -3.57143,15.71429 -3.57143,15.71429 l -21.07142,22.14285 -29.28572,36.07143 -18.57143,-1.07143 -28.21428,-43.57143 c 0,0 -10.35715,-40.35714 -10,-42.14285 0.35714,-1.78572 8.92857,-47.857144 10.35714,-47.857144 z"
         style="fill:#ffffff;fill-opacity:1;fill-rule:evenodd;stroke:none" />
      <g
         id="g2437">
        <path
           style="fill:#000000;fill-rule:evenodd;stroke:#000000;stroke-width:1px;stroke-linecap:butt;stroke-linejoin:miter;stroke-opacity:1"
           d="m -331.83511,167.46855 c 0,0 -4.04061,-3.53553 -1.01015,-5.05076 3.03046,-1.51523 15.40483,-17.42513 15.40483,-25.00128 0,-7.57614 -6.31346,-4.29314 -13.63706,2.52539 -7.32361,6.81853 -9.09138,8.58629 -9.09138,13.38452 0,4.79822 0.75762,9.59645 -4.04061,15.15229 -4.79822,5.55583 -8.33375,6.06091 -8.83883,7.3236 -0.50508,1.26269 -2.02031,3.78807 -3.283,3.78807 -1.26269,0 -2.0203,-11.86929 -3.78807,-14.39467 -1.76777,-2.52538 -8.33376,-3.03046 -10.6066,-2.02031 -2.27284,1.01016 -6.81853,-1.01015 -7.32361,-3.03045 -0.50507,-2.02031 10.60661,-8.08122 10.60661,-10.35407 0,-2.27284 -6.31346,-8.33376 -5.55584,-10.6066 0.75761,-2.27284 -0.25254,-21.46574 -0.25254,-21.46574 l -0.50508,-12.37437 3.03046,0.25254 c 0,0 -1.76777,-3.78807 -4.54569,-3.78807 -2.77792,0 -4.29315,-5.555841 -9.59645,-7.828691 -5.3033,-2.27284 -4.04061,-10.859135 -6.31345,-12.626902 -2.27284,-1.767767 -19.1929,-13.889597 -21.97082,-12.879445 -2.77792,1.010153 -11.11168,11.869293 -13.38452,20.960667 -2.27284,9.09137 -3.28299,16.414981 -3.28299,16.414981 l -7.82869,5.55584 c 0,0 -2.27284,1.51523 -3.78807,0 -1.51523,-1.51523 -10.35406,-4.04061 -12.87944,-2.02031 -2.52539,2.02031 3.53553,12.12183 5.55584,14.89975 2.0203,2.77792 7.3236,14.14214 7.3236,15.65737 0,1.51522 0.75762,4.54568 -1.01015,6.56599 -1.76777,2.0203 -15.15229,19.44543 -15.15229,19.44543 0,0 -23.99112,11.61676 -34.09265,15.65737 -10.10152,4.04061 -18.94036,7.82868 -18.94036,7.82868 0,0 -16.92005,-0.25254 -20.20305,1.76777 -3.28299,2.0203 -15.9099,17.42513 -17.67767,36.87057 -1.76777,19.44543 0.75762,69.70052 0.75762,69.70052 0,0 -7.07107,40.4061 -7.57615,50.76017 -0.50507,10.35406 2.77792,19.69797 2.77792,19.69797 0,0 -4.79822,14.14214 -4.79822,17.42513 0,3.283 2.0203,21.46574 1.01015,30.30458 -1.01015,8.83883 -12.62691,50.00255 -12.62691,50.00255 l -10.10152,35.60788 c 0,0 -2.77792,25.25381 -6.81853,32.32488 -4.04061,7.07107 -13.13199,16.41498 -16.66752,22.22335 -3.53553,5.80838 -5.55584,15.65737 -5.55584,15.65737 l 5.55584,-5.05076 -0.50508,15.40482 7.57615,-1.51523 4.29315,30.30458 c 0,0 1.01015,7.57614 3.53553,12.12183 2.52538,4.54569 6.81853,9.09137 6.81853,9.09137 l -3.53553,-41.66879 c 0,0 -3.283,-19.95051 -2.02031,-22.22335 1.26269,-2.27285 6.81853,-4.04061 8.08122,-1.01016 1.26269,3.03046 11.36422,16.41498 19.95051,22.98097 8.5863,6.56599 13.13199,6.81853 18.43529,7.07107 5.3033,0.25254 9.34391,-2.27284 9.34391,-2.27284 0,0 -9.84899,-0.50508 -10.6066,-1.51523 -0.75762,-1.01015 -26.26397,-29.04189 -27.52666,-30.55712 -1.26269,-1.51522 -5.3033,-9.34391 -1.51523,-14.14213 3.78807,-4.79823 11.11168,-11.36422 11.11168,-11.36422 0,0 20.45559,-5.80837 25.25381,-6.81853 4.79823,-1.01015 12.37437,-5.3033 15.15229,-5.3033 2.77792,0 11.11168,2.02031 11.11168,2.02031 l -25.75889,102.0254 -20.20305,80.30713 -12.37437,42.42641 19.69797,3.53553 23.48605,12.12183 -5.05076,36.11296 -21.71828,154.3008 -4.79823,31.5673 98.74242,-21.46578 0,-8.33375 10.6066,-93.94419 12.12183,-63.38707 26.76904,-91.16627 2.27284,3.28299 -1.01015,37.62819 3.283,44.44671 -5.55584,54.2957 -3.283,50.76016 -2.52538,51.01271 1.01015,6.81853 93.94419,-20.45559 -1.51523,-9.34391 -0.50508,-24.74874 10.60661,-40.15356 3.03045,-18.94036 1.01016,-31.0622 4.79822,-2.27284 17.42513,-6.31345 45.45687,-26.26397 22.72843,-25.50635 -3.78807,-29.54696 c 0,0 -3.283,-21.71828 -3.283,-26.51651 0,-4.79822 -8.83883,-52.52793 -11.11168,-71.97336 -2.27284,-19.44544 -13.63706,-85.10536 -13.63706,-85.10536 l -21.46574,-101.52033 2.77792,0.75762 15.40483,23.48604 c 0,0 6.81853,9.09138 13.8896,14.39468 7.07106,5.3033 22.47589,6.81853 22.47589,6.81853 0,0 15.9099,3.03045 16.41498,4.29315 0.50508,1.26269 3.78807,9.59644 -6.81853,20.96066 -10.6066,11.36422 -13.63706,15.40483 -20.70813,18.68782 -7.07107,3.283 -19.44543,4.29315 -19.44543,4.29315 0,0 0.25253,5.05076 13.63706,3.283 13.38452,-1.76777 31.8198,-9.09138 39.39594,-23.73859 7.57615,-14.64721 7.32361,-26.5165 10.85914,-26.76904 3.53554,-0.25254 10.10153,10.6066 7.57615,21.97082 -2.52538,11.36421 -9.84899,19.44543 -9.84899,19.44543 0,0 -6.81853,7.07107 -13.8896,9.59645 -7.07106,2.52538 -13.13198,3.03046 -13.13198,3.03046 l 1.26269,1.01015 c 0,0 31.56727,-3.03045 38.89087,-15.15229 7.32361,-12.12183 11.11168,-22.47589 11.36422,-29.04188 0.25254,-6.56599 1.01015,-12.12183 1.01015,-12.12183 l 1.76777,-2.27284 c 0,0 4.29315,9.34391 4.04061,19.44543 -0.25254,10.10153 -7.07107,16.66752 -7.07107,16.66752 l 2.02031,0.75761 c 0,0 13.13198,-10.6066 13.63706,-22.98097 0.50507,-12.37437 0.75761,-26.26396 -7.07107,-33.08249 -7.82868,-6.81853 -14.89975,-12.87945 -14.89975,-12.87945 0,0 -11.36422,-11.86929 -14.39467,-11.86929 -3.03046,0 -17.42514,6.81853 -19.69798,5.80838 -2.27284,-1.01016 -20.45559,-31.31473 -23.23351,-40.15357 -2.77792,-8.83883 -7.57614,-31.06219 -7.57614,-31.06219 l -3.283,-11.61675 -13.13198,-30.55712 -1.01015,-13.13198 c 0,0 0.25253,-13.63706 -1.26269,-16.16244 -1.51523,-2.52538 -13.63706,-4.04061 -13.8896,-6.31345 -0.25254,-2.27285 8.58629,-20.96067 10.35406,-23.23351 1.76777,-2.27285 4.29315,-15.90991 3.283,-20.45559 -1.01015,-4.54569 -5.05077,-11.86929 -6.81853,-11.86929 -1.76777,0 -8.83884,3.03045 -11.36422,-0.25254 -2.52538,-3.283 -30.05204,-33.0825 -37.37564,-40.65864 -7.32361,-7.57615 -10.6066,-8.08122 -10.6066,-8.08122 l -2.02031,-6.31346 -15.15229,-17.42513 z"
           id="path2429" />
        <path
           style="fill:#000000;fill-rule:evenodd;stroke:#000000;stroke-width:1px;stroke-linecap:butt;stroke-linejoin:miter;stroke-opacity:1"
           d="m -329.05719,105.84925 c 0,0 -10.6066,1.01015 -12.6269,0.25254 -2.02031,-0.75762 -9.09138,-2.52539 -13.8896,-2.27285 -4.79823,0.25254 -8.33376,2.27285 -8.33376,2.27285 l -4.04061,0 3.53553,4.04061 -2.0203,5.3033 0,11.86929 4.79822,7.07107 7.82868,6.31345 3.03046,-4.79822 2.77792,-2.77792 6.56599,0.75761 1.01016,-4.29315 0,-8.33376 4.29314,-7.3236 6.81853,-2.52538 0.25254,-5.55584 z"
           id="path2431" />
        <path
           style="fill:#ffffff;fill-rule:evenodd;stroke:#000000;stroke-width:1px;stroke-linecap:butt;stroke-linejoin:miter;stroke-opacity:1"
           d="m -357.84654,122.26423 c 0,0 1.76777,4.29314 3.53554,5.3033 1.76777,1.01015 6.31345,2.0203 6.31345,0.50507 0,-1.51523 -3.03046,-7.3236 -3.03046,-7.3236 l -6.81853,1.51523 z"
           id="path2433" />
        <path
           style="fill:#ffffff;fill-rule:evenodd;stroke:#000000;stroke-width:1px;stroke-linecap:butt;stroke-linejoin:miter;stroke-opacity:1"
           d="m -521.23871,494.00036 -0.50508,6.81853 c 0,0 4.79823,0 6.31346,5.05077 1.51523,5.05076 -3.78807,8.83883 1.51523,8.58629 5.3033,-0.25254 7.3236,2.27285 8.83883,-5.05076 1.51523,-7.32361 15.9099,-64.9023 15.9099,-64.9023 l 16.16244,-56.31601 -3.78807,-8.08122 -5.55584,-4.54568 -3.78807,0 -5.05076,11.61675 -5.55584,25.25382 -7.82868,32.32488 -8.33376,15.9099 -8.33376,33.33503 z"
           id="path2435" />
        <path
           style="fill:#ffffff;fill-rule:evenodd;stroke:#000000;stroke-width:1px;stroke-linecap:butt;stroke-linejoin:miter;stroke-opacity:1"
           d="m -365.92776,183.37846 c 0,0 -12.12183,0 -13.63706,4.29314 -1.51522,4.29315 3.03046,8.08122 5.05077,8.08122 2.0203,0 14.89975,-5.80837 15.15229,-11.61675 0.25253,-5.80838 -6.06092,-11.11168 -7.32361,-11.61675 -1.26269,-0.50508 -8.08122,0.75761 -8.08122,0.75761 l -1.01015,1.26269 c 0,0 5.55584,3.283 9.84898,8.83884 z"
           id="path2427" />
      </g>
    </g>
  </g>
</svg>
