<?xml version="1.0" encoding="utf-8"?>
<!-- Generator: Adobe Illustrator 19.1.0, SVG Export Plug-In . SVG Version: 6.00 Build 0)  -->
<svg version="1.1" id="Layer_1" xmlns="http://www.w3.org/2000/svg" xmlns:xlink="http://www.w3.org/1999/xlink" x="0px" y="0px"
	 viewBox="0 0 250 250" style="enable-background:new 0 0 250 250;" xml:space="preserve">
<g>
	<polygon points="108,135.4 125,135.4 125,135.4 125,135.4 142,135.4 125,94.5 	"/>
	<path d="M125,30L125,30L125,30L31.9,63.2l14.2,123.1L125,230l0,0l0,0l78.9-43.7l14.2-123.1L125,30z M183.1,182.6h-21.7h0
		l-11.7-29.2H125h0h0h-24.7l-11.7,29.2h0H66.9h0L125,52.1l0,0l0,0l0,0l0,0L183.1,182.6L183.1,182.6z"/>
</g>
</svg>
