<?xml version="1.0" encoding="UTF-8" standalone="no"?>
<svg width="184px" height="200px" viewBox="0 0 184 200" version="1.1" xmlns="http://www.w3.org/2000/svg" xmlns:xlink="http://www.w3.org/1999/xlink" xmlns:sketch="http://www.bohemiancoding.com/sketch/ns">
    <!-- Generator: Sketch 3.2.2 (9983) - http://www.bohemiancoding.com/sketch -->
    <title>shield-large</title>
    <desc>Created with Sketch.</desc>
    <defs></defs>
    <g id="Page-1" stroke="none" stroke-width="1" fill="none" fill-rule="evenodd" sketch:type="MSPage">
        <g id="shield-large" sketch:type="MSArtboardGroup">
            <g id="Imported-Layers" sketch:type="MSLayerGroup" transform="translate(8.000000, 11.000000)">
                <path d="M83.2,1.03249275 L83.2,1.02860145 L0.3068,30.4481594 L12.8986,139.673181 L82.9998,178.450029 L154.0981,139.150449 L167.9587,29.9267246 L83.2,1.03249275" id="Fill-1" fill="#E23237" sketch:type="MSShapeGroup"></path>
                <path d="M167.8378,29.9267246 L82.9712,1.03249275 L82.9712,178.450029 L154.0838,139.150449 L167.8378,29.9267246 L167.8378,29.9267246 Z" id="Fill-2" fill="#B52E31" sketch:type="MSShapeGroup"></path>
                <path d="M0.1924,30.4481594 L12.8414,139.673181 L82.9712,178.450029 L82.9712,1.02860145 L0.1924,30.4481594 L0.1924,30.4481594 Z" id="Fill-3" fill="#E23237" sketch:type="MSShapeGroup"></path>
                <path d="M100.6837,94.2266377 L82.9712,57.7054493 L67.7261,94.2266377 L100.6837,94.2266377 L100.6837,94.2266377 Z M107.367,109.583022 L60.905,109.583022 L50.5115,135.523754 L31.1779,135.879159 L82.9712,20.8106957 L136.6664,135.879159 L118.7459,135.879159 L107.367,109.583022 L107.367,109.583022 Z" id="Fill-4" fill="#FFFFFF" sketch:type="MSShapeGroup"></path>
            </g>
        </g>
    </g>
</svg>