<svg viewBox="0 0 600 125" xmlns="http://www.w3.org/2000/svg" fill-rule="evenodd" clip-rule="evenodd" stroke-linecap="round" stroke-linejoin="round" stroke-miterlimit="1.5"><g font-family="'ArialMT','Arial',sans-serif" font-size="64"><text x="374" y="472" transform="matrix(.46948 0 0 .46992 -158.685 -184.211)">&lt;button</text><text x="607.094" y="472" fill="#df002d" transform="matrix(.46948 0 0 .46992 -158.685 -184.211)">(click)</text><text x="774.156" y="472" transform="matrix(.46948 0 0 .46992 -158.685 -184.211)">=&quot;</text><text x="834.25" y="472" fill="#0022be" transform="matrix(.46948 0 0 .46992 -158.685 -184.211)">onSave()</text><text x="1093.94" y="472" transform="matrix(.46948 0 0 .46992 -158.685 -184.211)">&quot;&gt;Save&lt;/button&gt;</text></g><path d="M142.827 95.824l-6.663-3.032 17.828-39.26-6.187-2.815 13.842-5.191 5.195 13.852-6.187-2.815-17.828 39.261z" fill="#df002d"/><path d="M337.08 93.548l-6.915 2.399-13.342-38.531-6.422 2.228 6.458-13.308 13.3 6.453-6.421 2.228 13.342 38.531z" fill="#3345cc"/><path fill="#fff" stroke="#000" stroke-width=".7" d="M23.005 76.128h197.653v31.485H23.005z"/><text x="31.989" y="98.214" font-family="'ArialMT','Arial',sans-serif" font-size="22.556" fill="#df002d">target even<tspan x="144.743" y="98.214">t</tspan> name</text><path fill="#fff" stroke="#000" stroke-width=".7" d="M275.117 76.128h228.169v31.955H275.117z"/><text x="293.078" y="98.214" font-family="'ArialMT','Arial',sans-serif" font-size="22.556" fill="#3345cc">template st<tspan x="403.3" y="98.214">a</tspan>tement</text></svg>