<?xml version="1.0" encoding="UTF-8" standalone="no"?><!DOCTYPE svg PUBLIC "-//W3C//DTD SVG 1.1//EN" "http://www.w3.org/Graphics/SVG/1.1/DTD/svg11.dtd"><svg width="100%" height="100%" viewBox="0 0 600 125" version="1.1" xmlns="http://www.w3.org/2000/svg" xmlns:xlink="http://www.w3.org/1999/xlink" xml:space="preserve" xmlns:serif="http://www.serif.com/" style="fill-rule:evenodd;clip-rule:evenodd;stroke-linecap:round;stroke-linejoin:round;stroke-miterlimit:1.5;"><g transform="matrix(0.469484,0,0,0.469925,-158.685,-184.211)"><text x="374px" y="472px" style="font-family:'ArialMT', 'Arial', sans-serif;font-size:64px;">&lt;button</text><text x="607.094px" y="472px" style="font-family:'ArialMT', 'Arial', sans-serif;font-size:64px;fill:#df002d;">(click)</text><text x="774.156px" y="472px" style="font-family:'ArialMT', 'Arial', sans-serif;font-size:64px;">=&quot;</text><text x="834.25px" y="472px" style="font-family:'ArialMT', 'Arial', sans-serif;font-size:64px;fill:#0022be;">onSave()</text><text x="1093.94px" y="472px" style="font-family:'ArialMT', 'Arial', sans-serif;font-size:64px;">&quot;&gt;Save&lt;/button&gt;</text></g><path d="M142.827,95.824l-6.663,-3.032l17.828,-39.26l-6.187,-2.815l13.842,-5.191l5.195,13.852l-6.187,-2.815l-17.828,39.261Z" style="fill:#df002d;"/><path d="M337.08,93.548l-6.915,2.399l-13.342,-38.531l-6.422,2.228l6.458,-13.308l13.3,6.453l-6.421,2.228l13.342,38.531Z" style="fill:#3345cc;"/><g><rect x="23.005" y="76.128" width="197.653" height="31.485" style="fill:#fff;stroke:#000;stroke-width:0.7px;"/><text x="31.989px" y="98.214px" style="font-family:'ArialMT', 'Arial', sans-serif;font-size:22.556px;fill:#df002d;">target even<tspan x="144.743px " y="98.214px ">t</tspan> name</text></g><g><rect x="275.117" y="76.128" width="228.169" height="31.955" style="fill:#fff;stroke:#000;stroke-width:0.7px;"/><text x="293.078px" y="98.214px" style="font-family:'ArialMT', 'Arial', sans-serif;font-size:22.556px;fill:#3345cc;">template st<tspan x="403.3px " y="98.214px ">a</tspan>tement</text></g></svg>